<?xml version="1.0" standalone="no"?>
<!DOCTYPE svg PUBLIC "-//W3C//DTD SVG 1.1//EN" "http://www.w3.org/Graphics/SVG/1.1/DTD/svg11.dtd" >
<svg>
<metadata>
Created by FontForge 20110222 at Sun Sep 28 02:36:35 2014
 By Orthosie Webhosting
Copyright (c) ParaGraph Intl., 1990-1995. All Rights Reserved. ITC Franklin Gothic is a registered trade mark of International Typeface Corporation.
</metadata>
<defs>
<font id="FranklinGothicBookC" horiz-adv-x="600" >
  <font-face 
    font-family="FranklinGothicBookC"
    font-weight="400"
    font-stretch="normal"
    units-per-em="1000"
    panose-1="4 0 5 0 0 0 0 0 0 0"
    ascent="808"
    descent="-192"
    x-height="510"
    cap-height="686"
    bbox="-64 -192 1041 899"
    underline-thickness="50"
    underline-position="-50"
    stemh="62"
    stemv="76"
    unicode-range="U+0020-2122"
  />
<missing-glyph horiz-adv-x="233" 
 />
    <glyph glyph-name=".notdef" horiz-adv-x="233" 
 />
    <glyph glyph-name="space" unicode=" " horiz-adv-x="233" 
 />
    <glyph glyph-name="space" unicode="&#xa0;" horiz-adv-x="233" 
 />
    <glyph glyph-name="exclam" unicode="!" horiz-adv-x="300" 
d="M199 107v-107h-106v107h106zM205 686l-36 -515h-46l-36 515h118z" />
    <glyph glyph-name="quotedbl" unicode="&#x22;" horiz-adv-x="361" 
d="M54 686h94l-27 -246h-40zM213 686h94l-27 -246h-40z" />
    <glyph glyph-name="numbersign" unicode="#" 
d="M370 0h-68l40 207h-132l-40 -207h-68l40 207h-106v63h118l29 159h-110v63h123l36 194h68l-36 -194h132l36 194h68l-36 -194h100v-63h-113l-29 -159h109v-63h-121zM354 270l29 159h-132l-29 -159h132z" />
    <glyph glyph-name="dollar" unicode="$" horiz-adv-x="583" 
d="M335 757v-83c81 -2 160 -44 194 -132l-68 -23c-19 59 -73 86 -126 89v-215c125 -21 210 -76 210 -188c0 -87 -65 -171 -209 -184v-96h-62v96c-94 6 -181 58 -215 158l68 26c22 -64 73 -115 147 -118v237c-98 21 -188 61 -188 171c0 93 71 174 188 179v83h61zM335 310
v-223c78 -1 130 51 130 108c0 82 -84 110 -130 115zM274 402v206c-70 -2 -114 -50 -114 -101c0 -54 44 -100 114 -105z" />
    <glyph glyph-name="percent" unicode="%" horiz-adv-x="726" 
d="M39 516c0 101 47 180 140 180s140 -79 140 -180s-47 -180 -140 -180s-140 79 -140 180zM257 516c0 101 -38 128 -78 128s-78 -27 -78 -128s38 -128 78 -128s78 27 78 128zM607 686l-415 -686h-73l415 686h73zM407 170c0 101 47 180 140 180s140 -79 140 -180
s-47 -180 -140 -180s-140 79 -140 180zM469 170c0 -101 38 -128 78 -128s78 27 78 128s-38 128 -78 128s-78 -27 -78 -128z" />
    <glyph glyph-name="ampersand" unicode="&#x26;" horiz-adv-x="691" 
d="M566 375l74 -15c-32 -141 -91 -213 -124 -249c27 -37 48 -39 80 -39c19 0 34 1 56 5v-72c-43 -4 -44 -7 -76 -7c-57 0 -76 26 -101 49l-12 11c-70 -61 -142 -68 -186 -68c-154 0 -231 104 -231 202c0 42 14 151 173 206l-14 20c-31 45 -57 88 -57 133
c0 69 48 145 165 145c127 0 181 -72 181 -145c0 -96 -78 -147 -168 -178l141 -211c27 30 77 96 99 213zM416 110l-160 233c-19 -5 -39 -14 -61 -30c-35 -26 -57 -60 -57 -110c0 -71 51 -139 152 -139c64 0 106 29 126 46zM294 424l20 11c27 15 56 26 76 53
c10 14 18 33 18 56c0 47 -39 78 -93 78c-47 0 -81 -28 -81 -73c0 -41 26 -73 47 -105z" />
    <glyph glyph-name="quotesingle" unicode="'" horiz-adv-x="300" 
d="M103 686h94l-27 -246h-40z" />
    <glyph glyph-name="parenleft" unicode="(" horiz-adv-x="278" 
d="M190 686h52c-109 -167 -126 -331 -126 -423c0 -94 17 -263 127 -434h-52c-122 150 -149 316 -149 430c0 125 39 284 148 427z" />
    <glyph glyph-name="parenright" unicode=")" horiz-adv-x="278" 
d="M36 686h52c109 -143 148 -302 148 -427c0 -114 -27 -280 -149 -430h-52c110 171 127 340 127 434c0 92 -17 256 -126 423z" />
    <glyph glyph-name="asterisk" unicode="*" horiz-adv-x="546" 
d="M244 686h58l-7 -172l147 92l31 -51l-153 -80l153 -80l-31 -51l-147 92l7 -171h-58l7 171l-147 -92l-31 51l153 80l-153 80l31 51l147 -92z" />
    <glyph glyph-name="plus" unicode="+" horiz-adv-x="643" 
d="M289 547h65v-226h226v-65h-226v-226h-65v226h-226v65h226v226z" />
    <glyph glyph-name="comma" unicode="," horiz-adv-x="258" 
d="M184 99v-86l-80 -134h-38l59 121h-41v99h100z" />
    <glyph glyph-name="hyphenminus" horiz-adv-x="313" 
d="M263 288v-62h-213v62h213z" />
    <glyph glyph-name="period" unicode="." horiz-adv-x="259" 
d="M74 113h111v-113h-111v113z" />
    <glyph glyph-name="slash" unicode="/" horiz-adv-x="521" 
d="M503 686l-414 -857h-68l414 857h68z" />
    <glyph glyph-name="zero" unicode="0" horiz-adv-x="596" 
d="M298 -10c-52 0 -137 18 -196 115c-9 14 -61 102 -61 235c0 64 12 161 59 237c42 68 105 119 198 119s156 -51 198 -119c47 -76 59 -173 59 -237c0 -133 -52 -221 -61 -235c-59 -97 -144 -115 -196 -115zM298 626c-42 0 -86 -24 -115 -60c-45 -57 -56 -151 -56 -220
c0 -103 20 -164 41 -203c11 -21 47 -83 130 -83s119 62 130 83c21 39 41 100 41 203c0 69 -11 163 -56 220c-29 36 -73 60 -115 60z" />
    <glyph glyph-name="one" unicode="1" 
d="M367 686v-612h189v-74h-480v74h205v508c-81 -85 -152 -126 -189 -146v85c120 60 181 128 210 165h65z" />
    <glyph glyph-name="two" unicode="2" 
d="M138 471l-80 24c8 42 26 81 50 112c49 63 118 89 198 89c48 0 105 -5 161 -48c62 -47 77 -108 77 -157c0 -56 -21 -144 -150 -243l-227 -174h378v-74h-487v71l277 218c69 54 123 118 123 197c0 32 -11 71 -48 101c-27 22 -64 35 -108 35c-59 0 -106 -29 -134 -68
c-14 -20 -27 -48 -30 -83z" />
    <glyph glyph-name="three" unicode="3" 
d="M142 518l-80 22c29 69 77 104 97 117c30 19 78 39 147 39c53 0 106 -13 147 -40c71 -47 78 -115 78 -144c0 -79 -60 -135 -132 -152c102 -13 159 -87 159 -168c0 -66 -36 -119 -78 -150c-56 -42 -136 -52 -186 -52c-81 0 -135 31 -150 39c-67 39 -92 93 -104 127l80 27
c9 -35 26 -63 61 -87c38 -26 74 -34 118 -34c24 0 85 3 125 31c20 14 48 44 48 96c0 55 -35 87 -60 102c-17 10 -55 29 -137 29h-66v70h66c51 0 85 5 110 18c9 5 62 33 62 95c0 27 -8 63 -45 90c-27 19 -63 29 -100 29c-33 0 -69 -9 -98 -29c-26 -18 -48 -45 -62 -75z" />
    <glyph glyph-name="four" unicode="4" 
d="M458 686v-456h112v-70h-112v-160h-86v160h-338v57l314 469h110zM372 230v389l-251 -389h251z" />
    <glyph glyph-name="five" unicode="5" 
d="M507 686l-7 -74h-337l-15 -221c65 66 131 74 165 74c54 0 114 -17 161 -58c62 -53 78 -124 78 -175c0 -48 -12 -112 -70 -169c-40 -39 -101 -73 -194 -73c-86 0 -141 35 -175 65c-23 21 -49 53 -65 97l74 25c5 -16 15 -37 39 -61c35 -35 75 -52 131 -52
c57 0 101 17 134 57c23 28 40 65 40 107s-14 86 -48 118c-26 25 -66 45 -113 45c-58 0 -120 -29 -159 -88l-68 14l23 369h406z" />
    <glyph glyph-name="six" unicode="6" 
d="M541 544l-72 -21c-22 54 -69 99 -149 99c-45 0 -111 -15 -155 -102c-43 -85 -40 -191 -39 -210c37 82 117 138 210 138c126 0 224 -99 224 -224c0 -134 -112 -234 -248 -234c-50 0 -147 14 -210 107c-36 53 -62 129 -62 228c0 23 0 148 56 243c69 118 170 128 222 128
c165 0 211 -116 223 -152zM149 211c0 -41 20 -85 50 -110c29 -24 75 -37 113 -37c91 0 162 67 162 155c0 86 -67 155 -154 155c-90 0 -171 -71 -171 -163z" />
    <glyph glyph-name="seven" unicode="7" 
d="M531 686v-52c-79 -94 -139 -199 -172 -277c-50 -117 -74 -230 -72 -357h-88c1 127 28 272 109 419c41 74 95 146 133 193h-372l9 74h453z" />
    <glyph glyph-name="eight" unicode="8" 
d="M198 356c-70 25 -129 86 -129 163s66 177 238 177c132 0 228 -66 228 -170c0 -89 -67 -139 -133 -158c90 -36 163 -88 163 -184c0 -98 -83 -194 -259 -194c-180 0 -271 94 -271 186c0 102 96 159 163 180zM276 405l23 -7c114 24 152 73 152 118c0 54 -39 110 -152 110
c-111 0 -146 -60 -146 -105c0 -31 17 -84 123 -116zM321 313l-28 9c-37 -8 -76 -23 -105 -40c-59 -35 -67 -79 -67 -99c0 -46 33 -123 177 -123c141 0 181 70 181 117c0 76 -88 113 -158 136z" />
    <glyph glyph-name="nine" unicode="9" 
d="M65 128l69 25c19 -37 61 -89 146 -89c65 0 112 27 147 84c42 68 46 139 47 228c-37 -82 -117 -138 -210 -138c-126 0 -224 99 -224 223c0 138 113 235 250 235c119 0 182 -64 208 -102c43 -62 62 -161 62 -233c0 -86 -19 -180 -56 -243c-69 -118 -170 -128 -222 -128
c-155 0 -203 102 -217 138zM284 622c-46 0 -81 -17 -107 -40c-35 -31 -51 -74 -51 -115c0 -38 16 -79 41 -107c30 -33 73 -48 113 -48c72 0 171 52 171 163c0 94 -73 147 -167 147z" />
    <glyph glyph-name="colon" unicode=":" horiz-adv-x="258" 
d="M184 113v-113h-110v113h110zM184 508v-113h-110v113h110z" />
    <glyph glyph-name="semicolon" unicode=";" horiz-adv-x="258" 
d="M184 115v-103l-75 -141h-43l60 129h-52v115h110zM184 508v-113h-110v113h110z" />
    <glyph glyph-name="less" unicode="&#x3c;" 
d="M149 288l395 -162v-62l-489 207v34l489 207v-62z" />
    <glyph glyph-name="equal" unicode="=" horiz-adv-x="643" 
d="M63 353v65h517v-65h-517zM63 159v65h517v-65h-517z" />
    <glyph glyph-name="greater" unicode="&#x3e;" 
d="M447 288l-391 162v62l489 -207v-34l-489 -207v62z" />
    <glyph glyph-name="question" unicode="?" horiz-adv-x="522" 
d="M96 478l-75 16c16 127 108 202 235 202c162 0 224 -106 224 -193c0 -91 -58 -143 -127 -180c-82 -44 -83 -57 -83 -102v-51h-72v43c0 57 -1 107 65 144l44 25c40 23 85 57 85 120c0 25 -8 51 -23 71c-23 31 -65 52 -119 52c-65 0 -104 -31 -127 -69
c-14 -23 -24 -51 -27 -78zM285 98v-98h-102v98h102z" />
    <glyph glyph-name="at" unicode="@" horiz-adv-x="808" 
d="M554 80l23 -56c-23 -10 -75 -34 -183 -34c-92 0 -164 27 -220 68c-62 46 -132 127 -132 267c0 131 59 219 114 271c76 71 167 100 270 100c134 0 217 -52 264 -101c45 -47 76 -114 76 -192c0 -68 -22 -136 -58 -178c-32 -36 -87 -72 -150 -72c-64 0 -90 28 -99 57
c-22 -26 -60 -57 -116 -57c-32 0 -65 14 -87 35c-25 24 -40 66 -40 110c0 49 23 131 97 186c37 27 73 37 103 37c62 0 91 -31 104 -69l18 56h66l-78 -242c-2 -7 -5 -14 -5 -21c0 -22 9 -41 40 -41c40 0 77 21 101 52c28 36 40 87 40 131c0 55 -18 104 -43 139
c-44 61 -137 110 -254 110c-91 0 -164 -38 -210 -84c-75 -76 -83 -171 -83 -223c0 -68 12 -147 84 -211c37 -33 100 -68 199 -68c84 0 136 20 159 30zM425 466c-22 0 -57 -5 -90 -41c-30 -33 -49 -90 -49 -134c0 -21 4 -42 21 -62c16 -18 33 -25 51 -25c39 0 62 23 78 44
c36 47 56 114 56 154c0 35 -27 64 -67 64z" />
    <glyph glyph-name="A" unicode="A" horiz-adv-x="560" 
d="M333 686l223 -686h-94l-64 199h-246l-62 -199h-78l222 686h99zM377 269l-102 325l-103 -325h205z" />
    <glyph glyph-name="B" unicode="B" horiz-adv-x="629" 
d="M88 686h262c36 0 99 0 149 -35c30 -21 64 -61 64 -130c0 -67 -30 -104 -53 -123c-17 -14 -43 -26 -66 -33v-2c32 -6 59 -20 78 -36c35 -28 64 -75 64 -141c0 -68 -34 -117 -66 -142c-53 -43 -118 -44 -169 -44h-263v686zM174 612v-218h144c39 0 86 2 122 32
c31 26 37 58 37 82c0 38 -14 63 -40 81c-32 21 -69 23 -105 23h-158zM174 324v-250h171c23 0 72 2 106 28c11 8 43 37 43 95c0 41 -16 70 -34 88c-38 39 -88 39 -127 39h-159z" />
    <glyph glyph-name="C" unicode="C" horiz-adv-x="604" 
d="M576 477l-81 -15c-5 25 -16 59 -36 89c-33 50 -75 71 -132 71s-113 -20 -153 -91c-33 -57 -38 -132 -38 -181c0 -59 8 -126 32 -177c26 -55 74 -109 159 -109c50 0 83 17 114 51c13 15 45 54 57 116l78 -17c-11 -57 -38 -112 -77 -153c-59 -62 -117 -71 -168 -71
c-62 0 -152 12 -222 118c-43 66 -65 157 -65 246c0 150 57 227 78 251c71 83 161 91 207 91c55 0 114 -10 169 -61c39 -37 70 -93 78 -158z" />
    <glyph glyph-name="D" unicode="D" horiz-adv-x="668" 
d="M88 686h227c58 0 149 -10 226 -97c27 -30 83 -107 83 -243c0 -66 -14 -141 -44 -199c-69 -134 -186 -147 -260 -147h-232v686zM174 74h120c48 0 133 5 189 87c41 60 49 139 49 188c0 84 -26 151 -62 193c-54 63 -120 70 -169 70h-127v-538z" />
    <glyph glyph-name="E" unicode="E" horiz-adv-x="567" 
d="M88 686h434v-74h-348v-218h276v-70h-276v-250h358v-74h-444v686z" />
    <glyph glyph-name="F" unicode="F" horiz-adv-x="526" 
d="M508 686v-74h-334v-218h277v-70h-277v-324h-86v686h420z" />
    <glyph glyph-name="G" unicode="G" horiz-adv-x="670" 
d="M596 346v-351h-53l-23 85c-11 -16 -29 -39 -64 -59c-43 -24 -88 -31 -131 -31c-44 0 -134 8 -206 99c-54 68 -75 165 -75 247c0 76 21 172 65 237c31 45 104 123 238 123c83 0 140 -33 174 -65c33 -32 59 -79 68 -132l-81 -20c-5 31 -18 55 -28 70c-26 37 -72 73 -145 73
c-86 0 -135 -53 -159 -95c-35 -61 -40 -150 -40 -191c0 -99 29 -154 41 -175c29 -49 81 -97 166 -97c35 0 80 9 120 50s47 86 47 122v38h-173v72h259z" />
    <glyph glyph-name="H" unicode="H" horiz-adv-x="668" 
d="M580 686v-686h-86v328h-320v-328h-86v686h86v-288h320v288h86z" />
    <glyph glyph-name="I" unicode="I" horiz-adv-x="262" 
d="M174 686v-686h-86v686h86z" />
    <glyph glyph-name="J" unicode="J" horiz-adv-x="387" 
d="M306 686v-462c0 -64 -4 -117 -42 -165c-37 -47 -92 -69 -164 -69c-49 0 -85 10 -100 14v74c32 -11 64 -14 88 -14c37 0 73 10 96 31c36 33 36 76 36 117v474h86z" />
    <glyph glyph-name="K" unicode="K" horiz-adv-x="637" 
d="M174 686v-397h2l305 397h95l-185 -240l239 -446h-95l-204 378l-157 -195v-183h-86v686h86z" />
    <glyph glyph-name="L" unicode="L" horiz-adv-x="510" 
d="M174 686v-612h322v-74h-408v686h86z" />
    <glyph glyph-name="M" unicode="M" horiz-adv-x="840" 
d="M214 686l206 -549h2l204 549h126v-686h-86v599h-2l-220 -599h-58l-225 599h-1v-599h-72v686h126z" />
    <glyph glyph-name="N" unicode="N" horiz-adv-x="680" 
d="M196 686l326 -559h2c-3 17 -4 42 -4 55v504h72v-686h-84l-335 575l-15 23h-2c3 -21 4 -41 4 -62v-536h-72v686h108z" />
    <glyph glyph-name="O" unicode="O" horiz-adv-x="652" 
d="M326 696c35 0 115 -5 184 -72c58 -57 98 -153 98 -281s-40 -224 -98 -281c-69 -67 -149 -72 -184 -72s-115 5 -184 72c-58 57 -98 153 -98 281s40 224 98 281c69 67 149 72 184 72zM326 622c-63 0 -106 -33 -133 -68c-16 -21 -57 -83 -57 -211s41 -190 57 -211
c27 -35 70 -68 133 -68s106 33 133 68c16 21 57 83 57 211s-41 190 -57 211c-27 35 -70 68 -133 68z" />
    <glyph glyph-name="P" unicode="P" horiz-adv-x="585" 
d="M88 686h227c55 0 120 -5 172 -44c34 -26 73 -73 73 -156c0 -87 -44 -136 -64 -154c-60 -55 -131 -54 -178 -54h-144v-278h-86v686zM174 352h134c31 0 82 0 120 34c23 21 40 57 40 102c0 51 -24 80 -40 93c-33 27 -80 31 -112 31h-142v-260z" />
    <glyph glyph-name="Q" unicode="Q" horiz-adv-x="652" 
d="M563 -78v-72c-24 -8 -51 -13 -79 -13c-114 0 -162 76 -160 153h-18c-53 2 -118 27 -164 71c-56 54 -98 153 -98 282c0 127 40 224 98 281c69 67 149 72 184 72s115 -5 184 -72c58 -57 98 -153 98 -281s-40 -223 -98 -281c-43 -42 -88 -58 -116 -65c-3 -29 9 -51 22 -64
c21 -20 47 -22 67 -22c36 0 67 8 80 11zM326 622c-63 0 -106 -33 -133 -68c-16 -21 -57 -83 -57 -211s41 -190 57 -211c27 -35 70 -68 133 -68s106 33 133 68c16 21 57 83 57 211s-41 190 -57 211c-27 35 -70 68 -133 68z" />
    <glyph glyph-name="R" unicode="R" horiz-adv-x="637" 
d="M88 686h259c44 0 105 -3 154 -38c46 -33 75 -90 75 -154c0 -77 -41 -152 -129 -181l137 -313h-92l-127 295h-191v-295h-86v686zM174 612v-243h175c57 0 93 26 112 51c16 22 23 50 23 75c0 42 -19 74 -41 91c-31 25 -68 26 -96 26h-173z" />
    <glyph glyph-name="S" unicode="S" horiz-adv-x="601" 
d="M543 528l-78 -21c-9 30 -28 60 -52 79c-20 16 -57 36 -121 36c-29 0 -63 -4 -92 -22c-34 -21 -48 -55 -48 -89c0 -61 58 -85 123 -101l102 -25c46 -11 90 -25 126 -54c28 -23 63 -67 63 -135c0 -67 -33 -122 -76 -156c-58 -46 -126 -50 -172 -50c-51 0 -116 2 -181 46
c-22 15 -82 61 -107 149l77 17c5 -17 22 -63 68 -98s97 -40 135 -40c142 0 164 78 164 118c0 84 -82 107 -114 115l-114 28c-130 32 -180 96 -180 182c0 128 101 189 233 189c167 0 226 -92 244 -168z" />
    <glyph glyph-name="T" unicode="T" horiz-adv-x="496" 
d="M11 686h474v-74h-194v-612h-86v612h-194v74z" />
    <glyph glyph-name="U" unicode="U" horiz-adv-x="628" 
d="M77 686h86v-432c0 -41 1 -98 27 -136c27 -40 74 -54 133 -54c34 0 87 6 122 50c32 40 34 90 34 140v432h72v-434c0 -57 -2 -128 -50 -186c-34 -41 -91 -76 -187 -76c-74 0 -139 16 -183 66c-53 59 -54 136 -54 196v434z" />
    <glyph glyph-name="V" unicode="V" horiz-adv-x="553" 
d="M4 686h90l190 -566l189 566h76l-232 -686h-82z" />
    <glyph glyph-name="W" unicode="W" horiz-adv-x="846" 
d="M20 686h90l138 -556l147 556h70l157 -556l128 556h76l-167 -686h-86l-149 532l-141 -532h-86z" />
    <glyph glyph-name="X" unicode="X" horiz-adv-x="554" 
d="M38 686h96l149 -254l149 254h88l-193 -317l217 -369h-96l-172 292l-178 -292h-88l223 358z" />
    <glyph glyph-name="Y" unicode="Y" horiz-adv-x="522" 
d="M533 686l-229 -397v-289h-86v289l-229 397h100l182 -316l184 316h78z" />
    <glyph glyph-name="Z" unicode="Z" horiz-adv-x="538" 
d="M46 686h456v-57l-377 -555h388v-74h-484v72l371 540h-354v74z" />
    <glyph glyph-name="bracketleft" unicode="[" horiz-adv-x="279" 
d="M249 686v-54h-109v-749h109v-54h-179v857h179z" />
    <glyph glyph-name="backslash" unicode="\" horiz-adv-x="521" 
d="M87 686l414 -686h-68l-414 686h68z" />
    <glyph glyph-name="bracketright" unicode="]" horiz-adv-x="279" 
d="M30 686h179v-857h-179v54h109v749h-109v54z" />
    <glyph glyph-name="asciicircum" unicode="^" horiz-adv-x="599" 
d="M300 591l-136 -333h-60l173 428h46l173 -428h-60z" />
    <glyph glyph-name="underscore" unicode="_" horiz-adv-x="500" 
d="M500 -65v-62h-500v62h500z" />
    <glyph glyph-name="grave" unicode="`" horiz-adv-x="380" 
d="M103 738l201 -119l-20 -40l-215 94z" />
    <glyph glyph-name="a" unicode="a" horiz-adv-x="544" 
d="M127 369l-73 12c22 109 105 139 216 139c34 0 100 -1 145 -37c55 -44 56 -114 56 -180v-196c0 -28 3 -62 13 -107h-80c-6 37 -8 70 -9 95c-14 -29 -58 -105 -178 -105c-65 0 -106 22 -131 45c-22 20 -46 55 -46 108c0 69 39 109 69 129c62 42 142 43 220 43h66v21
c0 27 -2 61 -20 85c-26 35 -70 37 -106 37c-42 0 -130 -6 -142 -89zM395 253h-65c-80 0 -126 -10 -154 -25c-42 -22 -52 -59 -52 -85c0 -20 8 -49 37 -68c14 -10 38 -19 73 -19c50 0 94 24 121 57c26 32 40 79 40 115v25z" />
    <glyph glyph-name="b" unicode="b" horiz-adv-x="553" 
d="M157 686v-262c21 42 67 96 156 96c68 0 111 -30 137 -59c45 -50 63 -129 63 -203c0 -69 -17 -141 -55 -192c-41 -55 -94 -76 -152 -76c-73 0 -130 37 -159 96c-14 -39 -23 -63 -30 -86h-36v686h76zM157 312v-98c0 -94 59 -158 135 -158c29 0 73 12 102 60
c8 13 31 55 31 141c0 85 -21 126 -30 140c-21 34 -55 57 -105 57c-39 0 -69 -15 -92 -38c-36 -36 -41 -77 -41 -104z" />
    <glyph glyph-name="c" unicode="c" horiz-adv-x="482" 
d="M452 345l-72 -13c-4 28 -15 58 -28 77c-14 20 -43 45 -93 45c-44 0 -76 -21 -98 -57c-28 -45 -33 -103 -33 -144c0 -96 27 -138 33 -146c17 -25 47 -51 97 -51c38 0 66 13 89 42c18 23 29 54 33 83l72 -13c-7 -49 -29 -94 -58 -124c-36 -37 -83 -54 -138 -54
c-64 0 -110 23 -140 50c-50 46 -76 128 -76 214c0 68 15 130 53 183c35 48 86 83 168 83c56 0 103 -17 139 -58c29 -33 46 -80 52 -117z" />
    <glyph glyph-name="d" unicode="d" horiz-adv-x="553" 
d="M396 686h76v-686h-70v86h-2c-5 -14 -15 -32 -32 -49c-28 -28 -68 -47 -120 -47c-68 0 -117 29 -153 76c-28 37 -55 96 -55 185c0 95 27 167 68 210c35 37 81 59 141 59c40 0 76 -10 108 -35c16 -13 29 -28 39 -43v244zM396 207v107c0 36 -15 73 -36 97
c-20 23 -53 43 -98 43c-40 0 -76 -15 -103 -57c-22 -35 -31 -83 -31 -140c0 -73 15 -115 30 -141c22 -38 54 -60 100 -60c45 0 82 22 104 50c19 25 34 66 34 101z" />
    <glyph glyph-name="e" unicode="e" horiz-adv-x="533" 
d="M415 154l74 -15c-14 -44 -40 -81 -83 -111c-40 -27 -82 -38 -131 -38c-72 0 -129 24 -173 74c-45 51 -62 116 -62 187c0 136 76 269 237 269c190 0 221 -176 221 -258v-18h-370c-1 -34 5 -70 17 -99c25 -61 71 -89 133 -89c55 0 88 24 106 44c14 15 25 36 31 54zM132 306
h278c-1 31 -9 68 -24 93c-16 26 -48 59 -108 59c-50 0 -88 -24 -111 -52c-21 -27 -34 -64 -35 -100z" />
    <glyph glyph-name="f" unicode="f" horiz-adv-x="299" 
d="M324 689v-62c-29 6 -50 7 -65 7c-19 0 -45 -2 -63 -21c-19 -20 -22 -49 -22 -69v-34h120v-62h-120v-448h-76v448h-90v62h90v14c0 44 4 103 46 140c32 28 77 32 106 32c32 0 58 -4 74 -7z" />
    <glyph glyph-name="g" unicode="g" horiz-adv-x="507" 
d="M495 586v-62h-14c-6 0 -13 1 -19 1c-19 0 -36 -4 -49 -23c-7 -10 -13 -28 -16 -37c48 -48 49 -106 49 -125c0 -48 -22 -88 -49 -115c-32 -32 -79 -52 -132 -52c-13 0 -27 2 -40 4c-11 2 -23 5 -34 5c-14 0 -32 -3 -43 -11c-12 -9 -19 -22 -19 -36c0 -19 10 -44 67 -47
l106 -5c60 -3 98 -4 134 -18c54 -21 78 -67 78 -110c0 -38 -17 -87 -76 -117c-55 -28 -139 -30 -175 -30c-150 0 -236 46 -236 132c0 53 32 89 77 103c-13 7 -49 31 -49 80c0 37 21 77 70 91v2c-65 46 -66 114 -66 132c0 47 21 91 52 121c23 22 68 51 143 51
c51 0 87 -14 103 -21c4 40 26 71 65 83c19 6 31 6 49 6c6 0 12 0 18 -1zM254 235c99 0 110 86 110 113c0 16 -2 51 -30 79c-21 22 -49 31 -79 31c-16 0 -38 -2 -61 -15c-36 -21 -53 -60 -53 -96c0 -30 13 -65 33 -84c19 -18 50 -28 80 -28zM281 14l-122 6
c-26 -11 -54 -31 -54 -65c0 -33 24 -85 159 -85c22 0 78 3 110 13c51 16 62 48 62 65c0 60 -74 62 -155 66z" />
    <glyph glyph-name="h" unicode="h" horiz-adv-x="562" 
d="M157 686v-272c29 62 85 106 165 106c63 0 101 -25 120 -47c35 -39 39 -92 39 -138v-335h-76v316c0 38 0 77 -21 105c-11 15 -34 33 -76 33c-57 0 -92 -31 -110 -53c-32 -39 -41 -87 -41 -140v-261h-76v686h76z" />
    <glyph glyph-name="i" unicode="i" horiz-adv-x="238" 
d="M157 510v-510h-76v510h76zM161 686v-88h-84v88h84z" />
    <glyph glyph-name="j" unicode="j" horiz-adv-x="237" 
d="M156 510v-515c0 -50 -4 -118 -60 -151c-24 -14 -58 -19 -89 -19c-22 0 -48 3 -71 9v60c24 -5 41 -7 58 -7c18 0 53 1 72 30c9 14 14 34 14 74v519h76zM160 686v-88h-84v88h84z" />
    <glyph glyph-name="k" unicode="k" horiz-adv-x="510" 
d="M157 686v-439l235 263h84l-157 -178l178 -332h-84l-148 278l-108 -121v-157h-76v686h76z" />
    <glyph glyph-name="l" unicode="l" horiz-adv-x="238" 
d="M157 686v-686h-76v686h76z" />
    <glyph glyph-name="m" unicode="m" horiz-adv-x="844" 
d="M157 0h-76v508h69v-98h1c28 64 85 110 155 110c54 0 87 -23 107 -47c17 -20 29 -48 34 -73c12 31 31 58 51 77c34 32 71 43 113 43c34 0 78 -7 112 -46c38 -44 40 -104 40 -135v-339h-76v320c0 28 2 70 -20 101c-19 26 -46 33 -71 33c-30 0 -60 -8 -89 -36
c-43 -41 -47 -85 -47 -125v-293h-76v320c0 35 -2 72 -24 101c-20 26 -46 33 -75 33c-27 0 -53 -7 -78 -29c-47 -42 -50 -101 -50 -132v-293z" />
    <glyph glyph-name="n" unicode="n" horiz-adv-x="562" 
d="M157 0h-76v508h70v-94h2c30 65 90 106 169 106c63 0 100 -25 120 -47c35 -39 39 -92 39 -138v-335h-76v316c0 38 0 77 -21 105c-11 14 -34 33 -78 33c-37 0 -70 -14 -95 -37c-51 -47 -54 -113 -54 -148v-269z" />
    <glyph glyph-name="o" unicode="o" horiz-adv-x="540" 
d="M40 255c0 91 32 164 77 207c31 29 82 58 153 58s122 -29 153 -58c45 -43 77 -116 77 -207s-32 -164 -77 -207c-31 -29 -82 -58 -153 -58s-122 29 -153 58c-45 43 -77 116 -77 207zM270 56c39 0 71 14 93 36c47 47 49 133 49 163s-2 116 -49 163c-22 22 -54 36 -93 36
s-71 -14 -93 -36c-47 -47 -49 -133 -49 -163s2 -116 49 -163c22 -22 54 -36 93 -36z" />
    <glyph glyph-name="p" unicode="p" horiz-adv-x="549" 
d="M157 -166h-76v676h70v-96l1 1c20 48 68 105 152 105c63 0 109 -23 141 -59c44 -49 64 -130 64 -203c0 -68 -17 -142 -54 -192c-27 -37 -74 -76 -151 -76c-81 0 -123 43 -144 90h-3v-246zM157 309v-107c0 -26 4 -67 36 -103c28 -31 65 -43 97 -43c29 0 71 12 100 60
c24 39 31 95 31 141c0 85 -21 126 -30 140c-28 46 -69 57 -100 57c-36 0 -66 -13 -92 -40c-37 -40 -42 -81 -42 -105z" />
    <glyph glyph-name="q" unicode="q" horiz-adv-x="557" 
d="M472 -166h-76v252h-3c-6 -16 -16 -36 -40 -56c-35 -30 -72 -40 -114 -40c-58 0 -106 20 -146 76c-36 50 -53 120 -53 192c0 118 45 179 68 203c40 43 89 59 142 59c44 0 79 -10 109 -35c25 -21 40 -49 43 -55l30 80h44c-2 -15 -4 -46 -4 -61v-615zM396 227v72
c0 39 -14 77 -35 105c-28 37 -64 50 -99 50c-37 0 -73 -15 -100 -57c-28 -42 -34 -95 -34 -140c0 -20 2 -92 30 -141c25 -44 62 -60 99 -60c28 0 76 9 111 67c15 25 28 61 28 104z" />
    <glyph glyph-name="r" unicode="r" horiz-adv-x="340" 
d="M81 510h70v-121h2c9 39 31 77 57 99c22 19 54 33 90 33c10 0 19 0 29 -2v-74h-16c-29 -1 -78 -6 -119 -58c-29 -37 -37 -75 -37 -131v-256h-76v510z" />
    <glyph glyph-name="s" unicode="s" horiz-adv-x="489" 
d="M442 393l-72 -15c-16 47 -59 80 -124 80c-91 0 -107 -51 -107 -78c0 -57 64 -65 90 -70l69 -13c33 -6 88 -15 125 -49c19 -18 41 -51 41 -105c0 -42 -15 -79 -50 -109c-48 -41 -113 -44 -153 -44c-70 0 -113 13 -141 28c-34 18 -75 54 -90 117l76 15c7 -35 27 -55 36 -63
c10 -8 44 -35 115 -35c22 0 62 3 89 24c27 20 30 47 30 61c0 59 -55 70 -99 79l-77 15c-63 12 -149 43 -149 142c0 47 20 81 46 103c42 36 99 44 148 44c42 0 104 -5 151 -50c20 -19 37 -46 46 -77z" />
    <glyph glyph-name="t" unicode="t" horiz-adv-x="316" 
d="M170 646v-136h115v-62h-115v-301c0 -20 1 -51 24 -72c11 -10 30 -19 62 -19c18 0 39 3 57 6v-62c-23 -4 -48 -6 -73 -6c-32 0 -80 4 -112 36c-32 33 -34 80 -34 106v312h-89v62h89v128z" />
    <glyph glyph-name="u" unicode="u" horiz-adv-x="558" 
d="M477 510v-510h-70v101h-2c-28 -75 -91 -111 -157 -111c-60 0 -98 25 -120 50c-42 48 -47 117 -47 153v317h76v-317c0 -20 1 -75 26 -105c17 -21 48 -32 77 -32c73 0 141 61 141 183v271h76z" />
    <glyph glyph-name="v" unicode="v" horiz-adv-x="464" 
d="M451 510l-175 -510h-82l-181 510h88l139 -415h2l139 415h70z" />
    <glyph glyph-name="w" unicode="w" horiz-adv-x="691" 
d="M671 510l-151 -510h-64l-112 376l-1 1l-105 -377h-64l-154 510h84l105 -381h2l105 381h64l110 -381h2l109 381h70z" />
    <glyph glyph-name="x" unicode="x" horiz-adv-x="437" 
d="M20 510h92l107 -176l111 176h76l-148 -230l175 -280h-92l-128 206l-133 -206h-76l170 263z" />
    <glyph glyph-name="y" unicode="y" horiz-adv-x="427" 
d="M437 510l-201 -558c-11 -31 -25 -63 -54 -91c-27 -25 -56 -37 -95 -37c-20 0 -44 3 -64 10v59c21 -6 35 -7 55 -7c18 0 38 1 57 17s32 42 48 89l6 17l-179 501h88l132 -392l137 392h70z" />
    <glyph glyph-name="z" unicode="z" horiz-adv-x="437" 
d="M409 510v-43l-279 -405h279v-62h-374v61l270 387h-249v62h353z" />
    <glyph glyph-name="braceleft" unicode="{" horiz-adv-x="288" 
d="M280 696v-60h-24c-58 0 -55 -36 -55 -63v-162c0 -59 -26 -108 -73 -147v-1c49 -31 73 -88 73 -147v-162c0 -18 1 -64 52 -64h27v-60h-46c-82 0 -108 46 -108 115v155c0 110 -43 133 -73 133h-6v60h5c75 0 74 112 74 132v157c0 46 4 114 105 114h49z" />
    <glyph glyph-name="bar" unicode="|" horiz-adv-x="506" 
d="M283 686v-686h-60v686h60z" />
    <glyph glyph-name="braceright" unicode="}" horiz-adv-x="288" 
d="M8 696h55c98 0 99 -78 99 -114v-157c0 -20 -1 -132 74 -132h5v-60h-6c-30 0 -73 -23 -73 -133v-156c0 -53 -15 -114 -108 -114h-46v60h27c51 0 52 46 52 64v162c0 59 24 116 73 147v1c-47 39 -73 88 -73 147v162c0 23 3 63 -49 63h-30v60z" />
    <glyph glyph-name="asciitilde" unicode="~" horiz-adv-x="631" 
d="M109 217l-46 30c10 25 31 66 59 90c22 19 54 32 85 32c11 0 21 -2 32 -4c19 -4 38 -11 56 -19l28 -13c31 -14 61 -32 103 -32c23 0 40 6 57 20c14 12 29 32 38 50l47 -28c-12 -26 -35 -63 -59 -84c-26 -23 -59 -35 -89 -35c-24 0 -47 6 -69 15c-16 7 -32 14 -48 22
l-27 13c-19 9 -44 19 -72 19c-20 0 -38 -6 -56 -22c-13 -12 -29 -35 -39 -54z" />
    <glyph glyph-name="afii10051" unicode="&#x402;" horiz-adv-x="698" 
d="M11 686h476v-74h-205v-235c46 18 104 32 155 32c65 0 122 -17 167 -67c39 -43 54 -89 54 -146c0 -39 -3 -91 -42 -139c-42 -51 -99 -67 -166 -67c-36 0 -68 5 -98 14l19 70c22 -8 39 -10 69 -10c33 0 76 5 105 39c12 14 27 40 27 87c0 33 -6 66 -29 95
c-33 42 -82 50 -126 50c-51 0 -94 -10 -135 -30v-305h-86v612h-185v74z" />
    <glyph glyph-name="afii10052" unicode="&#x403;" horiz-adv-x="496" 
d="M88 686h408v-74h-322v-612h-86v686zM359 899l34 -65l-215 -94l-20 40z" />
    <glyph glyph-name="quotesinglbase" unicode="&#x201a;" horiz-adv-x="266" 
d="M192 99v-86l-80 -134h-38l59 121h-41v99h100z" />
    <glyph glyph-name="afii10100" unicode="&#x453;" horiz-adv-x="400" 
d="M81 510h308v-62h-232v-448h-76v510zM323 738l34 -65l-215 -94l-20 40z" />
    <glyph glyph-name="quotedblbase" unicode="&#x201e;" horiz-adv-x="418" 
d="M192 99v-86l-80 -134h-38l59 121h-41v99h100zM344 99v-86l-80 -134h-38l59 121h-41v99h100z" />
    <glyph glyph-name="ellipsis" unicode="&#x2026;" horiz-adv-x="924" 
d="M184 113v-113h-110v113h110zM517 113v-113h-110v113h110zM850 113v-113h-110v113h110z" />
    <glyph glyph-name="dagger" unicode="&#x2020;" horiz-adv-x="598" 
d="M299 674l58 12l-43 -215l212 37l-9 -45l9 -45l-212 25c20 -21 20 -21 43 -46c-29 -99 -43 -408 -43 -522v-46h-30v46c0 114 -14 423 -43 522c23 25 23 25 43 46l-212 -25l9 45l-9 45l212 -37l-43 215z" />
    <glyph glyph-name="daggerdbl" unicode="&#x2021;" horiz-adv-x="598" 
d="M299 670l50 16l-35 -189l212 37l-9 -47l9 -47l-212 29l22 -51l-22 -64l212 37l-9 -47l9 -47l-212 29c11 -10 22 -20 44 -38c-28 -100 -44 -289 -44 -426v-33h-30v33c0 137 -16 326 -44 426c22 18 33 28 44 38l-212 -29l9 47l-9 47l212 -37l-22 64l22 51l-212 -29l9 47
l-9 47l212 -37l-35 189z" />
    <glyph glyph-name="Accent" horiz-adv-x="380" 
d="M270 738l34 -65l-215 -94l-20 40z" />
    <glyph glyph-name="perthousand" unicode="&#x2030;" horiz-adv-x="1080" 
d="M179 696c93 0 140 -79 140 -180s-47 -180 -140 -180s-140 79 -140 180s47 180 140 180zM179 388c40 0 78 27 78 128s-38 128 -78 128s-78 -27 -78 -128s38 -128 78 -128zM607 686l-415 -686h-73l415 686h73zM407 170c0 101 47 180 140 180s140 -79 140 -180
s-47 -180 -140 -180s-140 79 -140 180zM469 170c0 -101 38 -128 78 -128s78 27 78 128s-38 128 -78 128s-78 -27 -78 -128zM761 170c0 101 47 180 140 180s140 -79 140 -180s-47 -180 -140 -180s-140 79 -140 180zM823 170c0 -101 38 -128 78 -128s78 27 78 128
s-38 128 -78 128s-78 -27 -78 -128z" />
    <glyph glyph-name="afii10058" unicode="&#x409;" horiz-adv-x="984" 
d="M155 686h399v-295h151c76 0 243 -7 243 -197c0 -58 -18 -194 -214 -194h-266v612h-234c-1 -132 -6 -255 -27 -382c-16 -99 -50 -233 -174 -233c-10 0 -21 1 -31 3v79l16 -2c141 -18 137 348 137 578v31zM554 317v-243h173c48 0 135 1 135 118c0 56 -18 125 -151 125h-157
z" />
    <glyph glyph-name="quilsinglleft" horiz-adv-x="222" 
d="M120 257l53 -146h-44l-87 146l87 142h44z" />
    <glyph glyph-name="afii10059" unicode="&#x40a;" horiz-adv-x="1010" 
d="M88 686h86v-288h320v288h86v-295h151c76 0 243 -7 243 -197c0 -58 -18 -194 -214 -194h-266v328h-320v-328h-86v686zM580 317v-243h173c48 0 135 1 135 118c0 56 -18 125 -151 125h-157z" />
    <glyph glyph-name="afii10061" unicode="&#x40c;" horiz-adv-x="630" 
d="M174 393h95c39 0 81 7 108 51c29 48 33 134 56 184c27 59 74 68 105 68c13 0 25 -2 32 -4v-68c-14 2 -19 2 -22 2c-14 0 -29 -11 -38 -22c-23 -30 -27 -106 -45 -156c-13 -35 -36 -71 -84 -80v-3c64 -9 92 -56 103 -81c22 -49 20 -89 52 -178c8 -23 18 -42 45 -42
c6 0 13 0 19 2v-66c-12 -7 -24 -10 -43 -10c-34 0 -66 12 -91 55c-19 34 -29 77 -40 127c-12 48 -18 76 -30 97c-29 53 -83 54 -128 54h-94v-323h-86v686h86v-293zM402 899l34 -65l-215 -94l-20 40z" />
    <glyph glyph-name="afii10060" unicode="&#x40b;" horiz-adv-x="725" 
d="M11 686h476v-74h-205v-235c72 25 132 28 155 28c46 0 114 -5 163 -52c51 -48 55 -112 55 -142v-211h-86v190c0 57 -11 141 -148 141c-64 0 -115 -17 -139 -26v-305h-86v612h-185v74z" />
    <glyph glyph-name="afii10145" unicode="&#x40f;" horiz-adv-x="656" 
d="M87 686h86v-611h310v611h86v-686h-201v-180h-80v180h-201v686z" />
    <glyph glyph-name="afii10099" unicode="&#x452;" horiz-adv-x="564" 
d="M83 559h-75v57h75v70h76v-70h188v-57h-188v-162c29 62 85 106 165 106c63 0 101 -25 120 -47c35 -39 39 -92 39 -138v-286c0 -45 -4 -104 -32 -146c-35 -53 -88 -61 -122 -61c-18 0 -45 1 -82 9v65c25 -6 53 -8 69 -8c41 0 63 12 77 44c5 11 14 36 14 99v265
c0 38 0 77 -21 105c-11 15 -34 33 -76 33c-31 0 -55 -9 -77 -23c-57 -38 -74 -100 -74 -170v-244h-76v559z" />
    <glyph glyph-name="quoteleft" unicode="&#x2018;" horiz-adv-x="251" 
d="M177 686l-50 -120h50v-102h-103v102l67 120h36z" />
    <glyph glyph-name="quoteright" unicode="&#x2019;" horiz-adv-x="251" 
d="M177 686v-102l-67 -120h-36l50 120h-50v102h103z" />
    <glyph glyph-name="quotedblleft" unicode="&#x201c;" horiz-adv-x="417" 
d="M343 686l-59 -120h41v-99h-100v86l80 133h38zM192 686l-59 -120h41v-99h-100v86l80 133h38z" />
    <glyph glyph-name="quotedblright" unicode="&#x201d;" horiz-adv-x="418" 
d="M192 686v-86l-80 -133h-38l59 120h-41v99h100zM344 686v-86l-80 -134h-38l59 121h-41v99h100z" />
    <glyph glyph-name="bullet" unicode="&#x2022;" 
d="M300 513c93 0 170 -77 170 -170s-77 -170 -170 -170s-170 77 -170 170s77 170 170 170z" />
    <glyph glyph-name="endash" unicode="&#x2013;" horiz-adv-x="706" 
d="M603 288v-62h-500v62h500z" />
    <glyph glyph-name="emdash" unicode="&#x2014;" horiz-adv-x="1000" 
d="M950 288v-62h-900v62h900z" />
    <glyph glyph-name="accent" horiz-adv-x="380" 
d="M270 899l34 -65l-215 -94l-20 40z" />
    <glyph glyph-name="trademark" unicode="&#x2122;" horiz-adv-x="823" 
d="M192 287h-62v349h-120v50h302v-50h-120v-349zM776 287h-62v317l-127 -317h-44l-128 317v-317h-55v399h88l122 -303l119 303h87v-399z" />
    <glyph glyph-name="afii10106" unicode="&#x459;" horiz-adv-x="778" 
d="M122 510h307v-201h142c40 0 90 -4 126 -39c17 -17 41 -51 41 -112c0 -49 -14 -91 -51 -123c-35 -31 -73 -35 -103 -35h-231v448h-164c-8 -229 -16 -294 -32 -341c-34 -99 -113 -107 -148 -107h-4v66h8c78 5 92 94 95 121c3 25 10 90 13 266zM429 247v-185h119
c22 0 50 0 75 21c18 16 31 42 31 76c0 40 -18 61 -34 72c-19 12 -49 16 -69 16h-122z" />
    <glyph glyph-name="quilsinglright" horiz-adv-x="222" 
d="M102 257l-53 142h44l87 -142l-87 -146h-44z" />
    <glyph glyph-name="afii10107" unicode="&#x45a;" horiz-adv-x="818" 
d="M393 296v214h76v-201h142c40 0 90 -4 126 -39c17 -17 41 -51 41 -112c0 -49 -14 -91 -51 -123c-35 -31 -73 -35 -103 -35h-231v234h-236v-234h-76v510h76v-214h236zM469 247v-185h119c22 0 50 0 75 21c18 16 31 42 31 76c0 40 -18 61 -34 72c-19 12 -49 16 -69 16h-122z
" />
    <glyph glyph-name="afii10109" unicode="&#x45c;" horiz-adv-x="514" 
d="M157 297h68c67 0 101 14 123 108c6 27 12 60 30 81c22 26 54 27 70 27c8 0 16 -1 24 -2v-60c-5 1 -11 0 -16 0c-11 -1 -23 -3 -32 -15c-9 -11 -14 -37 -16 -46l-7 -36c-11 -56 -43 -81 -77 -86v-2c49 -4 68 -37 80 -69c19 -53 28 -95 39 -117c9 -18 18 -21 38 -21
c6 0 12 0 18 1v-61c-11 -2 -22 -2 -33 -2c-82 0 -91 36 -110 97c-20 63 -25 83 -34 98c-20 35 -50 43 -91 43h-74v-235h-76v510h76v-213zM364 738l34 -65l-215 -94l-20 40z" />
    <glyph glyph-name="afii10108" unicode="&#x45b;" horiz-adv-x="564" 
d="M159 686v-70h188v-57h-188v-162c29 62 85 106 165 106c63 0 101 -25 120 -47c35 -39 39 -92 39 -138v-318h-76v299c0 38 0 77 -21 105c-11 15 -34 33 -76 33c-31 0 -55 -9 -77 -23c-57 -38 -74 -100 -74 -170v-244h-76v559h-75v57h75v70h76z" />
    <glyph glyph-name="afii10193" unicode="&#x45f;" horiz-adv-x="494" 
d="M47 508h76v-446h248v446h76v-508h-165v-137h-70v137h-165v508z" />
    <glyph glyph-name="afii10062" unicode="&#x40e;" horiz-adv-x="535" 
d="M10 686h90l195 -413h1l161 413h76l-204 -507c-20 -51 -40 -107 -83 -145c-32 -28 -74 -42 -111 -42c-20 0 -35 4 -46 8v73c13 -5 25 -7 38 -7c35 0 62 13 78 28c23 21 39 61 46 85zM363 856h76c-3 -38 -22 -69 -43 -88c-26 -23 -66 -37 -114 -37s-88 14 -114 37
c-21 19 -40 50 -43 88h76c1 -44 38 -65 81 -65s80 21 81 65z" />
    <glyph glyph-name="afii10110" unicode="&#x45e;" horiz-adv-x="427" 
d="M437 510l-201 -558c-11 -31 -25 -63 -54 -91c-27 -25 -56 -37 -95 -37c-20 0 -44 3 -64 10v59c21 -6 35 -7 55 -7c18 0 38 1 57 17s32 42 48 89l6 17l-179 501h88l132 -392l137 392h70zM296 688h72c0 -34 -15 -57 -26 -70c-34 -38 -85 -42 -111 -42s-77 4 -111 42
c-11 13 -26 36 -26 70h72c1 -15 7 -31 17 -42c15 -16 35 -17 48 -17s33 1 48 17c10 11 16 27 17 42z" />
    <glyph glyph-name="afii10057" unicode="&#x408;" horiz-adv-x="387" 
d="M306 686v-462c0 -64 -4 -117 -42 -165c-37 -47 -92 -69 -164 -69c-49 0 -85 10 -100 14v74c32 -11 64 -14 88 -14c37 0 73 10 96 31c36 33 36 76 36 117v474h86z" />
    <glyph glyph-name="currency" unicode="&#xa4;" horiz-adv-x="574" 
d="M89 191l52 52c-27 35 -32 74 -32 98s5 63 32 98l-52 52l46 46l52 -52c17 15 47 34 100 34s83 -19 100 -34l52 52l46 -46l-52 -52c27 -35 32 -74 32 -98s-5 -63 -32 -98l52 -52l-46 -46l-52 52c-35 -29 -73 -34 -100 -34s-65 5 -100 34l-52 -52zM175 341
c0 -62 50 -112 112 -112s112 50 112 112s-50 112 -112 112s-112 -50 -112 -112z" />
    <glyph glyph-name="afii10050" unicode="&#x490;" horiz-adv-x="505" 
d="M88 686h331v92h76v-168h-321v-610h-86v686z" />
    <glyph glyph-name="brokenbar" unicode="&#xa6;" horiz-adv-x="506" 
d="M283 275v-275h-60v275h60zM283 686v-275h-60v275h60z" />
    <glyph glyph-name="section" unicode="&#xa7;" horiz-adv-x="612" 
d="M510 562l-76 -8c-31 68 -102 76 -132 76c-74 0 -109 -45 -109 -78c0 -75 87 -96 135 -112l62 -20c57 -19 136 -46 136 -138c0 -66 -42 -114 -81 -144c63 -25 98 -82 98 -144c0 -86 -84 -182 -236 -182c-48 0 -185 8 -238 149l88 13c27 -63 87 -96 153 -96
c83 0 145 46 145 105c0 71 -69 91 -117 103l-80 21c-70 18 -169 44 -169 150c0 75 52 126 98 150c-52 26 -82 75 -82 134c0 70 48 155 192 155c44 0 169 -8 213 -134zM340 354l-88 31c-24 -11 -79 -44 -79 -101c0 -71 69 -85 121 -102l75 -24c50 22 73 69 73 106
c0 60 -63 76 -102 90z" />
    <glyph glyph-name="afii10023" unicode="&#x401;" horiz-adv-x="567" 
d="M88 686h434v-74h-348v-218h276v-70h-276v-250h358v-74h-444v686zM250 836v-95h-95v95h95zM444 836v-95h-95v95h95z" />
    <glyph glyph-name="copyright" unicode="&#xa9;" horiz-adv-x="770" 
d="M486 280l60 -13c-8 -33 -24 -68 -47 -93c-34 -38 -74 -49 -121 -49c-52 0 -91 17 -122 50c-39 41 -60 107 -60 178c0 79 29 129 58 158c20 20 60 50 128 50c45 0 87 -13 121 -50c22 -25 34 -52 43 -88l-62 -12c-8 23 -12 39 -26 59c-19 28 -38 39 -77 39
c-28 0 -55 -7 -77 -33c-29 -34 -38 -97 -38 -136c0 -79 29 -117 38 -128c22 -27 49 -35 74 -35c32 0 62 15 79 36c16 19 21 43 29 67zM23 343c0 201 161 362 362 362s362 -161 362 -362s-161 -362 -362 -362s-362 161 -362 362zM695 343c0 170 -140 310 -310 310
s-310 -140 -310 -310s140 -310 310 -310s310 140 310 310z" />
    <glyph glyph-name="afii10053" unicode="&#x404;" horiz-adv-x="608" 
d="M568 495l-84 -15c-8 27 -24 61 -51 89c-37 39 -77 53 -120 53c-60 0 -102 -27 -131 -68c-30 -43 -44 -108 -44 -160h278v-74h-280c0 -45 7 -110 32 -158c24 -46 72 -98 153 -98c51 0 91 22 124 60c27 31 37 59 42 77l87 -17c-14 -55 -44 -101 -78 -132
c-50 -45 -109 -62 -170 -62c-135 0 -201 81 -227 124c-39 64 -55 161 -55 243c0 122 32 214 84 268c58 60 130 71 182 71c40 0 118 -7 181 -68c44 -43 68 -105 77 -133z" />
    <glyph glyph-name="guillemotleft" unicode="&#xab;" horiz-adv-x="353" 
d="M120 257l53 -146h-44l-87 146l87 142h44zM251 257l53 -146h-44l-87 146l87 142h44z" />
    <glyph glyph-name="logicalnot" unicode="&#xac;" 
d="M559 386v-270h-65v205h-453v65h518z" />
    <glyph glyph-name="hyphen" unicode="-" horiz-adv-x="313" 
d="M263 288v-62h-213v62h213z" />
    <glyph glyph-name="hyphen" unicode="&#xad;" horiz-adv-x="313" 
d="M263 288v-62h-213v62h213z" />
    <glyph glyph-name="registered" unicode="&#xae;" horiz-adv-x="770" 
d="M229 553h177c50 0 80 -16 94 -26c33 -23 49 -60 49 -93c0 -25 -11 -59 -32 -80c-15 -15 -38 -25 -48 -28l86 -193h-68l-81 179h-115v-179h-62v420zM291 361h108c24 0 46 3 65 23c14 15 19 32 19 51c0 20 -6 36 -22 49c-19 16 -42 17 -55 17h-115v-140zM23 343
c0 201 161 362 362 362s362 -161 362 -362s-161 -362 -362 -362s-362 161 -362 362zM695 343c0 170 -140 310 -310 310s-310 -140 -310 -310s140 -310 310 -310s310 140 310 310z" />
    <glyph glyph-name="afii10056" unicode="&#x407;" horiz-adv-x="274" 
d="M180 686v-686h-86v686h86zM249 836v-95h-80v95h80zM105 836v-95h-80v95h80z" />
    <glyph glyph-name="degree" unicode="&#xb0;" horiz-adv-x="399" 
d="M50 546c0 83 67 150 150 150s150 -67 150 -150s-67 -150 -150 -150s-150 67 -150 150zM110 546c0 -50 40 -90 90 -90s90 40 90 90s-40 90 -90 90s-90 -40 -90 -90z" />
    <glyph glyph-name="plusminus" unicode="&#xb1;" horiz-adv-x="643" 
d="M289 632h65v-226h226v-65h-226v-226h-65v226h-226v65h226v226zM63 0v65h517v-65h-517z" />
    <glyph glyph-name="afii10055" unicode="&#x406;" horiz-adv-x="262" 
d="M174 686v-686h-86v686h86z" />
    <glyph glyph-name="afii10103" unicode="&#x456;" horiz-adv-x="244" 
d="M160 510v-510h-76v510h76zM164 686v-88h-84v88h84z" />
    <glyph glyph-name="afii10098" unicode="&#x491;" horiz-adv-x="399" 
d="M81 510h249v63h59v-125h-232v-448h-76v510z" />
    <glyph glyph-name="mu" unicode="&#xb5;" horiz-adv-x="515" 
d="M455 510v-510h-69v101l-1 1c-32 -75 -99 -113 -157 -112c-26 0 -61 8 -92 24v-180h-76v676h76v-311c0 -86 26 -141 99 -141c70 0 144 59 144 180v272h76z" />
    <glyph glyph-name="mu" unicode="&#x3bc;" horiz-adv-x="515" 
d="M455 510v-510h-69v101l-1 1c-32 -75 -99 -113 -157 -112c-26 0 -61 8 -92 24v-180h-76v676h76v-311c0 -86 26 -141 99 -141c70 0 144 59 144 180v272h76z" />
    <glyph glyph-name="paragraph" unicode="&#xb6;" horiz-adv-x="579" 
d="M524 686v-65h-58v-809h-65v809h-81v-809h-65v403c-59 2 -104 27 -132 53c-44 40 -73 103 -73 180c0 74 32 137 74 178c60 58 122 60 186 60h214z" />
    <glyph glyph-name="periodcentered" unicode="&#xb7;" horiz-adv-x="258" 
d="M184 345v-113h-110v113h110z" />
    <glyph glyph-name="periodcentered" unicode="&#x2219;" horiz-adv-x="258" 
d="M184 345v-113h-110v113h110z" />
    <glyph glyph-name="afii10071" unicode="&#x451;" horiz-adv-x="533" 
d="M415 154l74 -15c-14 -44 -40 -81 -83 -111c-40 -27 -82 -38 -131 -38c-72 0 -129 24 -173 74c-45 51 -62 116 -62 187c0 136 76 269 237 269c190 0 221 -176 221 -258v-18h-370c-1 -34 5 -70 17 -99c25 -61 71 -89 133 -89c55 0 88 24 106 44c14 15 25 36 31 54zM132 306
h278c-1 31 -9 68 -24 93c-16 26 -48 59 -108 59c-50 0 -88 -24 -111 -52c-21 -27 -34 -64 -35 -100zM236 704v-95h-95v95h95zM427 704v-95h-95v95h95z" />
    <glyph glyph-name="numero" horiz-adv-x="1016" 
d="M188 686l326 -559h2c-3 17 -4 42 -4 55v504h72v-686h-84l-334 575l-16 23h-3c0 -2 1 -4 1 -6c1 -3 1 -7 2 -10c1 -6 2 -33 2 -39v-543h-72v686h108zM796 686c53 0 86 -26 105 -51s35 -65 35 -124c0 -118 -63 -175 -140 -175c-53 0 -86 26 -105 51s-35 65 -35 124
s16 99 35 124s52 51 105 51zM796 634c-29 0 -48 -15 -61 -38c-16 -28 -17 -65 -17 -85c0 -26 4 -61 15 -83c13 -26 37 -40 63 -40c27 0 78 15 78 123c0 29 -3 59 -16 84c-7 15 -24 39 -62 39zM666 271h260v-52h-260v52z" />
    <glyph glyph-name="afii10101" unicode="&#x454;" horiz-adv-x="504" 
d="M461 373l-75 -13c-10 28 -25 46 -31 52c-22 23 -57 42 -101 42c-50 0 -81 -22 -102 -58c-3 -6 -24 -43 -24 -98h185v-62h-185c0 -11 -1 -78 29 -125c28 -45 64 -55 103 -55c33 0 61 7 89 31c28 23 37 47 41 63l79 -13c-15 -52 -48 -93 -87 -117c-42 -26 -86 -30 -123 -30
c-62 0 -117 12 -165 79c-41 58 -54 134 -54 199c0 37 6 125 57 187c46 55 100 65 151 65s98 -9 142 -42c26 -20 57 -53 71 -105z" />
    <glyph glyph-name="guillemotright" unicode="&#xbb;" horiz-adv-x="353" 
d="M102 257l-53 142h44l87 -142l-87 -146h-44zM233 257l-53 142h44l87 -142l-87 -146h-44z" />
    <glyph glyph-name="afii10105" unicode="&#x458;" horiz-adv-x="237" 
d="M156 510v-515c0 -50 -4 -118 -60 -151c-24 -14 -58 -19 -89 -19c-22 0 -48 3 -71 9v60c24 -5 41 -7 58 -7c18 0 53 1 72 30c9 14 14 34 14 74v519h76zM160 686v-88h-84v88h84z" />
    <glyph glyph-name="afii10054" unicode="&#x405;" horiz-adv-x="601" 
d="M543 528l-78 -21c-9 30 -28 60 -52 79c-20 16 -57 36 -121 36c-29 0 -63 -4 -92 -22c-34 -21 -48 -55 -48 -89c0 -61 58 -85 123 -101l102 -25c46 -11 90 -25 126 -54c28 -23 63 -67 63 -135c0 -67 -33 -122 -76 -156c-58 -46 -126 -50 -172 -50c-51 0 -116 2 -181 46
c-22 15 -82 61 -107 149l77 17c5 -17 22 -63 68 -98s97 -40 135 -40c142 0 164 78 164 118c0 84 -82 107 -114 115l-114 28c-130 32 -180 96 -180 182c0 128 101 189 233 189c167 0 226 -92 244 -168z" />
    <glyph glyph-name="afii10102" unicode="&#x455;" horiz-adv-x="489" 
d="M442 393l-72 -15c-16 47 -59 80 -124 80c-91 0 -107 -51 -107 -78c0 -57 64 -65 90 -70l69 -13c33 -6 88 -15 125 -49c19 -18 41 -51 41 -105c0 -42 -15 -79 -50 -109c-48 -41 -113 -44 -153 -44c-70 0 -113 13 -141 28c-34 18 -75 54 -90 117l76 15c7 -35 27 -55 36 -63
c10 -8 44 -35 115 -35c22 0 62 3 89 24c27 20 30 47 30 61c0 59 -55 70 -99 79l-77 15c-63 12 -149 43 -149 142c0 47 20 81 46 103c42 36 99 44 148 44c42 0 104 -5 151 -50c20 -19 37 -46 46 -77z" />
    <glyph glyph-name="afii10104" unicode="&#x457;" horiz-adv-x="274" 
d="M175 510v-510h-76v510h76zM249 704v-95h-80v95h80zM105 704v-95h-80v95h80z" />
    <glyph glyph-name="afii10017" unicode="&#x410;" horiz-adv-x="560" 
d="M333 686l223 -686h-94l-64 199h-246l-62 -199h-78l222 686h99zM377 269l-102 325l-103 -325h205z" />
    <glyph glyph-name="afii10018" unicode="&#x411;" horiz-adv-x="638" 
d="M517 686v-74h-343v-211h171c47 0 129 -2 182 -48c36 -31 61 -87 61 -149c0 -52 -17 -109 -54 -149c-44 -47 -93 -55 -140 -55h-306v686h429zM174 327v-253h200c27 0 61 2 89 31c22 23 33 61 33 98c0 42 -16 74 -37 93c-32 28 -76 31 -114 31h-171z" />
    <glyph glyph-name="afii10019" unicode="&#x412;" horiz-adv-x="629" 
d="M88 686h262c36 0 99 0 149 -35c30 -21 64 -61 64 -130c0 -67 -30 -104 -53 -123c-17 -14 -43 -26 -66 -33v-2c32 -6 59 -20 78 -36c35 -28 64 -75 64 -141c0 -68 -34 -117 -66 -142c-53 -43 -118 -44 -169 -44h-263v686zM174 612v-218h144c39 0 86 2 122 32
c31 26 37 58 37 82c0 38 -14 63 -40 81c-32 21 -69 23 -105 23h-158zM174 324v-250h171c23 0 72 2 106 28c11 8 43 37 43 95c0 41 -16 70 -34 88c-38 39 -88 39 -127 39h-159z" />
    <glyph glyph-name="afii10020" unicode="&#x413;" horiz-adv-x="506" 
d="M88 686h408v-74h-322v-612h-86v686z" />
    <glyph glyph-name="afii10021" unicode="&#x414;" horiz-adv-x="657" 
d="M189 686h368v-612h80v-228h-80v154h-470v-154h-80v228h43c81 152 110 263 129 441c8 76 7 100 9 150zM261 612l-3 -42c-9 -130 -23 -306 -122 -496h335v538h-210z" />
    <glyph glyph-name="afii10022" unicode="&#x415;" horiz-adv-x="567" 
d="M88 686h434v-74h-348v-218h276v-70h-276v-250h358v-74h-444v686z" />
    <glyph glyph-name="afii10024" unicode="&#x416;" horiz-adv-x="920" 
d="M417 686h86v-293h47c42 0 72 17 90 33c25 22 31 43 39 73c11 45 18 78 28 105c29 77 77 86 109 86c12 0 25 -1 37 -4v-67c-5 1 -9 1 -14 1c-13 0 -24 -4 -31 -10c-15 -12 -24 -35 -28 -49c-8 -26 -14 -66 -31 -112c-16 -42 -33 -66 -85 -81v-3c66 -7 94 -51 108 -79
c9 -19 16 -40 22 -60c22 -72 23 -82 34 -115c7 -20 13 -41 44 -41c6 0 12 0 18 1v-67c-13 -5 -27 -8 -45 -8c-24 0 -56 6 -83 44c-23 33 -47 122 -54 152c-8 33 -18 84 -53 110c-26 19 -64 21 -86 21h-66v-323h-86v323h-66c-22 0 -60 -2 -86 -21c-36 -27 -46 -82 -53 -110
c-7 -30 -31 -119 -54 -152c-27 -38 -59 -44 -83 -44c-18 0 -32 3 -45 8v67c6 -1 12 -1 18 -1c31 0 37 21 44 41c11 33 12 43 34 115c6 20 13 41 22 60c14 28 42 72 108 79v3c-52 15 -69 39 -85 81c-17 46 -23 86 -31 112c-4 14 -13 37 -28 49c-7 6 -18 10 -31 10
c-5 0 -9 0 -14 -1v67c12 3 25 4 37 4c32 0 80 -9 109 -86c10 -27 17 -60 28 -105c8 -30 14 -51 39 -73c18 -16 48 -33 90 -33h47v293z" />
    <glyph glyph-name="afii10025" unicode="&#x417;" horiz-adv-x="616" 
d="M213 323v70h87c36 0 83 1 113 24c23 18 40 53 40 93c0 42 -21 70 -44 86c-27 19 -66 26 -99 26c-46 0 -89 -12 -122 -36s-49 -53 -62 -89l-77 21c19 66 58 105 86 126c34 26 88 52 168 52c68 0 119 -14 157 -38c69 -43 79 -102 79 -133c0 -33 -11 -69 -26 -94
c-22 -37 -53 -55 -91 -63v-2c39 -4 73 -20 96 -42c30 -28 48 -71 48 -121c0 -68 -32 -126 -73 -160c-58 -48 -130 -53 -186 -53c-69 0 -131 9 -184 51c-37 29 -71 79 -85 142l83 18c8 -32 25 -64 50 -88c40 -39 89 -49 139 -49c44 0 86 8 121 38c25 22 43 52 43 94
c0 35 -11 76 -51 101c-35 21 -77 26 -115 26h-95z" />
    <glyph glyph-name="afii10026" unicode="&#x418;" horiz-adv-x="678" 
d="M88 686h86v-461c0 -13 -2 -49 -3 -63c11 20 16 32 26 45l307 432v47h86v-686h-86v463c0 19 2 51 3 72c-8 -15 -21 -37 -26 -45l-307 -430v-60h-86v686z" />
    <glyph glyph-name="afii10027" unicode="&#x419;" horiz-adv-x="678" 
d="M88 686h86v-461c0 -13 -2 -49 -3 -63c22 39 7 19 26 45l307 432v47h86v-686h-86v446c0 34 1 59 3 89c-8 -15 -21 -37 -26 -45l-307 -430v-60h-86v686zM420 856h76c-3 -38 -22 -69 -43 -88c-26 -23 -66 -37 -114 -37s-88 14 -114 37c-21 19 -40 50 -43 88h76
c1 -44 38 -65 81 -65s80 21 81 65z" />
    <glyph glyph-name="afii10028" unicode="&#x41a;" horiz-adv-x="630" 
d="M174 393h95c39 0 81 7 108 51c29 48 33 134 56 184c27 59 74 68 105 68c13 0 25 -2 32 -4v-68c-14 2 -19 2 -22 2c-14 0 -29 -11 -38 -22c-23 -30 -27 -106 -45 -156c-13 -35 -36 -71 -84 -80v-3c64 -9 92 -56 103 -81c22 -49 20 -89 52 -178c8 -23 18 -42 45 -42
c6 0 13 0 19 2v-66c-12 -7 -24 -10 -43 -10c-34 0 -66 12 -91 55c-19 34 -29 77 -40 127c-12 48 -18 76 -30 97c-29 53 -83 54 -128 54h-94v-323h-86v686h86v-293z" />
    <glyph glyph-name="afii10029" unicode="&#x41b;" horiz-adv-x="650" 
d="M163 686h399v-686h-86v612h-234c0 -418 -62 -538 -106 -579c-35 -32 -71 -37 -95 -37c-12 0 -21 1 -31 4v79c6 -1 11 -2 17 -2c37 0 61 16 81 51c24 42 55 145 55 527v31z" />
    <glyph glyph-name="afii10030" unicode="&#x41c;" horiz-adv-x="840" 
d="M214 686l206 -549h2l204 549h126v-686h-86v599h-2l-220 -599h-58l-225 599h-1v-599h-72v686h126z" />
    <glyph glyph-name="afii10031" unicode="&#x41d;" horiz-adv-x="668" 
d="M580 686v-686h-86v328h-320v-328h-86v686h86v-288h320v288h86z" />
    <glyph glyph-name="afii10032" unicode="&#x41e;" horiz-adv-x="652" 
d="M326 696c35 0 115 -5 184 -72c58 -57 98 -153 98 -281s-40 -224 -98 -281c-69 -67 -149 -72 -184 -72s-115 5 -184 72c-58 57 -98 153 -98 281s40 224 98 281c69 67 149 72 184 72zM326 622c-63 0 -106 -33 -133 -68c-16 -21 -57 -83 -57 -211s41 -190 57 -211
c27 -35 70 -68 133 -68s106 33 133 68c16 21 57 83 57 211s-41 190 -57 211c-27 35 -70 68 -133 68z" />
    <glyph glyph-name="afii10033" unicode="&#x41f;" horiz-adv-x="658" 
d="M88 686h482v-686h-86v612h-310v-612h-86v686z" />
    <glyph glyph-name="afii10034" unicode="&#x420;" horiz-adv-x="585" 
d="M88 686h227c55 0 120 -5 172 -44c34 -26 73 -73 73 -156c0 -87 -44 -136 -64 -154c-60 -55 -131 -54 -178 -54h-144v-278h-86v686zM174 352h134c31 0 82 0 120 34c23 21 40 57 40 102c0 51 -24 80 -40 93c-33 27 -80 31 -112 31h-142v-260z" />
    <glyph glyph-name="afii10035" unicode="&#x421;" horiz-adv-x="604" 
d="M576 477l-81 -15c-5 25 -16 59 -36 89c-33 50 -75 71 -132 71s-113 -20 -153 -91c-33 -57 -38 -132 -38 -181c0 -59 8 -126 32 -177c26 -55 74 -109 159 -109c50 0 83 17 114 51c13 15 45 54 57 116l78 -17c-11 -57 -38 -112 -77 -153c-59 -62 -117 -71 -168 -71
c-62 0 -152 12 -222 118c-43 66 -65 157 -65 246c0 150 57 227 78 251c71 83 161 91 207 91c55 0 114 -10 169 -61c39 -37 70 -93 78 -158z" />
    <glyph glyph-name="afii10036" unicode="&#x422;" horiz-adv-x="496" 
d="M11 686h474v-74h-194v-612h-86v612h-194v74z" />
    <glyph glyph-name="afii10037" unicode="&#x423;" horiz-adv-x="535" 
d="M10 686h90l195 -413h1l161 413h76l-204 -507c-20 -51 -40 -107 -83 -145c-32 -28 -74 -42 -111 -42c-20 0 -35 4 -46 8v73c13 -5 25 -7 38 -7c35 0 62 13 78 28c23 21 39 61 46 85z" />
    <glyph glyph-name="afii10038" unicode="&#x424;" horiz-adv-x="784" 
d="M349 705h86v-100h11c93 0 159 -25 203 -59c49 -39 91 -107 91 -197c0 -106 -54 -164 -73 -181c-41 -38 -112 -71 -232 -71v-107h-86v107c-120 0 -191 33 -232 71c-19 17 -73 75 -73 181c0 90 42 158 91 197c44 34 110 59 203 59h11v100zM352 169v364h-10
c-41 0 -100 -5 -145 -39c-57 -43 -65 -103 -65 -147c0 -31 2 -112 87 -155c44 -22 104 -24 133 -23zM432 533v-364c29 -1 89 1 133 23c85 43 87 124 87 155c0 44 -8 104 -65 147c-45 34 -104 39 -145 39h-10z" />
    <glyph glyph-name="afii10039" unicode="&#x425;" horiz-adv-x="540" 
d="M31 686h96l149 -254l149 254h88l-193 -317l217 -369h-96l-172 292l-178 -292h-88l223 358z" />
    <glyph glyph-name="afii10040" unicode="&#x426;" horiz-adv-x="670" 
d="M88 686h86v-612h310v612h86v-612h80v-224h-80v150h-482v686z" />
    <glyph glyph-name="afii10041" unicode="&#x427;" horiz-adv-x="618" 
d="M60 686h86v-204c0 -31 -1 -86 58 -106c22 -8 49 -8 80 -8c50 0 99 3 160 13v305h86v-686h-86v307c-44 -6 -107 -13 -151 -13c-72 0 -126 8 -165 31c-26 15 -68 51 -68 138v223z" />
    <glyph glyph-name="afii10042" unicode="&#x428;" horiz-adv-x="908" 
d="M88 686h86v-612h237v612h86v-612h237v612h86v-686h-732v686z" />
    <glyph glyph-name="afii10043" unicode="&#x429;" horiz-adv-x="920" 
d="M88 686h86v-612h237v612h86v-612h237v612h86v-612h80v-224h-80v150h-732v686z" />
    <glyph glyph-name="afii10044" unicode="&#x42a;" horiz-adv-x="713" 
d="M-10 686h289v-295h155c47 0 129 -2 182 -48c35 -31 61 -87 61 -149c0 -51 -18 -105 -54 -142c-49 -50 -105 -52 -160 -52h-270v612h-203v74zM279 317v-243h171c26 0 70 -2 102 28c19 18 33 49 33 90c0 24 -2 66 -37 95c-32 27 -78 30 -114 30h-155z" />
    <glyph glyph-name="afii10045" unicode="&#x42b;" horiz-adv-x="820" 
d="M88 686h86v-295h155c47 0 129 -2 182 -48c35 -31 61 -87 61 -149c0 -49 -17 -104 -54 -142c-48 -49 -105 -52 -151 -52h-279v686zM174 317v-243h182c27 0 64 2 91 28c18 18 33 49 33 93c0 30 -5 66 -37 92c-23 19 -62 30 -99 30h-170zM646 686h86v-686h-86v686z" />
    <glyph glyph-name="afii10046" unicode="&#x42c;" horiz-adv-x="608" 
d="M88 686h86v-295h155c47 0 129 -2 182 -48c35 -31 61 -87 61 -149c0 -49 -17 -104 -54 -142c-48 -49 -107 -52 -141 -52h-289v686zM174 317v-243h171c26 0 70 -2 102 28c19 18 33 49 33 90c0 24 -2 66 -37 95c-24 20 -62 30 -105 30h-164z" />
    <glyph glyph-name="afii10047" unicode="&#x42d;" horiz-adv-x="608" 
d="M124 480l-84 15c9 28 33 90 77 133c63 61 141 68 181 68c52 0 124 -11 182 -71c52 -54 84 -146 84 -268c0 -82 -16 -179 -55 -243c-26 -43 -92 -124 -227 -124c-61 0 -120 17 -170 62c-34 31 -64 77 -78 132l87 17c5 -18 15 -46 42 -77c33 -38 73 -60 124 -60
c81 0 129 52 153 98c25 48 32 113 32 158h-253v74h251c0 52 -14 117 -44 160c-29 41 -71 68 -131 68c-43 0 -83 -14 -120 -53c-27 -28 -43 -62 -51 -89z" />
    <glyph glyph-name="afii10048" unicode="&#x42e;" horiz-adv-x="906" 
d="M174 396h124c7 73 39 170 98 228c68 68 150 72 184 72c35 0 115 -5 184 -72c58 -57 98 -153 98 -281s-40 -224 -98 -281c-69 -67 -149 -72 -184 -72c-34 0 -115 4 -184 72c-67 66 -98 177 -98 260h-124v-322h-86v686h86v-290zM580 622c-63 0 -106 -33 -133 -68
c-16 -21 -57 -83 -57 -211s41 -190 57 -211c27 -35 70 -68 133 -68s106 33 133 68c16 21 57 83 57 211s-41 190 -57 211c-27 35 -70 68 -133 68z" />
    <glyph glyph-name="afii10049" unicode="&#x42f;" horiz-adv-x="627" 
d="M539 686v-686h-86v297h-143l-173 -297h-102l186 302c-38 4 -81 19 -112 48c-23 21 -54 64 -54 137c0 69 31 117 60 144c57 53 127 55 191 55h233zM453 612h-154c-31 0 -74 -2 -106 -23c-41 -28 -46 -72 -46 -100c0 -47 19 -74 38 -90c31 -26 71 -28 108 -28h160v241z" />
    <glyph glyph-name="afii10065" unicode="&#x430;" horiz-adv-x="544" 
d="M127 369l-73 12c22 109 105 139 216 139c34 0 100 -1 145 -37c55 -44 56 -114 56 -180v-196c0 -28 3 -62 13 -107h-80c-6 37 -8 70 -9 95c-14 -29 -58 -105 -178 -105c-65 0 -106 22 -131 45c-22 20 -46 55 -46 108c0 69 39 109 69 129c62 42 142 43 220 43h66v21
c0 27 -2 61 -20 85c-26 35 -70 37 -106 37c-42 0 -130 -6 -142 -89zM395 253h-65c-80 0 -126 -10 -154 -25c-42 -22 -52 -59 -52 -85c0 -20 8 -49 37 -68c14 -10 38 -19 73 -19c50 0 94 24 121 57c26 32 40 79 40 115v25z" />
    <glyph glyph-name="afii10066" unicode="&#x431;" horiz-adv-x="564" 
d="M498 698v-74c-52 -25 -89 -33 -184 -49c-27 -5 -60 -10 -89 -23c-26 -12 -49 -30 -65 -51c-22 -28 -40 -72 -46 -117h2c43 95 130 111 193 111c44 0 97 -7 144 -51c35 -32 71 -92 71 -192c0 -73 -20 -140 -57 -185c-36 -44 -93 -77 -184 -77c-44 0 -103 10 -154 62
c-69 70 -79 173 -79 241c0 166 48 243 81 278c55 59 128 73 183 83c109 21 136 24 184 44zM292 429c-32 0 -74 -4 -109 -42c-29 -31 -45 -79 -45 -140c0 -46 11 -108 43 -145c15 -18 49 -46 110 -46c35 0 64 8 90 31c53 48 55 128 55 164c0 43 -6 98 -42 138
c-31 34 -67 40 -102 40z" />
    <glyph glyph-name="afii10067" unicode="&#x432;" horiz-adv-x="564" 
d="M81 510h226c41 0 85 -2 119 -22c19 -11 54 -39 54 -98c0 -34 -10 -63 -34 -85c-8 -7 -30 -26 -66 -32v-2c37 -3 74 -19 95 -40c10 -10 34 -38 34 -87c0 -47 -20 -87 -53 -113c-39 -30 -83 -31 -124 -31h-251v510zM157 448v-151h142c24 0 55 2 77 26c13 14 20 35 20 58
c0 16 -4 34 -22 49c-21 18 -45 18 -68 18h-149zM157 235v-173h160c37 0 64 10 80 25s24 39 24 62c0 36 -19 56 -31 65c-25 19 -61 21 -80 21h-153z" />
    <glyph glyph-name="afii10068" unicode="&#x433;" horiz-adv-x="400" 
d="M81 510h308v-62h-232v-448h-76v510z" />
    <glyph glyph-name="afii10069" unicode="&#x434;" horiz-adv-x="514" 
d="M141 510h296v-448h52v-199h-70v137h-339v-137h-70v199h38c17 25 34 55 48 91c37 94 41 194 44 311zM205 448l-1 -27c-3 -75 -12 -199 -45 -287c-10 -26 -26 -60 -32 -72h234v386h-156z" />
    <glyph glyph-name="afii10070" unicode="&#x435;" horiz-adv-x="533" 
d="M415 154l74 -15c-14 -44 -40 -81 -83 -111c-40 -27 -82 -38 -131 -38c-72 0 -129 24 -173 74c-45 51 -62 116 -62 187c0 136 76 269 237 269c190 0 221 -176 221 -258v-18h-370c-1 -34 5 -70 17 -99c25 -61 71 -89 133 -89c55 0 88 24 106 44c14 15 25 36 31 54zM132 306
h278c-1 31 -9 68 -24 93c-16 26 -48 59 -108 59c-50 0 -88 -24 -111 -52c-21 -27 -34 -64 -35 -100z" />
    <glyph glyph-name="afii10072" unicode="&#x436;" horiz-adv-x="716" 
d="M322 510h72v-212h39c20 0 47 2 67 16c16 11 25 29 31 47c18 52 18 80 35 110c16 29 38 42 76 42c9 0 20 -1 29 -3v-60c-5 1 -10 1 -15 1c-12 0 -22 -1 -31 -15c-4 -6 -8 -15 -13 -36c-7 -27 -11 -60 -26 -88c-10 -19 -26 -39 -57 -43v-2c21 -3 40 -13 52 -26
c17 -17 26 -43 33 -64c13 -40 19 -73 29 -95c8 -19 16 -23 34 -23c7 0 13 0 19 2v-61c-11 -2 -22 -3 -33 -3c-18 0 -40 1 -58 12c-19 12 -29 32 -35 48c-14 34 -20 71 -31 104c-4 11 -8 21 -13 31c-23 43 -55 44 -87 44h-45v-236h-72v236h-45c-32 0 -64 -1 -87 -44
c-5 -10 -9 -20 -13 -31c-11 -33 -17 -70 -31 -104c-6 -16 -16 -36 -35 -48c-18 -11 -40 -12 -58 -12c-11 0 -22 1 -33 3v61c6 -2 12 -2 19 -2c18 0 26 4 34 23c10 22 16 55 29 95c7 21 16 47 33 64c12 13 31 23 52 26v2c-31 4 -47 24 -57 43c-15 28 -19 61 -26 88
c-5 21 -9 30 -13 36c-9 14 -19 15 -31 15c-5 0 -10 0 -15 -1v60c9 2 20 3 29 3c38 0 60 -13 76 -42c17 -30 17 -58 35 -110c6 -18 15 -36 31 -47c20 -14 47 -16 67 -16h39v212z" />
    <glyph glyph-name="afii10073" unicode="&#x437;" horiz-adv-x="507" 
d="M118 361l-71 19c15 65 56 99 94 117c18 9 56 23 119 23c43 0 94 -6 130 -28c48 -29 63 -73 63 -109c0 -45 -23 -71 -33 -81c-16 -16 -42 -29 -72 -32v-2c30 -2 65 -16 87 -39c19 -20 32 -50 32 -86c0 -59 -34 -98 -64 -118c-47 -32 -108 -35 -150 -35
c-41 0 -112 2 -163 47c-29 26 -48 63 -55 100l74 15c6 -31 21 -51 29 -59c19 -20 53 -41 111 -41c30 0 69 6 93 22c20 13 37 34 37 68c0 32 -12 52 -24 63c-28 26 -68 29 -101 29h-57v62h57c21 0 52 4 71 13c37 17 44 46 44 72c0 29 -16 46 -28 55c-20 16 -55 22 -89 22
c-29 0 -65 -6 -95 -31c-16 -13 -33 -35 -39 -66z" />
    <glyph glyph-name="afii10074" unicode="&#x438;" horiz-adv-x="550" 
d="M81 510h76v-306c0 -33 -1 -33 -3 -70c16 36 32 57 48 79l191 253v44h76v-510h-76v301c0 18 1 49 4 73c-4 -9 -11 -26 -46 -71l-194 -254v-49h-76v510z" />
    <glyph glyph-name="afii10075" unicode="&#x439;" horiz-adv-x="550" 
d="M81 510h76v-306c0 -33 -1 -33 -3 -70c16 36 32 57 48 79l191 253v44h76v-510h-76v301c0 18 1 49 4 73c-4 -9 -11 -26 -46 -71l-194 -254v-49h-76v510zM340 688h72c0 -34 -15 -57 -26 -70c-34 -38 -85 -42 -111 -42s-77 4 -111 42c-11 13 -26 36 -26 70h72
c1 -15 7 -31 17 -42c15 -16 35 -17 48 -17s33 1 48 17c10 11 16 27 17 42z" />
    <glyph glyph-name="afii10076" unicode="&#x43a;" horiz-adv-x="514" 
d="M157 297h68c67 0 101 14 123 108c6 27 12 60 30 81c22 26 54 27 70 27c8 0 16 -1 24 -2v-60c-5 1 -11 0 -16 0c-11 -1 -23 -3 -32 -15c-9 -11 -14 -37 -16 -46l-7 -36c-11 -56 -43 -81 -77 -86v-2c49 -4 68 -37 80 -69c19 -53 28 -95 39 -117c9 -18 18 -21 38 -21
c6 0 12 0 18 1v-61c-11 -2 -22 -2 -33 -2c-82 0 -91 36 -110 97c-20 63 -25 83 -34 98c-20 35 -50 43 -91 43h-74v-235h-76v510h76v-213z" />
    <glyph glyph-name="afii10077" unicode="&#x43b;" horiz-adv-x="510" 
d="M122 510h307v-510h-76v448h-164c-8 -228 -17 -296 -32 -341c-34 -99 -113 -107 -148 -107h-4v66h8c23 1 58 18 77 53c15 27 26 77 31 334z" />
    <glyph glyph-name="afii10078" unicode="&#x43c;" horiz-adv-x="684" 
d="M81 510h106l159 -390l151 390h106v-510h-76v350c0 36 2 33 4 80c-4 -7 -17 -33 -39 -89l-132 -341h-39l-141 341c-15 35 -17 44 -36 89c0 -29 3 -53 3 -77v-353h-66v510z" />
    <glyph glyph-name="afii10079" unicode="&#x43d;" horiz-adv-x="550" 
d="M81 510h76v-213h236v213h76v-510h-76v235h-236v-235h-76v510z" />
    <glyph glyph-name="afii10080" unicode="&#x43e;" horiz-adv-x="540" 
d="M40 255c0 167 98 265 230 265s230 -98 230 -265s-98 -265 -230 -265s-230 98 -230 265zM270 56c61 0 142 32 142 199s-81 199 -142 199s-142 -32 -142 -199s81 -199 142 -199z" />
    <glyph glyph-name="afii10081" unicode="&#x43f;" horiz-adv-x="550" 
d="M81 510h388v-510h-76v448h-236v-448h-76v510z" />
    <glyph glyph-name="afii10082" unicode="&#x440;" horiz-adv-x="549" 
d="M157 -166h-76v676h70v-96l1 1c20 48 68 105 152 105c63 0 109 -23 141 -59c44 -49 64 -130 64 -203c0 -68 -17 -142 -54 -192c-27 -37 -74 -76 -151 -76c-81 0 -123 43 -144 90h-3v-246zM157 309v-107c0 -26 4 -67 36 -103c28 -31 65 -43 97 -43c29 0 71 12 100 60
c24 39 31 95 31 141c0 85 -21 126 -30 140c-28 46 -69 57 -100 57c-36 0 -66 -13 -92 -40c-37 -40 -42 -81 -42 -105z" />
    <glyph glyph-name="afii10083" unicode="&#x441;" horiz-adv-x="482" 
d="M452 345l-72 -13c-4 28 -15 58 -28 77c-14 20 -43 45 -93 45c-44 0 -76 -21 -98 -57c-28 -45 -33 -103 -33 -144c0 -96 27 -138 33 -146c17 -25 47 -51 97 -51c38 0 66 13 89 42c18 23 29 54 33 83l72 -13c-7 -49 -29 -94 -58 -124c-36 -37 -83 -54 -138 -54
c-64 0 -110 23 -140 50c-50 46 -76 128 -76 214c0 68 15 130 53 183c35 48 86 83 168 83c56 0 103 -17 139 -58c29 -33 46 -80 52 -117z" />
    <glyph glyph-name="afii10084" unicode="&#x442;" horiz-adv-x="396" 
d="M0 510h396v-62h-160v-448h-76v448h-160v62z" />
    <glyph glyph-name="afii10085" unicode="&#x443;" horiz-adv-x="427" 
d="M437 510l-201 -558c-11 -31 -25 -63 -54 -91c-27 -25 -56 -37 -95 -37c-20 0 -44 3 -64 10v59c21 -6 35 -7 55 -7c18 0 38 1 57 17s32 42 48 89l6 17l-179 501h88l132 -392l137 392h70z" />
    <glyph glyph-name="afii10086" unicode="&#x444;" horiz-adv-x="686" 
d="M305 686h76v-176h10c55 0 124 -22 166 -54c36 -28 89 -88 89 -205c0 -97 -39 -157 -74 -189c-53 -49 -132 -63 -191 -62v-166h-76v166c-59 -1 -138 13 -191 62c-35 32 -74 92 -74 189c0 117 53 177 89 205c42 32 111 54 166 54h10v176zM308 62v386h-8
c-30 0 -71 -2 -108 -28c-32 -22 -68 -69 -68 -165c0 -101 42 -144 71 -165c37 -26 71 -28 101 -28h12zM378 448v-386h12c30 0 64 2 101 28c29 21 71 64 71 165c0 96 -36 143 -68 165c-37 26 -78 28 -108 28h-8z" />
    <glyph glyph-name="afii10087" unicode="&#x445;" horiz-adv-x="437" 
d="M20 510h92l107 -176l111 176h76l-148 -230l175 -280h-92l-128 206l-133 -206h-76l170 263z" />
    <glyph glyph-name="afii10088" unicode="&#x446;" horiz-adv-x="576" 
d="M81 510h76v-448h248v448h76v-448h70v-199h-70v137h-400v510z" />
    <glyph glyph-name="afii10089" unicode="&#x447;" horiz-adv-x="499" 
d="M55 510h76v-141c0 -22 -4 -56 14 -78s52 -22 87 -22s80 4 110 7v234h76v-510h-76v215c-48 -6 -76 -8 -122 -8c-33 0 -85 0 -120 26c-45 33 -45 90 -45 148v129z" />
    <glyph glyph-name="afii10090" unicode="&#x448;" horiz-adv-x="742" 
d="M81 510h76v-448h176v448h76v-448h176v448h76v-510h-580v510z" />
    <glyph glyph-name="afii10091" unicode="&#x449;" horiz-adv-x="756" 
d="M81 510h76v-448h176v448h76v-448h176v448h76v-448h70v-199h-70v137h-580v510z" />
    <glyph glyph-name="afii10092" unicode="&#x44a;" horiz-adv-x="572" 
d="M-5 510h228v-201h142c40 0 90 -4 126 -39c17 -17 41 -51 41 -112c0 -49 -14 -91 -51 -123c-35 -31 -73 -35 -103 -35h-231v448h-152v62zM223 247v-185h119c22 0 50 0 75 21c18 16 31 42 31 76c0 40 -18 61 -34 72c-19 12 -49 16 -69 16h-122z" />
    <glyph glyph-name="afii10093" unicode="&#x44b;" horiz-adv-x="690" 
d="M81 510h76v-201h142c40 0 90 -4 126 -39c17 -17 41 -51 41 -112c0 -49 -14 -91 -51 -123c-35 -31 -73 -35 -103 -35h-231v510zM157 247v-185h119c22 0 50 0 75 21c18 16 31 42 31 76c0 40 -18 61 -34 72c-19 12 -49 16 -69 16h-122zM533 510h76v-510h-76v510z" />
    <glyph glyph-name="afii10094" unicode="&#x44c;" horiz-adv-x="506" 
d="M81 510h76v-201h142c40 0 90 -4 126 -39c17 -17 41 -51 41 -112c0 -49 -14 -91 -51 -123c-35 -31 -73 -35 -103 -35h-231v510zM157 247v-185h119c22 0 50 0 75 21c18 16 31 42 31 76c0 40 -18 61 -34 72c-19 12 -49 16 -69 16h-122z" />
    <glyph glyph-name="afii10095" unicode="&#x44d;" horiz-adv-x="504" 
d="M118 360l-75 13c14 52 45 85 71 105c44 33 91 42 142 42s105 -10 151 -65c51 -62 57 -150 57 -187c0 -65 -13 -141 -54 -199c-48 -67 -103 -79 -165 -79c-37 0 -81 4 -123 30c-39 24 -72 65 -87 117l79 13c4 -16 13 -40 41 -63c28 -24 56 -31 89 -31c39 0 75 10 103 55
c30 47 29 114 29 125h-185v62h185c0 55 -21 92 -24 98c-21 36 -52 58 -102 58c-44 0 -79 -19 -101 -42c-6 -6 -21 -24 -31 -52z" />
    <glyph glyph-name="afii10096" unicode="&#x44e;" horiz-adv-x="739" 
d="M81 510h76v-215h82c1 10 11 105 76 167c38 36 94 58 154 58c71 0 122 -29 153 -58c45 -43 77 -116 77 -207s-32 -164 -77 -207c-31 -29 -82 -58 -153 -58c-60 0 -116 22 -154 58c-42 40 -74 109 -76 185h-82v-233h-76v510zM469 56c39 0 71 14 93 36c47 47 49 133 49 163
s-2 116 -49 163c-22 22 -54 36 -93 36s-71 -14 -93 -36c-47 -47 -49 -133 -49 -163s2 -116 49 -163c22 -22 54 -36 93 -36z" />
    <glyph glyph-name="afii10097" unicode="&#x44f;" horiz-adv-x="513" 
d="M432 510v-510h-76v208h-110l-113 -208h-88l120 213c-5 1 -47 12 -76 39c-16 15 -41 50 -41 112c0 26 6 59 28 90c35 49 85 56 146 56h210zM356 448h-104c-42 0 -74 -1 -99 -29c-17 -19 -21 -41 -21 -65c0 -15 3 -43 25 -62c23 -20 61 -22 90 -22h109v178z" />
    <glyph glyph-name="Euro" unicode="&#x20ac;" horiz-adv-x="596" 
d="M550 647v-82c-33 30 -88 58 -166 58c-121 0 -184 -80 -198 -179h319l-24 -63h-305c0 -9 -1 -22 -1 -35c0 -14 1 -28 1 -37h277l-23 -63h-244c18 -114 86 -182 199 -182c77 0 129 26 165 58v-83c-26 -22 -88 -48 -175 -48c-147 0 -244 83 -271 255h-77l24 63h47
c-1 9 -2 24 -2 37s1 26 2 35h-71l24 63h53c23 141 102 252 271 252c82 0 145 -26 175 -49z" />
    </font>
</defs>
</svg>
