<?xml version="1.0" standalone="no"?>
<!DOCTYPE svg PUBLIC "-//W3C//DTD SVG 1.1//EN" "http://www.w3.org/Graphics/SVG/1.1/DTD/svg11.dtd" >
<svg>
<metadata>
Created by FontForge 20120731 at Sat Aug 22 16:04:36 2015
 By root
Copyright (c) ParaGraph Intl., 1990-1995. All Rights Reserved. ITC Franklin Gothic is a registered trade mark of International Typeface Corporation.
</metadata>
<defs>
<font id="FranklinGothicDemiC-Italic" horiz-adv-x="1257" >
  <font-face 
    font-family="FranklinGothDemiCTT"
    font-weight="400"
    font-style="italic"
    font-stretch="normal"
    units-per-em="2048"
    panose-1="0 0 0 0 0 0 0 0 0 0"
    ascent="1638"
    descent="-410"
    x-height="1044"
    cap-height="1404"
    bbox="-212 -372 2129 1861"
    underline-thickness="81"
    underline-position="-123"
    slope="9"
    unicode-range="U+0020-F002"
  />
<missing-glyph horiz-adv-x="900" 
d="M100 0v1024h800v-1024h-800zM110 10h780v1004h-780v-1004z" />
    <glyph glyph-name=".notdef" horiz-adv-x="900" 
d="M100 0v1024h800v-1024h-800zM110 10h780v1004h-780v-1004z" />
    <glyph glyph-name="glyph1" horiz-adv-x="0" 
 />
    <glyph glyph-name="glyph2" horiz-adv-x="638" 
 />
    <glyph glyph-name="space" unicode=" " horiz-adv-x="477" 
 />
    <glyph glyph-name="space" unicode="&#x45d;" horiz-adv-x="477" 
 />
    <glyph glyph-name="space" unicode="&#x40d;" horiz-adv-x="477" 
 />
    <glyph glyph-name="space" unicode="&#xa0;" horiz-adv-x="477" 
 />
    <glyph glyph-name="exclam" unicode="!" horiz-adv-x="638" 
d="M638 1404l-258 -981h-192l61 981h389zM432 313l-50 -313h-321l49 313h322z" />
    <glyph glyph-name="quotedbl" unicode="&#x22;" horiz-adv-x="737" 
d="M327 847h-158l48 557h243zM673 847h-157l47 557h243z" />
    <glyph glyph-name="numbersign" unicode="#" horiz-adv-x="1452" 
d="M827 0h-199l137 372h-247l-138 -372h-198l137 372h-221l31 185h256l102 278h-219l28 184h256l148 398h199l-148 -398h248l147 398h199l-147 -398h221l-31 -184h-256l-102 -278h219l-31 -185h-254zM831 557l102 278h-247l-103 -278h248z" />
    <glyph glyph-name="dollar" unicode="$" horiz-adv-x="1216" 
d="M1196 1062l-252 -75q-35 85 -92 122t-154 37q-59 0 -94.5 -10t-57.5 -31q-17 -15 -29 -40.5t-12 -51.5q0 -27 12.5 -50.5t34.5 -41.5q22 -17 55 -32t193 -58q120 -32 196.5 -81.5t115.5 -123.5q19 -36 28.5 -78.5t9.5 -83.5q0 -96 -45.5 -181t-130.5 -144
q-76 -54 -166 -80.5t-188 -24.5l-29 -173h-176l29 177q-64 15 -124.5 42t-107.5 63q-60 47 -103.5 112t-65.5 140l280 67q7 -31 22 -57t40 -51q44 -46 98.5 -66t122.5 -20q52 0 95.5 12.5t74.5 36.5q27 21 43 49t16 57q0 34 -11.5 59t-33.5 40q-15 10 -40 20.5t-193 61.5
q-105 31 -174.5 68.5t-110.5 86.5q-36 43 -56 99.5t-20 115.5q0 86 38.5 167t111.5 136q56 43 130.5 68t157.5 25l29 172h176l-28 -174q74 -8 144 -38.5t128 -84.5q41 -39 69 -83.5t44 -99.5z" />
    <glyph glyph-name="percent" unicode="%" horiz-adv-x="1515" 
d="M1193 1404h177l-983 -1404h-177zM501 1275q-41 0 -70.5 -26.5t-50.5 -83.5q-15 -45 -23.5 -97t-8.5 -96q0 -28 3.5 -49t12.5 -37q11 -20 30.5 -30.5t43.5 -10.5q40 0 71 26t52 85q13 39 22.5 94.5t9.5 97.5q0 31 -5 53t-15 38q-12 17 -30 26.5t-42 9.5zM520 1425
q51 0 96 -16.5t82 -53.5q41 -41 60.5 -97t19.5 -126q0 -91 -28.5 -175t-76.5 -142q-46 -58 -107 -88.5t-141 -30.5q-117 0 -189.5 82.5t-72.5 216.5q0 87 28.5 169t76.5 140q51 63 115.5 92t136.5 29zM1155 708q51 0 96 -16.5t82 -53.5q41 -41 60.5 -97t19.5 -126
q0 -91 -29 -175t-76 -142q-46 -58 -107 -88t-141 -30q-118 0 -190 82.5t-72 215.5q0 87 28.5 169t76.5 140q51 63 115.5 92t136.5 29zM1136 559q-41 0 -71 -27t-50 -84q-16 -45 -24 -97t-8 -95q0 -29 3.5 -50t12.5 -37q11 -20 30 -30t44 -10q40 0 71 25.5t52 84.5
q13 40 22.5 95t9.5 98q0 30 -5 52t-15 38q-12 17 -30 27t-42 10z" />
    <glyph glyph-name="ampersand" unicode="&#x26;" horiz-adv-x="1433" 
d="M1157 790l245 -61q-32 -75 -73.5 -152t-79.5 -131q-34 -48 -72 -89.5t-80 -76.5q17 -29 45 -44t72 -15q51 0 69.5 2t36.5 6l-30 -227q-39 -8 -75.5 -13t-64.5 -5q-79 0 -146.5 31t-111.5 95q-66 -63 -167.5 -96.5t-217.5 -33.5q-100 0 -179.5 27.5t-141.5 78.5
q-72 59 -110 138t-38 169q0 95 41.5 176.5t132.5 148.5q47 35 104 63.5t118 47.5q-51 79 -71.5 144t-20.5 128q0 75 33 143t102 115q47 33 105 49.5t142 16.5q176 0 281 -87t105 -233q0 -69 -33 -133t-90 -112q-36 -31 -88.5 -60t-106.5 -51l162 -285q62 65 110 141t93 185z
M745 1216q-60 0 -96.5 -35t-36.5 -90q0 -31 15.5 -70.5t56.5 -103.5q30 9 58.5 24t55.5 37q34 27 49 53.5t15 59.5q0 53 -33 89t-84 36zM761 284l-211 369q-30 -12 -62 -30t-54 -36q-38 -31 -58 -71.5t-20 -85.5q0 -90 57.5 -149.5t147.5 -59.5q44 0 97.5 16t102.5 47z" />
    <glyph glyph-name="quotesingle" unicode="'" horiz-adv-x="391" 
d="M327 847h-158l48 557h243z" />
    <glyph glyph-name="parenleft" unicode="(" horiz-adv-x="679" 
d="M538 1404h209q-96 -117 -181 -259.5t-138 -286.5q-50 -135 -76.5 -283t-26.5 -274q0 -161 36.5 -323t109.5 -315h-207q-97 149 -147 318.5t-50 351.5q0 135 27 268t82 263q62 148 157 287.5t205 252.5z" />
    <glyph glyph-name="parenright" unicode=")" horiz-adv-x="679" 
d="M208 1404h209q91 -150 143 -325t52 -336q0 -144 -42 -310t-108 -304q-58 -124 -142.5 -244.5t-178.5 -221.5h-208q105 129 188 275t139 303q47 135 70.5 266.5t23.5 262.5q0 176 -35 332.5t-111 301.5z" />
    <glyph glyph-name="asterisk" unicode="*" horiz-adv-x="1032" 
d="M542 1112l39 313l168 -27l-63 -311l311 59l24 -166l-313 -36l152 -279l-152 -74l-131 287l-217 -229l-119 119l234 215l-287 135l78 149z" />
    <glyph glyph-name="plus" unicode="+" horiz-adv-x="1275" 
d="M557 1116h237v-408h408v-237h-408v-408h-237v408h-408v237h408v408z" />
    <glyph glyph-name="comma" unicode="," horiz-adv-x="571" 
d="M417 317l-49 -295l-258 -343h-130l198 321h-140l52 317h327z" />
    <glyph glyph-name="hyphen" unicode="-" horiz-adv-x="483" 
d="M503 671l-39 -246h-484l38 246h485z" />
    <glyph glyph-name="hyphen" unicode="&#xad;" horiz-adv-x="483" 
d="M503 671l-39 -246h-484l38 246h485z" />
    <glyph glyph-name="period" unicode="." horiz-adv-x="573" 
d="M411 317l-53 -317h-326l51 317h328z" />
    <glyph glyph-name="slash" unicode="/" horiz-adv-x="1120" 
d="M1110 1404h217l-1219 -1754h-218z" />
    <glyph glyph-name="zero" unicode="0" 
d="M761 1425q107 0 191.5 -36.5t142.5 -113.5q55 -72 80 -171.5t25 -223.5q0 -212 -52.5 -387.5t-142.5 -294.5q-84 -111 -187.5 -164.5t-248.5 -53.5q-108 0 -183.5 31.5t-132.5 94.5q-66 74 -100.5 183.5t-34.5 248.5q0 210 58 391t157 297q83 98 188 148.5t240 50.5z
M731 1187q-89 0 -150.5 -63.5t-101.5 -208.5q-30 -107 -51 -238t-21 -223q0 -71 17.5 -120.5t52.5 -77.5q22 -19 53 -29t65 -10q92 0 154 69.5t102 239.5q29 122 44.5 227t15.5 191q0 67 -10.5 111t-32.5 73t-57 44t-80 15z" />
    <glyph glyph-name="one" unicode="1" 
d="M772 1425h237l-190 -1163h356l-37 -262h-1044l39 262h374l131 802q-140 -83 -214 -119.5t-154 -62.5l41 260q168 57 275 122t186 161z" />
    <glyph glyph-name="two" unicode="2" 
d="M434 907l-244 94q30 101 77 173.5t111 125.5q81 68 170 96.5t197 28.5q126 0 216.5 -31.5t152.5 -95.5q48 -51 78 -126.5t30 -164.5q0 -105 -41 -194.5t-119 -167.5q-52 -53 -118.5 -101.5t-159.5 -101.5l-209 -119l-119 -61h654l-48 -262h-1028l37 260l150 92
q223 138 321.5 208t177.5 136q100 83 145.5 153.5t45.5 141.5q0 49 -16.5 85.5t-47.5 59.5q-24 19 -58.5 29t-74.5 10q-59 0 -110 -24.5t-84 -63.5q-24 -28 -48.5 -79t-37.5 -101z" />
    <glyph glyph-name="three" unicode="3" 
d="M432 1015l-232 86q22 56 56.5 106t78.5 89q76 66 173.5 97.5t213.5 31.5q112 0 198.5 -26t146.5 -76q55 -47 86.5 -114.5t31.5 -150.5q0 -68 -24 -128.5t-74 -110.5q-37 -37 -82 -61.5t-98 -35.5v-6q108 -28 164.5 -112t56.5 -191q0 -83 -40.5 -169t-107.5 -144
q-67 -59 -164 -89.5t-221 -30.5q-121 0 -213.5 27t-162.5 81q-68 51 -113 122t-63 152l253 68q10 -40 29.5 -73t44.5 -56q37 -35 88 -55.5t111 -20.5q69 0 123 23.5t84 62.5q18 24 29.5 56t11.5 67q0 45 -17 80t-53 59q-32 21 -70.5 30t-113.5 9h-138l43 221h164
q65 0 117 17.5t88 52.5q25 23 38 49.5t13 56.5q0 40 -13 72.5t-36 52.5q-23 21 -59.5 33t-83.5 12q-50 0 -92.5 -14.5t-81.5 -42.5q-30 -22 -52.5 -48t-37.5 -59z" />
    <glyph glyph-name="four" unicode="4" 
d="M802 1425h346l-143 -870h209l-37 -240h-211l-51 -315h-303l51 315h-620l34 229zM700 555l96 573l-459 -573h363z" />
    <glyph glyph-name="five" unicode="5" 
d="M1239 1404l-72 -258h-637l-76 -325q31 30 67.5 54t78.5 40q39 15 82 22t90 7q82 0 149.5 -23t116.5 -63q61 -51 95 -128.5t34 -177.5q0 -111 -37.5 -217t-103.5 -180q-72 -80 -183 -127.5t-256 -47.5q-102 0 -194.5 29t-165.5 87q-57 45 -97 104.5t-61 128.5l260 82
q14 -44 38.5 -78t57.5 -59q35 -26 70 -37.5t84 -11.5q74 0 127 23t90 71q28 36 44 85t16 101t-15 88.5t-45 65.5q-29 28 -65.5 42.5t-85.5 14.5q-71 0 -134.5 -32t-109.5 -91l-242 58l176 753h904z" />
    <glyph glyph-name="six" unicode="6" 
d="M1243 1075l-271 -54q-16 80 -63 123t-131 43q-70 0 -121 -26t-94 -82q-44 -57 -81.5 -154t-56.5 -207h3q50 87 137.5 137t195.5 50q89 0 170 -33t133 -90q50 -54 76.5 -131t26.5 -154q0 -80 -29.5 -167.5t-83.5 -155.5q-74 -94 -183.5 -144t-250.5 -50
q-131 0 -227.5 40.5t-163.5 128.5q-57 74 -87 173.5t-30 225.5q0 185 57 366t164 306q90 104 197.5 154.5t253.5 50.5q119 0 204 -32t146 -97q41 -44 69 -102t40 -119zM423 434q0 -50 14.5 -91.5t43.5 -70.5q26 -26 60.5 -40.5t74.5 -14.5q45 0 86.5 15.5t73.5 43.5
q38 34 59 80t21 102q0 53 -15.5 94t-42.5 68q-25 26 -60.5 40.5t-74.5 14.5q-45 0 -86.5 -15.5t-73.5 -43.5q-39 -34 -59.5 -80t-20.5 -102z" />
    <glyph glyph-name="seven" unicode="7" 
d="M1277 1404l-32 -200q-72 -75 -137.5 -155.5t-118.5 -158.5q-109 -158 -186.5 -323.5t-121.5 -319.5q-18 -64 -29.5 -124t-17.5 -123h-352q51 217 149 430t230 399q47 66 118.5 151.5t147.5 165.5h-696l70 258h976z" />
    <glyph glyph-name="eight" unicode="8" 
d="M378 710v8q-79 38 -123.5 117t-44.5 170q0 79 35.5 155t100.5 134q69 62 167 96.5t222 34.5q98 0 180 -19t139 -53q80 -47 119 -117t39 -149q0 -120 -68.5 -202t-197.5 -130v-4q108 -48 167.5 -131.5t59.5 -196.5q0 -75 -28 -147t-76 -125q-78 -85 -206 -128t-280 -43
q-107 0 -194 19.5t-150 57.5q-78 47 -122 120.5t-44 168.5q0 133 81.5 230t223.5 134zM741 841q34 14 65 32.5t58 39.5q41 33 56 62t15 63q0 36 -16.5 70t-46.5 57q-25 18 -62 28.5t-88 10.5q-39 0 -74 -11t-65 -30q-34 -23 -54 -54t-20 -67q0 -42 18 -74.5t54 -56.5
q24 -16 73 -37t87 -33zM581 606q-37 -11 -72.5 -29t-70.5 -45q-46 -35 -65 -68t-19 -73t16.5 -75.5t48.5 -59.5q35 -27 84.5 -41.5t102.5 -14.5q64 0 116.5 17.5t85.5 46.5q28 24 41 52.5t13 63.5q0 43 -19 77t-65 65q-32 21 -88 44.5t-109 39.5z" />
    <glyph glyph-name="nine" unicode="9" 
d="M61 329l270 53q6 -29 17 -54.5t24 -43.5q27 -36 64.5 -51.5t89.5 -15.5q69 0 120 26t95 82q44 57 81.5 154t55.5 207h-2q-50 -88 -137.5 -137.5t-196.5 -49.5q-89 0 -170 33t-133 90q-49 54 -75.5 130.5t-26.5 152.5q0 103 44 208t128 181q74 66 169 98.5t222 32.5
q121 0 204.5 -37.5t149.5 -112.5q72 -80 104.5 -185.5t32.5 -233.5q0 -183 -57.5 -366t-163.5 -306q-89 -104 -197 -154t-253 -50q-120 0 -204.5 31.5t-146.5 96.5q-40 44 -68 102t-40 119zM641 729q48 0 87 14t72 45q42 39 61 86t19 102q0 49 -14.5 88t-42.5 68
q-26 26 -61 40.5t-74 14.5q-45 0 -87 -15.5t-73 -43.5q-38 -34 -59 -82.5t-21 -108.5q0 -47 15 -86t42 -67t61.5 -41.5t74.5 -13.5z" />
    <glyph glyph-name="colon" unicode=":" horiz-adv-x="567" 
d="M532 1044l-53 -317h-328l53 317h328zM413 317l-53 -317h-328l54 317h327z" />
    <glyph glyph-name="semicolon" unicode=";" horiz-adv-x="569" 
d="M534 1044l-49 -317h-328l51 317h326zM417 317l-49 -291l-258 -347h-130l198 321h-140l52 317h327z" />
    <glyph glyph-name="less" unicode="&#x3c;" horiz-adv-x="1294" 
d="M468 591l691 -268v-254l-1026 412v221l1026 412v-254z" />
    <glyph glyph-name="equal" unicode="=" horiz-adv-x="1275" 
d="M149 700v237h1053v-237h-1053zM149 243v238h1053v-238h-1053z" />
    <glyph glyph-name="greater" unicode="&#x3e;" horiz-adv-x="1294" 
d="M821 591l-688 269v254l1026 -412v-221l-1026 -412v254z" />
    <glyph glyph-name="question" unicode="?" horiz-adv-x="1044" 
d="M348 958l-246 53q15 73 49 139.5t88 120.5q76 77 175.5 115.5t221.5 38.5q107 0 182 -23.5t130 -66.5q62 -50 93.5 -121.5t31.5 -173.5q0 -47 -15.5 -97.5t-42.5 -95.5q-33 -56 -85.5 -102t-155.5 -100q-97 -51 -134 -89t-45 -102l-6 -53h-247l6 47q8 64 20 104.5
t29 71.5q21 39 55.5 74t79.5 65q10 7 56 36.5t71 49.5q51 43 77.5 94t26.5 103q0 33 -9.5 59t-31.5 48q-23 23 -54 35t-75 12q-50 0 -92 -19.5t-76 -56.5q-28 -32 -48.5 -77t-28.5 -89zM610 290l-47 -290h-314l47 290h314z" />
    <glyph glyph-name="at" unicode="@" horiz-adv-x="1570" 
d="M1060 1048h174l-122 -541q-6 -23 -6.5 -27t-0.5 -7q0 -24 13 -37t37 -13q38 0 81.5 30t71.5 75q29 46 45.5 116.5t16.5 139.5q0 75 -19.5 147.5t-56.5 126.5q-68 100 -192.5 152.5t-268.5 52.5q-98 0 -185.5 -28.5t-156.5 -84.5q-94 -76 -148.5 -199.5t-54.5 -258.5
q0 -148 55 -263t160 -188q67 -46 153 -72t189 -26q105 0 192.5 22t155.5 68l132 -51q-91 -100 -219 -151t-271 -51q-120 0 -253 45t-234 128q-112 92 -179 231t-67 306q0 147 57 288t160 242q97 95 234 151t301 56q144 0 270.5 -46t226.5 -142q85 -83 131.5 -187t46.5 -225
q0 -97 -29.5 -184.5t-80.5 -153.5q-64 -83 -161.5 -135.5t-188.5 -52.5q-61 0 -102 29t-42 71q-48 -52 -94 -76t-109 -24q-130 0 -215.5 93.5t-85.5 237.5q0 168 119 302.5t279 134.5q81 0 130.5 -26.5t84.5 -88.5zM839 884q-88 0 -148.5 -71.5t-60.5 -178.5q0 -42 13 -72
t36 -50q19 -17 43.5 -25t49.5 -8q50 0 91.5 32.5t67.5 83.5q17 33 27 75t10 79q0 31 -7.5 53.5t-25.5 42.5q-19 22 -41.5 30.5t-54.5 8.5z" />
    <glyph glyph-name="A" unicode="A" horiz-adv-x="1232" 
d="M593 1404h353l225 -1404h-340l-45 329h-426l-156 -329h-277zM454 569h309l-73 512z" />
    <glyph glyph-name="B" unicode="B" horiz-adv-x="1347" 
d="M286 1404h592q84 0 150.5 -15t115.5 -42q79 -43 122.5 -115t43.5 -170q0 -73 -26 -134t-74 -107q-36 -35 -84.5 -60t-99.5 -37v-4q37 -10 70.5 -28t60.5 -43q49 -46 73.5 -109.5t24.5 -132.5q0 -72 -32 -149t-83 -129q-61 -64 -149.5 -96.5t-239.5 -32.5h-696zM563 1159
l-51 -316h243q63 0 105.5 13t72.5 38q28 24 42 54t14 65q0 68 -49 107t-138 39h-239zM473 604l-60 -355h266q121 0 184.5 48t63.5 137q0 42 -16.5 76.5t-46.5 56.5q-27 19 -63 28t-91 9h-237z" />
    <glyph glyph-name="C" unicode="C" horiz-adv-x="1316" 
d="M1314 913l-297 -35q0 52 -12 104.5t-35 92.5q-31 54 -75.5 79t-110.5 25q-81 0 -141 -45t-105 -139q-48 -100 -74 -231.5t-26 -239.5q0 -70 15.5 -127.5t49.5 -95.5q29 -33 71 -52.5t89 -19.5q105 0 183 72.5t108 205.5l293 -53q-18 -58 -44.5 -113t-64.5 -108
q-96 -136 -214.5 -194.5t-270.5 -58.5q-138 0 -246 53.5t-180 146.5q-62 78 -95.5 182.5t-33.5 218.5q0 158 51.5 319.5t142.5 276.5q94 118 221.5 183t292.5 65q121 0 213.5 -37t153.5 -100q64 -67 101 -170t40 -205z" />
    <glyph glyph-name="D" unicode="D" horiz-adv-x="1425" 
d="M286 1404h475q151 0 263 -36t188 -111q78 -77 119 -198.5t41 -256.5q0 -172 -61 -343.5t-175 -282.5q-87 -86 -200 -131t-285 -45h-596zM573 1159l-150 -910h201q136 0 223 60.5t136 185.5q27 70 44 156t17 162q0 106 -29 177t-84 111q-40 30 -92.5 44t-116.5 14h-149z
" />
    <glyph glyph-name="E" unicode="E" horiz-adv-x="1202" 
d="M1277 1404l-45 -258h-661l-49 -303h530l-43 -239h-528l-53 -342h667l-43 -262h-997l231 1404h991z" />
    <glyph glyph-name="F" unicode="F" horiz-adv-x="1118" 
d="M1241 1404l-45 -258h-627l-49 -303h501l-41 -239h-501l-97 -604h-327l231 1404h955z" />
    <glyph glyph-name="G" unicode="G" horiz-adv-x="1404" 
d="M1333 970l-318 -41q0 47 -13 93.5t-34 76.5q-27 40 -67.5 60t-98.5 20q-64 0 -114.5 -27t-94.5 -81q-68 -86 -111.5 -236t-43.5 -303q0 -75 15.5 -129.5t43.5 -91.5q31 -41 78 -61.5t106 -20.5q69 0 123.5 27t92.5 75q26 35 47 85t30 100h-282l39 239h589l-122 -755h-164
l-29 155h-6q-22 -28 -48 -52t-61 -46q-60 -40 -125 -58.5t-153 -18.5q-110 0 -199.5 34t-154.5 98q-73 71 -116.5 183t-43.5 253q0 129 36.5 272t106.5 265q99 172 250.5 256t349.5 84q123 0 219 -36t162 -112q54 -61 82 -142.5t29 -164.5z" />
    <glyph glyph-name="H" unicode="H" horiz-adv-x="1392" 
d="M284 1404h328l-90 -548h463l88 548h327l-229 -1404h-328l97 598h-461l-97 -598h-327z" />
    <glyph glyph-name="I" unicode="I" horiz-adv-x="606" 
d="M614 1404l-232 -1404h-327l231 1404h328z" />
    <glyph glyph-name="J" unicode="J" horiz-adv-x="827" 
d="M522 1404h327l-141 -876q-40 -246 -98.5 -343t-159.5 -149q-60 -30 -128 -43t-159 -13q-59 0 -116.5 6t-117.5 18l39 262q37 -11 78.5 -17t79.5 -6q61 0 105 18t72 50q25 29 43 79.5t30 123.5z" />
    <glyph glyph-name="K" unicode="K" horiz-adv-x="1327" 
d="M286 1404h328l-113 -669l584 669h324l-459 -518l327 -886h-358l-209 628l-270 -282l-58 -346h-327z" />
    <glyph glyph-name="L" unicode="L" horiz-adv-x="1081" 
d="M1024 262l-44 -262h-925l231 1404h328l-189 -1142h599z" />
    <glyph glyph-name="M" unicode="M" horiz-adv-x="1740" 
d="M284 1404h428l150 -897l4 -2l438 899h459l-230 -1404h-313l180 1093h-4l-520 -1093h-211l-170 1091l-4 2l-178 -1093h-258z" />
    <glyph glyph-name="N" unicode="N" horiz-adv-x="1402" 
d="M620 1404l401 -927h5q-4 42 -2 88t10 92l121 747h270l-229 -1404h-283l-397 921l-39 115h-4q1 -62 -1.5 -107t-11.5 -98l-135 -831h-270l229 1404h336z" />
    <glyph glyph-name="O" unicode="O" horiz-adv-x="1413" 
d="M811 1425q125 0 209.5 -28t152.5 -85q93 -77 146 -202t53 -283q0 -157 -49.5 -318.5t-126.5 -265.5q-96 -128 -237 -195.5t-310 -67.5q-130 0 -225.5 39.5t-167.5 115.5q-83 85 -119.5 194t-36.5 246q0 198 58 367t181 292q96 95 206 143t266 48zM440 542
q0 -61 10.5 -110t34.5 -90q33 -59 81 -86t115 -27q69 0 118 26.5t89 77.5q61 78 102.5 231t41.5 300q0 61 -11.5 115.5t-33.5 93.5q-30 50 -80.5 78t-116.5 28q-64 0 -115.5 -27t-91.5 -77q-60 -77 -101.5 -230.5t-41.5 -302.5z" />
    <glyph glyph-name="P" unicode="P" horiz-adv-x="1273" 
d="M286 1404h508q156 0 257 -27.5t163 -86.5q46 -44 71 -107t25 -149q0 -127 -52 -228.5t-138 -164.5q-79 -58 -182 -84.5t-259 -26.5h-208l-89 -530h-327zM573 1159l-61 -379h217q62 0 106.5 14.5t81.5 48.5q33 31 49.5 70.5t16.5 91.5q0 42 -13.5 70t-38.5 47
q-22 17 -56.5 27t-72.5 10h-229z" />
    <glyph glyph-name="Q" unicode="Q" horiz-adv-x="1413" 
d="M1198 -81l-17 -230q-30 -5 -58 -7.5t-73 -2.5q-126 0 -194 26t-107 87q-22 34 -34 86.5t-9 105.5q-17 -2 -36.5 -3t-43.5 -1q-128 0 -226 41t-171 132q-69 86 -99 190.5t-30 233.5q0 222 70 395t192 285q97 89 204.5 128.5t244.5 39.5q114 0 202.5 -26.5t159.5 -86.5
q90 -74 144.5 -199t54.5 -282q0 -163 -52.5 -324t-134.5 -264q-56 -71 -135 -128.5t-172 -92.5q1 -26 12 -47t29 -36q21 -16 52 -24.5t73 -8.5q43 0 81.5 3.5t72.5 9.5zM440 544q0 -62 11 -111.5t34 -90.5q33 -59 81 -86t115 -27q69 0 118 26.5t89 77.5q60 77 102 230
t42 295q0 66 -14 126.5t-40 98.5q-30 46 -77.5 71t-110.5 25q-94 0 -159.5 -55t-108.5 -158q-37 -86 -59.5 -203t-22.5 -219z" />
    <glyph glyph-name="R" unicode="R" horiz-adv-x="1394" 
d="M286 1404h580q130 0 218 -25.5t152 -84.5q53 -48 83 -116.5t30 -156.5q0 -144 -78 -255.5t-227 -157.5l174 -608h-332l-143 548h-270l-91 -548h-327zM573 1159l-59 -361h245q77 0 120.5 12t76.5 39q30 26 47.5 64t17.5 78t-14 74t-43 55q-27 20 -68.5 29.5t-101.5 9.5
h-221z" />
    <glyph glyph-name="S" unicode="S" horiz-adv-x="1282" 
d="M1241 1089l-273 -82q-10 28 -26 54.5t-35 45.5q-36 37 -86.5 54.5t-126.5 17.5q-55 0 -91.5 -10.5t-62.5 -32.5q-23 -19 -35 -46t-12 -54q0 -17 6 -34.5t17 -33.5q21 -31 66 -55.5t114 -44.5q232 -69 233.5 -69.5t28.5 -12.5q66 -30 115 -72t77 -98q19 -36 30 -85.5
t11 -88.5q0 -97 -45 -186.5t-129 -155.5q-79 -62 -179 -91t-251 -29q-122 0 -218.5 24t-176.5 79q-69 49 -121 120.5t-77 162.5l302 72q9 -33 25.5 -62t40.5 -55q43 -46 100 -69t142 -23q60 0 105 13.5t77 37.5q30 23 47.5 53.5t17.5 63.5q0 26 -8 49t-22 39
q-18 20 -52.5 36.5t-97.5 35.5q-262 77 -340 128.5t-119 114.5q-25 41 -39 94.5t-14 102.5q0 91 39 173t107 138q74 62 173.5 89.5t229.5 27.5q152 0 244 -34t168 -105q45 -43 75 -91.5t46 -105.5z" />
    <glyph glyph-name="T" unicode="T" horiz-adv-x="991" 
d="M147 1404h995l-43 -258h-334l-188 -1146h-328l189 1146h-334z" />
    <glyph glyph-name="U" unicode="U" horiz-adv-x="1347" 
d="M614 1404l-129 -772q-21 -125 -24 -152t-3 -48q0 -50 14 -87.5t37 -60.5q28 -27 71 -41t95 -14q75 0 125.5 23t83.5 65q27 33 44.5 83t33.5 146l143 858h263l-138 -819q-23 -139 -35 -185.5t-30 -92.5q-33 -86 -74.5 -140.5t-97.5 -93.5q-69 -47 -159 -70t-212 -23
q-99 0 -180.5 17.5t-145.5 57.5q-85 53 -129.5 134t-44.5 193q0 35 4 74t13 90l147 858h328z" />
    <glyph glyph-name="V" unicode="V" horiz-adv-x="1236" 
d="M1380 1404l-680 -1404h-336l-242 1404h344l154 -1003l475 1003h285z" />
    <glyph glyph-name="W" unicode="W" horiz-adv-x="1806" 
d="M1935 1404l-584 -1404h-291l-94 901h-4l-373 -901h-290l-148 1404h313l74 -940l6 -2l385 942h260l101 -942h4l371 942h270z" />
    <glyph glyph-name="X" unicode="X" horiz-adv-x="1280" 
d="M1355 1404l-506 -651l344 -753h-378l-220 503l-378 -503h-313l571 729l-312 675h379l182 -436l328 436h303z" />
    <glyph glyph-name="Y" unicode="Y" horiz-adv-x="1114" 
d="M1327 1404l-584 -811l-96 -593h-328l96 593l-336 811h367l207 -536l383 536h291z" />
    <glyph glyph-name="Z" unicode="Z" horiz-adv-x="1200" 
d="M1093 262l-41 -262h-1097l35 219l823 925h-635l41 260h1034l-33 -211l-815 -931h688z" />
    <glyph glyph-name="bracketleft" unicode="[" horiz-adv-x="702" 
d="M278 1404h438l-22 -145h-201l-237 -1451h196l-24 -145h-436z" />
    <glyph glyph-name="backslash" unicode="\" horiz-adv-x="1200" 
d="M194 1404h217l598 -1404h-217z" />
    <glyph glyph-name="bracketright" unicode="]" horiz-adv-x="702" 
d="M272 1404h438l-287 -1741h-437l22 145h198l240 1451h-197z" />
    <glyph glyph-name="asciicircum" unicode="^" horiz-adv-x="1128" 
d="M587 1110l-241 -578h-258l389 872h221l389 -872h-258z" />
    <glyph glyph-name="underscore" unicode="_" horiz-adv-x="1024" 
d="M1030 -133l-13 -127h-1023l12 127h1024z" />
    <glyph glyph-name="grave" unicode="`" horiz-adv-x="1062" 
d="M516 1552l366 -248l-61 -115l-400 203z" />
    <glyph glyph-name="a" unicode="a" horiz-adv-x="1138" 
d="M374 727l-239 67q20 59 57.5 104t97.5 82q71 45 150 64.5t174 19.5q101 0 178.5 -19t124.5 -50q64 -43 94.5 -107.5t30.5 -148.5q0 -27 -3 -56t-13 -88l-25 -143q-46 -270 -49.5 -332t0.5 -120h-293q-4 50 -1.5 95t9.5 85q-22 -33 -48.5 -64t-49.5 -51
q-48 -42 -109.5 -63.5t-132.5 -21.5q-76 0 -136 26.5t-101 76.5q-32 39 -50 91t-18 110q0 83 38 151.5t105 114.5q79 54 202 81t302 30h30.5h31.5q5 20 8.5 42.5t3.5 43.5q0 33 -10 53t-31 35q-20 15 -48.5 22t-70.5 7q-36 0 -68.5 -9.5t-60.5 -29.5q-24 -17 -45 -43
t-35 -55zM708 495q-29 2 -58 2t-59 -2q-66 -4 -114.5 -17t-77.5 -32q-37 -24 -57.5 -60.5t-20.5 -78.5q0 -56 35 -91.5t92 -35.5q55 0 109 34t92 99q21 36 36.5 84.5t22.5 97.5z" />
    <glyph glyph-name="b" unicode="b" horiz-adv-x="1216" 
d="M577 1404l-78 -505q23 34 51.5 61.5t57.5 46.5q43 28 90.5 42.5t99.5 14.5q76 0 139 -24t107 -72q51 -54 77.5 -137t26.5 -166q0 -134 -43.5 -275t-117.5 -235q-72 -90 -159.5 -132.5t-209.5 -42.5q-81 0 -137 20.5t-107 66.5q-26 24 -47.5 52t-38.5 59l-106 -178h-142
l232 1404h305zM681 860q-60 0 -108 -34.5t-80 -101.5q-28 -57 -52 -172t-24 -184q0 -37 9 -70.5t26 -56.5q20 -27 51 -42t70 -15q61 0 109 38t86 117q30 66 49.5 154.5t19.5 167.5q0 49 -8.5 83t-28.5 60q-21 28 -50 42t-69 14z" />
    <glyph glyph-name="c" unicode="c" horiz-adv-x="1073" 
d="M1046 675l-268 -39q-1 36 -7 71.5t-16 60.5q-19 47 -52.5 69.5t-78.5 22.5q-46 0 -84.5 -20t-66.5 -60q-39 -55 -68 -181t-29 -212q0 -43 9 -76.5t28 -61.5q22 -31 55.5 -48t75.5 -17q75 0 128 54.5t75 152.5l244 -70q-24 -61 -58.5 -115t-76.5 -96q-68 -67 -149.5 -98.5
t-186.5 -31.5q-104 0 -179 26.5t-133 79.5q-73 66 -108 157.5t-35 204.5q0 116 33.5 219.5t85.5 175.5q75 105 186 163t246 58q83 0 158 -23.5t131 -68.5q68 -55 103.5 -132.5t37.5 -164.5z" />
    <glyph glyph-name="d" unicode="d" horiz-adv-x="1239" 
d="M1216 1404l-229 -1404h-283l23 176q-18 -31 -41 -58.5t-56 -54.5q-52 -44 -105 -63.5t-120 -19.5q-75 0 -137.5 26.5t-112.5 87.5q-45 54 -68.5 126t-23.5 173q0 150 37 270t100 209q68 95 155.5 143.5t199.5 48.5q94 0 165 -40t101 -117h8l82 497h305zM630 860
q-41 0 -79 -19t-68 -55q-46 -54 -77.5 -169t-31.5 -239q0 -51 11 -88t32 -61q21 -23 48 -34t59 -11q44 0 79.5 18.5t65.5 55.5q45 55 79 176t34 225q0 95 -36 148t-116 53z" />
    <glyph glyph-name="e" unicode="e" horiz-adv-x="1167" 
d="M1103 466h-733q-1 -10 -1.5 -22.5t-0.5 -32.5q0 -44 9 -79.5t28 -65.5q27 -43 65.5 -62.5t96.5 -19.5q50 0 90 14.5t72 46.5q16 17 34 45t31 58l266 -62q-31 -62 -76 -114.5t-102 -92.5q-69 -48 -154 -73.5t-186 -25.5q-116 0 -208 35.5t-160 115.5q-56 64 -86.5 151
t-30.5 180q0 123 51 242.5t135 202.5q76 75 172 116t219 41q100 0 184 -27t146 -81q70 -61 108 -151.5t38 -227.5q0 -33 -2 -60t-5 -51zM397 641h418q1 8 1.5 16t0.5 16q0 90 -46.5 140.5t-132.5 50.5q-95 0 -160.5 -66.5t-80.5 -156.5z" />
    <glyph glyph-name="f" unicode="f" horiz-adv-x="741" 
d="M59 815l29 215h176l10 57q13 74 36.5 123.5t57.5 87.5q60 66 152.5 96.5t218.5 30.5q46 0 95 -4.5t101 -14.5l-20 -202q-36 6 -70 9t-67 3q-50 0 -83 -9t-59 -30q-27 -22 -43 -56t-24 -91h248l-29 -215h-254l-133 -815h-305l133 815h-170z" />
    <glyph glyph-name="g" unicode="g" horiz-adv-x="1126" 
d="M1167 1306l-14 -211q-22 5 -43.5 7.5t-40.5 2.5q-35 0 -61.5 -5.5t-45.5 -16.5q-21 -13 -40 -36t-30 -48q68 -33 110 -100t42 -152q0 -71 -29.5 -136t-77.5 -110q-58 -55 -148.5 -84.5t-186.5 -29.5q-40 0 -91.5 6t-101.5 16q-48 -1 -83.5 -30t-35.5 -62q0 -14 4 -25
t11 -18q14 -15 54.5 -21t190.5 -6q118 0 179 -6.5t106 -19.5q91 -28 143 -90t52 -157q0 -78 -36 -144t-104 -112t-175.5 -68t-260.5 -22q-152 0 -250.5 15.5t-160.5 49.5q-63 35 -93.5 85t-30.5 104q0 37 15.5 75t43.5 63q21 19 57 38t71 30q-40 16 -67 57t-27 92
q0 50 21 91t59 73q26 22 68 44.5t87 37.5q-59 31 -93 95.5t-34 133.5q0 68 29.5 133.5t87.5 114.5q61 52 146 78t198 26q52 0 95 -4.5t85 -15.5q10 50 31 98.5t45 77.5q38 45 95.5 68.5t134.5 23.5q15 0 39.5 -1.5t60.5 -4.5zM595 892q-81 0 -132.5 -52t-51.5 -128
q0 -77 43 -115t115 -38q87 0 135.5 54t48.5 130q0 67 -43 108t-115 41zM266 20q-43 -17 -64.5 -42t-21.5 -59q0 -22 13 -40.5t44 -35.5q42 -23 90.5 -32t145.5 -9q88 0 128 4t74 14q47 14 65.5 37.5t18.5 56.5q0 29 -14 47t-41 27q-36 12 -179.5 14.5t-258.5 17.5z" />
    <glyph glyph-name="h" unicode="h" horiz-adv-x="1204" 
d="M577 1404l-84 -512q19 28 44 53.5t54 47.5q48 34 103 52.5t112 18.5q64 0 118.5 -17t92.5 -48q48 -39 71.5 -94t23.5 -123q0 -31 -3.5 -64.5t-11.5 -81.5l-102 -636h-305l98 626q7 45 8.5 62.5t1.5 31.5q0 32 -8 53t-25 38q-15 16 -38 25t-52 9q-49 0 -95.5 -29
t-80.5 -81q-22 -35 -36 -70.5t-23 -93.5l-94 -571h-306l232 1404h305z" />
    <glyph glyph-name="i" unicode="i" horiz-adv-x="542" 
d="M518 1044l-172 -1044h-306l172 1044h306zM583 1417l-41 -240h-311l39 240h313z" />
    <glyph glyph-name="j" unicode="j" horiz-adv-x="579" 
d="M550 1044l-159 -971q-45 -268 -142 -350.5t-273 -82.5q-42 0 -91.5 6.5t-96.5 18.5l32 223q28 -8 52 -12.5t49 -4.5q69 0 107.5 45.5t52.5 132.5l164 995h305zM620 1419l-41 -240h-311l39 240h313z" />
    <glyph glyph-name="k" unicode="k" horiz-adv-x="1122" 
d="M577 1404l-135 -815l467 455h280l-376 -360l245 -684h-323l-162 479l-178 -178l-49 -301h-306l232 1404h305z" />
    <glyph glyph-name="l" unicode="l" horiz-adv-x="555" 
d="M577 1404l-231 -1404h-306l232 1404h305z" />
    <glyph glyph-name="m" unicode="m" horiz-adv-x="1761" 
d="M335 0h-295l172 1044h275l-29 -164l4 2q24 33 52.5 64t54.5 51q46 35 97 51t110 16q63 0 110 -18.5t84 -56.5q27 -28 45 -61t25 -70h4q23 37 52 71.5t59 59.5q48 39 101 57t114 18q62 0 113 -17t87 -48q44 -38 69.5 -97t25.5 -132q0 -26 -4.5 -62.5t-14.5 -97.5
l-100 -610h-295l98 610q9 57 10.5 74t1.5 32q0 35 -9 61.5t-27 43.5q-15 13 -34 19.5t-40 6.5q-49 0 -93 -29.5t-71 -78.5q-16 -29 -31 -77.5t-22 -94.5l-94 -567h-295l102 620q6 38 9 63.5t3 38.5q0 31 -6.5 52t-17.5 37q-14 17 -35 26.5t-49 9.5q-78 0 -139 -71.5
t-84 -212.5z" />
    <glyph glyph-name="n" unicode="n" horiz-adv-x="1218" 
d="M212 1044h281l-31 -182h4q61 98 149 150t200 52q60 0 112 -16.5t97 -52.5q48 -40 73 -96t25 -131q0 -23 -4.5 -59t-12.5 -83l-104 -626h-305l100 616q6 36 8 55.5t2 32.5q0 42 -11.5 72t-33.5 47q-16 12 -38.5 18t-49.5 6q-36 0 -63.5 -10.5t-54.5 -34.5
q-46 -40 -73.5 -97.5t-41.5 -139.5l-94 -565h-306z" />
    <glyph glyph-name="o" unicode="o" horiz-adv-x="1165" 
d="M622 1064q113 0 194 -30t142 -88q69 -66 104 -156.5t35 -200.5q0 -114 -38.5 -224t-106.5 -191q-82 -98 -192 -146t-230 -48q-113 0 -201 38t-149 108q-54 62 -83.5 142.5t-29.5 189.5q0 134 45 249t123 198q75 80 168 119.5t219 39.5zM630 860q-50 0 -93.5 -26
t-76.5 -81q-32 -54 -57 -163.5t-25 -194.5q0 -46 11 -86.5t30 -67.5q22 -29 52.5 -43t68.5 -14q53 0 93 23.5t69 70.5q34 55 59 166.5t25 198.5q0 49 -10.5 92t-30.5 69q-20 27 -50.5 41.5t-64.5 14.5z" />
    <glyph glyph-name="p" unicode="p" horiz-adv-x="1191" 
d="M202 1044h281l-27 -182h4q42 90 129 146t191 56q69 0 129 -23.5t108 -72.5q54 -54 81.5 -128t27.5 -177q0 -145 -39.5 -273t-106.5 -223q-66 -94 -149 -140.5t-201 -46.5q-57 0 -101.5 13.5t-80.5 38.5q-28 20 -49.5 45.5t-36.5 55.5h-4l-76 -468h-304zM655 856
q-58 0 -103.5 -36.5t-78.5 -115.5q-28 -64 -49 -166t-21 -164q0 -42 12 -80.5t33 -62.5q18 -21 46.5 -34t64.5 -13q66 0 116 53t88 154q23 59 37.5 140t14.5 140q0 44 -11.5 80t-35.5 62q-20 20 -49 31.5t-64 11.5z" />
    <glyph glyph-name="q" unicode="q" horiz-adv-x="1196" 
d="M1005 1044h158q-11 -32 -19.5 -70t-19.5 -104l-197 -1205h-305l78 478h-4q-48 -75 -127 -119t-176 -44q-82 0 -145.5 30.5t-108.5 93.5q-43 58 -61.5 131t-18.5 172q0 165 48.5 298t141.5 222q70 67 157.5 102t180.5 35q108 0 190 -46t126 -128zM624 856
q-64 0 -114 -41.5t-82 -118.5q-27 -63 -42.5 -150.5t-15.5 -167.5q0 -44 8 -78.5t25 -58.5q18 -26 48 -41.5t65 -15.5q68 0 123 46t88 144q19 60 36 144.5t17 138.5q0 46 -11 83t-30 62q-20 26 -47.5 40t-67.5 14z" />
    <glyph glyph-name="r" unicode="r" horiz-adv-x="796" 
d="M212 1044h269l-39 -238h6q29 77 76.5 134.5t105.5 91.5q36 20 74 30.5t80 10.5q13 0 25.5 -1t25.5 -3l-29 -287q-13 1 -26.5 1.5t-26.5 0.5q-71 0 -119 -16t-88 -50q-49 -43 -83 -121.5t-50 -179.5l-67 -417h-306z" />
    <glyph glyph-name="s" unicode="s" horiz-adv-x="1028" 
d="M974 806l-241 -63q-16 65 -71 100t-134 35q-35 0 -63.5 -6t-51.5 -18q-25 -15 -40 -37t-15 -45q0 -32 20 -53t62 -35q36 -13 119 -29.5t120 -26.5q80 -19 124.5 -43.5t78.5 -60.5q37 -40 53.5 -83.5t16.5 -98.5q0 -100 -47 -174t-125 -119q-62 -36 -146 -52.5t-178 -16.5
q-98 0 -189.5 21.5t-150.5 57.5q-65 40 -102.5 96t-47.5 125l255 49q6 -27 18.5 -50.5t30.5 -41.5q31 -33 77 -49t107 -16q39 0 75.5 6.5t63.5 19.5q33 16 48.5 38t15.5 50q0 22 -9.5 40t-25.5 30q-12 9 -28.5 15.5t-131.5 25.5q-133 22 -227 70t-135 118q-16 28 -24.5 62
t-8.5 71q0 86 39.5 153.5t110.5 113.5q58 37 137 58t182 21q80 0 146 -13t116 -38q70 -34 113 -87t63 -120z" />
    <glyph glyph-name="t" unicode="t" horiz-adv-x="727" 
d="M612 1376l-55 -332h211l-29 -215h-217l-70 -414q-10 -60 -11 -71.5t-1 -22.5q0 -24 6.5 -44t17.5 -34q14 -15 34.5 -23t51.5 -8q24 0 56.5 3t60.5 8l-26 -223q-68 -10 -108.5 -13t-102.5 -3q-78 0 -125.5 12t-83.5 40q-46 36 -69 93t-23 127q0 27 5.5 76t12.5 91l70 406
h-150l29 215h168l63 309z" />
    <glyph glyph-name="u" unicode="u" horiz-adv-x="1187" 
d="M518 1044l-95 -563q-19 -115 -19.5 -128t-0.5 -30q0 -36 6.5 -56.5t22.5 -35.5q14 -15 35.5 -23t41.5 -8q43 0 82 21t68 57q32 40 59.5 109t38.5 139l86 518h305l-172 -1044h-284l30 202h-4q-25 -45 -59 -85.5t-70 -67.5q-48 -37 -103 -53t-120 -16q-54 0 -96.5 12.5
t-73.5 35.5q-52 39 -78 101.5t-26 142.5q0 38 3 74.5t9 72.5l108 625h306z" />
    <glyph glyph-name="v" unicode="v" horiz-adv-x="970" 
d="M1073 1044l-537 -1044h-252l-217 1044h326l114 -670h5l329 670h232z" />
    <glyph glyph-name="w" unicode="w" horiz-adv-x="1456" 
d="M1542 1044l-488 -1044h-227l-70 649h-4l-274 -649h-228l-165 1044h309l71 -619h5l262 619h233l70 -616l4 -3l274 619h228z" />
    <glyph glyph-name="x" unicode="x" horiz-adv-x="1007" 
d="M460 1044l125 -295l226 295h264l-379 -473l274 -571h-352l-160 368l-286 -368h-268l448 548l-244 496h352z" />
    <glyph glyph-name="y" unicode="y" horiz-adv-x="1024" 
d="M876 1044h240l-582 -1121q-22 -44 -47.5 -83.5t-50.5 -68.5q-59 -68 -137 -101.5t-201 -33.5q-28 0 -67 4t-86 12l35 228q38 -9 71 -13t63 -4q53 0 83.5 7.5t53.5 23.5q29 20 51 57t29 83l-217 1010h328l110 -653z" />
    <glyph glyph-name="z" unicode="z" horiz-adv-x="935" 
d="M968 1044l-24 -168l-605 -664h506l-32 -212h-858l29 186l589 653h-447l33 205h809z" />
    <glyph glyph-name="braceleft" unicode="{" horiz-adv-x="790" 
d="M882 1415l-26 -158h-76q-42 0 -63.5 -6.5t-37.5 -22.5q-12 -12 -21.5 -34t-16.5 -68l-54 -324q-11 -66 -31.5 -105t-56.5 -71q-32 -28 -75.5 -49t-88.5 -31v-2q37 -4 70.5 -20t56.5 -41q31 -33 42 -79t1 -105l-57 -354l-6 -38v-9q0 -17 5 -30t13 -21q12 -11 35 -18t47 -7
h80l-27 -157h-141q-70 0 -118.5 15t-77.5 46q-25 25 -40.5 66t-15.5 82q0 13 1 25.5t12 78.5l47 300q12 80 1 115.5t-42 54.5q-17 10 -41.5 16.5t-48.5 6.5h-31l26 151h23q91 0 138.5 44t62.5 138l53 336q13 83 45.5 137t93.5 91q42 24 91 35.5t104 11.5h145z" />
    <glyph glyph-name="bar" unicode="|" horiz-adv-x="1030" 
d="M620 1404v-1404h-233v1404h233z" />
    <glyph glyph-name="braceright" unicode="}" horiz-adv-x="790" 
d="M192 1415h152q66 0 104.5 -11.5t69.5 -33.5q38 -28 54.5 -63.5t16.5 -88.5q0 -14 -1.5 -30t-6.5 -48l-53 -336q-10 -59 -4 -89.5t26 -51.5q17 -17 48 -29t59 -12h33l-25 -151l-35 2q-74 4 -127 -51.5t-67 -151.5l-47 -306q-14 -88 -37.5 -137.5t-63.5 -84.5
q-41 -36 -103 -56.5t-136 -20.5h-141l25 157h79q32 0 57 9t39 22q13 12 20.5 28t18.5 79l55 326q9 54 30.5 103.5t51.5 78.5q27 27 74.5 48t97.5 28v6q-90 15 -139 79t-31 173l53 324q4 20 5.5 34t1.5 27q0 35 -24 52.5t-77 17.5h-78z" />
    <glyph glyph-name="asciitilde" unicode="~" horiz-adv-x="1171" 
d="M215 397l-154 88q47 79 70 110t53 60q52 52 110 77t127 25q30 0 57 -5t64 -17q17 -6 36.5 -13t51.5 -20l68 -27q27 -11 57.5 -17.5t52.5 -6.5q47 0 83.5 21.5t84.5 88.5l154 -88q-31 -46 -60 -82.5t-55 -60.5q-57 -55 -122 -82t-134 -27q-11 0 -22 1t-23 3q-15 3 -32 8
t-39 13l-84 31q-109 39 -129.5 44t-38.5 5q-51 0 -95 -31t-81 -98z" />
    <glyph glyph-name="afii10017" unicode="&#xc0;" horiz-adv-x="1232" 
d="M593 1404h353l225 -1404h-340l-45 329h-426l-156 -329h-277zM454 569h309l-73 512z" />
    <glyph glyph-name="afii10017" unicode="&#x410;" horiz-adv-x="1232" 
d="M593 1404h353l225 -1404h-340l-45 329h-426l-156 -329h-277zM454 569h309l-73 512z" />
    <glyph glyph-name="afii10018" unicode="&#xc1;" horiz-adv-x="1316" 
d="M1294 1404l-41 -258h-680l-49 -295h319q117 0 189 -23.5t121 -70.5q42 -41 67 -105.5t25 -150.5q0 -111 -42.5 -214.5t-113.5 -168.5q-64 -58 -152 -88t-210 -30h-672l231 1404h1008zM483 602l-60 -353h246q71 0 114 14t75 46q26 26 42.5 64.5t16.5 78.5q0 39 -12 69
t-33 48q-20 16 -49.5 24.5t-73.5 8.5h-266z" />
    <glyph glyph-name="afii10018" unicode="&#x411;" horiz-adv-x="1316" 
d="M1294 1404l-41 -258h-680l-49 -295h319q117 0 189 -23.5t121 -70.5q42 -41 67 -105.5t25 -150.5q0 -111 -42.5 -214.5t-113.5 -168.5q-64 -58 -152 -88t-210 -30h-672l231 1404h1008zM483 602l-60 -353h246q71 0 114 14t75 46q26 26 42.5 64.5t16.5 78.5q0 39 -12 69
t-33 48q-20 16 -49.5 24.5t-73.5 8.5h-266z" />
    <glyph glyph-name="afii10019" unicode="&#xc2;" horiz-adv-x="1347" 
d="M286 1404h592q84 0 150.5 -15t115.5 -42q79 -43 122.5 -115t43.5 -170q0 -73 -26 -134t-74 -107q-36 -35 -84.5 -60t-99.5 -37v-4q37 -10 70.5 -28t60.5 -43q49 -46 73.5 -109.5t24.5 -132.5q0 -72 -32 -149t-83 -129q-61 -64 -149.5 -96.5t-239.5 -32.5h-696zM563 1159
l-51 -316h243q63 0 105.5 13t72.5 38q28 24 42 54t14 65q0 68 -49 107t-138 39h-239zM473 604l-60 -355h266q79 0 118.5 12.5t70.5 41.5q28 25 43.5 59.5t15.5 71.5q0 42 -16.5 76.5t-46.5 56.5q-27 19 -63 28t-91 9h-237z" />
    <glyph glyph-name="afii10019" unicode="&#x412;" horiz-adv-x="1347" 
d="M286 1404h592q84 0 150.5 -15t115.5 -42q79 -43 122.5 -115t43.5 -170q0 -73 -26 -134t-74 -107q-36 -35 -84.5 -60t-99.5 -37v-4q37 -10 70.5 -28t60.5 -43q49 -46 73.5 -109.5t24.5 -132.5q0 -72 -32 -149t-83 -129q-61 -64 -149.5 -96.5t-239.5 -32.5h-696zM563 1159
l-51 -316h243q63 0 105.5 13t72.5 38q28 24 42 54t14 65q0 68 -49 107t-138 39h-239zM473 604l-60 -355h266q79 0 118.5 12.5t70.5 41.5q28 25 43.5 59.5t15.5 71.5q0 42 -16.5 76.5t-46.5 56.5q-27 19 -63 28t-91 9h-237z" />
    <glyph glyph-name="afii10020" unicode="&#xc3;" horiz-adv-x="1032" 
d="M284 1404h912l-46 -258h-579l-189 -1146h-327z" />
    <glyph glyph-name="afii10020" unicode="&#x413;" horiz-adv-x="1032" 
d="M284 1404h912l-46 -258h-579l-189 -1146h-327z" />
    <glyph glyph-name="afii10021" unicode="&#xc4;" horiz-adv-x="1409" 
d="M471 1404h897l-189 -1142h135l-94 -561h-299l49 299h-747l-47 -299h-298l92 561h103q49 72 87.5 143t82.5 168q46 101 73 176.5t56 192.5q24 92 46 189.5t32 156.5zM997 1146h-309q-7 -53 -17 -101.5t-39 -156.5q-42 -158 -72 -238t-79 -184q-32 -66 -57.5 -112
t-55.5 -92h486z" />
    <glyph glyph-name="afii10021" unicode="&#x414;" horiz-adv-x="1409" 
d="M471 1404h897l-189 -1142h135l-94 -561h-299l49 299h-747l-47 -299h-298l92 561h103q49 72 87.5 143t82.5 168q46 101 73 176.5t56 192.5q24 92 46 189.5t32 156.5zM997 1146h-309q-7 -53 -17 -101.5t-39 -156.5q-42 -158 -72 -238t-79 -184q-32 -66 -57.5 -112
t-55.5 -92h486z" />
    <glyph glyph-name="afii10022" unicode="&#xc5;" horiz-adv-x="1202" 
d="M1277 1404l-45 -258h-661l-49 -303h530l-43 -239h-528l-53 -342h667l-43 -262h-997l231 1404h991z" />
    <glyph glyph-name="afii10022" unicode="&#x415;" horiz-adv-x="1202" 
d="M1277 1404l-45 -258h-661l-49 -303h530l-43 -239h-528l-53 -342h667l-43 -262h-997l231 1404h991z" />
    <glyph glyph-name="afii10024" unicode="&#xc6;" horiz-adv-x="1835" 
d="M915 1404h303l-90 -561h51q44 0 77 20.5t75 82.5q68 100 115 197.5t73 140.5q35 58 72.5 87t79.5 33h254q-35 -35 -65.5 -78t-74.5 -114q-14 -24 -24 -41.5t-105 -196.5q-32 -62 -60.5 -100t-57.5 -61q-25 -20 -56 -34.5t-65 -21.5v-8q37 -5 76 -26.5t67 -53.5
q29 -32 50.5 -82.5t35.5 -120.5q8 -39 21.5 -129.5t29.5 -152.5q13 -50 31 -95t43 -89h-291q-39 7 -62.5 41t-39.5 106q-23 102 -34 206.5t-24 143.5q-19 58 -58 82.5t-109 24.5h-62l-96 -604h-303l94 604h-35q-68 0 -104 -11t-62 -30q-25 -20 -48 -56.5t-48 -91.5
q2 4 -37 -87.5t-88 -180.5q-38 -69 -71.5 -103.5t-80.5 -43.5h-302q38 39 84.5 112t91.5 158q173 334 168 326.5t-1 -1.5q33 47 67.5 76t80.5 49q31 14 60 21t59 8v8q-47 13 -79.5 44.5t-55.5 80.5q-25 51 -47.5 148t-47.5 163q-26 72 -52 124t-56 87h254q37 -1 65 -29.5
t49 -90.5q14 -40 37 -142.5t39 -156.5q22 -73 58 -107.5t96 -34.5h45z" />
    <glyph glyph-name="afii10024" unicode="&#x416;" horiz-adv-x="1835" 
d="M915 1404h303l-90 -561h51q44 0 77 20.5t75 82.5q68 100 115 197.5t73 140.5q35 58 72.5 87t79.5 33h254q-35 -35 -65.5 -78t-74.5 -114q-14 -24 -24 -41.5t-105 -196.5q-32 -62 -60.5 -100t-57.5 -61q-25 -20 -56 -34.5t-65 -21.5v-8q37 -5 76 -26.5t67 -53.5
q29 -32 50.5 -82.5t35.5 -120.5q8 -39 21.5 -129.5t29.5 -152.5q13 -50 31 -95t43 -89h-291q-39 7 -62.5 41t-39.5 106q-23 102 -34 206.5t-24 143.5q-19 58 -58 82.5t-109 24.5h-62l-96 -604h-303l94 604h-35q-68 0 -104 -11t-62 -30q-25 -20 -48 -56.5t-48 -91.5
q2 4 -37 -87.5t-88 -180.5q-38 -69 -71.5 -103.5t-80.5 -43.5h-302q38 39 84.5 112t91.5 158q173 334 168 326.5t-1 -1.5q33 47 67.5 76t80.5 49q31 14 60 21t59 8v8q-47 13 -79.5 44.5t-55.5 80.5q-25 51 -47.5 148t-47.5 163q-26 72 -52 124t-56 87h254q37 -1 65 -29.5
t49 -90.5q14 -40 37 -142.5t39 -156.5q22 -73 58 -107.5t96 -34.5h45z" />
    <glyph glyph-name="afii10025" unicode="&#xc7;" horiz-adv-x="1263" 
d="M415 972l-270 49q22 94 74 172t135 132q78 51 177.5 75.5t213.5 24.5q95 0 173 -16.5t136 -51.5q80 -47 121 -117.5t41 -158.5q0 -69 -24.5 -132t-77.5 -116q-37 -36 -81.5 -61.5t-92.5 -38.5v-4q42 -10 83.5 -32t71.5 -54q37 -40 54.5 -91t17.5 -108q0 -119 -57.5 -217
t-155.5 -158q-78 -48 -178 -68.5t-230 -20.5q-143 0 -240.5 32.5t-168.5 109.5q-47 51 -77.5 118t-39.5 138l281 47q8 -34 25 -65t40 -55q38 -41 85 -58.5t114 -17.5q65 0 118 16.5t89 46.5q31 27 49 64t18 78q0 37 -13 70t-36 53q-27 23 -71.5 34t-112.5 11h-156l37 239
h168q48 0 100.5 14t83.5 37q32 25 49 62t17 80q0 32 -13 59.5t-41 48.5q-25 20 -56 28.5t-77 8.5q-65 0 -111 -14t-87 -45q-36 -28 -63 -65t-42 -83z" />
    <glyph glyph-name="afii10025" unicode="&#x417;" horiz-adv-x="1263" 
d="M415 972l-270 49q22 94 74 172t135 132q78 51 177.5 75.5t213.5 24.5q95 0 173 -16.5t136 -51.5q80 -47 121 -117.5t41 -158.5q0 -69 -24.5 -132t-77.5 -116q-37 -36 -81.5 -61.5t-92.5 -38.5v-4q42 -10 83.5 -32t71.5 -54q37 -40 54.5 -91t17.5 -108q0 -119 -57.5 -217
t-155.5 -158q-78 -48 -178 -68.5t-230 -20.5q-143 0 -240.5 32.5t-168.5 109.5q-47 51 -77.5 118t-39.5 138l281 47q8 -34 25 -65t40 -55q38 -41 85 -58.5t114 -17.5q65 0 118 16.5t89 46.5q31 27 49 64t18 78q0 37 -13 70t-36 53q-27 23 -71.5 34t-112.5 11h-156l37 239
h168q48 0 100.5 14t83.5 37q32 25 49 62t17 80q0 32 -13 59.5t-41 48.5q-25 20 -56 28.5t-77 8.5q-65 0 -111 -14t-87 -45q-36 -28 -63 -65t-42 -83z" />
    <glyph glyph-name="afii10026" unicode="&#xc8;" horiz-adv-x="1402" 
d="M286 1404h328l-123 -749q-3 -20 -12 -57.5t-19 -71.5q52 82 58.5 92t11.5 16l534 670l19 100h328l-232 -1404h-328l125 761q5 31 12 65t15 64q-18 -31 -38 -62.5t-30 -43.5l-534 -672l-19 -112h-327z" />
    <glyph glyph-name="afii10026" unicode="&#x418;" horiz-adv-x="1402" 
d="M286 1404h328l-123 -749q-3 -20 -12 -57.5t-19 -71.5q52 82 58.5 92t11.5 16l534 670l19 100h328l-232 -1404h-328l125 761q5 31 12 65t15 64q-18 -31 -38 -62.5t-30 -43.5l-534 -672l-19 -112h-327z" />
    <glyph glyph-name="afii10027" unicode="&#xc9;" horiz-adv-x="1402" 
d="M286 1404h328l-123 -749q-3 -20 -12 -57.5t-19 -71.5q52 82 58.5 92t11.5 16l534 670l19 100h328l-232 -1404h-328l125 761q5 31 12 65t15 64q-18 -31 -38 -62.5t-30 -43.5l-534 -672l-19 -112h-327zM497 1757h248q-2 -23 4.5 -43t24.5 -37q18 -18 44 -27.5t60 -9.5
q31 0 58 9t49 28q19 16 29.5 36.5t13.5 43.5h252q-13 -61 -47.5 -112.5t-90.5 -88.5t-131 -56.5t-151 -19.5q-88 0 -161 21t-116 57q-42 36 -64.5 88.5t-21.5 110.5z" />
    <glyph glyph-name="afii10027" unicode="&#x419;" horiz-adv-x="1402" 
d="M286 1404h328l-123 -749q-3 -20 -12 -57.5t-19 -71.5q52 82 58.5 92t11.5 16l534 670l19 100h328l-232 -1404h-328l125 761q5 31 12 65t15 64q-18 -31 -38 -62.5t-30 -43.5l-534 -672l-19 -112h-327zM497 1757h248q-2 -23 4.5 -43t24.5 -37q18 -18 44 -27.5t60 -9.5
q31 0 58 9t49 28q19 16 29.5 36.5t13.5 43.5h252q-13 -61 -47.5 -112.5t-90.5 -88.5t-131 -56.5t-151 -19.5q-88 0 -161 21t-116 57q-42 36 -64.5 88.5t-21.5 110.5z" />
    <glyph glyph-name="afii10028" unicode="&#xca;" horiz-adv-x="1349" 
d="M284 1404h328l-92 -561h94q97 0 154.5 52.5t130.5 201.5q56 116 90.5 172.5t64.5 85.5q26 25 53 37t58 12h264q-36 -25 -69.5 -68t-84.5 -126q-42 -69 -76 -131.5t-67 -116.5q-35 -59 -66 -98t-57 -60q-25 -20 -56.5 -33.5t-62.5 -19.5v-8q45 -8 86.5 -37t73.5 -78
q19 -29 33.5 -64.5t28.5 -92.5q12 -52 24 -115.5t14 -77.5q21 -100 45.5 -165t59.5 -113h-303q-35 3 -59 36t-39 93q-9 32 -16.5 73.5t-26.5 177.5q-12 80 -26 120t-36 61t-61 32t-80 11h-127l-99 -604h-327z" />
    <glyph glyph-name="afii10028" unicode="&#x41a;" horiz-adv-x="1349" 
d="M284 1404h328l-92 -561h94q97 0 154.5 52.5t130.5 201.5q56 116 90.5 172.5t64.5 85.5q26 25 53 37t58 12h264q-36 -25 -69.5 -68t-84.5 -126q-42 -69 -76 -131.5t-67 -116.5q-35 -59 -66 -98t-57 -60q-25 -20 -56.5 -33.5t-62.5 -19.5v-8q45 -8 86.5 -37t73.5 -78
q19 -29 33.5 -64.5t28.5 -92.5q12 -52 24 -115.5t14 -77.5q21 -100 45.5 -165t59.5 -113h-303q-35 3 -59 36t-39 93q-9 32 -16.5 73.5t-26.5 177.5q-12 80 -26 120t-36 61t-61 32t-80 11h-127l-99 -604h-327z" />
    <glyph glyph-name="afii10029" unicode="&#xcb;" horiz-adv-x="1325" 
d="M430 1404h903l-232 -1404h-327l188 1146h-305l-49 -237q-9 -43 -38.5 -158.5t-47.5 -181.5q-37 -130 -76.5 -218.5t-93.5 -160.5q-73 -97 -168.5 -149.5t-209.5 -52.5q-12 0 -26 1.5t-31 4.5l43 262q76 5 132.5 48.5t99.5 129.5q51 101 109.5 339.5t109.5 526.5z" />
    <glyph glyph-name="afii10029" unicode="&#x41b;" horiz-adv-x="1325" 
d="M430 1404h903l-232 -1404h-327l188 1146h-305l-49 -237q-9 -43 -38.5 -158.5t-47.5 -181.5q-37 -130 -76.5 -218.5t-93.5 -160.5q-73 -97 -168.5 -149.5t-209.5 -52.5q-12 0 -26 1.5t-31 4.5l43 262q76 5 132.5 48.5t99.5 129.5q51 101 109.5 339.5t109.5 526.5z" />
    <glyph glyph-name="afii10030" unicode="&#xcc;" horiz-adv-x="1740" 
d="M284 1404h428l150 -897l4 -2l438 899h459l-230 -1404h-313l180 1093h-4l-520 -1093h-211l-170 1091l-4 2l-178 -1093h-258z" />
    <glyph glyph-name="afii10030" unicode="&#x41c;" horiz-adv-x="1740" 
d="M284 1404h428l150 -897l4 -2l438 899h459l-230 -1404h-313l180 1093h-4l-520 -1093h-211l-170 1091l-4 2l-178 -1093h-258z" />
    <glyph glyph-name="afii10031" unicode="&#xcd;" horiz-adv-x="1392" 
d="M284 1404h328l-90 -548h463l88 548h327l-229 -1404h-328l97 598h-461l-97 -598h-327z" />
    <glyph glyph-name="afii10031" unicode="&#x41d;" horiz-adv-x="1392" 
d="M284 1404h328l-90 -548h463l88 548h327l-229 -1404h-328l97 598h-461l-97 -598h-327z" />
    <glyph glyph-name="afii10032" unicode="&#xce;" horiz-adv-x="1413" 
d="M811 1425q125 0 209.5 -28t152.5 -85q93 -77 146 -202t53 -283q0 -157 -49.5 -318.5t-126.5 -265.5q-96 -128 -237 -195.5t-310 -67.5q-130 0 -225.5 39.5t-167.5 115.5q-83 85 -119.5 194t-36.5 246q0 198 58 367t181 292q96 95 206 143t266 48zM440 542
q0 -61 10.5 -110t34.5 -90q33 -59 81 -86t115 -27q69 0 118 26.5t89 77.5q61 78 102.5 231t41.5 300q0 61 -11.5 115.5t-33.5 93.5q-30 50 -80.5 78t-116.5 28q-64 0 -115.5 -27t-91.5 -77q-60 -77 -101.5 -230.5t-41.5 -302.5z" />
    <glyph glyph-name="afii10032" unicode="&#x41e;" horiz-adv-x="1413" 
d="M811 1425q125 0 209.5 -28t152.5 -85q93 -77 146 -202t53 -283q0 -157 -49.5 -318.5t-126.5 -265.5q-96 -128 -237 -195.5t-310 -67.5q-130 0 -225.5 39.5t-167.5 115.5q-83 85 -119.5 194t-36.5 246q0 198 58 367t181 292q96 95 206 143t266 48zM440 542
q0 -61 10.5 -110t34.5 -90q33 -59 81 -86t115 -27q69 0 118 26.5t89 77.5q61 78 102.5 231t41.5 300q0 61 -11.5 115.5t-33.5 93.5q-30 50 -80.5 78t-116.5 28q-64 0 -115.5 -27t-91.5 -77q-60 -77 -101.5 -230.5t-41.5 -302.5z" />
    <glyph glyph-name="afii10033" unicode="&#xcf;" horiz-adv-x="1386" 
d="M286 1404h1108l-231 -1404h-328l186 1146h-452l-187 -1146h-327z" />
    <glyph glyph-name="afii10033" unicode="&#x41f;" horiz-adv-x="1386" 
d="M286 1404h1108l-231 -1404h-328l186 1146h-452l-187 -1146h-327z" />
    <glyph glyph-name="afii10034" unicode="&#xd0;" horiz-adv-x="1273" 
d="M286 1404h508q156 0 257 -27.5t163 -86.5q46 -44 71 -107t25 -149q0 -127 -52 -228.5t-138 -164.5q-79 -58 -182 -84.5t-259 -26.5h-208l-89 -530h-327zM573 1159l-61 -379h217q62 0 106.5 14.5t81.5 48.5q33 31 49.5 70.5t16.5 91.5q0 42 -13.5 70t-38.5 47
q-22 17 -56.5 27t-72.5 10h-229z" />
    <glyph glyph-name="afii10034" unicode="&#x420;" horiz-adv-x="1273" 
d="M286 1404h508q156 0 257 -27.5t163 -86.5q46 -44 71 -107t25 -149q0 -127 -52 -228.5t-138 -164.5q-79 -58 -182 -84.5t-259 -26.5h-208l-89 -530h-327zM573 1159l-61 -379h217q62 0 106.5 14.5t81.5 48.5q33 31 49.5 70.5t16.5 91.5q0 42 -13.5 70t-38.5 47
q-22 17 -56.5 27t-72.5 10h-229z" />
    <glyph glyph-name="afii10035" unicode="&#xd1;" horiz-adv-x="1316" 
d="M1314 913l-297 -35q0 52 -12 104.5t-35 92.5q-31 54 -75.5 79t-110.5 25q-81 0 -141 -45t-105 -139q-48 -100 -74 -231.5t-26 -239.5q0 -70 15.5 -127.5t49.5 -95.5q29 -33 71 -52.5t89 -19.5q105 0 183 72.5t108 205.5l293 -53q-18 -58 -44.5 -113t-64.5 -108
q-96 -136 -214.5 -194.5t-270.5 -58.5q-138 0 -246 53.5t-180 146.5q-62 78 -95.5 182.5t-33.5 218.5q0 158 51.5 319.5t142.5 276.5q94 118 221.5 183t292.5 65q121 0 213.5 -37t153.5 -100q64 -67 101 -170t40 -205z" />
    <glyph glyph-name="afii10035" unicode="&#x421;" horiz-adv-x="1316" 
d="M1314 913l-297 -35q0 52 -12 104.5t-35 92.5q-31 54 -75.5 79t-110.5 25q-81 0 -141 -45t-105 -139q-48 -100 -74 -231.5t-26 -239.5q0 -70 15.5 -127.5t49.5 -95.5q29 -33 71 -52.5t89 -19.5q105 0 183 72.5t108 205.5l293 -53q-18 -58 -44.5 -113t-64.5 -108
q-96 -136 -214.5 -194.5t-270.5 -58.5q-138 0 -246 53.5t-180 146.5q-62 78 -95.5 182.5t-33.5 218.5q0 158 51.5 319.5t142.5 276.5q94 118 221.5 183t292.5 65q121 0 213.5 -37t153.5 -100q64 -67 101 -170t40 -205z" />
    <glyph glyph-name="afii10036" unicode="&#xd2;" horiz-adv-x="991" 
d="M147 1404h995l-43 -258h-334l-188 -1146h-328l189 1146h-334z" />
    <glyph glyph-name="afii10036" unicode="&#x422;" horiz-adv-x="991" 
d="M147 1404h995l-43 -258h-334l-188 -1146h-328l189 1146h-334z" />
    <glyph glyph-name="afii10037" unicode="&#xd3;" horiz-adv-x="1210" 
d="M149 1404h360l199 -671h6l377 671h303l-590 -1011q-63 -109 -116.5 -184t-100.5 -117q-63 -57 -138 -84.5t-183 -27.5q-40 0 -83 5t-89 15l41 249q31 -9 63 -13.5t62 -4.5q47 0 85.5 11.5t69.5 37.5q23 19 41.5 45t30.5 53z" />
    <glyph glyph-name="afii10037" unicode="&#x423;" horiz-adv-x="1210" 
d="M149 1404h360l199 -671h6l377 671h303l-590 -1011q-63 -109 -116.5 -184t-100.5 -117q-63 -57 -138 -84.5t-183 -27.5q-40 0 -83 5t-89 15l41 249q31 -9 63 -13.5t62 -4.5q47 0 85.5 11.5t69.5 37.5q23 19 41.5 45t30.5 53z" />
    <glyph glyph-name="afii10038" unicode="&#xd4;" horiz-adv-x="1697" 
d="M833 1445h328l-27 -163q139 3 255 -46t181 -135q46 -60 66 -134t20 -175q0 -137 -50.5 -261t-156.5 -214q-88 -76 -214 -115t-285 -37l-29 -173h-328l29 175q-124 -1 -224 33t-169 103q-64 63 -96.5 153t-32.5 199q0 157 71.5 291t217.5 225q90 57 189 83.5t226 25.5z
M671 395l107 657q-68 0 -136.5 -28.5t-115.5 -73.5q-55 -52 -85 -128.5t-30 -154.5q0 -62 19 -111.5t53 -84.5q37 -39 87.5 -59.5t100.5 -16.5zM1085 1054l-109 -661q103 3 174 34.5t121 102.5q35 50 54.5 119.5t19.5 136.5q0 81 -28 140.5t-76 90.5q-29 19 -71.5 29
t-84.5 8z" />
    <glyph glyph-name="afii10038" unicode="&#x424;" horiz-adv-x="1697" 
d="M833 1445h328l-27 -163q139 3 255 -46t181 -135q46 -60 66 -134t20 -175q0 -137 -50.5 -261t-156.5 -214q-88 -76 -214 -115t-285 -37l-29 -173h-328l29 175q-124 -1 -224 33t-169 103q-64 63 -96.5 153t-32.5 199q0 157 71.5 291t217.5 225q90 57 189 83.5t226 25.5z
M671 395l107 657q-68 0 -136.5 -28.5t-115.5 -73.5q-55 -52 -85 -128.5t-30 -154.5q0 -62 19 -111.5t53 -84.5q37 -39 87.5 -59.5t100.5 -16.5zM1085 1054l-109 -661q103 3 174 34.5t121 102.5q35 50 54.5 119.5t19.5 136.5q0 81 -28 140.5t-76 90.5q-29 19 -71.5 29
t-84.5 8z" />
    <glyph glyph-name="afii10039" unicode="&#xd5;" horiz-adv-x="1280" 
d="M1355 1404l-506 -651l344 -753h-378l-220 503l-378 -503h-313l571 729l-312 675h379l182 -436l328 436h303z" />
    <glyph glyph-name="afii10039" unicode="&#x425;" horiz-adv-x="1280" 
d="M1355 1404l-506 -651l344 -753h-378l-220 503l-378 -503h-313l571 729l-312 675h379l182 -436l328 436h303z" />
    <glyph glyph-name="afii10040" unicode="&#xd6;" horiz-adv-x="1449" 
d="M313 1404h328l-189 -1142h453l188 1142h328l-187 -1142h138l-92 -556h-300l48 294h-947z" />
    <glyph glyph-name="afii10040" unicode="&#x426;" horiz-adv-x="1449" 
d="M313 1404h328l-189 -1142h453l188 1142h328l-187 -1142h138l-92 -556h-300l48 294h-947z" />
    <glyph glyph-name="afii10041" unicode="&#xd7;" horiz-adv-x="1314" 
d="M237 1404h320l-64 -380q-5 -30 -6.5 -45.5t-1.5 -28.5q0 -28 6.5 -48.5t17.5 -35.5q20 -25 57.5 -37t108.5 -12q46 0 106 4.5t118 11.5l96 571h328l-232 -1404h-328l95 581q-64 -6 -141 -10t-144 -4q-121 0 -203 21t-129 63q-41 37 -62.5 94.5t-21.5 132.5q0 33 4 69
t13 87z" />
    <glyph glyph-name="afii10041" unicode="&#x427;" horiz-adv-x="1314" 
d="M237 1404h320l-64 -380q-5 -30 -6.5 -45.5t-1.5 -28.5q0 -28 6.5 -48.5t17.5 -35.5q20 -25 57.5 -37t108.5 -12q46 0 106 4.5t118 11.5l96 571h328l-232 -1404h-328l95 581q-64 -6 -141 -10t-144 -4q-121 0 -203 21t-129 63q-41 37 -62.5 94.5t-21.5 132.5q0 33 4 69
t13 87z" />
    <glyph glyph-name="afii10042" unicode="&#xd8;" horiz-adv-x="1912" 
d="M284 1404h318l-187 -1142h342l187 1142h317l-186 -1142h342l186 1142h318l-232 -1404h-1634z" />
    <glyph glyph-name="afii10042" unicode="&#x428;" horiz-adv-x="1912" 
d="M284 1404h318l-187 -1142h342l187 1142h317l-186 -1142h342l186 1142h318l-232 -1404h-1634z" />
    <glyph glyph-name="afii10043" unicode="&#xd9;" horiz-adv-x="1964" 
d="M286 1404h318l-189 -1142h342l189 1142h317l-188 -1142h342l188 1142h318l-189 -1142h137l-92 -556h-299l47 294h-1472z" />
    <glyph glyph-name="afii10043" unicode="&#x429;" horiz-adv-x="1964" 
d="M286 1404h318l-189 -1142h342l189 1142h317l-188 -1142h342l188 1142h318l-189 -1142h137l-92 -556h-299l47 294h-1472z" />
    <glyph glyph-name="afii10044" unicode="&#xda;" horiz-adv-x="1470" 
d="M135 1404h684l-90 -557h282q104 0 178 -23t123 -65q52 -44 79.5 -109t27.5 -155q0 -137 -51.5 -238.5t-137.5 -162.5q-64 -47 -150 -70.5t-198 -23.5h-622l188 1146h-356zM688 602l-58 -353h213q68 0 104 10t64 31q37 28 58.5 72t21.5 94q0 41 -12 70.5t-39 48.5
q-20 14 -44.5 20.5t-68.5 6.5h-239z" />
    <glyph glyph-name="afii10044" unicode="&#x42a;" horiz-adv-x="1470" 
d="M135 1404h684l-90 -557h282q104 0 178 -23t123 -65q52 -44 79.5 -109t27.5 -155q0 -137 -51.5 -238.5t-137.5 -162.5q-64 -47 -150 -70.5t-198 -23.5h-622l188 1146h-356zM688 602l-58 -353h213q68 0 104 10t64 31q37 28 58.5 72t21.5 94q0 41 -12 70.5t-39 48.5
q-20 14 -44.5 20.5t-68.5 6.5h-239z" />
    <glyph glyph-name="afii10045" unicode="&#xdb;" horiz-adv-x="1794" 
d="M1476 1404h326l-228 -1404h-327zM284 1404h326l-90 -557h291q95 0 172 -22t129 -66q51 -44 78.5 -108.5t27.5 -145.5q0 -128 -51.5 -238t-138.5 -173q-64 -47 -150.5 -70.5t-198.5 -23.5h-624zM479 602l-58 -353h217q87 0 137.5 22.5t82.5 74.5q14 22 23 53t9 59
q0 42 -19.5 74.5t-49.5 48.5q-19 10 -45.5 15.5t-73.5 5.5h-223z" />
    <glyph glyph-name="afii10045" unicode="&#x42b;" horiz-adv-x="1794" 
d="M1476 1404h326l-228 -1404h-327zM284 1404h326l-90 -557h291q95 0 172 -22t129 -66q51 -44 78.5 -108.5t27.5 -145.5q0 -128 -51.5 -238t-138.5 -173q-64 -47 -150.5 -70.5t-198.5 -23.5h-624zM479 602l-58 -353h217q87 0 137.5 22.5t82.5 74.5q14 22 23 53t9 59
q0 42 -19.5 74.5t-49.5 48.5q-19 10 -45.5 15.5t-73.5 5.5h-223z" />
    <glyph glyph-name="afii10046" unicode="&#xdc;" horiz-adv-x="1265" 
d="M284 1404h330l-92 -557h286q105 0 178.5 -23t123.5 -65q51 -44 78.5 -109t27.5 -153q0 -124 -49 -231t-139 -172q-65 -46 -152.5 -70t-198.5 -24h-622zM481 602l-58 -353h213q77 0 120.5 15.5t76.5 50.5q25 26 40 63t15 80q0 47 -17.5 77t-49.5 46q-21 11 -52 16t-69 5
h-219z" />
    <glyph glyph-name="afii10046" unicode="&#x42c;" horiz-adv-x="1265" 
d="M284 1404h330l-92 -557h286q105 0 178.5 -23t123.5 -65q51 -44 78.5 -109t27.5 -153q0 -124 -49 -231t-139 -172q-65 -46 -152.5 -70t-198.5 -24h-622zM481 602l-58 -353h213q77 0 120.5 15.5t76.5 50.5q25 26 40 63t15 80q0 47 -17.5 77t-49.5 46q-21 11 -52 16t-69 5
h-219z" />
    <glyph glyph-name="afii10047" unicode="&#xdd;" horiz-adv-x="1286" 
d="M391 946l-297 43q27 89 76 162.5t112 128.5q90 77 195 111t235 34q111 0 195.5 -24.5t152.5 -80.5q92 -73 138.5 -196t46.5 -279q0 -202 -72.5 -400t-202.5 -314q-88 -80 -192 -115.5t-258 -35.5q-134 0 -225 34t-154 100q-55 58 -87 139t-34 168l299 35
q1 -35 11.5 -70.5t29.5 -64.5q30 -45 77 -68.5t120 -23.5q77 0 133 33t100 98q33 48 55.5 111.5t30.5 128.5h-416l37 239h402q3 19 4.5 37.5t1.5 36.5q0 72 -12.5 115t-36.5 75q-29 38 -69 57t-101 19t-107 -17.5t-84 -51.5q-36 -33 -63 -76.5t-41 -87.5z" />
    <glyph glyph-name="afii10047" unicode="&#x42d;" horiz-adv-x="1286" 
d="M391 946l-297 43q27 89 76 162.5t112 128.5q90 77 195 111t235 34q111 0 195.5 -24.5t152.5 -80.5q92 -73 138.5 -196t46.5 -279q0 -202 -72.5 -400t-202.5 -314q-88 -80 -192 -115.5t-258 -35.5q-134 0 -225 34t-154 100q-55 58 -87 139t-34 168l299 35
q1 -35 11.5 -70.5t29.5 -64.5q30 -45 77 -68.5t120 -23.5q77 0 133 33t100 98q33 48 55.5 111.5t30.5 128.5h-416l37 239h402q3 19 4.5 37.5t1.5 36.5q0 72 -12.5 115t-36.5 75q-29 38 -69 57t-101 19t-107 -17.5t-84 -51.5q-36 -33 -63 -76.5t-41 -87.5z" />
    <glyph glyph-name="afii10048" unicode="&#xde;" horiz-adv-x="1955" 
d="M520 845h178q23 113 76 213t129 176q92 94 207.5 142.5t267.5 48.5q111 0 194 -26.5t152 -86.5q93 -79 141.5 -203t48.5 -290q0 -154 -42.5 -305.5t-129.5 -270.5q-102 -139 -236.5 -201t-297.5 -62q-150 0 -264 57.5t-189 179.5q-48 78 -72.5 179t-15.5 210h-186
l-99 -606h-327l231 1404h328zM983 544q0 -62 10.5 -112t34.5 -90q33 -59 82 -86t114 -27q94 0 159.5 55t108.5 158q36 85 59 203t23 219q0 66 -11.5 117t-33.5 90q-32 55 -79 81.5t-113 26.5q-72 0 -121.5 -26.5t-89.5 -77.5q-61 -78 -102 -230t-41 -301z" />
    <glyph glyph-name="afii10048" unicode="&#x42e;" horiz-adv-x="1955" 
d="M520 845h178q23 113 76 213t129 176q92 94 207.5 142.5t267.5 48.5q111 0 194 -26.5t152 -86.5q93 -79 141.5 -203t48.5 -290q0 -154 -42.5 -305.5t-129.5 -270.5q-102 -139 -236.5 -201t-297.5 -62q-150 0 -264 57.5t-189 179.5q-48 78 -72.5 179t-15.5 210h-186
l-99 -606h-327l231 1404h328zM983 544q0 -62 10.5 -112t34.5 -90q33 -59 82 -86t114 -27q94 0 159.5 55t108.5 158q36 85 59 203t23 219q0 66 -11.5 117t-33.5 90q-32 55 -79 81.5t-113 26.5q-72 0 -121.5 -26.5t-89.5 -77.5q-61 -78 -102 -230t-41 -301z" />
    <glyph glyph-name="afii10049" unicode="&#xdf;" horiz-adv-x="1333" 
d="M1341 1404l-231 -1404h-328l94 563h-176l-373 -563h-386l448 612q-33 9 -61.5 25t-51.5 36q-55 48 -83 116.5t-28 152.5q0 111 43 201.5t113 148.5q70 57 163 84.5t263 27.5h594zM972 1159h-237q-63 0 -101 -10.5t-67 -30.5q-37 -26 -55.5 -65.5t-18.5 -90.5
q0 -31 12 -59.5t37 -48.5q24 -20 62 -30.5t96 -10.5h215z" />
    <glyph glyph-name="afii10049" unicode="&#x42f;" horiz-adv-x="1333" 
d="M1341 1404l-231 -1404h-328l94 563h-176l-373 -563h-386l448 612q-33 9 -61.5 25t-51.5 36q-55 48 -83 116.5t-28 152.5q0 111 43 201.5t113 148.5q70 57 163 84.5t263 27.5h594zM972 1159h-237q-63 0 -101 -10.5t-67 -30.5q-37 -26 -55.5 -65.5t-18.5 -90.5
q0 -31 12 -59.5t37 -48.5q24 -20 62 -30.5t96 -10.5h215z" />
    <glyph glyph-name="dagger" unicode="&#x2020;" horiz-adv-x="1091" 
d="M702 1382l147 22l-147 -413l451 80l-48 -134l5 -133l-429 68q12 -27 29 -51t47 -56q-86 -238 -153.5 -500t-102.5 -494l-16 -108h-129l18 108q24 138 49 394.5t25 364.5v27t-4 208q32 26 59.5 52t51.5 55l-449 -68l47 133l-4 134l424 -80l-12 413z" />
    <glyph glyph-name="degree" unicode="&#xb0;" horiz-adv-x="768" 
d="M174 1118q0 127 89.5 217t217.5 90q127 0 217 -90t90 -217q0 -128 -90 -217.5t-217 -89.5q-128 0 -217.5 89.5t-89.5 217.5zM329 1118q0 -63 44.5 -107.5t107.5 -44.5q62 0 106.5 44.5t44.5 107.5q0 62 -44.5 106.5t-106.5 44.5q-63 0 -107.5 -44.5t-44.5 -106.5z" />
    <glyph glyph-name="CyrHardG" unicode="&#xa5;" horiz-adv-x="1097" 
d="M286 1404h656l32 211h267l-76 -469h-594l-189 -1146h-327z" />
    <glyph glyph-name="CyrHardG" unicode="&#x490;" horiz-adv-x="1097" 
d="M286 1404h656l32 211h267l-76 -469h-594l-189 -1146h-327z" />
    <glyph glyph-name="sterling" horiz-adv-x="1288" 
d="M1310 1175l-252 -98q-23 50 -60.5 75t-86.5 25q-45 0 -77.5 -16t-55.5 -47t-35 -76.5t-12 -134.5v-74h249l-32 -193h-228l-8 -77q-6 -62 -29 -116.5t-61 -100.5q-24 -30 -51.5 -52.5t-61.5 -40.5h234q97 0 165.5 39.5t106.5 112.5l240 -70q-22 -54 -55.5 -103t-77.5 -89
q-79 -72 -175 -105.5t-227 -33.5h-720l40 249h76q51 0 96 15.5t80 44.5q50 41 76 97.5t29 123.5l4 106h-197l33 193h164l4 102q4 98 34 184t91 156q72 83 163 118.5t212 35.5q84 0 144.5 -13t113.5 -44q58 -35 94.5 -82.5t52.5 -110.5z" />
    <glyph glyph-name="section" unicode="&#xa7;" horiz-adv-x="1302" 
d="M1234 1165l-225 -49q-10 31 -29 56t-43 40q-24 16 -62 24.5t-81 8.5q-48 0 -87.5 -12t-61.5 -31q-19 -16 -28 -38t-9 -44q0 -14 6 -30t14 -28q14 -18 54.5 -44t66.5 -35l90 -33q155 -56 193.5 -77.5t64.5 -45.5q40 -37 60 -85t20 -101q0 -82 -47.5 -166t-144.5 -158
q65 -32 98 -92t33 -133q0 -77 -31 -150t-82 -128q-71 -77 -185 -121.5t-266 -44.5q-92 0 -162.5 19t-133.5 59q-65 41 -103 95.5t-55 131.5l260 43q6 -25 18.5 -47t30.5 -41q32 -33 82 -53t109 -20q45 0 90 10.5t77 30.5q34 20 53 50t19 70q0 30 -13.5 54.5t-41.5 45.5
q-13 10 -29.5 19t-107.5 40l-97 33q-137 47 -198 86t-90 86q-19 29 -29 67t-10 80q0 96 52.5 185t149.5 153q-46 38 -70 89t-24 112q0 79 36 154.5t97 124.5q63 49 161 74.5t210 25.5q82 0 147.5 -15.5t116.5 -48.5q55 -35 88.5 -85t48.5 -111zM735 704l-131 51
q-21 -12 -45 -29.5t-37 -31.5q-20 -21 -31.5 -48.5t-11.5 -52.5t10.5 -42.5t38.5 -36.5q29 -20 59 -35t70 -29l143 -51q28 15 54.5 37t39.5 43q11 16 18 37t7 36q0 32 -17.5 56.5t-50.5 42.5q-16 9 -55 26.5t-61 26.5z" />
    <glyph glyph-name="bullet" unicode="&#x2022;" horiz-adv-x="1077" 
d="M286 702q0 107 73 179.5t179 72.5q107 0 179.5 -72.5t72.5 -179.5t-72.5 -179.5t-179.5 -72.5q-106 0 -179 72.5t-73 179.5z" />
    <glyph glyph-name="bullet" unicode="&#xf000;" horiz-adv-x="1077" 
d="M286 702q0 107 73 179.5t179 72.5q107 0 179.5 -72.5t72.5 -179.5t-72.5 -179.5t-179.5 -72.5q-106 0 -179 72.5t-73 179.5z" />
    <glyph glyph-name="paragraph" unicode="&#xb6;" horiz-adv-x="1228" 
d="M1290 1404l-25 -149h-129l-262 -1607h-162l262 1607h-159l-263 -1607h-161l137 837q-58 2 -116.5 21t-102.5 55q-65 51 -100 131.5t-35 167.5q0 120 53 233t137 184q75 64 169 95.5t204 31.5h553z" />
    <glyph glyph-name="afii10055" unicode="&#xb2;" horiz-adv-x="606" 
d="M614 1404l-232 -1404h-327l231 1404h328z" />
    <glyph glyph-name="afii10055" unicode="&#x406;" horiz-adv-x="606" 
d="M614 1404l-232 -1404h-327l231 1404h328z" />
    <glyph glyph-name="registered" unicode="&#xae;" horiz-adv-x="1619" 
d="M1564 704q0 -138 -54.5 -273t-158.5 -239q-99 -100 -232 -156t-282 -56q-141 0 -275.5 56t-234.5 156q-98 99 -155.5 236t-57.5 274t57 273.5t154 234.5q100 101 235.5 158t276.5 57q149 0 282 -56.5t232 -156.5q102 -103 157.5 -236.5t55.5 -271.5zM1462 704
q0 121 -47.5 236.5t-134.5 201.5q-84 84 -199.5 132.5t-243.5 48.5q-123 0 -239 -48.5t-201 -134.5q-86 -85 -133 -200.5t-47 -237.5q0 -121 48.5 -237t133.5 -201q85 -86 199.5 -134.5t238.5 -48.5q129 0 243.5 48.5t199.5 134.5q87 88 134.5 205t47.5 235zM708 614
l-53 -332h-219l143 844h332q116 0 179 -22.5t101 -63.5q29 -31 45.5 -75.5t16.5 -88.5q0 -56 -23.5 -102.5t-62.5 -77.5q-23 -19 -50.5 -31.5t-56.5 -17.5l113 -365h-225l-94 332h-146zM765 966l-32 -196h118q77 0 104.5 8t45.5 26q13 14 20 34t7 40q0 19 -9.5 38.5
t-23.5 29.5q-13 9 -42.5 14.5t-64.5 5.5h-123z" />
    <glyph glyph-name="copyright" unicode="&#xa9;" horiz-adv-x="1619" 
d="M1564 702q0 -295 -214 -508.5t-513 -213.5q-140 0 -276 56t-234 154t-155.5 235.5t-57.5 274.5q0 135 57.5 275t153.5 237q98 99 235.5 156t276.5 57q147 0 282.5 -57t231.5 -154q101 -102 157 -239.5t56 -272.5zM1462 702q0 118 -48 237.5t-134 204.5q-82 81 -199.5 130
t-243.5 49q-121 0 -239 -49t-201 -132q-85 -84 -132.5 -203t-47.5 -239t48.5 -237t133.5 -201q84 -84 200 -132.5t238 -48.5q127 0 243.5 48.5t199.5 132.5q86 87 134 204.5t48 235.5zM1216 798l-223 -10q-1 78 -3.5 86t-6.5 18q-15 39 -40 56.5t-67 17.5q-29 0 -53 -9
t-41 -24q-44 -37 -71 -125.5t-27 -199.5q0 -43 6.5 -69.5t19.5 -47.5q19 -28 44.5 -39.5t62.5 -11.5q38 0 63.5 10t46.5 35q16 18 31 48t25 60l200 -32q-10 -45 -41 -97.5t-67 -89.5q-56 -57 -123 -82.5t-152 -25.5q-88 0 -158.5 30t-119.5 93q-39 49 -59.5 113.5
t-20.5 127.5q0 94 30 189t83 164q59 77 138 117t181 40q80 0 149.5 -29t112.5 -77q37 -42 59 -107t21 -129z" />
    <glyph glyph-name="trademark" unicode="&#x2122;" horiz-adv-x="1773" 
d="M776 1239h-219l-111 -652h-223l108 652h-219l27 165h665zM1849 1404l-137 -817h-228l103 611l-312 -611h-135l-116 621l-105 -621h-188l137 817h328l79 -464l236 464h338z" />
    <glyph glyph-name="afii10051" horiz-adv-x="1460" 
d="M141 1404h995l-43 -258h-348l-53 -325q69 16 140 24.5t148 8.5q125 0 200 -32t124 -93q37 -47 55.5 -105t18.5 -125q0 -131 -42 -232.5t-116 -166.5q-68 -61 -158 -90.5t-208 -29.5q-54 0 -103.5 6.5t-97.5 17.5l76 239q25 -7 47.5 -10.5t44.5 -3.5q52 0 91 12t71 39
q36 32 51.5 72.5t15.5 99.5q0 36 -8.5 59t-26.5 41q-24 26 -62.5 39t-88.5 13q-49 0 -107.5 -8t-105.5 -21l-94 -575h-328l188 1146h-319z" />
    <glyph glyph-name="afii10051" unicode="&#x402;" horiz-adv-x="1460" 
d="M141 1404h995l-43 -258h-348l-53 -325q69 16 140 24.5t148 8.5q125 0 200 -32t124 -93q37 -47 55.5 -105t18.5 -125q0 -131 -42 -232.5t-116 -166.5q-68 -61 -158 -90.5t-208 -29.5q-54 0 -103.5 6.5t-97.5 17.5l76 239q25 -7 47.5 -10.5t44.5 -3.5q52 0 91 12t71 39
q36 32 51.5 72.5t15.5 99.5q0 36 -8.5 59t-26.5 41q-24 26 -62.5 39t-88.5 13q-49 0 -107.5 -8t-105.5 -21l-94 -575h-328l188 1146h-319z" />
    <glyph glyph-name="afii10099" horiz-adv-x="1189" 
d="M577 1404l-20 -110h348l-27 -174h-348l-47 -277q22 28 49.5 53.5t58.5 47.5q52 34 109 51.5t133 17.5q68 0 119.5 -19t85.5 -57q30 -32 44.5 -78.5t14.5 -109.5q0 -24 -2.5 -49t-7.5 -57l-96 -578q-43 -258 -143.5 -341.5t-268.5 -83.5q-41 0 -96.5 7t-102.5 18l37 219
q22 -7 54.5 -11t62.5 -4q62 0 96.5 36t55.5 156l92 553q5 34 6.5 46t1.5 24q0 32 -8.5 56t-28.5 42q-15 14 -34.5 20t-41.5 6q-36 0 -81 -20.5t-78 -56.5q-30 -32 -49.5 -77t-28.5 -99l-90 -555h-306l185 1120h-162l27 174h161l21 110h305z" />
    <glyph glyph-name="afii10099" unicode="&#x452;" horiz-adv-x="1189" 
d="M577 1404l-20 -110h348l-27 -174h-348l-47 -277q22 28 49.5 53.5t58.5 47.5q52 34 109 51.5t133 17.5q68 0 119.5 -19t85.5 -57q30 -32 44.5 -78.5t14.5 -109.5q0 -24 -2.5 -49t-7.5 -57l-96 -578q-43 -258 -143.5 -341.5t-268.5 -83.5q-41 0 -96.5 7t-102.5 18l37 219
q22 -7 54.5 -11t62.5 -4q62 0 96.5 36t55.5 156l92 553q5 34 6.5 46t1.5 24q0 32 -8.5 56t-28.5 42q-15 14 -34.5 20t-41.5 6q-36 0 -81 -20.5t-78 -56.5q-30 -32 -49.5 -77t-28.5 -99l-90 -555h-306l185 1120h-162l27 174h161l21 110h305z" />
    <glyph glyph-name="NotEqual" horiz-adv-x="1263" 
d="M149 937h598l137 265h183l-138 -265h260v-237h-383l-108 -209h491v-238h-614l-143 -273h-183l142 273h-242v238h367l108 209h-475v237z" />
    <glyph glyph-name="glyph144" horiz-adv-x="937" 
d="M458 1525l-49 113l428 223l78 -170z" />
    <glyph glyph-name="afii10052" horiz-adv-x="1074" 
d="M284 1404h912l-46 -258h-579l-189 -1146h-327zM525 1525l-49 113l428 223l78 -170z" />
    <glyph glyph-name="afii10052" unicode="&#x403;" horiz-adv-x="1074" 
d="M284 1404h912l-46 -258h-579l-189 -1146h-327zM525 1525l-49 113l428 223l78 -170z" />
    <glyph glyph-name="glyph146" unicode="&#xe3;" horiz-adv-x="872" 
d="M206 1044h768l-37 -215h-462l-136 -829h-305z" />
    <glyph glyph-name="glyph146" unicode="&#x433;" horiz-adv-x="872" 
d="M206 1044h768l-37 -215h-462l-136 -829h-305z" />
    <glyph glyph-name="glyph147" horiz-adv-x="1062" 
d="M870 1552l78 -166l-451 -197l-47 115z" />
    <glyph glyph-name="afii10100" unicode="&#x192;" horiz-adv-x="872" 
d="M206 1044h768l-37 -215h-462l-136 -829h-305zM776 1552l78 -166l-451 -197l-47 115z" />
    <glyph glyph-name="afii10100" unicode="&#x453;" horiz-adv-x="872" 
d="M206 1044h768l-37 -215h-462l-136 -829h-305zM776 1552l78 -166l-451 -197l-47 115z" />
    <glyph glyph-name="infinity" horiz-adv-x="1503" 
d="M866 722q135 -125 154.5 -130t39.5 -5q72 0 116 43t44 109q0 54 -45.5 92.5t-114.5 38.5q-51 0 -104 -41.5t-90 -106.5zM698 729q-78 94 -114.5 117.5t-78.5 23.5q-63 0 -112 -40.5t-49 -109.5q0 -54 45.5 -93.5t113.5 -39.5q43 0 78.5 21t116.5 121zM788 548
q-66 -78 -152 -124t-184 -46q-155 0 -252.5 100.5t-97.5 256.5q0 157 99 250.5t235 93.5q100 0 188.5 -45t151.5 -123q60 76 150 122t188 46q154 0 251 -100.5t97 -249.5q0 -150 -99 -250.5t-253 -100.5q-79 0 -145 30t-177 140z" />
    <glyph glyph-name="plusminus" unicode="&#xb1;" horiz-adv-x="1275" 
d="M557 1359h237v-407h408v-238h-408v-407h-237v407h-408v238h408v407zM149 0v237h1053v-237h-1053z" />
    <glyph glyph-name="lessequal" horiz-adv-x="1329" 
d="M505 757l688 -268v-254l-1026 412v221l1026 412v-254zM167 256v256l1026 -412v-255z" />
    <glyph glyph-name="greaterequal" horiz-adv-x="1329" 
d="M856 757l-689 269v254l1026 -412v-221l-1026 -412v254zM1193 256l-1026 -411v255l1026 412v-256z" />
    <glyph glyph-name="mu" unicode="&#xb5;" horiz-adv-x="1181" 
d="M1142 1044l-172 -1044h-286l30 186h-4q-59 -99 -140.5 -145.5t-174.5 -46.5q-12 0 -25.5 1.5t-30.5 4.5l-55 -333h-304l226 1377h306l-105 -635q-18 -110 8 -153.5t94 -43.5q87 0 150 68t82 180l96 584h305z" />
    <glyph glyph-name="cyrhardg" unicode="&#xb4;" horiz-adv-x="872" 
d="M215 1044h561l24 162h209l-61 -379h-463l-137 -827h-308z" />
    <glyph glyph-name="cyrhardg" unicode="&#x491;" horiz-adv-x="872" 
d="M215 1044h561l24 162h209l-61 -379h-463l-137 -827h-308z" />
    <glyph glyph-name="afii10057" unicode="&#xa3;" horiz-adv-x="827" 
d="M522 1404h327l-141 -876q-40 -246 -98.5 -343t-159.5 -149q-60 -30 -128 -43t-159 -13q-59 0 -116.5 6t-117.5 18l39 262q37 -11 78.5 -17t79.5 -6q61 0 105 18t72 50q25 29 43 79.5t30 123.5z" />
    <glyph glyph-name="afii10057" unicode="&#x408;" horiz-adv-x="827" 
d="M522 1404h327l-141 -876q-40 -246 -98.5 -343t-159.5 -149q-60 -30 -128 -43t-159 -13q-59 0 -116.5 6t-117.5 18l39 262q37 -11 78.5 -17t79.5 -6q61 0 105 18t72 50q25 29 43 79.5t30 123.5z" />
    <glyph glyph-name="afii10053" unicode="&#xaa;" horiz-adv-x="1347" 
d="M1345 991l-311 -56q-3 41 -15 80.5t-32 69.5q-31 45 -77.5 69.5t-109.5 24.5q-61 0 -114 -24t-99 -80q-38 -47 -64 -109t-36 -125h405l-38 -239h-408q-4 -24 -6 -44t-2 -38q0 -73 12 -121t37 -84q30 -44 72 -65t102 -21t111.5 22t95.5 64q29 27 51.5 60t38.5 69l297 -57
q-32 -86 -86.5 -159t-128.5 -126q-86 -62 -190 -92t-214 -30q-123 0 -214 34t-173 121q-85 90 -118 188.5t-33 237.5q0 219 70.5 399.5t211.5 302.5q97 83 204.5 122.5t248.5 39.5q144 0 236 -35.5t153 -101.5q52 -56 84 -135.5t39 -161.5z" />
    <glyph glyph-name="afii10053" unicode="&#x404;" horiz-adv-x="1347" 
d="M1345 991l-311 -56q-3 41 -15 80.5t-32 69.5q-31 45 -77.5 69.5t-109.5 24.5q-61 0 -114 -24t-99 -80q-38 -47 -64 -109t-36 -125h405l-38 -239h-408q-4 -24 -6 -44t-2 -38q0 -73 12 -121t37 -84q30 -44 72 -65t102 -21t111.5 22t95.5 64q29 27 51.5 60t38.5 69l297 -57
q-32 -86 -86.5 -159t-128.5 -126q-86 -62 -190 -92t-214 -30q-123 0 -214 34t-173 121q-85 90 -118 188.5t-33 237.5q0 219 70.5 399.5t211.5 302.5q97 83 204.5 122.5t248.5 39.5q144 0 236 -35.5t153 -101.5q52 -56 84 -135.5t39 -161.5z" />
    <glyph glyph-name="afii10101" unicode="&#xba;" horiz-adv-x="1110" 
d="M1083 743l-270 -43q-4 31 -16 60.5t-27 47.5q-22 26 -56 41t-78 15t-80 -15t-65 -43q-34 -32 -58 -80.5t-32 -99.5h311l-26 -172h-310q-4 -20 -6 -40t-2 -40q0 -43 7.5 -75.5t21.5 -53.5q19 -29 51.5 -45t77.5 -16q72 0 130.5 42t90.5 122l264 -39q-27 -76 -75 -135
t-121 -107q-73 -47 -150 -67t-168 -20q-82 0 -157 24t-136 75q-72 62 -105.5 145.5t-33.5 196.5q0 148 40.5 268.5t117.5 207.5q75 83 170.5 125t242.5 42q106 0 183 -22t137 -70q51 -41 84.5 -100t42.5 -129z" />
    <glyph glyph-name="afii10101" unicode="&#x454;" horiz-adv-x="1110" 
d="M1083 743l-270 -43q-4 31 -16 60.5t-27 47.5q-22 26 -56 41t-78 15t-80 -15t-65 -43q-34 -32 -58 -80.5t-32 -99.5h311l-26 -172h-310q-4 -20 -6 -40t-2 -40q0 -43 7.5 -75.5t21.5 -53.5q19 -29 51.5 -45t77.5 -16q72 0 130.5 42t90.5 122l264 -39q-27 -76 -75 -135
t-121 -107q-73 -47 -150 -67t-168 -20q-82 0 -157 24t-136 75q-72 62 -105.5 145.5t-33.5 196.5q0 148 40.5 268.5t117.5 207.5q75 83 170.5 125t242.5 42q106 0 183 -22t137 -70q51 -41 84.5 -100t42.5 -129z" />
    <glyph glyph-name="afii10056" unicode="&#xaf;" horiz-adv-x="768" 
d="M684 1404l-224 -1404h-327l223 1404h328zM901 1783l-37 -237h-226l37 237h226zM483 1783l-37 -237h-225l37 237h225z" />
    <glyph glyph-name="afii10056" unicode="&#x407;" horiz-adv-x="768" 
d="M684 1404l-224 -1404h-327l223 1404h328zM901 1783l-37 -237h-226l37 237h226zM483 1783l-37 -237h-225l37 237h225z" />
    <glyph glyph-name="afii10104" unicode="&#xbf;" horiz-adv-x="704" 
d="M559 1044l-172 -1044h-306l172 1044h306zM774 1415l-39 -238h-236l39 238h236zM393 1415l-39 -238h-236l39 238h236z" />
    <glyph glyph-name="afii10104" unicode="&#x457;" horiz-adv-x="704" 
d="M559 1044l-172 -1044h-306l172 1044h306zM774 1415l-39 -238h-236l39 238h236zM393 1415l-39 -238h-236l39 238h236z" />
    <glyph glyph-name="afii10058" unicode="&#x160;" horiz-adv-x="2013" 
d="M452 1404h903l-90 -557h279q103 0 178 -23t125 -65q52 -44 81 -111t29 -163q0 -116 -47 -221t-137 -170q-63 -47 -150 -70.5t-198 -23.5h-627l189 1146h-308l-34 -168q-65 -310 -126 -494.5t-145 -293.5q-76 -100 -171 -151t-197 -51q-16 0 -33 1.5t-34 4.5l43 262
q76 5 132.5 48.5t100.5 129.5q48 96 102.5 309.5t91.5 421.5zM1224 602l-57 -353h213q63 0 110 14.5t80 47.5q29 27 44.5 66t15.5 75q0 39 -13.5 69t-37.5 48q-22 16 -54.5 24.5t-85.5 8.5h-215z" />
    <glyph glyph-name="afii10058" unicode="&#x409;" horiz-adv-x="2013" 
d="M452 1404h903l-90 -557h279q103 0 178 -23t125 -65q52 -44 81 -111t29 -163q0 -116 -47 -221t-137 -170q-63 -47 -150 -70.5t-198 -23.5h-627l189 1146h-308l-34 -168q-65 -310 -126 -494.5t-145 -293.5q-76 -100 -171 -151t-197 -51q-16 0 -33 1.5t-34 4.5l43 262
q76 5 132.5 48.5t100.5 129.5q48 96 102.5 309.5t91.5 421.5zM1224 602l-57 -353h213q63 0 110 14.5t80 47.5q29 27 44.5 66t15.5 75q0 39 -13.5 69t-37.5 48q-22 16 -54.5 24.5t-85.5 8.5h-215z" />
    <glyph glyph-name="afii10106" unicode="&#x161;" horiz-adv-x="1667" 
d="M339 1044h773l-64 -383h225q84 0 143.5 -14t98.5 -41q48 -35 74 -95t26 -133q0 -65 -22 -126.5t-62 -110.5q-60 -76 -140.5 -108.5t-209.5 -32.5h-545l136 829h-211l-45 -201q-38 -165 -65.5 -246t-70.5 -155q-36 -65 -75 -108t-84 -72q-46 -30 -91 -41.5t-114 -11.5
q-31 0 -47.5 1.5t-33.5 4.5l37 225q41 1 78.5 16t65.5 41q23 21 45.5 56t38.5 75q21 53 49 167.5t50 236.5zM1021 489l-47 -289h140q49 0 79 10t54 31q26 23 41.5 57t15.5 74q0 31 -10.5 54.5t-32.5 37.5q-16 12 -43 18.5t-57 6.5h-140z" />
    <glyph glyph-name="afii10106" unicode="&#x459;" horiz-adv-x="1667" 
d="M339 1044h773l-64 -383h225q84 0 143.5 -14t98.5 -41q48 -35 74 -95t26 -133q0 -65 -22 -126.5t-62 -110.5q-60 -76 -140.5 -108.5t-209.5 -32.5h-545l136 829h-211l-45 -201q-38 -165 -65.5 -246t-70.5 -155q-36 -65 -75 -108t-84 -72q-46 -30 -91 -41.5t-114 -11.5
q-31 0 -47.5 1.5t-33.5 4.5l37 225q41 1 78.5 16t65.5 41q23 21 45.5 56t38.5 75q21 53 49 167.5t50 236.5zM1021 489l-47 -289h140q49 0 79 10t54 31q26 23 41.5 57t15.5 74q0 31 -10.5 54.5t-32.5 37.5q-16 12 -43 18.5t-57 6.5h-140z" />
    <glyph glyph-name="afii10059" unicode="&#x152;" horiz-adv-x="2084" 
d="M311 1404h327l-88 -544h459l90 544h328l-92 -557h282q106 0 179 -23t125 -67q53 -45 80.5 -107t27.5 -153q0 -122 -40 -220t-130 -169q-66 -53 -151.5 -80.5t-210.5 -27.5h-631l100 595h-459l-98 -595h-328zM1296 602l-57 -353h215q73 0 115 15.5t73 46.5q25 25 42 64
t17 77q0 31 -10.5 61t-32.5 50q-21 20 -52.5 29.5t-69.5 9.5h-240z" />
    <glyph glyph-name="afii10059" unicode="&#x40a;" horiz-adv-x="2084" 
d="M311 1404h327l-88 -544h459l90 544h328l-92 -557h282q106 0 179 -23t125 -67q53 -45 80.5 -107t27.5 -153q0 -122 -40 -220t-130 -169q-66 -53 -151.5 -80.5t-210.5 -27.5h-631l100 595h-459l-98 -595h-328zM1296 602l-57 -353h215q73 0 115 15.5t73 46.5q25 25 42 64
t17 77q0 31 -10.5 61t-32.5 50q-21 20 -52.5 29.5t-69.5 9.5h-240z" />
    <glyph glyph-name="afii10107" unicode="&#x153;" horiz-adv-x="1708" 
d="M839 1044h305l-61 -383h229q94 0 154 -16t98 -45q45 -36 68.5 -92t23.5 -119q0 -89 -33 -164.5t-87 -122.5q-58 -50 -142.5 -76t-165.5 -26h-551l66 438h-328l-69 -438h-306l166 1044h306l-62 -391h328zM1062 489l-49 -289h144q49 0 79 10t54 31q27 24 41 56t14 71
q0 35 -10.5 58t-30.5 38q-17 13 -40 19t-62 6h-140z" />
    <glyph glyph-name="afii10107" unicode="&#x45a;" horiz-adv-x="1708" 
d="M839 1044h305l-61 -383h229q94 0 154 -16t98 -45q45 -36 68.5 -92t23.5 -119q0 -89 -33 -164.5t-87 -122.5q-58 -50 -142.5 -76t-165.5 -26h-551l66 438h-328l-69 -438h-306l166 1044h306l-62 -391h328zM1062 489l-49 -289h144q49 0 79 10t54 31q27 24 41 56t14 71
q0 35 -10.5 58t-30.5 38q-17 13 -40 19t-62 6h-140z" />
    <glyph glyph-name="afii10105" unicode="&#xbc;" horiz-adv-x="579" 
d="M550 1044l-159 -971q-45 -268 -142 -350.5t-273 -82.5q-42 0 -91.5 6.5t-96.5 18.5l32 223q28 -8 52 -12.5t49 -4.5q69 0 107.5 45.5t52.5 132.5l164 995h305zM620 1419l-41 -240h-311l39 240h313z" />
    <glyph glyph-name="afii10105" unicode="&#x458;" horiz-adv-x="579" 
d="M550 1044l-159 -971q-45 -268 -142 -350.5t-273 -82.5q-42 0 -91.5 6.5t-96.5 18.5l32 223q28 -8 52 -12.5t49 -4.5q69 0 107.5 45.5t52.5 132.5l164 995h305zM620 1419l-41 -240h-311l39 240h313z" />
    <glyph glyph-name="afii10054" unicode="&#xbd;" horiz-adv-x="1282" 
d="M1241 1089l-273 -82q-10 28 -26 54.5t-35 45.5q-36 37 -86.5 54.5t-126.5 17.5q-55 0 -91.5 -10.5t-62.5 -32.5q-23 -19 -35 -46t-12 -54q0 -17 6 -34.5t17 -33.5q21 -31 66 -55.5t114 -44.5q232 -69 233.5 -69.5t28.5 -12.5q66 -30 115 -72t77 -98q19 -36 30 -85.5
t11 -88.5q0 -97 -45 -186.5t-129 -155.5q-79 -62 -179 -91t-251 -29q-122 0 -218.5 24t-176.5 79q-69 49 -121 120.5t-77 162.5l302 72q9 -33 25.5 -62t40.5 -55q43 -46 100 -69t142 -23q60 0 105 13.5t77 37.5q30 23 47.5 53.5t17.5 63.5q0 26 -8 49t-22 39
q-18 20 -52.5 36.5t-97.5 35.5q-262 77 -340 128.5t-119 114.5q-25 41 -39 94.5t-14 102.5q0 91 39 173t107 138q74 62 173.5 89.5t229.5 27.5q152 0 244 -34t168 -105q45 -43 75 -91.5t46 -105.5z" />
    <glyph glyph-name="afii10054" unicode="&#x405;" horiz-adv-x="1282" 
d="M1241 1089l-273 -82q-10 28 -26 54.5t-35 45.5q-36 37 -86.5 54.5t-126.5 17.5q-55 0 -91.5 -10.5t-62.5 -32.5q-23 -19 -35 -46t-12 -54q0 -17 6 -34.5t17 -33.5q21 -31 66 -55.5t114 -44.5q232 -69 233.5 -69.5t28.5 -12.5q66 -30 115 -72t77 -98q19 -36 30 -85.5
t11 -88.5q0 -97 -45 -186.5t-129 -155.5q-79 -62 -179 -91t-251 -29q-122 0 -218.5 24t-176.5 79q-69 49 -121 120.5t-77 162.5l302 72q9 -33 25.5 -62t40.5 -55q43 -46 100 -69t142 -23q60 0 105 13.5t77 37.5q30 23 47.5 53.5t17.5 63.5q0 26 -8 49t-22 39
q-18 20 -52.5 36.5t-97.5 35.5q-262 77 -340 128.5t-119 114.5q-25 41 -39 94.5t-14 102.5q0 91 39 173t107 138q74 62 173.5 89.5t229.5 27.5q152 0 244 -34t168 -105q45 -43 75 -91.5t46 -105.5z" />
    <glyph glyph-name="logicalnot" unicode="&#xac;" horiz-adv-x="1337" 
d="M1234 911v-623h-237v385h-848v238h1085z" />
    <glyph glyph-name="radical" horiz-adv-x="1478" 
d="M81 1024h519l245 -678l281 1362h373v-168h-222l-385 -1806h-163l-435 1128h-213v162z" />
    <glyph glyph-name="florin" horiz-adv-x="933" 
d="M1077 1474l-45 -203q-19 4 -38 6t-38 3q-101 0 -160 -52.5t-72 -140.5h234l-45 -215h-221l-213 -819q-34 -129 -69.5 -191t-90.5 -107q-60 -49 -140 -73t-189 -24q-38 0 -74 5t-75 14l45 217q16 -3 36 -4.5t52 -1.5q49 0 81 13t59 44q21 24 38 61.5t34 101.5l205 764
h-172l45 215h172l10 47q40 183 157 267.5t289 84.5q41 0 92 -3t93 -9z" />
    <glyph glyph-name="approxequal" horiz-adv-x="1284" 
d="M276 628l-154 88q48 79 71 110t52 60q53 52 111 77.5t127 25.5q29 0 56.5 -5t64.5 -18q16 -5 35.5 -12.5t52.5 -20.5l67 -26q28 -11 58 -18t53 -7q47 0 83.5 21.5t84.5 89.5l153 -88q-31 -47 -60 -83t-54 -61q-57 -55 -122.5 -81.5t-133.5 -26.5q-11 0 -22.5 1t-22.5 3
q-16 3 -33 7.5t-39 12.5l-84 31q-108 40 -128.5 44.5t-39.5 4.5q-51 0 -94.5 -30.5t-81.5 -98.5zM276 186l-154 88q48 79 71 110t52 60q53 52 111 77t127 25q37 0 77 -9.5t132 -45.5l67 -27q28 -10 58 -17t53 -7q47 0 83.5 21.5t84.5 88.5l153 -88q-31 -46 -60 -82.5
t-54 -60.5q-57 -55 -122.5 -82t-133.5 -27q-11 0 -22.5 1.5t-22.5 3.5q-16 2 -33 7t-39 13l-84 31q-108 39 -128.5 44t-39.5 5q-51 0 -94.5 -31t-81.5 -98z" />
    <glyph glyph-name="Delta" horiz-adv-x="1304" 
d="M641 1417h327l262 -1417h-1309zM706 1034l-391 -772h520z" />
    <glyph glyph-name="guillemotleft" unicode="&#xab;" horiz-adv-x="774" 
d="M264 524l61 -287h-123l-131 287l223 297h123zM567 524l63 -287h-123l-133 287l224 297h122z" />
    <glyph glyph-name="guillemotright" unicode="&#xbb;" horiz-adv-x="774" 
d="M210 530l-65 291h123l131 -297l-223 -287h-123zM509 524l-61 297h123l131 -297l-221 -287h-123z" />
    <glyph glyph-name="ellipsis" unicode="&#x2026;" horiz-adv-x="1996" 
d="M411 317l-51 -317h-328l51 317h328zM1126 317l-51 -317h-328l51 317h328zM1841 317l-52 -317h-327l51 317h328z" />
    <glyph glyph-name="afii10060" horiz-adv-x="1472" 
d="M147 1404h995l-43 -258h-348l-53 -325q68 16 138.5 24.5t150.5 8.5q125 0 209.5 -33.5t132.5 -102.5q26 -37 38.5 -85t12.5 -99q0 -22 -2 -44.5t-6 -47.5l-72 -442h-315l63 389q4 22 5 35t1 24q0 26 -7.5 51.5t-22.5 44.5q-24 29 -67 44.5t-101 15.5q-38 0 -92.5 -8
t-106.5 -21l-94 -575h-328l188 1146h-319z" />
    <glyph glyph-name="afii10060" unicode="&#x40b;" horiz-adv-x="1472" 
d="M147 1404h995l-43 -258h-348l-53 -325q68 16 138.5 24.5t150.5 8.5q125 0 209.5 -33.5t132.5 -102.5q26 -37 38.5 -85t12.5 -99q0 -22 -2 -44.5t-6 -47.5l-72 -442h-315l63 389q4 22 5 35t1 24q0 26 -7.5 51.5t-22.5 44.5q-24 29 -67 44.5t-101 15.5q-38 0 -92.5 -8
t-106.5 -21l-94 -575h-328l188 1146h-319z" />
    <glyph glyph-name="afii10108" horiz-adv-x="1189" 
d="M577 1404l-20 -110h348l-27 -174h-348l-47 -277q23 29 50.5 54.5t57.5 46.5q52 34 108.5 51.5t131.5 17.5q72 0 126.5 -21t88.5 -63q26 -31 38.5 -77t12.5 -103q0 -21 -3 -51t-7 -55l-107 -643h-305l103 614q2 15 4 38t2 38q0 29 -7 49t-22 37q-15 16 -34.5 24t-47.5 8
q-42 0 -84 -21t-75 -56q-29 -31 -49 -76.5t-29 -99.5l-90 -555h-306l185 1120h-162l27 174h161l21 110h305z" />
    <glyph glyph-name="afii10108" unicode="&#x45b;" horiz-adv-x="1189" 
d="M577 1404l-20 -110h348l-27 -174h-348l-47 -277q23 29 50.5 54.5t57.5 46.5q52 34 108.5 51.5t131.5 17.5q72 0 126.5 -21t88.5 -63q26 -31 38.5 -77t12.5 -103q0 -21 -3 -51t-7 -55l-107 -643h-305l103 614q2 15 4 38t2 38q0 29 -7 49t-22 37q-15 16 -34.5 24t-47.5 8
q-42 0 -84 -21t-75 -56q-29 -31 -49 -76.5t-29 -99.5l-90 -555h-306l185 1120h-162l27 174h161l21 110h305z" />
    <glyph glyph-name="afii10061" horiz-adv-x="1350" 
d="M284 1404h328l-92 -561h94q97 0 154.5 52.5t130.5 201.5q56 116 90.5 172.5t64.5 85.5q26 25 53 37t58 12h264q-36 -25 -69.5 -68t-84.5 -126q-42 -69 -76 -131.5t-67 -116.5q-35 -59 -66 -98t-57 -60q-25 -20 -56.5 -33.5t-62.5 -19.5v-8q45 -8 86.5 -37t73.5 -78
q19 -29 33.5 -64.5t28.5 -92.5q12 -52 24 -115.5t14 -77.5q21 -100 45.5 -165t59.5 -113h-303q-35 3 -59 36t-39 93q-9 32 -16.5 73.5t-26.5 177.5q-12 80 -26 120t-36 61t-61 32t-80 11h-127l-99 -604h-327zM662 1525l-49 113l428 223l78 -170z" />
    <glyph glyph-name="afii10061" unicode="&#x40c;" horiz-adv-x="1350" 
d="M284 1404h328l-92 -561h94q97 0 154.5 52.5t130.5 201.5q56 116 90.5 172.5t64.5 85.5q26 25 53 37t58 12h264q-36 -25 -69.5 -68t-84.5 -126q-42 -69 -76 -131.5t-67 -116.5q-35 -59 -66 -98t-57 -60q-25 -20 -56.5 -33.5t-62.5 -19.5v-8q45 -8 86.5 -37t73.5 -78
q19 -29 33.5 -64.5t28.5 -92.5q12 -52 24 -115.5t14 -77.5q21 -100 45.5 -165t59.5 -113h-303q-35 3 -59 36t-39 93q-9 32 -16.5 73.5t-26.5 177.5q-12 80 -26 120t-36 61t-61 32t-80 11h-127l-99 -604h-327zM662 1525l-49 113l428 223l78 -170z" />
    <glyph glyph-name="glyph177" unicode="&#xea;" horiz-adv-x="1128" 
d="M210 1044h306l-66 -401h66q35 0 58 8t46 28q24 21 45 53t80 158q36 77 73.5 112.5t84.5 41.5h256q-31 -27 -55.5 -54t-45.5 -59q-15 -22 -28.5 -47.5t-46.5 -95.5q-28 -57 -47 -89t-39 -56q-26 -31 -55.5 -49t-69.5 -27q61 -19 97.5 -51.5t59.5 -87.5q6 -15 11.5 -31
t25.5 -115q26 -125 30.5 -143t8.5 -31q8 -25 22 -54.5t29 -53.5h-274q-36 9 -56 41t-38 116q-6 27 -10.5 49t-14.5 76q-11 60 -23.5 87.5t-29.5 41.5q-18 15 -44 22t-73 7h-76l-71 -440h-306z" />
    <glyph glyph-name="glyph177" unicode="&#x43a;" horiz-adv-x="1128" 
d="M210 1044h306l-66 -401h66q35 0 58 8t46 28q24 21 45 53t80 158q36 77 73.5 112.5t84.5 41.5h256q-31 -27 -55.5 -54t-45.5 -59q-15 -22 -28.5 -47.5t-46.5 -95.5q-28 -57 -47 -89t-39 -56q-26 -31 -55.5 -49t-69.5 -27q61 -19 97.5 -51.5t59.5 -87.5q6 -15 11.5 -31
t25.5 -115q26 -125 30.5 -143t8.5 -31q8 -25 22 -54.5t29 -53.5h-274q-36 9 -56 41t-38 116q-6 27 -10.5 49t-14.5 76q-11 60 -23.5 87.5t-29.5 41.5q-18 15 -44 22t-73 7h-76l-71 -440h-306z" />
    <glyph glyph-name="afii10109" horiz-adv-x="1129" 
d="M210 1044h306l-66 -401h66q35 0 58 8t46 28q24 21 45 53t80 158q36 77 73.5 112.5t84.5 41.5h256q-31 -27 -55.5 -54t-45.5 -59q-15 -22 -28.5 -47.5t-46.5 -95.5q-28 -57 -47 -89t-39 -56q-26 -31 -55.5 -49t-69.5 -27q61 -19 97.5 -51.5t59.5 -87.5q6 -15 11.5 -31
t25.5 -115q26 -125 30.5 -143t8.5 -31q8 -25 22 -54.5t29 -53.5h-274q-36 9 -56 41t-38 116q-6 27 -10.5 49t-14.5 76q-11 60 -23.5 87.5t-29.5 41.5q-18 15 -44 22t-73 7h-76l-71 -440h-306zM902 1552l78 -166l-451 -197l-47 115z" />
    <glyph glyph-name="afii10109" unicode="&#x45c;" horiz-adv-x="1129" 
d="M210 1044h306l-66 -401h66q35 0 58 8t46 28q24 21 45 53t80 158q36 77 73.5 112.5t84.5 41.5h256q-31 -27 -55.5 -54t-45.5 -59q-15 -22 -28.5 -47.5t-46.5 -95.5q-28 -57 -47 -89t-39 -56q-26 -31 -55.5 -49t-69.5 -27q61 -19 97.5 -51.5t59.5 -87.5q6 -15 11.5 -31
t25.5 -115q26 -125 30.5 -143t8.5 -31q8 -25 22 -54.5t29 -53.5h-274q-36 9 -56 41t-38 116q-6 27 -10.5 49t-14.5 76q-11 60 -23.5 87.5t-29.5 41.5q-18 15 -44 22t-73 7h-76l-71 -440h-306zM902 1552l78 -166l-451 -197l-47 115z" />
    <glyph glyph-name="afii10102" unicode="&#xbe;" horiz-adv-x="1028" 
d="M974 806l-241 -63q-16 65 -71 100t-134 35q-35 0 -63.5 -6t-51.5 -18q-25 -15 -40 -37t-15 -45q0 -32 20 -53t62 -35q36 -13 119 -29.5t120 -26.5q80 -19 124.5 -43.5t78.5 -60.5q37 -40 53.5 -83.5t16.5 -98.5q0 -100 -47 -174t-125 -119q-62 -36 -146 -52.5t-178 -16.5
q-98 0 -189.5 21.5t-150.5 57.5q-65 40 -102.5 96t-47.5 125l255 49q6 -27 18.5 -50.5t30.5 -41.5q31 -33 77 -49t107 -16q39 0 75.5 6.5t63.5 19.5q33 16 48.5 38t15.5 50q0 22 -9.5 40t-25.5 30q-12 9 -28.5 15.5t-131.5 25.5q-133 22 -227 70t-135 118q-16 28 -24.5 62
t-8.5 71q0 86 39.5 153.5t110.5 113.5q58 37 137 58t182 21q80 0 146 -13t116 -38q70 -34 113 -87t63 -120z" />
    <glyph glyph-name="afii10102" unicode="&#x455;" horiz-adv-x="1028" 
d="M974 806l-241 -63q-16 65 -71 100t-134 35q-35 0 -63.5 -6t-51.5 -18q-25 -15 -40 -37t-15 -45q0 -32 20 -53t62 -35q36 -13 119 -29.5t120 -26.5q80 -19 124.5 -43.5t78.5 -60.5q37 -40 53.5 -83.5t16.5 -98.5q0 -100 -47 -174t-125 -119q-62 -36 -146 -52.5t-178 -16.5
q-98 0 -189.5 21.5t-150.5 57.5q-65 40 -102.5 96t-47.5 125l255 49q6 -27 18.5 -50.5t30.5 -41.5q31 -33 77 -49t107 -16q39 0 75.5 6.5t63.5 19.5q33 16 48.5 38t15.5 50q0 22 -9.5 40t-25.5 30q-12 9 -28.5 15.5t-131.5 25.5q-133 22 -227 70t-135 118q-16 28 -24.5 62
t-8.5 71q0 86 39.5 153.5t110.5 113.5q58 37 137 58t182 21q80 0 146 -13t116 -38q70 -34 113 -87t63 -120z" />
    <glyph glyph-name="endash" unicode="&#x2013;" horiz-adv-x="1267" 
d="M1165 671l-39 -246h-1024l39 246h1024z" />
    <glyph glyph-name="emdash" unicode="&#x2014;" horiz-adv-x="2064" 
d="M1976 671l-8 -246h-1874l8 246h1874z" />
    <glyph glyph-name="quotedblleft" unicode="&#x201c;" horiz-adv-x="880" 
d="M172 864l40 256l220 284h129l-179 -262h121l-43 -278h-288zM544 864l41 256l219 284h129l-178 -262h121l-43 -278h-289z" />
    <glyph glyph-name="quotedblright" unicode="&#x201d;" horiz-adv-x="880" 
d="M534 1402l-41 -256l-217 -284h-129l176 262h-121l43 278h289zM909 1402l-41 -256l-217 -284h-129l176 262h-121l43 278h289z" />
    <glyph glyph-name="quoteleft" unicode="&#x2018;" horiz-adv-x="507" 
d="M172 864l40 256l218 284h131l-179 -264h121l-43 -276h-288z" />
    <glyph glyph-name="quoteright" unicode="&#x2019;" horiz-adv-x="505" 
d="M534 1404l-41 -256l-217 -284h-129l176 262h-121l43 278h289z" />
    <glyph glyph-name="divide" horiz-adv-x="1275" 
d="M149 452v238h1053v-238h-1053zM811 301v-265h-271v265h271zM811 1105v-264h-271v264h271z" />
    <glyph glyph-name="quotedblbase" unicode="&#x201e;" horiz-adv-x="845" 
d="M348 278l-41 -256l-217 -286h-130l177 264h-121l43 278h289zM722 278l-41 -256l-217 -286h-131l179 264h-121l43 278h288z" />
    <glyph glyph-name="glyph188" horiz-adv-x="1062" 
d="M411 1824h176q-2 -28 8 -54t27 -42q16 -14 39.5 -21.5t60.5 -7.5q51 0 83 10.5t59 30.5q21 17 35.5 37t21.5 47h176q-31 -91 -78 -150.5t-125 -97.5q-39 -19 -84 -28.5t-104 -9.5q-56 0 -102.5 10.5t-83.5 32.5q-50 29 -78 75.5t-31 120.5v24v23z" />
    <glyph glyph-name="afii10062" unicode="&#xa1;" horiz-adv-x="1210" 
d="M149 1404h360l199 -671h6l377 671h303l-590 -1011q-63 -109 -116.5 -184t-100.5 -117q-63 -57 -138 -84.5t-183 -27.5q-40 0 -83 5t-89 15l41 249q31 -9 63 -13.5t62 -4.5q47 0 85.5 11.5t69.5 37.5q23 19 41.5 45t30.5 53zM484 1824h176q-2 -28 8 -54t27 -42
q16 -14 39.5 -21.5t60.5 -7.5q51 0 83 10.5t59 30.5q21 17 35.5 37t21.5 47h176q-31 -91 -78 -150.5t-125 -97.5q-39 -19 -84 -28.5t-104 -9.5q-56 0 -102.5 10.5t-83.5 32.5q-50 29 -78 75.5t-31 120.5v24v23z" />
    <glyph glyph-name="afii10062" unicode="&#x40e;" horiz-adv-x="1210" 
d="M149 1404h360l199 -671h6l377 671h303l-590 -1011q-63 -109 -116.5 -184t-100.5 -117q-63 -57 -138 -84.5t-183 -27.5q-40 0 -83 5t-89 15l41 249q31 -9 63 -13.5t62 -4.5q47 0 85.5 11.5t69.5 37.5q23 19 41.5 45t30.5 53zM484 1824h176q-2 -28 8 -54t27 -42
q16 -14 39.5 -21.5t60.5 -7.5q51 0 83 10.5t59 30.5q21 17 35.5 37t21.5 47h176q-31 -91 -78 -150.5t-125 -97.5q-39 -19 -84 -28.5t-104 -9.5q-56 0 -102.5 10.5t-83.5 32.5q-50 29 -78 75.5t-31 120.5v24v23z" />
    <glyph glyph-name="glyph190" unicode="&#xf3;" horiz-adv-x="1024" 
d="M876 1044h240l-582 -1121q-22 -44 -47.5 -83.5t-50.5 -68.5q-59 -68 -137 -101.5t-201 -33.5q-28 0 -67 4t-86 12l35 228q38 -9 71 -13t63 -4q53 0 83.5 7.5t53.5 23.5q29 20 51 57t29 83l-217 1010h328l110 -653z" />
    <glyph glyph-name="glyph190" unicode="&#x443;" horiz-adv-x="1024" 
d="M876 1044h240l-582 -1121q-22 -44 -47.5 -83.5t-50.5 -68.5q-59 -68 -137 -101.5t-201 -33.5q-28 0 -67 4t-86 12l35 228q38 -9 71 -13t63 -4q53 0 83.5 7.5t53.5 23.5q29 20 51 57t29 83l-217 1010h328l110 -653z" />
    <glyph glyph-name="glyph191" horiz-adv-x="1058" 
d="M360 1507h160q-10 -62 26 -100.5t113 -38.5q73 0 125.5 37.5t66.5 101.5h160q-39 -142 -141 -218.5t-238 -76.5q-131 0 -203.5 68t-72.5 180q0 11 1 23t3 24z" />
    <glyph glyph-name="afii10110" unicode="&#xa2;" horiz-adv-x="1024" 
d="M876 1044h240l-582 -1121q-22 -44 -47.5 -83.5t-50.5 -68.5q-59 -68 -137 -101.5t-201 -33.5q-28 0 -67 4t-86 12l35 228q38 -9 71 -13t63 -4q53 0 83.5 7.5t53.5 23.5q29 20 51 57t29 83l-217 1010h328l110 -653zM344 1507h160q-10 -62 26 -100.5t113 -38.5
q73 0 125.5 37.5t66.5 101.5h160q-39 -142 -141 -218.5t-238 -76.5q-131 0 -203.5 68t-72.5 180q0 11 1 23t3 24z" />
    <glyph glyph-name="afii10110" unicode="&#x45e;" horiz-adv-x="1024" 
d="M876 1044h240l-582 -1121q-22 -44 -47.5 -83.5t-50.5 -68.5q-59 -68 -137 -101.5t-201 -33.5q-28 0 -67 4t-86 12l35 228q38 -9 71 -13t63 -4q53 0 83.5 7.5t53.5 23.5q29 20 51 57t29 83l-217 1010h328l110 -653zM344 1507h160q-10 -62 26 -100.5t113 -38.5
q73 0 125.5 37.5t66.5 101.5h160q-39 -142 -141 -218.5t-238 -76.5q-131 0 -203.5 68t-72.5 180q0 11 1 23t3 24z" />
    <glyph glyph-name="afii10145" horiz-adv-x="1390" 
d="M290 1404h328l-188 -1142h450l191 1142h327l-235 -1404h-416l-49 -294h-299l49 294h-393z" />
    <glyph glyph-name="afii10145" unicode="&#x40f;" horiz-adv-x="1390" 
d="M290 1404h328l-188 -1142h450l191 1142h327l-235 -1404h-416l-49 -294h-299l49 294h-393z" />
    <glyph glyph-name="afii10193" unicode="&#x178;" horiz-adv-x="1198" 
d="M212 1044h306l-136 -829h336l136 829h305l-172 -1044h-342l-45 -282h-277l45 282h-328z" />
    <glyph glyph-name="afii10193" unicode="&#x45f;" horiz-adv-x="1198" 
d="M212 1044h306l-136 -829h336l136 829h305l-172 -1044h-342l-45 -282h-277l45 282h-328z" />
    <glyph glyph-name="afii61352" unicode="&#xb9;" horiz-adv-x="2115" 
d="M1153 1404h270l-230 -1404h-282l-387 894l-51 142q2 -50 -1 -97.5t-12 -101.5l-135 -837h-270l229 1404h334l399 -927q3 67 6 111t7 67zM1843 1404q55 0 97.5 -18t74.5 -53q32 -37 48.5 -86.5t16.5 -116.5q0 -94 -35.5 -191.5t-99.5 -162.5q-46 -47 -100 -69.5
t-125 -22.5q-60 0 -105.5 21t-78.5 69q-27 37 -38.5 80.5t-11.5 97.5q0 107 39.5 209.5t112.5 165.5q43 37 95.5 57t109.5 20zM1820 1269q-40 0 -71.5 -31t-49.5 -98q-15 -55 -24.5 -112.5t-9.5 -92.5q0 -28 4 -47.5t12 -31.5q11 -18 27.5 -27.5t37.5 -9.5q44 0 71.5 27.5
t49.5 99.5q19 59 27 103.5t8 84.5q0 38 -4 60.5t-12 37.5q-10 19 -27 28t-39 9zM1437 557h533l-29 -172h-532z" />
    <glyph glyph-name="afii61352" unicode="&#x2116;" horiz-adv-x="2115" 
d="M1153 1404h270l-230 -1404h-282l-387 894l-51 142q2 -50 -1 -97.5t-12 -101.5l-135 -837h-270l229 1404h334l399 -927q3 67 6 111t7 67zM1843 1404q55 0 97.5 -18t74.5 -53q32 -37 48.5 -86.5t16.5 -116.5q0 -94 -35.5 -191.5t-99.5 -162.5q-46 -47 -100 -69.5
t-125 -22.5q-60 0 -105.5 21t-78.5 69q-27 37 -38.5 80.5t-11.5 97.5q0 107 39.5 209.5t112.5 165.5q43 37 95.5 57t109.5 20zM1820 1269q-40 0 -71.5 -31t-49.5 -98q-15 -55 -24.5 -112.5t-9.5 -92.5q0 -28 4 -47.5t12 -31.5q11 -18 27.5 -27.5t37.5 -9.5q44 0 71.5 27.5
t49.5 99.5q19 59 27 103.5t8 84.5q0 38 -4 60.5t-12 37.5q-10 19 -27 28t-39 9zM1437 557h533l-29 -172h-532z" />
    <glyph glyph-name="afii10023" unicode="&#xa8;" horiz-adv-x="1202" 
d="M1277 1404l-45 -258h-661l-49 -303h530l-43 -239h-528l-53 -342h667l-43 -262h-997l231 1404h991zM735 1783l-35 -237h-244l35 237h244zM1171 1783l-35 -237h-244l35 237h244z" />
    <glyph glyph-name="afii10023" unicode="&#x401;" horiz-adv-x="1202" 
d="M1277 1404l-45 -258h-661l-49 -303h530l-43 -239h-528l-53 -342h667l-43 -262h-997l231 1404h991zM735 1783l-35 -237h-244l35 237h244zM1171 1783l-35 -237h-244l35 237h244z" />
    <glyph glyph-name="afii10071" unicode="&#xb8;" horiz-adv-x="1167" 
d="M1103 466h-733q-1 -10 -1.5 -22.5t-0.5 -32.5q0 -44 9 -79.5t28 -65.5q27 -43 65.5 -62.5t96.5 -19.5q50 0 90 14.5t72 46.5q16 17 34 45t31 58l266 -62q-31 -62 -76 -114.5t-102 -92.5q-69 -48 -154 -73.5t-186 -25.5q-116 0 -208 35.5t-160 115.5q-56 64 -86.5 151
t-30.5 180q0 123 51 242.5t135 202.5q76 75 172 116t219 41q100 0 184 -27t146 -81q70 -61 108 -151.5t38 -227.5q0 -33 -2 -60t-5 -51zM397 641h418q1 8 1.5 16t0.5 16q0 90 -46.5 140.5t-132.5 50.5q-95 0 -160.5 -66.5t-80.5 -156.5zM632 1433l-39 -237h-249l38 237h250z
M1069 1433l-39 -237h-250l39 237h250z" />
    <glyph glyph-name="afii10071" unicode="&#x451;" horiz-adv-x="1167" 
d="M1103 466h-733q-1 -10 -1.5 -22.5t-0.5 -32.5q0 -44 9 -79.5t28 -65.5q27 -43 65.5 -62.5t96.5 -19.5q50 0 90 14.5t72 46.5q16 17 34 45t31 58l266 -62q-31 -62 -76 -114.5t-102 -92.5q-69 -48 -154 -73.5t-186 -25.5q-116 0 -208 35.5t-160 115.5q-56 64 -86.5 151
t-30.5 180q0 123 51 242.5t135 202.5q76 75 172 116t219 41q100 0 184 -27t146 -81q70 -61 108 -151.5t38 -227.5q0 -33 -2 -60t-5 -51zM397 641h418q1 8 1.5 16t0.5 16q0 90 -46.5 140.5t-132.5 50.5q-95 0 -160.5 -66.5t-80.5 -156.5zM632 1433l-39 -237h-249l38 237h250z
M1069 1433l-39 -237h-250l39 237h250z" />
    <glyph glyph-name="afii10097" unicode="&#xff;" horiz-adv-x="1132" 
d="M1093 1044l-170 -1044h-305l63 389h-118l-256 -389h-327l304 423q-29 9 -54 24t-46 34q-39 36 -60.5 85.5t-21.5 117.5q0 73 27.5 139.5t85.5 116.5q60 52 149 78t234 26h495zM755 843h-164q-42 0 -72.5 -10.5t-54.5 -30.5q-25 -21 -38 -51.5t-13 -62.5q0 -30 10.5 -54.5
t28.5 -40.5q18 -14 45 -22t66 -8h147z" />
    <glyph glyph-name="afii10097" unicode="&#x44f;" horiz-adv-x="1132" 
d="M1093 1044l-170 -1044h-305l63 389h-118l-256 -389h-327l304 423q-29 9 -54 24t-46 34q-39 36 -60.5 85.5t-21.5 117.5q0 73 27.5 139.5t85.5 116.5q60 52 149 78t234 26h495zM755 843h-164q-42 0 -72.5 -10.5t-54.5 -30.5q-25 -21 -38 -51.5t-13 -62.5q0 -30 10.5 -54.5
t28.5 -40.5q18 -14 45 -22t66 -8h147z" />
    <glyph glyph-name="afii10065" unicode="&#xe0;" horiz-adv-x="1138" 
d="M374 727l-239 67q20 59 57.5 104t97.5 82q71 45 150 64.5t174 19.5q101 0 178.5 -19t124.5 -50q64 -43 94.5 -107.5t30.5 -148.5q0 -27 -3 -56t-13 -88l-25 -143q-46 -270 -49.5 -332t0.5 -120h-293q-4 50 -1.5 95t9.5 85q-22 -33 -48.5 -64t-49.5 -51
q-48 -42 -109.5 -63.5t-132.5 -21.5q-76 0 -136 26.5t-101 76.5q-32 39 -50 91t-18 110q0 83 38 151.5t105 114.5q79 54 202 81t302 30h30.5h31.5q5 20 8.5 42.5t3.5 43.5q0 33 -10 53t-31 35q-20 15 -48.5 22t-70.5 7q-36 0 -68.5 -9.5t-60.5 -29.5q-24 -17 -45 -43
t-35 -55zM708 495q-29 2 -58 2t-59 -2q-66 -4 -114.5 -17t-77.5 -32q-37 -24 -57.5 -60.5t-20.5 -78.5q0 -56 35 -91.5t92 -35.5q55 0 109 34t92 99q21 36 36.5 84.5t22.5 97.5z" />
    <glyph glyph-name="afii10065" unicode="&#x430;" horiz-adv-x="1138" 
d="M374 727l-239 67q20 59 57.5 104t97.5 82q71 45 150 64.5t174 19.5q101 0 178.5 -19t124.5 -50q64 -43 94.5 -107.5t30.5 -148.5q0 -27 -3 -56t-13 -88l-25 -143q-46 -270 -49.5 -332t0.5 -120h-293q-4 50 -1.5 95t9.5 85q-22 -33 -48.5 -64t-49.5 -51
q-48 -42 -109.5 -63.5t-132.5 -21.5q-76 0 -136 26.5t-101 76.5q-32 39 -50 91t-18 110q0 83 38 151.5t105 114.5q79 54 202 81t302 30h30.5h31.5q5 20 8.5 42.5t3.5 43.5q0 33 -10 53t-31 35q-20 15 -48.5 22t-70.5 7q-36 0 -68.5 -9.5t-60.5 -29.5q-24 -17 -45 -43
t-35 -55zM708 495q-29 2 -58 2t-59 -2q-66 -4 -114.5 -17t-77.5 -32q-37 -24 -57.5 -60.5t-20.5 -78.5q0 -56 35 -91.5t92 -35.5q55 0 109 34t92 99q21 36 36.5 84.5t22.5 97.5z" />
    <glyph glyph-name="afii10066" unicode="&#xe1;" horiz-adv-x="1171" 
d="M1191 1427l-38 -221q-30 -17 -59 -27t-89 -22q-76 -16 -215 -37.5t-209 -40.5q-124 -35 -193 -106.5t-89 -168.5h8q58 88 154 133.5t208 45.5q84 0 162 -25.5t131 -73.5q56 -50 87.5 -128.5t31.5 -182.5q0 -125 -39 -234.5t-105 -185.5q-76 -88 -179 -130.5t-226 -42.5
q-108 0 -193.5 34t-150.5 104q-65 71 -94 157t-29 196q0 89 14 190.5t39 183.5q50 165 131 269t189 157q59 30 140.5 50.5t309.5 50.5q106 13 170.5 25t132.5 30zM614 796q-51 0 -90 -26.5t-72 -79.5q-36 -58 -59 -143t-23 -169q0 -45 8 -77.5t25 -57.5q20 -29 49 -45
t68 -16q67 0 113 34t79 107q26 56 45 134.5t19 140.5q0 46 -10 81.5t-31 63.5q-22 29 -51 41t-70 12z" />
    <glyph glyph-name="afii10066" unicode="&#x431;" horiz-adv-x="1171" 
d="M1191 1427l-38 -221q-30 -17 -59 -27t-89 -22q-76 -16 -215 -37.5t-209 -40.5q-124 -35 -193 -106.5t-89 -168.5h8q58 88 154 133.5t208 45.5q84 0 162 -25.5t131 -73.5q56 -50 87.5 -128.5t31.5 -182.5q0 -125 -39 -234.5t-105 -185.5q-76 -88 -179 -130.5t-226 -42.5
q-108 0 -193.5 34t-150.5 104q-65 71 -94 157t-29 196q0 89 14 190.5t39 183.5q50 165 131 269t189 157q59 30 140.5 50.5t309.5 50.5q106 13 170.5 25t132.5 30zM614 796q-51 0 -90 -26.5t-72 -79.5q-36 -58 -59 -143t-23 -169q0 -45 8 -77.5t25 -57.5q20 -29 49 -45
t68 -16q67 0 113 34t79 107q26 56 45 134.5t19 140.5q0 46 -10 81.5t-31 63.5q-22 29 -51 41t-70 12z" />
    <glyph glyph-name="afii10067" unicode="&#xe2;" horiz-adv-x="1142" 
d="M212 1044h512q100 0 161 -14t104 -45q39 -30 60.5 -75t21.5 -110q0 -50 -19 -94.5t-53 -79.5q-23 -23 -55.5 -42t-69.5 -29q40 -13 73.5 -35.5t55.5 -48.5q24 -29 36.5 -65.5t12.5 -86.5q0 -79 -43.5 -152.5t-124.5 -115.5q-52 -27 -120 -39t-179 -12h-545zM489 872
l-41 -252h145q53 0 84 10t54 31q20 19 33.5 47.5t13.5 59.5q0 25 -8.5 44t-24.5 33q-17 15 -37 21t-59 6h-160zM419 446l-45 -272h187q46 0 74.5 7.5t48.5 22.5q24 20 40.5 53.5t16.5 63.5t-10.5 54.5t-30.5 39.5q-20 16 -48 23.5t-63 7.5h-170z" />
    <glyph glyph-name="afii10067" unicode="&#x432;" horiz-adv-x="1142" 
d="M212 1044h512q100 0 161 -14t104 -45q39 -30 60.5 -75t21.5 -110q0 -50 -19 -94.5t-53 -79.5q-23 -23 -55.5 -42t-69.5 -29q40 -13 73.5 -35.5t55.5 -48.5q24 -29 36.5 -65.5t12.5 -86.5q0 -79 -43.5 -152.5t-124.5 -115.5q-52 -27 -120 -39t-179 -12h-545zM489 872
l-41 -252h145q53 0 84 10t54 31q20 19 33.5 47.5t13.5 59.5q0 25 -8.5 44t-24.5 33q-17 15 -37 21t-59 6h-160zM419 446l-45 -272h187q46 0 74.5 7.5t48.5 22.5q24 20 40.5 53.5t16.5 63.5t-10.5 54.5t-30.5 39.5q-20 16 -48 23.5t-63 7.5h-170z" />
    <glyph glyph-name="afii10069" unicode="&#xe4;" horiz-adv-x="1136" 
d="M323 1044h741l-135 -829h115l-78 -485h-276l43 270h-537l-43 -270h-275l79 485h86q58 79 102.5 172t79.5 202q15 47 26.5 91.5t57.5 287.5zM724 829h-202l-21 -107q-13 -69 -33.5 -146.5t-39.5 -131.5q-19 -51 -44 -102t-69 -127h309z" />
    <glyph glyph-name="afii10069" unicode="&#x434;" horiz-adv-x="1136" 
d="M323 1044h741l-135 -829h115l-78 -485h-276l43 270h-537l-43 -270h-275l79 485h86q58 79 102.5 172t79.5 202q15 47 26.5 91.5t57.5 287.5zM724 829h-202l-21 -107q-13 -69 -33.5 -146.5t-39.5 -131.5q-19 -51 -44 -102t-69 -127h309z" />
    <glyph glyph-name="afii10070" unicode="&#xe5;" horiz-adv-x="1167" 
d="M1103 466h-733q-1 -10 -1.5 -22.5t-0.5 -32.5q0 -44 9 -79.5t28 -65.5q27 -43 65.5 -62.5t96.5 -19.5q50 0 90 14.5t72 46.5q16 17 34 45t31 58l266 -62q-31 -62 -76 -114.5t-102 -92.5q-69 -48 -154 -73.5t-186 -25.5q-116 0 -208 35.5t-160 115.5q-56 64 -86.5 151
t-30.5 180q0 123 51 242.5t135 202.5q76 75 172 116t219 41q100 0 184 -27t146 -81q70 -61 108 -151.5t38 -227.5q0 -33 -2 -60t-5 -51zM397 641h418q1 8 1.5 16t0.5 16q0 90 -46.5 140.5t-132.5 50.5q-95 0 -160.5 -66.5t-80.5 -156.5z" />
    <glyph glyph-name="afii10070" unicode="&#x435;" horiz-adv-x="1167" 
d="M1103 466h-733q-1 -10 -1.5 -22.5t-0.5 -32.5q0 -44 9 -79.5t28 -65.5q27 -43 65.5 -62.5t96.5 -19.5q50 0 90 14.5t72 46.5q16 17 34 45t31 58l266 -62q-31 -62 -76 -114.5t-102 -92.5q-69 -48 -154 -73.5t-186 -25.5q-116 0 -208 35.5t-160 115.5q-56 64 -86.5 151
t-30.5 180q0 123 51 242.5t135 202.5q76 75 172 116t219 41q100 0 184 -27t146 -81q70 -61 108 -151.5t38 -227.5q0 -33 -2 -60t-5 -51zM397 641h418q1 8 1.5 16t0.5 16q0 90 -46.5 140.5t-132.5 50.5q-95 0 -160.5 -66.5t-80.5 -156.5z" />
    <glyph glyph-name="afii10072" unicode="&#xe6;" horiz-adv-x="1568" 
d="M735 1044h282l-65 -399h43q28 0 54 10.5t48 34.5q12 12 22 27t58 110q25 49 54.5 97t48.5 69q20 24 40.5 35.5t45.5 15.5h243q-33 -33 -60.5 -71t-58.5 -95q-10 -20 -40 -77.5t-48 -88.5q-27 -47 -49.5 -73t-46.5 -41q-20 -13 -43.5 -21t-48.5 -10q43 -12 71 -30t48 -44
q19 -26 33 -62t24 -87q23 -117 33 -153.5t22 -76.5q11 -34 22 -60.5t25 -53.5h-266q-25 3 -40 16.5t-27 40.5q-12 25 -21 62.5t-24 133.5q-13 76 -23.5 107t-26.5 47q-14 16 -35.5 24.5t-54.5 8.5h-57l-72 -440h-282l71 440h-45q-39 0 -59.5 -6t-40.5 -21q-27 -20 -52 -59.5
t-50 -97.5q-48 -111 -60 -133.5t-26 -45.5q-27 -41 -49.5 -57t-55.5 -20h-282q22 22 40 46t42 66q30 55 80.5 151.5t74.5 135.5q25 40 51 69.5t51 47.5q28 19 61.5 31t67.5 16q-49 13 -78 43.5t-51 95.5q-11 35 -23 90t-26 100q-13 46 -30 82.5t-39 69.5h241q33 -4 52.5 -31
t33.5 -88q11 -43 21 -98t18 -86q14 -49 42.5 -72.5t76.5 -23.5h47z" />
    <glyph glyph-name="afii10072" unicode="&#x436;" horiz-adv-x="1568" 
d="M735 1044h282l-65 -399h43q28 0 54 10.5t48 34.5q12 12 22 27t58 110q25 49 54.5 97t48.5 69q20 24 40.5 35.5t45.5 15.5h243q-33 -33 -60.5 -71t-58.5 -95q-10 -20 -40 -77.5t-48 -88.5q-27 -47 -49.5 -73t-46.5 -41q-20 -13 -43.5 -21t-48.5 -10q43 -12 71 -30t48 -44
q19 -26 33 -62t24 -87q23 -117 33 -153.5t22 -76.5q11 -34 22 -60.5t25 -53.5h-266q-25 3 -40 16.5t-27 40.5q-12 25 -21 62.5t-24 133.5q-13 76 -23.5 107t-26.5 47q-14 16 -35.5 24.5t-54.5 8.5h-57l-72 -440h-282l71 440h-45q-39 0 -59.5 -6t-40.5 -21q-27 -20 -52 -59.5
t-50 -97.5q-48 -111 -60 -133.5t-26 -45.5q-27 -41 -49.5 -57t-55.5 -20h-282q22 22 40 46t42 66q30 55 80.5 151.5t74.5 135.5q25 40 51 69.5t51 47.5q28 19 61.5 31t67.5 16q-49 13 -78 43.5t-51 95.5q-11 35 -23 90t-26 100q-13 46 -30 82.5t-39 69.5h241q33 -4 52.5 -31
t33.5 -88q11 -43 21 -98t18 -86q14 -49 42.5 -72.5t76.5 -23.5h47z" />
    <glyph glyph-name="afii10073" unicode="&#xe7;" horiz-adv-x="1060" 
d="M323 712l-252 41q17 72 68 133t121 103q65 38 143 56.5t182 18.5q86 0 150.5 -11.5t111.5 -33.5q76 -34 114 -91.5t38 -131.5q0 -53 -19 -99.5t-49 -78.5q-23 -25 -57 -44.5t-74 -29.5v-6q26 -5 49.5 -17t44.5 -32q34 -32 49 -70.5t15 -89.5q0 -87 -40.5 -157.5
t-115.5 -116.5q-58 -36 -148 -55.5t-198 -19.5q-117 0 -213.5 30t-154.5 92q-37 38 -60.5 91.5t-27.5 113.5l260 41q3 -30 12.5 -58.5t23.5 -46.5q24 -29 66.5 -46t95.5 -17q43 0 76.5 10t60.5 31q27 20 39.5 45t12.5 61q0 33 -8 52t-25 34q-21 19 -49 27t-80 8h-119l27 174
h125q36 0 66.5 5.5t49.5 17.5q29 16 45.5 45.5t16.5 64.5q0 55 -40 82t-108 27q-41 0 -78.5 -12.5t-70.5 -36.5q-27 -21 -46 -46.5t-30 -56.5z" />
    <glyph glyph-name="afii10073" unicode="&#x437;" horiz-adv-x="1060" 
d="M323 712l-252 41q17 72 68 133t121 103q65 38 143 56.5t182 18.5q86 0 150.5 -11.5t111.5 -33.5q76 -34 114 -91.5t38 -131.5q0 -53 -19 -99.5t-49 -78.5q-23 -25 -57 -44.5t-74 -29.5v-6q26 -5 49.5 -17t44.5 -32q34 -32 49 -70.5t15 -89.5q0 -87 -40.5 -157.5
t-115.5 -116.5q-58 -36 -148 -55.5t-198 -19.5q-117 0 -213.5 30t-154.5 92q-37 38 -60.5 91.5t-27.5 113.5l260 41q3 -30 12.5 -58.5t23.5 -46.5q24 -29 66.5 -46t95.5 -17q43 0 76.5 10t60.5 31q27 20 39.5 45t12.5 61q0 33 -8 52t-25 34q-21 19 -49 27t-80 8h-119l27 174
h125q36 0 66.5 5.5t49.5 17.5q29 16 45.5 45.5t16.5 64.5q0 55 -40 82t-108 27q-41 0 -78.5 -12.5t-70.5 -36.5q-27 -21 -46 -46.5t-30 -56.5z" />
    <glyph glyph-name="afii10074" unicode="&#xe8;" horiz-adv-x="1236" 
d="M206 1044h306l-82 -485q-12 -69 -14.5 -82.5t-6.5 -28.5q15 23 34.5 50t33.5 44l350 424l12 78h305l-170 -1044h-305l80 489q12 72 14.5 83t6.5 28q-15 -23 -35 -51t-33 -44l-348 -415l-15 -90h-305z" />
    <glyph glyph-name="afii10074" unicode="&#x438;" horiz-adv-x="1236" 
d="M206 1044h306l-82 -485q-12 -69 -14.5 -82.5t-6.5 -28.5q15 23 34.5 50t33.5 44l350 424l12 78h305l-170 -1044h-305l80 489q12 72 14.5 83t6.5 28q-15 -23 -35 -51t-33 -44l-348 -415l-15 -90h-305z" />
    <glyph glyph-name="afii10075" unicode="&#xe9;" horiz-adv-x="1189" 
d="M411 1415h219q-1 -21 3.5 -42t15.5 -36q14 -21 35 -32t47 -11q31 0 54 11t40 32q13 16 22 36.5t13 41.5h227q-14 -62 -47 -112t-74 -81q-45 -34 -111 -54t-147 -20q-74 0 -133 19.5t-96 56.5q-34 33 -53 83.5t-15 107.5zM212 1044h306l-82 -485q-12 -69 -14.5 -82.5
t-6.5 -28.5q15 23 34.5 50t33.5 44l350 424l12 78h305l-170 -1044h-305l80 489q12 72 14.5 83t6.5 28q-15 -23 -35 -51t-33 -44l-348 -415l-14 -90h-306z" />
    <glyph glyph-name="afii10075" unicode="&#x439;" horiz-adv-x="1189" 
d="M411 1415h219q-1 -21 3.5 -42t15.5 -36q14 -21 35 -32t47 -11q31 0 54 11t40 32q13 16 22 36.5t13 41.5h227q-14 -62 -47 -112t-74 -81q-45 -34 -111 -54t-147 -20q-74 0 -133 19.5t-96 56.5q-34 33 -53 83.5t-15 107.5zM212 1044h306l-82 -485q-12 -69 -14.5 -82.5
t-6.5 -28.5q15 23 34.5 50t33.5 44l350 424l12 78h305l-170 -1044h-305l80 489q12 72 14.5 83t6.5 28q-15 -23 -35 -51t-33 -44l-348 -415l-14 -90h-306z" />
    <glyph glyph-name="afii10077" unicode="&#xeb;" horiz-adv-x="1140" 
d="M1101 1044l-166 -1044h-305l131 829h-211l-32 -156q-60 -284 -112.5 -405.5t-135.5 -190.5q-54 -44 -116.5 -64.5t-133.5 -20.5q-21 0 -42.5 2t-42.5 6l35 225q61 2 109 31t84 90q22 36 37.5 78.5t34.5 125.5q25 108 40.5 184t23.5 117l32 193h770z" />
    <glyph glyph-name="afii10077" unicode="&#x43b;" horiz-adv-x="1140" 
d="M1101 1044l-166 -1044h-305l131 829h-211l-32 -156q-60 -284 -112.5 -405.5t-135.5 -190.5q-54 -44 -116.5 -64.5t-133.5 -20.5q-21 0 -42.5 2t-42.5 6l35 225q61 2 109 31t84 90q22 36 37.5 78.5t34.5 125.5q25 108 40.5 184t23.5 117l32 193h770z" />
    <glyph glyph-name="afii10078" unicode="&#xec;" horiz-adv-x="1488" 
d="M210 1044h388l118 -643h4l324 643h405l-169 -1044h-283l133 798l-4 2l-397 -800h-174l-148 798h-4l-129 -798h-234z" />
    <glyph glyph-name="afii10078" unicode="&#x43c;" horiz-adv-x="1488" 
d="M210 1044h388l118 -643h4l324 643h405l-169 -1044h-283l133 798l-4 2l-397 -800h-174l-148 798h-4l-129 -798h-234z" />
    <glyph glyph-name="afii10079" unicode="&#xed;" horiz-adv-x="1189" 
d="M212 1044h306l-66 -391h330l63 391h305l-170 -1044h-305l72 438h-330l-71 -438h-306z" />
    <glyph glyph-name="afii10079" unicode="&#x43d;" horiz-adv-x="1189" 
d="M212 1044h306l-66 -391h330l63 391h305l-170 -1044h-305l72 438h-330l-71 -438h-306z" />
    <glyph glyph-name="afii10080" unicode="&#xee;" horiz-adv-x="1165" 
d="M622 1064q113 0 194 -30t142 -88q69 -66 104 -156.5t35 -200.5q0 -114 -38.5 -224t-106.5 -191q-82 -98 -192 -146t-230 -48q-113 0 -201 38t-149 108q-54 62 -83.5 142.5t-29.5 189.5q0 134 45 249t123 198q75 80 168 119.5t219 39.5zM630 860q-50 0 -93.5 -26
t-76.5 -81q-32 -54 -57 -163.5t-25 -194.5q0 -46 11 -86.5t30 -67.5q22 -29 52.5 -43t68.5 -14q53 0 93 23.5t69 70.5q34 55 59 166.5t25 198.5q0 49 -10.5 92t-30.5 69q-20 27 -50.5 41.5t-64.5 14.5z" />
    <glyph glyph-name="afii10080" unicode="&#x43e;" horiz-adv-x="1165" 
d="M622 1064q113 0 194 -30t142 -88q69 -66 104 -156.5t35 -200.5q0 -114 -38.5 -224t-106.5 -191q-82 -98 -192 -146t-230 -48q-113 0 -201 38t-149 108q-54 62 -83.5 142.5t-29.5 189.5q0 134 45 249t123 198q75 80 168 119.5t219 39.5zM630 860q-50 0 -93.5 -26
t-76.5 -81q-32 -54 -57 -163.5t-25 -194.5q0 -46 11 -86.5t30 -67.5q22 -29 52.5 -43t68.5 -14q53 0 93 23.5t69 70.5q34 55 59 166.5t25 198.5q0 49 -10.5 92t-30.5 69q-20 27 -50.5 41.5t-64.5 14.5z" />
    <glyph glyph-name="afii10081" unicode="&#xef;" horiz-adv-x="1191" 
d="M212 1044h941l-173 -1044h-305l136 829h-328l-137 -829h-306z" />
    <glyph glyph-name="afii10081" unicode="&#x43f;" horiz-adv-x="1191" 
d="M212 1044h941l-173 -1044h-305l136 829h-328l-137 -829h-306z" />
    <glyph glyph-name="afii10082" unicode="&#xf0;" horiz-adv-x="1191" 
d="M202 1044h281l-27 -182h4q42 90 129 146t191 56q69 0 129 -23.5t108 -72.5q54 -54 81.5 -128t27.5 -177q0 -145 -39.5 -273t-106.5 -223q-66 -94 -149 -140.5t-201 -46.5q-57 0 -101.5 13.5t-80.5 38.5q-28 20 -49.5 45.5t-36.5 55.5h-4l-76 -468h-304zM655 856
q-58 0 -103.5 -36.5t-78.5 -115.5q-28 -64 -49 -166t-21 -164q0 -42 12 -80.5t33 -62.5q18 -21 46.5 -34t64.5 -13q66 0 116 53t88 154q23 59 37.5 140t14.5 140q0 44 -11.5 80t-35.5 62q-20 20 -49 31.5t-64 11.5z" />
    <glyph glyph-name="afii10082" unicode="&#x440;" horiz-adv-x="1191" 
d="M202 1044h281l-27 -182h4q42 90 129 146t191 56q69 0 129 -23.5t108 -72.5q54 -54 81.5 -128t27.5 -177q0 -145 -39.5 -273t-106.5 -223q-66 -94 -149 -140.5t-201 -46.5q-57 0 -101.5 13.5t-80.5 38.5q-28 20 -49.5 45.5t-36.5 55.5h-4l-76 -468h-304zM655 856
q-58 0 -103.5 -36.5t-78.5 -115.5q-28 -64 -49 -166t-21 -164q0 -42 12 -80.5t33 -62.5q18 -21 46.5 -34t64.5 -13q66 0 116 53t88 154q23 59 37.5 140t14.5 140q0 44 -11.5 80t-35.5 62q-20 20 -49 31.5t-64 11.5z" />
    <glyph glyph-name="afii10083" unicode="&#xf1;" horiz-adv-x="1073" 
d="M1046 675l-268 -39q-1 36 -7 71.5t-16 60.5q-19 47 -52.5 69.5t-78.5 22.5q-46 0 -84.5 -20t-66.5 -60q-39 -55 -68 -181t-29 -212q0 -43 9 -76.5t28 -61.5q22 -31 55.5 -48t75.5 -17q75 0 128 54.5t75 152.5l244 -70q-24 -61 -58.5 -115t-76.5 -96q-68 -67 -149.5 -98.5
t-186.5 -31.5q-104 0 -179 26.5t-133 79.5q-73 66 -108 157.5t-35 204.5q0 116 33.5 219.5t85.5 175.5q75 105 186 163t246 58q83 0 158 -23.5t131 -68.5q68 -55 103.5 -132.5t37.5 -164.5z" />
    <glyph glyph-name="afii10083" unicode="&#x441;" horiz-adv-x="1073" 
d="M1046 675l-268 -39q-1 36 -7 71.5t-16 60.5q-19 47 -52.5 69.5t-78.5 22.5q-46 0 -84.5 -20t-66.5 -60q-39 -55 -68 -181t-29 -212q0 -43 9 -76.5t28 -61.5q22 -31 55.5 -48t75.5 -17q75 0 128 54.5t75 152.5l244 -70q-24 -61 -58.5 -115t-76.5 -96q-68 -67 -149.5 -98.5
t-186.5 -31.5q-104 0 -179 26.5t-133 79.5q-73 66 -108 157.5t-35 204.5q0 116 33.5 219.5t85.5 175.5q75 105 186 163t246 58q83 0 158 -23.5t131 -68.5q68 -55 103.5 -132.5t37.5 -164.5z" />
    <glyph glyph-name="afii10084" unicode="&#xf2;" horiz-adv-x="937" 
d="M96 1044h923l-34 -215h-310l-135 -829h-305l135 829h-309z" />
    <glyph glyph-name="afii10084" unicode="&#x442;" horiz-adv-x="937" 
d="M96 1044h923l-34 -215h-310l-135 -829h-305l135 829h-309z" />
    <glyph glyph-name="afii10086" unicode="&#xf4;" horiz-adv-x="1550" 
d="M768 1404h305l-58 -360q82 1 160.5 -21.5t136.5 -62.5q89 -62 129.5 -154.5t40.5 -216.5q0 -129 -44.5 -242.5t-129.5 -193.5q-86 -82 -207.5 -120t-257.5 -33l-55 -335h-305l55 335q-84 -4 -171.5 20t-149.5 76q-74 60 -112 156t-38 206q0 155 73 293t216 215
q76 41 169 61t185 17zM960 839l-104 -635q62 -1 116.5 18t91.5 52q55 48 89 138t34 183q0 65 -20 119t-55 82q-26 20 -69 32t-83 11zM593 206l103 633q-74 2 -135.5 -25.5t-106.5 -82.5q-42 -52 -67 -130t-25 -167q0 -72 28.5 -124.5t77.5 -80.5q21 -12 44 -18.5t47 -6.5
q11 0 19 0.5t15 1.5z" />
    <glyph glyph-name="afii10086" unicode="&#x444;" horiz-adv-x="1550" 
d="M768 1404h305l-58 -360q82 1 160.5 -21.5t136.5 -62.5q89 -62 129.5 -154.5t40.5 -216.5q0 -129 -44.5 -242.5t-129.5 -193.5q-86 -82 -207.5 -120t-257.5 -33l-55 -335h-305l55 335q-84 -4 -171.5 20t-149.5 76q-74 60 -112 156t-38 206q0 155 73 293t216 215
q76 41 169 61t185 17zM960 839l-104 -635q62 -1 116.5 18t91.5 52q55 48 89 138t34 183q0 65 -20 119t-55 82q-26 20 -69 32t-83 11zM593 206l103 633q-74 2 -135.5 -25.5t-106.5 -82.5q-42 -52 -67 -130t-25 -167q0 -72 28.5 -124.5t77.5 -80.5q21 -12 44 -18.5t47 -6.5
q11 0 19 0.5t15 1.5z" />
    <glyph glyph-name="afii10087" unicode="&#xf5;" horiz-adv-x="1007" 
d="M460 1044l125 -295l226 295h264l-379 -473l274 -571h-352l-160 368l-286 -368h-268l448 548l-244 496h352z" />
    <glyph glyph-name="afii10087" unicode="&#x445;" horiz-adv-x="1007" 
d="M460 1044l125 -295l226 295h264l-379 -473l274 -571h-352l-160 368l-286 -368h-268l448 548l-244 496h352z" />
    <glyph glyph-name="afii10088" unicode="&#xf6;" horiz-adv-x="1234" 
d="M206 1044h306l-138 -829h336l137 829h306l-138 -829h125l-80 -491h-278l45 276h-793z" />
    <glyph glyph-name="afii10088" unicode="&#x446;" horiz-adv-x="1234" 
d="M206 1044h306l-138 -829h336l137 829h306l-138 -829h125l-80 -491h-278l45 276h-793z" />
    <glyph glyph-name="afii10089" unicode="&#xf7;" horiz-adv-x="1095" 
d="M1056 1044l-172 -1044h-305l68 413q-49 -6 -102 -9t-111 -3q-112 0 -173 18.5t-102 63.5q-30 33 -43.5 73.5t-13.5 102.5q0 29 2.5 58.5t7.5 60.5l43 266h305l-41 -242q-4 -24 -6 -47t-2 -47q0 -28 6.5 -46.5t22.5 -31.5q14 -12 40 -18t70 -6q39 0 70 2t61 6l70 430h305z
" />
    <glyph glyph-name="afii10089" unicode="&#x447;" horiz-adv-x="1095" 
d="M1056 1044l-172 -1044h-305l68 413q-49 -6 -102 -9t-111 -3q-112 0 -173 18.5t-102 63.5q-30 33 -43.5 73.5t-13.5 102.5q0 29 2.5 58.5t7.5 60.5l43 266h305l-41 -242q-4 -24 -6 -47t-2 -47q0 -28 6.5 -46.5t22.5 -31.5q14 -12 40 -18t70 -6q39 0 70 2t61 6l70 430h305z
" />
    <glyph glyph-name="afii10090" unicode="&#xf8;" horiz-adv-x="1679" 
d="M212 1044h302l-138 -829h262l138 829h301l-137 -829h262l137 829h301l-172 -1044h-1428z" />
    <glyph glyph-name="afii10090" unicode="&#x448;" horiz-adv-x="1679" 
d="M212 1044h302l-138 -829h262l138 829h301l-137 -829h262l137 829h301l-172 -1044h-1428z" />
    <glyph glyph-name="afii10091" unicode="&#xf9;" horiz-adv-x="1722" 
d="M212 1044h302l-138 -829h262l138 829h301l-137 -829h262l137 829h301l-137 -829h123l-80 -491h-277l43 276h-1272z" />
    <glyph glyph-name="afii10091" unicode="&#x449;" horiz-adv-x="1722" 
d="M212 1044h302l-138 -829h262l138 829h301l-137 -829h262l137 829h301l-137 -829h123l-80 -491h-277l43 276h-1272z" />
    <glyph glyph-name="afii10092" unicode="&#xfa;" horiz-adv-x="1265" 
d="M716 1044l-63 -383h219q87 0 142.5 -13.5t97.5 -41.5q48 -33 75 -85.5t27 -125.5q0 -97 -41 -184t-109 -138q-50 -38 -112 -55.5t-168 -17.5h-545l137 829h-315l37 215h618zM624 489l-47 -289h139q51 0 79.5 9.5t53.5 31.5q29 25 41.5 55t12.5 72q0 36 -11 61t-32 39
q-15 10 -41 15.5t-58 5.5h-137z" />
    <glyph glyph-name="afii10092" unicode="&#x44a;" horiz-adv-x="1265" 
d="M716 1044l-63 -383h219q87 0 142.5 -13.5t97.5 -41.5q48 -33 75 -85.5t27 -125.5q0 -97 -41 -184t-109 -138q-50 -38 -112 -55.5t-168 -17.5h-545l137 829h-315l37 215h618zM624 489l-47 -289h139q51 0 79.5 9.5t53.5 31.5q29 25 41.5 55t12.5 72q0 36 -11 61t-32 39
q-15 10 -41 15.5t-58 5.5h-137z" />
    <glyph glyph-name="afii10093" unicode="&#xfb;" horiz-adv-x="1581" 
d="M1236 1044h306l-172 -1044h-306zM210 1044h306l-64 -383h221q97 0 153 -15.5t97 -45.5q47 -35 70.5 -87.5t23.5 -121.5q0 -100 -41.5 -186t-105.5 -134q-49 -36 -112.5 -53.5t-168.5 -17.5h-549zM425 489l-47 -289h142q54 0 80.5 9.5t52.5 31.5q28 25 40.5 55t12.5 70
q0 36 -10.5 60t-30.5 38q-16 12 -43.5 18.5t-56.5 6.5h-140z" />
    <glyph glyph-name="afii10093" unicode="&#x44b;" horiz-adv-x="1581" 
d="M1236 1044h306l-172 -1044h-306zM210 1044h306l-64 -383h221q97 0 153 -15.5t97 -45.5q47 -35 70.5 -87.5t23.5 -121.5q0 -100 -41.5 -186t-105.5 -134q-49 -36 -112.5 -53.5t-168.5 -17.5h-549zM425 489l-47 -289h142q54 0 80.5 9.5t52.5 31.5q28 25 40.5 55t12.5 70
q0 36 -10.5 60t-30.5 38q-16 12 -43.5 18.5t-56.5 6.5h-140z" />
    <glyph glyph-name="afii10094" unicode="&#xfc;" horiz-adv-x="1071" 
d="M212 1044h306l-64 -383h221q88 0 146.5 -14t99.5 -43q46 -33 72 -86.5t26 -128.5q0 -96 -42 -181.5t-107 -134.5q-51 -38 -112.5 -55.5t-168.5 -17.5h-549zM425 489l-47 -289h142q47 0 78 10.5t55 30.5q27 24 41 56t14 71q0 33 -10 57t-31 39q-16 12 -42 18.5t-60 6.5
h-140z" />
    <glyph glyph-name="afii10094" unicode="&#x44c;" horiz-adv-x="1071" 
d="M212 1044h306l-64 -383h221q88 0 146.5 -14t99.5 -43q46 -33 72 -86.5t26 -128.5q0 -96 -42 -181.5t-107 -134.5q-51 -38 -112.5 -55.5t-168.5 -17.5h-549zM425 489l-47 -289h142q47 0 78 10.5t55 30.5q27 24 41 56t14 71q0 33 -10 57t-31 39q-16 12 -42 18.5t-60 6.5
h-140z" />
    <glyph glyph-name="afii10095" unicode="&#xfd;" horiz-adv-x="1085" 
d="M329 696l-260 47q24 66 63.5 117t98.5 96q78 59 159.5 83.5t192.5 24.5q99 0 176 -24t131 -72q58 -51 92.5 -135.5t34.5 -194.5q0 -156 -57 -300.5t-149 -227.5q-74 -66 -168 -98t-203 -32q-95 0 -176 22.5t-140 68.5q-60 48 -91 111t-33 135l266 35q3 -29 14.5 -58.5
t28.5 -50.5q22 -28 55 -43.5t80 -15.5q50 0 85.5 15.5t63.5 45.5q33 35 58 93t30 116h-325l37 172h313q2 13 3 28t1 34q0 44 -10.5 77t-30.5 54q-21 22 -50.5 33.5t-63.5 11.5q-44 0 -80 -13t-66 -38q-24 -21 -45 -51t-35 -66z" />
    <glyph glyph-name="afii10095" unicode="&#x44d;" horiz-adv-x="1085" 
d="M329 696l-260 47q24 66 63.5 117t98.5 96q78 59 159.5 83.5t192.5 24.5q99 0 176 -24t131 -72q58 -51 92.5 -135.5t34.5 -194.5q0 -156 -57 -300.5t-149 -227.5q-74 -66 -168 -98t-203 -32q-95 0 -176 22.5t-140 68.5q-60 48 -91 111t-33 135l266 35q3 -29 14.5 -58.5
t28.5 -50.5q22 -28 55 -43.5t80 -15.5q50 0 85.5 15.5t63.5 45.5q33 35 58 93t30 116h-325l37 172h313q2 13 3 28t1 34q0 44 -10.5 77t-30.5 54q-21 22 -50.5 33.5t-63.5 11.5q-44 0 -80 -13t-66 -38q-24 -21 -45 -51t-35 -66z" />
    <glyph glyph-name="afii10096" unicode="&#xfe;" horiz-adv-x="1632" 
d="M452 653h129q21 73 58 138.5t85 115.5q74 75 171 116t225 41q103 0 179.5 -30.5t133.5 -87.5q61 -62 96 -153t35 -204q0 -108 -34 -211t-93 -182q-77 -103 -190 -159.5t-248 -56.5q-129 0 -231 57t-156 169q-21 43 -35 103t-20 129h-140l-71 -438h-306l172 1044h306z
M1101 860q-53 0 -96 -26.5t-76 -80.5q-34 -56 -60 -164.5t-26 -193.5q0 -42 8.5 -80.5t24.5 -63.5q21 -33 53.5 -50t73.5 -17q56 0 96.5 24t69.5 70q35 56 59.5 165t24.5 208q0 67 -11 101.5t-32 58.5q-20 22 -48 35.5t-61 13.5z" />
    <glyph glyph-name="afii10096" unicode="&#x44e;" horiz-adv-x="1632" 
d="M452 653h129q21 73 58 138.5t85 115.5q74 75 171 116t225 41q103 0 179.5 -30.5t133.5 -87.5q61 -62 96 -153t35 -204q0 -108 -34 -211t-93 -182q-77 -103 -190 -159.5t-248 -56.5q-129 0 -231 57t-156 169q-21 43 -35 103t-20 129h-140l-71 -438h-306l172 1044h306z
M1101 860q-53 0 -96 -26.5t-76 -80.5q-34 -56 -60 -164.5t-26 -193.5q0 -42 8.5 -80.5t24.5 -63.5q21 -33 53.5 -50t73.5 -17q56 0 96.5 24t69.5 70q35 56 59.5 165t24.5 208q0 67 -11 101.5t-32 58.5q-20 22 -48 35.5t-61 13.5z" />
    <glyph glyph-name="currency" unicode="&#xa4;" horiz-adv-x="1185" 
d="M251 1087l97 -96q55 39 118 60.5t125 21.5t125.5 -21.5t118.5 -60.5l96 96l117 -119l-94 -94q35 -48 55.5 -110t20.5 -130q0 -69 -20.5 -131t-55.5 -108l94 -94l-117 -119l-96 96q-55 -40 -118.5 -61t-125.5 -21t-125 21t-118 61l-97 -96l-116 119l94 94
q-35 47 -55.5 109.5t-20.5 129.5t20.5 130t55.5 110l-94 94zM333 634q0 -106 76 -182t182 -76q107 0 182.5 76t75.5 182q0 107 -75.5 182.5t-182.5 75.5q-106 0 -182 -75.5t-76 -182.5z" />
    <glyph glyph-name="brokenbar" unicode="&#xa6;" horiz-adv-x="1030" 
d="M620 561v-561h-233v561h233zM620 1404v-561h-233v561h233z" />
    <glyph glyph-name="afii10103" unicode="&#xb3;" horiz-adv-x="542" 
d="M518 1044l-172 -1044h-306l172 1044h306zM583 1417l-41 -240h-311l39 240h313z" />
    <glyph glyph-name="afii10103" unicode="&#x456;" horiz-adv-x="542" 
d="M518 1044l-172 -1044h-306l172 1044h306zM583 1417l-41 -240h-311l39 240h313z" />
    <glyph glyph-name="quotesinglbase" unicode="&#x201a;" horiz-adv-x="471" 
d="M348 278l-41 -256l-219 -286h-128l177 264h-121l43 278h289z" />
    <glyph glyph-name="daggerdbl" unicode="&#x2021;" horiz-adv-x="1148" 
d="M727 1376l141 28l-127 -364l448 82l-45 -133l2 -135l-424 69l27 -115l-65 -118l448 82l-47 -134l4 -135l-424 70q11 -26 28 -49t44 -49q-44 -115 -114 -360t-97 -381l-14 -71h-130l9 71q19 166 28.5 394.5t1.5 346.5q31 21 57 46t48 52l-445 -70l45 135l-2 134l422 -82
l-28 118l67 115l-448 -69l47 135l-4 133l422 -82l-9 364z" />
    <glyph glyph-name="Accent" unicode="&#x2c6;" horiz-adv-x="1062" 
d="M870 1552l78 -166l-451 -197l-47 115z" />
    <glyph glyph-name="perthousand" unicode="&#x2030;" horiz-adv-x="2232" 
d="M520 1425q51 0 96 -16.5t82 -53.5q41 -41 60.5 -97t19.5 -126q0 -91 -28.5 -175t-76.5 -142q-46 -58 -107 -88.5t-141 -30.5q-117 0 -189.5 82.5t-72.5 216.5q0 87 28.5 169t76.5 140q51 63 115.5 92t136.5 29zM501 1275q-41 0 -70.5 -26.5t-50.5 -83.5
q-15 -45 -23.5 -97t-8.5 -96q0 -28 3.5 -49t12.5 -37q11 -20 30.5 -30.5t43.5 -10.5q40 0 71 26t52 85q13 39 22.5 94.5t9.5 97.5q0 31 -5 53t-15 38q-12 17 -30 26.5t-42 9.5zM1193 1404h177l-983 -1404h-177zM1155 708q51 0 96 -16.5t82 -53.5q41 -41 60.5 -97t19.5 -126
q0 -91 -29 -175t-76 -142q-46 -58 -107 -88t-141 -30q-118 0 -190 82.5t-72 215.5q0 87 28.5 169t76.5 140q51 63 115.5 92t136.5 29zM1136 559q-41 0 -71 -27t-50 -84q-16 -45 -24 -97t-8 -95q0 -29 3.5 -50t12.5 -37q11 -20 30 -30t44 -10q40 0 71 25.5t52 84.5
q13 40 22.5 95t9.5 98q0 30 -5 52t-15 38q-12 17 -30 27t-42 10zM1871 708q52 0 97 -16.5t82 -53.5q40 -41 59.5 -97t19.5 -126q0 -91 -28.5 -175t-75.5 -142t-107.5 -88t-140.5 -30q-118 0 -190 82.5t-72 215.5q0 87 28.5 169t75.5 140q52 63 116 92t136 29zM1853 559
q-41 0 -71 -27t-50 -84q-16 -45 -24.5 -97t-8.5 -95q0 -29 4 -50t13 -37q11 -20 30 -30t43 -10q41 0 72 25.5t51 84.5q14 40 23.5 95t9.5 98q0 30 -5 52t-15 38q-12 17 -30 27t-42 10z" />
    <glyph glyph-name="guilsinglleft" unicode="&#x2039;" horiz-adv-x="471" 
d="M264 524l61 -287h-121l-133 287l223 297h123z" />
    <glyph glyph-name="accent" unicode="&#x2dc;" horiz-adv-x="937" 
d="M458 1525l-49 113l428 223l78 -170z" />
    <glyph glyph-name="guilsinglright" unicode="&#x203a;" horiz-adv-x="471" 
d="M206 524l-61 297h123l131 -297l-225 -287h-121z" />
    <glyph glyph-name="periodcentered" unicode="&#x2219;" horiz-adv-x="483" 
d="M430 749l-50 -317h-327l51 317h326z" />
    <glyph glyph-name="fi" unicode="&#xf001;" horiz-adv-x="1177" 
d="M790 1417l-35 -207q-11 2 -20 3t-17 1q-33 0 -63 -8.5t-47 -22.5q-19 -15 -31.5 -41.5t-17.5 -66.5l-4 -31h174l-33 -215h-176l-135 -829h-306l136 829h-144l33 215h145l4 29q16 107 57 176t109 112q52 33 115.5 48.5t142.5 15.5q28 0 56 -2t57 -6zM1136 1044l-174 -1044
h-305l174 1044h305zM1204 1417l-41 -240h-314l41 240h314z" />
    <glyph glyph-name="uniF002" unicode="&#xf002;" horiz-adv-x="1183" 
d="M794 1417l-35 -207q-11 2 -22 3t-23 1q-30 0 -55.5 -7t-42.5 -20q-23 -17 -36.5 -46t-18.5 -66l-4 -31h176l-37 -215h-174l-137 -829h-306l136 829h-144l37 215h143l7 29q27 130 54.5 178t76.5 88q50 42 116.5 64t161.5 22q29 0 61 -2t66 -6zM1206 1404l-232 -1404h-305
l232 1404h305z" />
    </font>
</defs>
</svg>
