<?xml version="1.0" standalone="no"?>
<!DOCTYPE svg PUBLIC "-//W3C//DTD SVG 1.1//EN" "http://www.w3.org/Graphics/SVG/1.1/DTD/svg11.dtd" >
<svg>
<metadata>
Created by FontForge 20120731 at Sat Aug 22 16:03:42 2015
 By root
Copyright (c) ParaGraph Intl., 1990-1995. All Rights Reserved. ITC Franklin Gothic is a registered trade mark of International Typeface Corporation.
</metadata>
<defs>
<font id="FranklinGothicDemiC" horiz-adv-x="1249" >
  <font-face 
    font-family="FranklinGothDemiCTT"
    font-weight="400"
    font-stretch="normal"
    units-per-em="2048"
    panose-1="0 0 0 0 0 0 0 0 0 0"
    ascent="1638"
    descent="-410"
    x-height="1044"
    cap-height="1404"
    bbox="-141 -372 2093 1861"
    underline-thickness="81"
    underline-position="-123"
    unicode-range="U+0020-F002"
  />
<missing-glyph horiz-adv-x="900" 
d="M100 0v1024h800v-1024h-800zM110 10h780v1004h-780v-1004z" />
    <glyph glyph-name=".notdef" horiz-adv-x="900" 
d="M100 0v1024h800v-1024h-800zM110 10h780v1004h-780v-1004z" />
    <glyph glyph-name="glyph1" horiz-adv-x="0" 
 />
    <glyph glyph-name="glyph2" horiz-adv-x="618" 
 />
    <glyph glyph-name="space" unicode=" " horiz-adv-x="477" 
 />
    <glyph glyph-name="space" unicode="&#x45d;" horiz-adv-x="477" 
 />
    <glyph glyph-name="space" unicode="&#x40d;" horiz-adv-x="477" 
 />
    <glyph glyph-name="space" unicode="&#xa0;" horiz-adv-x="477" 
 />
    <glyph glyph-name="exclam" unicode="!" horiz-adv-x="618" 
d="M471 313v-313h-324v313h324zM503 1404l-98 -981h-193l-98 981h389z" />
    <glyph glyph-name="quotedbl" unicode="&#x22;" horiz-adv-x="753" 
d="M282 847h-158l-43 557h244zM628 847h-157l-43 557h243z" />
    <glyph glyph-name="numbersign" unicode="#" horiz-adv-x="1271" 
d="M808 0h-196l82 372h-248l-82 -372h-197l82 372h-215v185h252l60 278h-222v184h258l82 398h197l-82 -398h248l82 398h196l-81 -398h212v-184h-249l-60 -278h223v-185h-260zM731 557l59 278h-248l-59 -278h248z" />
    <glyph glyph-name="dollar" unicode="$" horiz-adv-x="1282" 
d="M540 1548h176v-174q136 -14 244.5 -92t161.5 -224l-260 -78q-7 33 -23.5 59t-46.5 50q-39 32 -80.5 45.5t-105.5 13.5q-92 0 -138.5 -36t-46.5 -97q0 -48 38.5 -80t131.5 -53l162 -37q128 -29 179 -51.5t94 -56.5q65 -53 100 -124.5t35 -158.5q0 -89 -37.5 -169
t-116.5 -142q-58 -46 -132.5 -73.5t-158.5 -31.5v-177h-176v177q-92 8 -179.5 41t-150.5 84q-58 48 -99 112.5t-60 139.5l280 51q18 -52 51.5 -94t75.5 -67q34 -20 75 -30.5t99 -10.5q105 0 159 38t54 103q0 58 -46.5 98.5t-131.5 59.5l-174 39q-60 13 -127 41t-110 61
q-65 48 -101.5 116.5t-36.5 157.5q0 92 39 172.5t117 135.5q51 36 121.5 59t144.5 29v174z" />
    <glyph glyph-name="percent" unicode="%" horiz-adv-x="1474" 
d="M61 1048q0 92 23 163t73 124q39 40 85.5 59t105.5 19q58 0 104.5 -19t85.5 -59q51 -53 73.5 -124t22.5 -163q0 -165 -77 -264.5t-209 -99.5q-59 0 -105.5 18.5t-85.5 58.5q-50 53 -73 124t-23 163zM239 1048q0 -126 28 -177.5t81 -51.5q24 0 48 16.5t38 46.5
q10 23 16 67.5t6 98.5t-6 98.5t-16 67.5q-14 31 -38 47t-48 16q-25 0 -49 -16t-37 -47q-11 -23 -17 -67.5t-6 -98.5zM1253 1404l-854 -1404h-176l854 1404h176zM839 356q0 92 23 163t73 124q39 40 85.5 58.5t105.5 18.5t105 -18.5t85 -58.5q51 -53 74 -124t23 -163
q0 -165 -77 -264.5t-210 -99.5q-59 0 -105.5 18.5t-85.5 58.5q-50 52 -73 123.5t-23 163.5zM1017 356q0 -126 28 -178t81 -52q25 0 48.5 16.5t37.5 47.5q10 23 16 67.5t6 98.5t-6 98.5t-16 67.5q-14 30 -37.5 46.5t-48.5 16.5t-48.5 -16.5t-37.5 -46.5q-10 -23 -16.5 -67.5
t-6.5 -98.5z" />
    <glyph glyph-name="ampersand" unicode="&#x26;" horiz-adv-x="1470" 
d="M796 747l203 -264q57 64 91.5 143t53.5 174l279 -39q-32 -142 -91.5 -258.5t-148.5 -206.5q31 -28 65 -41.5t79 -13.5q33 0 58 3t48 9v-241q-42 -12 -80.5 -17t-81.5 -5q-76 0 -141.5 22t-126.5 74l-25 20q-77 -66 -174 -96t-219 -30q-117 0 -213 31t-172 95
q-73 62 -106 136t-33 161q0 92 36.5 168.5t112.5 136.5q38 30 85.5 55t99.5 41q-69 90 -98 156.5t-29 134.5q0 80 34.5 145.5t98.5 110.5q55 40 122.5 57t160.5 17q106 0 176 -23t129 -73q56 -49 81 -106t25 -124q0 -75 -29.5 -141t-91.5 -117q-33 -28 -81 -53t-97 -41z
M811 294l-271 344q-75 -27 -117.5 -81.5t-42.5 -126.5q0 -39 16.5 -80.5t45.5 -69.5q29 -29 72 -44t98 -15q58 0 108 17.5t91 55.5zM673 909l41 24q60 36 86.5 73t26.5 81q0 58 -40.5 92.5t-98.5 34.5q-52 0 -88.5 -30.5t-36.5 -84.5q0 -37 19 -75t54 -76z" />
    <glyph glyph-name="quotesingle" unicode="'" horiz-adv-x="407" 
d="M282 847h-158l-43 557h244z" />
    <glyph glyph-name="parenleft" unicode="(" horiz-adv-x="665" 
d="M385 1404h206q-124 -186 -193 -405.5t-69 -460.5q0 -236 68.5 -455.5t195.5 -419.5h-208q-69 90 -121.5 184t-91.5 191q-51 126 -78 247.5t-27 244.5q0 150 34.5 304t102.5 294q38 78 83.5 147t97.5 129z" />
    <glyph glyph-name="parenright" unicode=")" horiz-adv-x="665" 
d="M73 1404h207q52 -60 97 -129t83 -147q68 -140 103 -294t35 -304q0 -123 -27 -244.5t-78 -247.5q-40 -97 -92.5 -191t-120.5 -184h-209q127 200 195.5 419.5t68.5 455.5q0 241 -68.5 460.5t-193.5 405.5z" />
    <glyph glyph-name="asterisk" unicode="*" horiz-adv-x="1101" 
d="M466 1433h168l-12 -315l299 106l51 -160l-305 -86l195 -249l-135 -99l-177 262l-176 -262l-135 99l195 249l-305 86l51 160l299 -106z" />
    <glyph glyph-name="plus" unicode="+" horiz-adv-x="1314" 
d="M538 1116h238v-408h407v-237h-407v-408h-238v408h-407v237h407v408z" />
    <glyph glyph-name="comma" unicode="," horiz-adv-x="571" 
d="M448 317v-291l-197 -347h-133l146 321h-142v317h326z" />
    <glyph glyph-name="hyphen" unicode="-" horiz-adv-x="581" 
d="M528 671v-246h-488v246h488z" />
    <glyph glyph-name="hyphen" unicode="&#xad;" horiz-adv-x="581" 
d="M528 671v-246h-488v246h488z" />
    <glyph glyph-name="period" unicode="." horiz-adv-x="571" 
d="M122 317h326v-317h-326v317z" />
    <glyph glyph-name="slash" unicode="/" horiz-adv-x="1067" 
d="M1017 1404l-942 -1754h-216l941 1754h217z" />
    <glyph glyph-name="zero" unicode="0" 
d="M79 696q0 151 31 286t94 226q72 103 182.5 160t237.5 57t237.5 -57t182.5 -160q63 -91 94 -226t31 -286q0 -331 -139.5 -523.5t-405.5 -192.5t-405.5 192.5t-139.5 523.5zM387 696q0 -146 22 -247t64 -157q29 -38 67 -56.5t84 -18.5q47 0 84.5 18.5t67.5 56.5
q42 56 64 157t22 247q0 164 -21 270t-67 158q-28 31 -64.5 47t-85.5 16q-48 0 -85 -16t-64 -47q-46 -52 -67 -158t-21 -270z" />
    <glyph glyph-name="one" unicode="1" 
d="M802 1404v-1142h355v-262h-1041v262h375v790q-123 -81 -194 -119t-146 -63v260q60 20 119.5 47.5t114.5 61.5q61 37 103.5 76t78.5 89h235z" />
    <glyph glyph-name="two" unicode="2" 
d="M372 905l-278 61q10 68 36 135t66 121q71 95 181.5 149t256.5 54q113 0 200.5 -29t154.5 -84q74 -60 112.5 -143t38.5 -184q0 -121 -64 -229.5t-169 -188.5l-400 -305h637l-10 -262h-1040v251l516 396q97 74 154 158t57 169q0 43 -15 82t-45 68q-27 26 -66 40.5t-83 14.5
q-63 0 -113.5 -30t-81.5 -82q-19 -33 -30.5 -76.5t-14.5 -85.5z" />
    <glyph glyph-name="three" unicode="3" 
d="M370 1001l-268 51q55 185 201 279t335 94q117 0 211.5 -33t157.5 -90q57 -51 89 -119.5t32 -142.5q0 -109 -65 -192t-171 -113q128 -25 205.5 -113.5t77.5 -222.5q0 -90 -36.5 -168t-108.5 -135q-70 -55 -180.5 -85.5t-225.5 -30.5q-228 0 -375.5 110.5t-195.5 294.5
l284 49q24 -94 95.5 -151.5t177.5 -57.5q45 0 98 15t84 40q29 23 46.5 60.5t17.5 78.5q0 45 -21.5 84.5t-54.5 63.5q-31 22 -83 33.5t-122 11.5h-150v221h132q76 0 118.5 10.5t71.5 30.5q31 22 49.5 56.5t18.5 74.5q0 37 -16 69.5t-44 55.5q-29 25 -67.5 37t-81.5 12
q-89 0 -150 -50t-86 -128z" />
    <glyph glyph-name="four" unicode="4" 
d="M985 1404v-849h211v-238h-211v-317h-312v317h-622v227l567 860h367zM673 555v561l-366 -561h366z" />
    <glyph glyph-name="five" unicode="5" 
d="M1091 1404l-29 -258h-628l-23 -307q57 53 127 80t156 27q95 0 176.5 -28t144.5 -85q71 -63 112.5 -153t41.5 -201q0 -94 -33 -181.5t-100 -156.5q-75 -77 -183 -119t-237 -42q-128 0 -234 42t-184 119q-46 46 -78 102t-47 123l279 47q8 -31 22.5 -57.5t34.5 -48.5
q38 -42 88 -62t111 -20q59 0 103 17t77 52q34 36 51 80t17 90q0 52 -19 96.5t-55 77.5q-32 30 -72 46t-92 16q-72 0 -131 -31.5t-98 -89.5l-250 39l55 786h897z" />
    <glyph glyph-name="six" unicode="6" 
d="M1132 1050l-274 -43q-18 81 -71 130.5t-134 49.5q-131 0 -200 -131.5t-64 -341.5q55 94 143 142.5t199 48.5q209 0 329.5 -131t120.5 -314q0 -102 -43.5 -194t-122.5 -160q-69 -59 -162.5 -92.5t-203.5 -33.5q-152 0 -266 58.5t-189 169.5q-60 90 -92.5 205.5
t-32.5 261.5q0 182 46.5 323t137.5 247q80 92 172 136t222 44q200 0 325.5 -102t159.5 -273zM638 217q49 0 89 16t71 47q31 30 47.5 68.5t16.5 89.5q0 45 -15.5 86t-50.5 78q-31 33 -67.5 49t-81.5 16t-89 -16.5t-79 -50.5q-36 -35 -53 -77.5t-17 -90.5q0 -44 16 -81t43 -65
q31 -31 77 -50t93 -19z" />
    <glyph glyph-name="seven" unicode="7" 
d="M1130 1404v-200q-138 -176 -225 -348.5t-144 -391.5q-31 -120 -42 -204.5t-11 -178.5v-81h-350q13 215 81 442t183 428q40 70 91.5 140.5t109.5 135.5h-694l24 258h977z" />
    <glyph glyph-name="eight" unicode="8" 
d="M329 702q-101 51 -156 135t-55 176q0 85 44 171t116 141q66 50 157 75t193 25q98 0 185 -22t155 -64q83 -51 124.5 -122t41.5 -155q0 -96 -56 -178t-161 -125q125 -51 197.5 -143.5t72.5 -212.5q0 -91 -42 -175.5t-117 -139.5q-73 -54 -183 -81t-227 -27
q-128 0 -234.5 32t-183.5 92q-69 54 -103 119t-34 141q0 114 71.5 203.5t194.5 134.5zM673 847q90 33 134 77.5t44 103.5q0 78 -63.5 128t-171.5 50q-94 0 -147.5 -43.5t-53.5 -106.5q0 -69 72 -124.5t186 -84.5zM555 591q-89 -26 -145 -80.5t-56 -121.5q0 -81 69 -136
t201 -55q118 0 184 44.5t66 117.5q0 68 -69.5 122t-249.5 109z" />
    <glyph glyph-name="nine" unicode="9" 
d="M118 354l275 43q17 -81 70 -130.5t135 -49.5q131 0 200 131.5t64 341.5q-56 -94 -143.5 -142.5t-198.5 -48.5q-209 0 -330 131t-121 314q0 101 43.5 193.5t122.5 160.5q69 59 162.5 93t204.5 34q151 0 265.5 -59t188.5 -170q60 -90 92.5 -205.5t32.5 -261.5
q0 -182 -46.5 -323t-137.5 -247q-80 -92 -171.5 -135.5t-221.5 -43.5q-201 0 -326.5 101.5t-159.5 272.5zM612 1187q-48 0 -88.5 -16.5t-71.5 -46.5q-30 -30 -46.5 -68.5t-16.5 -89.5q0 -46 15 -86.5t50 -77.5q32 -33 68 -49t82 -16q45 0 88.5 16.5t79.5 50.5
q36 35 52.5 77.5t16.5 90.5q0 44 -16 81t-43 65q-31 30 -77 49.5t-93 19.5z" />
    <glyph glyph-name="colon" unicode=":" horiz-adv-x="571" 
d="M448 317v-317h-326v317h326zM448 1044v-317h-326v317h326z" />
    <glyph glyph-name="semicolon" unicode=";" horiz-adv-x="571" 
d="M448 317v-291l-197 -347h-133l146 321h-142v317h326zM448 1044v-317h-326v317h326z" />
    <glyph glyph-name="less" unicode="&#x3c;" horiz-adv-x="1294" 
d="M468 591l691 -268v-254l-1026 412v221l1026 412v-254z" />
    <glyph glyph-name="equal" unicode="=" horiz-adv-x="1314" 
d="M131 700v237h1052v-237h-1052zM131 243v238h1052v-238h-1052z" />
    <glyph glyph-name="greater" unicode="&#x3e;" horiz-adv-x="1294" 
d="M821 591l-688 269v254l1026 -412v-221l-1026 -412v254z" />
    <glyph glyph-name="question" unicode="?" horiz-adv-x="1107" 
d="M315 931l-287 39q11 101 55 187.5t115 148.5q66 58 149 88.5t210 30.5q106 0 187 -24.5t153 -82.5q74 -59 111.5 -138t37.5 -179q0 -96 -45 -174t-217 -201q-65 -46 -89 -84t-24 -82v-53h-272v51q0 130 30.5 188.5t90.5 100.5l61 43q74 51 105.5 107.5t31.5 117.5
q0 81 -52 131t-134 50q-66 0 -114.5 -35t-71.5 -97q-7 -17 -14 -48t-17 -85zM696 313v-313h-324v313h324z" />
    <glyph glyph-name="at" unicode="@" horiz-adv-x="1662" 
d="M1081 1048h174l-123 -541q-5 -23 -5.5 -27t-0.5 -7q0 -24 13 -37t36 -13q88 0 151.5 100t63.5 261q0 219 -145 349t-391 130q-258 0 -401.5 -167t-143.5 -404q0 -253 156.5 -401t400.5 -148q105 0 192 22t156 68l131 -47q-86 -99 -214.5 -152.5t-274.5 -53.5
q-318 0 -526 208t-208 502q0 322 215 529.5t537 207.5q282 0 479 -172t197 -428q0 -230 -145 -378t-316 -148q-60 0 -101.5 29t-41.5 71q-49 -52 -95 -76t-108 -24q-131 0 -216 93.5t-85 237.5q0 168 118.5 302.5t278.5 134.5q82 0 131.5 -26.5t83.5 -88.5zM860 884
q-88 0 -148.5 -71.5t-60.5 -178.5q0 -63 38 -109t95 -46q74 0 134.5 72.5t70.5 172.5q1 13 1 23.5t-1 20.5q-7 54 -42 85t-87 31z" />
    <glyph glyph-name="A" unicode="A" horiz-adv-x="1255" 
d="M796 1404l447 -1404h-342l-99 331h-430l-98 -331h-274l442 1404h354zM741 569l-154 512l-153 -512h307z" />
    <glyph glyph-name="B" unicode="B" horiz-adv-x="1374" 
d="M143 1404h643q123 0 203 -20.5t137 -67.5q53 -43 85 -111.5t32 -152.5q0 -60 -21.5 -118t-56.5 -97q-28 -31 -72.5 -58.5t-89.5 -41.5v-4q45 -9 86.5 -27.5t75.5 -46.5q58 -48 87.5 -115t29.5 -151q0 -90 -31.5 -164t-89.5 -125t-139.5 -77.5t-208.5 -26.5h-670v1404z
M471 1159v-318h227q70 0 107 11t65 36q24 22 36.5 49.5t12.5 65.5q0 42 -13 70.5t-40 48.5q-27 19 -67 28t-95 9h-233zM471 604v-355h264q55 0 92.5 11.5t64.5 33.5q27 23 41.5 55t14.5 76q0 36 -11.5 67.5t-35.5 55.5q-28 28 -69 42t-105 14h-256z" />
    <glyph glyph-name="C" unicode="C" horiz-adv-x="1329" 
d="M1267 913l-307 -25q-3 44 -15 87.5t-32 80.5q-35 64 -84 93.5t-121 29.5q-81 0 -137 -39.5t-94 -122.5q-27 -59 -38 -132t-11 -177q0 -109 11 -185.5t38 -133.5q38 -84 97.5 -124t131.5 -40q63 0 111.5 25.5t83.5 74.5q24 35 41.5 85.5t23.5 103.5l301 -29
q-11 -100 -53.5 -192t-112.5 -160q-76 -75 -175.5 -114t-219.5 -39q-183 0 -317.5 80.5t-210.5 213.5q-50 88 -76.5 203t-26.5 227q0 174 55 319.5t148 237.5q81 81 186.5 122.5t243.5 41.5q116 0 218.5 -36.5t180.5 -113.5q71 -69 112 -165t48 -197z" />
    <glyph glyph-name="D" unicode="D" horiz-adv-x="1404" 
d="M143 1404h481q178 0 300.5 -45.5t211.5 -136.5q93 -95 143 -238.5t50 -279.5q0 -165 -57.5 -309t-155.5 -236q-90 -84 -199.5 -121.5t-257.5 -37.5h-516v1404zM471 258h147q103 0 171 36t110 103q40 64 58.5 144.5t18.5 174.5q0 107 -24 189.5t-72 138.5
q-44 52 -106.5 77t-161.5 25h-141v-888z" />
    <glyph glyph-name="E" unicode="E" horiz-adv-x="1198" 
d="M143 1404h989v-258h-661v-303h528v-237h-528v-348h669v-258h-997v1404z" />
    <glyph glyph-name="F" unicode="F" horiz-adv-x="1126" 
d="M1097 1404v-258h-626v-303h501v-237h-501v-606h-328v1404h954z" />
    <glyph glyph-name="G" unicode="G" horiz-adv-x="1415" 
d="M1292 753v-753h-172l-51 153q-27 -35 -60 -65t-67 -50q-49 -27 -116 -42.5t-145 -15.5q-129 0 -233 41t-186 132q-89 98 -138 243t-49 288q0 148 44.5 291t131.5 245q90 104 209.5 154.5t263.5 50.5q230 0 377 -117.5t187 -337.5l-318 -41q-5 41 -20 82.5t-37 71.5
q-33 45 -82.5 70.5t-112.5 25.5q-77 0 -137 -38.5t-98 -112.5q-27 -53 -41 -133.5t-14 -190.5q0 -114 16.5 -199.5t48.5 -140.5q40 -68 100.5 -103.5t137.5 -35.5q54 0 100 18.5t78 50.5q32 33 51.5 82t19.5 103v35h-280v239h592z" />
    <glyph glyph-name="H" unicode="H" horiz-adv-x="1402" 
d="M1259 1404v-1404h-328v595h-460v-595h-328v1404h328v-550h460v550h328z" />
    <glyph glyph-name="I" unicode="I" horiz-adv-x="614" 
d="M471 1404v-1404h-328v1404h328z" />
    <glyph glyph-name="J" unicode="J" horiz-adv-x="839" 
d="M696 1404v-905q0 -144 -19 -229t-63 -146q-55 -75 -142.5 -109.5t-228.5 -34.5q-65 0 -120 5.5t-109 16.5v254q44 -9 85 -14t75 -5q49 0 87.5 16t61.5 43q23 28 34 72.5t11 124.5v911h328z" />
    <glyph glyph-name="K" unicode="K" horiz-adv-x="1347" 
d="M471 1404v-673h4l479 673h311l-362 -505l475 -899h-377l-313 628l-217 -282v-346h-328v1404h328z" />
    <glyph glyph-name="L" unicode="L" horiz-adv-x="1097" 
d="M471 1404v-1146h598v-258h-926v1404h328z" />
    <glyph glyph-name="M" unicode="M" horiz-adv-x="1769" 
d="M589 1404l295 -897h4l291 897h447v-1404h-316v1093h-4l-340 -1093h-213l-348 1093h-4v-1093h-258v1404h446z" />
    <glyph glyph-name="N" unicode="N" horiz-adv-x="1427" 
d="M479 1404l553 -927h4q-11 42 -17 90.5t-6 89.5v747h271v-1404h-283l-549 921l-57 115h-4q12 -50 17 -90.5t5 -114.5v-831h-270v1404h336z" />
    <glyph glyph-name="O" unicode="O" horiz-adv-x="1417" 
d="M708 1425q120 0 222 -34.5t186 -108.5q112 -100 168.5 -253t56.5 -327q0 -176 -55.5 -323t-155.5 -242q-80 -76 -187.5 -116.5t-234.5 -40.5t-234.5 40.5t-187.5 116.5q-100 95 -155.5 242t-55.5 323q0 174 57 327t169 253q83 74 185.5 108.5t221.5 34.5zM708 1179
q-68 0 -118.5 -31t-88.5 -92q-37 -60 -55 -148t-18 -202t18 -205t55 -151q38 -61 91 -93t116 -32q64 0 116.5 32t90.5 93q37 60 55.5 151t18.5 205t-18.5 202t-55.5 148q-38 61 -88.5 92t-118.5 31z" />
    <glyph glyph-name="P" unicode="P" horiz-adv-x="1280" 
d="M143 1404h520q148 0 234 -19t153 -60q88 -55 137 -141.5t49 -205.5q0 -82 -24 -149.5t-68 -122.5q-66 -83 -159 -126.5t-279 -43.5h-235v-536h-328v1404zM471 782h206q66 0 106 12t68 39q27 25 42.5 63t15.5 76q0 41 -13.5 76.5t-39.5 58.5q-27 25 -68 38.5t-104 13.5
h-213v-377z" />
    <glyph glyph-name="Q" unicode="Q" horiz-adv-x="1417" 
d="M1298 -20v-250q-38 -8 -76 -12t-90 -4q-97 0 -162 24t-110 80q-28 34 -45.5 79t-22.5 89q-22 -3 -43 -4.5t-41 -1.5q-127 0 -235.5 42t-186.5 115q-100 95 -155.5 242t-55.5 323q0 174 57 327t169 253q83 74 185.5 108.5t221.5 34.5q120 0 222 -34.5t186 -108.5
q112 -100 168.5 -253t56.5 -327q0 -210 -81.5 -384t-244.5 -263q4 -18 12.5 -32t22.5 -25q21 -17 48 -25.5t63 -8.5q24 0 61.5 4.5t75.5 11.5zM428 706q0 -114 18 -205t55 -151q38 -61 91 -93t116 -32q64 0 116.5 32t90.5 93q37 60 55.5 151t18.5 205t-18.5 202t-55.5 148
q-38 61 -88.5 92t-118.5 31t-118.5 -31t-88.5 -92q-37 -60 -55 -148t-18 -202z" />
    <glyph glyph-name="R" unicode="R" horiz-adv-x="1400" 
d="M143 1404h635q120 0 214.5 -29t153.5 -81q62 -54 94.5 -134t32.5 -165q0 -135 -66.5 -235.5t-180.5 -145.5l274 -614h-363l-225 552h-241v-552h-328v1404zM471 1159v-361h241q72 0 111.5 12.5t68.5 40.5q26 24 40 58t14 74t-15.5 75t-40.5 56q-26 22 -69 33.5t-103 11.5
h-247z" />
    <glyph glyph-name="S" unicode="S" horiz-adv-x="1302" 
d="M1183 1081l-278 -82q-9 34 -27 63t-49 54q-40 32 -87 47.5t-114 15.5q-99 0 -148.5 -40t-49.5 -103q0 -51 40 -85.5t144 -58.5l174 -38q116 -26 180.5 -54t112.5 -65q70 -56 107.5 -132.5t37.5 -170.5q0 -102 -43.5 -186.5t-122.5 -145.5q-77 -60 -182.5 -90t-230.5 -30
q-243 0 -403.5 107.5t-213.5 303.5l303 53q20 -55 57 -102.5t81 -73.5q35 -22 78.5 -32.5t107.5 -10.5q110 0 169.5 41t59.5 112q0 59 -46.5 104t-145.5 66l-187 41q-61 14 -136.5 45.5t-121.5 65.5q-71 53 -109 127t-38 168q0 204 150 317t393 113q105 0 185 -20.5
t144 -59.5q74 -44 127.5 -110t81.5 -154z" />
    <glyph glyph-name="T" unicode="T" horiz-adv-x="1011" 
d="M10 1404h991v-258h-332v-1146h-327v1146h-332v258z" />
    <glyph glyph-name="U" unicode="U" horiz-adv-x="1325" 
d="M135 1404h327v-892q0 -95 11 -139.5t36 -76.5q28 -35 73.5 -53t115.5 -18q58 0 103 16.5t77 52.5q30 34 41.5 76.5t11.5 141.5v892h271v-897q0 -163 -34 -248.5t-97 -146.5q-65 -61 -163.5 -96.5t-226.5 -35.5q-139 0 -238 30t-167 90q-75 65 -108 156.5t-33 236.5v911z
" />
    <glyph glyph-name="V" unicode="V" horiz-adv-x="1224" 
d="M-14 1404h345l316 -1003l315 1003h277l-457 -1404h-336z" />
    <glyph glyph-name="W" unicode="W" horiz-adv-x="1812" 
d="M14 1404h317l234 -942l235 942h260l252 -942l226 942h260l-359 -1404h-291l-237 901l-232 -901h-290z" />
    <glyph glyph-name="X" unicode="X" horiz-adv-x="1298" 
d="M40 1404h379l254 -436l256 436h305l-403 -651l463 -753h-379l-299 503l-301 -503h-311l456 729z" />
    <glyph glyph-name="Y" unicode="Y" horiz-adv-x="1187" 
d="M1218 1404l-453 -811v-593h-327v593l-468 811h367l295 -536l297 536h289z" />
    <glyph glyph-name="Z" unicode="Z" horiz-adv-x="1183" 
d="M83 1404h1035v-211l-668 -935h690v-258h-1097v219l675 927h-635v258z" />
    <glyph glyph-name="bracketleft" unicode="[" horiz-adv-x="661" 
d="M575 1404v-145h-199v-1451h199v-145h-438v1741h438z" />
    <glyph glyph-name="backslash" unicode="\" horiz-adv-x="1153" 
d="M274 1404l821 -1404h-217l-821 1404h217z" />
    <glyph glyph-name="bracketright" unicode="]" horiz-adv-x="661" 
d="M86 1404h438v-1741h-438v145h198v1451h-198v145z" />
    <glyph glyph-name="asciicircum" unicode="^" horiz-adv-x="1177" 
d="M587 1110l-241 -578h-258l389 872h221l389 -872h-258z" />
    <glyph glyph-name="underscore" unicode="_" horiz-adv-x="1024" 
d="M1024 -133v-127h-1024v127h1024z" />
    <glyph glyph-name="grave" unicode="`" horiz-adv-x="1028" 
d="M319 1560l393 -248l-51 -116l-418 192z" />
    <glyph glyph-name="a" unicode="a" horiz-adv-x="1206" 
d="M389 722l-283 31q18 77 63.5 141t116.5 105q60 34 141 49.5t185 15.5q172 0 273.5 -42t150.5 -142q19 -40 28 -88t9 -164v-403q0 -54 7.5 -111t22.5 -114h-297q-7 39 -11 80.5t-5 84.5q-53 -93 -142.5 -139t-207.5 -46q-76 0 -145 19.5t-117 59.5q-50 41 -78.5 102
t-28.5 131q0 102 56.5 180t166.5 123q69 29 177 46.5t208 21.5l99 4v23q0 42 -8 73t-23 50q-20 24 -57.5 35.5t-89.5 11.5q-50 0 -82 -8t-56 -23q-27 -17 -46.5 -44.5t-26.5 -62.5zM778 501l-92 -8q-122 -11 -176 -31t-87 -59q-16 -20 -24 -44t-8 -50q0 -29 11.5 -52
t33.5 -40q20 -16 50 -24.5t62 -8.5q49 0 97 20t77 56q26 31 41 81t15 105v55z" />
    <glyph glyph-name="b" unicode="b" horiz-adv-x="1196" 
d="M434 1404v-503q42 75 118.5 119t169.5 44q187 0 294.5 -146t107.5 -386q0 -254 -119.5 -403t-320.5 -149q-107 0 -190.5 43.5t-137.5 131.5l-60 -155h-167v1404h305zM434 647v-232q0 -114 50.5 -172.5t131.5 -58.5q94 0 141 86.5t47 259.5q0 156 -47.5 243t-144.5 87
q-81 0 -129.5 -58.5t-48.5 -154.5z" />
    <glyph glyph-name="c" unicode="c" horiz-adv-x="1069" 
d="M1015 673l-274 -26q-2 39 -13 79.5t-28 65.5q-21 30 -55.5 49t-75.5 19q-43 0 -80 -22t-59 -60q-23 -38 -33 -102.5t-10 -153.5q0 -88 10 -151t35 -105q25 -44 58 -63t81 -19q47 0 75.5 16t51.5 51q20 31 31.5 70.5t13.5 79.5l274 -29q-10 -85 -48 -159.5t-95 -124.5
q-58 -52 -138 -80t-177 -28t-184.5 31t-153.5 95q-71 69 -112.5 176t-41.5 238q0 134 44 242.5t122 179.5q62 56 148.5 89t183.5 33q91 0 173 -27.5t140 -80.5q55 -51 91 -126.5t46 -156.5z" />
    <glyph glyph-name="d" unicode="d" horiz-adv-x="1196" 
d="M1067 1404v-1404h-283v151h-4q-16 -32 -39 -59.5t-51 -48.5q-43 -32 -95.5 -47.5t-111.5 -15.5q-88 0 -163 36t-134 115q-55 73 -85 176t-30 219q0 124 29.5 225.5t95.5 179.5q61 73 132 103t163 30q56 0 102 -12.5t86 -38.5q22 -14 43 -33t39 -40v464h306zM761 415v232
q0 41 -12.5 84.5t-34.5 70.5q-21 27 -53.5 42.5t-73.5 15.5q-51 0 -90 -23t-65 -72q-22 -39 -31.5 -96.5t-9.5 -130.5q0 -81 10 -148t29 -106q22 -47 59.5 -73.5t89.5 -26.5q45 0 82 20.5t59 53.5q20 29 30.5 70.5t10.5 86.5z" />
    <glyph glyph-name="e" unicode="e" horiz-adv-x="1177" 
d="M813 346l286 -27q-22 -78 -66 -140t-106 -106q-63 -44 -147.5 -68.5t-186.5 -24.5q-109 0 -206.5 36t-169.5 108q-72 71 -111 172t-39 224q0 141 49 248t135 180q67 56 151 86t193 30q124 0 224.5 -45t169.5 -129q59 -72 90 -169t31 -207v-54h-723q-2 -44 7 -88t27 -78
q30 -55 77 -82.5t110 -27.5q47 0 86.5 15.5t66.5 43.5q19 20 32.5 46t19.5 57zM387 634h409q1 39 -9 78t-32 70q-27 38 -66.5 58t-88.5 20q-48 0 -88 -17.5t-68 -48.5q-27 -29 -42.5 -71t-14.5 -89z" />
    <glyph glyph-name="f" unicode="f" horiz-adv-x="763" 
d="M778 1400v-202q-45 8 -80 12t-60 4q-35 0 -64 -8.5t-46 -26.5q-18 -18 -25.5 -45t-7.5 -78v-26h232v-215h-232v-815h-305v815h-162v215h162v22q0 114 22.5 182t69.5 113q43 40 105.5 59t144.5 19q55 0 122.5 -6.5t123.5 -18.5z" />
    <glyph glyph-name="g" unicode="g" horiz-adv-x="1142" 
d="M1128 1243v-217q-17 3 -37 4.5t-45 1.5q-34 0 -57 -6.5t-39 -18.5q-12 -8 -22 -20.5t-17 -28.5q54 -44 82 -108t28 -136t-33.5 -138.5t-101.5 -113.5q-51 -35 -128 -56t-152 -21q-38 0 -83 5t-65 5q-52 0 -75 -18t-23 -52q0 -28 22 -43.5t72 -17.5l273 -13
q113 -5 173.5 -18.5t108.5 -40.5q63 -35 98 -94.5t35 -142.5q0 -85 -40 -151t-119 -109q-66 -35 -163 -51t-247 -16q-148 0 -238 13.5t-157 43.5q-76 34 -116 84.5t-40 124.5q0 73 43 126t115 76q-47 23 -73 66.5t-26 95.5q0 76 47 135t132 75v5q-73 33 -115.5 97.5
t-42.5 153.5q0 90 39.5 156t107.5 109q59 36 142.5 55.5t165.5 19.5q64 0 118 -8t97 -22q4 47 24.5 88t54.5 71q37 33 80 47.5t117 14.5q25 0 42 -2.5t38 -9.5zM563 557q39 0 69.5 10.5t51.5 30.5q22 21 34.5 54.5t12.5 74.5t-12 72t-38 52q-23 20 -54.5 30.5t-61.5 10.5
q-34 0 -58.5 -7t-44.5 -21q-32 -23 -50.5 -58.5t-18.5 -81.5q0 -37 13.5 -71t39.5 -58q22 -20 49.5 -29t67.5 -9zM671 12l-272 12q-50 -6 -78.5 -30.5t-28.5 -60.5t26 -63.5t79 -43.5q36 -10 82 -15t114 -5q90 0 126 5t63 15q38 16 59 41t21 56q0 44 -40.5 64t-150.5 25z
" />
    <glyph glyph-name="h" unicode="h" horiz-adv-x="1198" 
d="M434 1404v-510q18 29 40.5 53t51.5 46q51 38 104 54.5t113 16.5q70 0 134.5 -21.5t105.5 -62.5q42 -43 64 -110.5t22 -175.5v-694h-306v665q0 52 -7.5 90t-22.5 60q-16 21 -40.5 33t-62.5 12q-50 0 -88 -20.5t-61 -53.5q-22 -31 -34.5 -80t-12.5 -100v-606h-305v1404h305
z" />
    <glyph glyph-name="i" unicode="i" horiz-adv-x="581" 
d="M448 1044v-1044h-305v1044h305zM452 1417v-240h-313v240h313z" />
    <glyph glyph-name="j" unicode="j" horiz-adv-x="589" 
d="M456 1044v-1012q0 -124 -22.5 -198.5t-73.5 -119.5q-40 -36 -100.5 -55t-143.5 -19q-44 0 -89.5 4.5t-91.5 13.5v230q21 -5 39.5 -6.5t37.5 -1.5q49 0 74 11.5t40 35.5q14 20 19.5 48t5.5 80v989h305zM460 1417v-240h-313v240h313z" />
    <glyph glyph-name="k" unicode="k" horiz-adv-x="1138" 
d="M434 1404v-815l393 455h280l-317 -360l356 -684h-321l-242 479l-149 -178v-301h-305v1404h305z" />
    <glyph glyph-name="l" unicode="l" horiz-adv-x="563" 
d="M434 1404v-1404h-305v1404h305z" />
    <glyph glyph-name="m" unicode="m" horiz-adv-x="1783" 
d="M434 0h-305v1044h288v-168h2q49 93 127.5 140.5t171.5 47.5q63 0 117 -18t96 -57q27 -25 46 -55t30 -66q20 42 50.5 77t72.5 62q44 28 94 42.5t113 14.5q74 0 134.5 -22.5t102.5 -67.5q40 -42 60 -101.5t20 -133.5v-739h-305v661q0 62 -5.5 95t-18.5 55q-16 24 -42 36.5
t-61 12.5q-40 0 -74.5 -17.5t-60.5 -54.5q-21 -31 -32 -73.5t-11 -100.5v-614h-305v661q0 60 -8 94t-23 56q-17 24 -43 36.5t-59 12.5q-37 0 -68.5 -16t-56.5 -50t-36 -78.5t-11 -101.5v-614z" />
    <glyph glyph-name="n" unicode="n" horiz-adv-x="1198" 
d="M434 0h-305v1044h284v-164h4q26 47 62.5 83.5t77.5 57.5q39 22 86 32.5t94 10.5q69 0 132 -20.5t103 -56.5q49 -45 73 -112t24 -148v-727h-306v665q0 61 -8.5 97.5t-27.5 58.5q-16 18 -42.5 28.5t-62.5 10.5q-31 0 -63 -13t-58 -39q-33 -32 -50 -83t-17 -119v-606z" />
    <glyph glyph-name="o" unicode="o" horiz-adv-x="1171" 
d="M585 1064q105 0 196.5 -34.5t166.5 -108.5q74 -74 114.5 -176.5t40.5 -220.5q0 -124 -44 -232t-119 -180q-69 -65 -160 -98.5t-195 -33.5t-195 33.5t-159 98.5q-76 72 -120 180t-44 232q0 118 40.5 220.5t115.5 176.5q74 74 165.5 108.5t196.5 34.5zM585 860
q-48 0 -83.5 -20.5t-61.5 -61.5q-27 -42 -40 -101t-13 -153q0 -89 11.5 -150t35.5 -102q25 -43 63 -65.5t88 -22.5q51 0 89 22.5t63 65.5q24 41 35.5 102t11.5 150q0 94 -13 153t-40 101q-27 41 -62.5 61.5t-83.5 20.5z" />
    <glyph glyph-name="p" unicode="p" horiz-adv-x="1193" 
d="M434 -335h-305v1379h282v-168q47 90 132.5 139t185.5 49q187 0 290 -146.5t103 -385.5q0 -249 -108.5 -400.5t-297.5 -151.5q-93 0 -164 38t-118 115v-468zM434 643v-226q0 -109 47.5 -171t130.5 -62q95 0 142.5 86t47.5 256q0 172 -49.5 253t-140.5 81q-81 0 -129.5 -61
t-48.5 -156z" />
    <glyph glyph-name="q" unicode="q" horiz-adv-x="1206" 
d="M1069 -335h-306v474q-15 -33 -38 -59.5t-54 -47.5q-41 -27 -88.5 -39.5t-103.5 -12.5q-89 0 -162.5 35.5t-132.5 115.5q-53 71 -83 172.5t-30 226.5q0 123 31.5 223.5t101.5 177.5q59 65 135 99t179 34q61 0 114.5 -14.5t102.5 -48.5q30 -21 54 -47t42 -60l70 150h176
q-8 -81 -8 -89v-18v-1272zM763 425v220q0 38 -8.5 71.5t-25.5 61.5q-25 38 -61 60t-83 22q-48 0 -85 -24t-64 -73q-24 -43 -34.5 -101t-10.5 -132q0 -82 10.5 -144t30.5 -102q24 -49 61 -74.5t88 -25.5q87 0 134.5 71t47.5 170z" />
    <glyph glyph-name="r" unicode="r" horiz-adv-x="778" 
d="M434 0h-305v1044h266v-231h4q6 49 26 90.5t50 72.5q42 46 95 67t111 21q15 0 28.5 -0.5t27.5 -3.5v-280q-15 3 -27 4.5t-22 1.5q-40 0 -76 -8.5t-64 -26.5q-63 -39 -88.5 -102t-25.5 -170v-479z" />
    <glyph glyph-name="s" unicode="s" horiz-adv-x="1067" 
d="M970 798l-243 -51q-13 26 -31 49.5t-37 38.5q-26 20 -59 30.5t-84 10.5q-38 0 -66 -5.5t-47 -14.5q-27 -14 -41 -36.5t-14 -47.5q0 -39 31 -63t102 -34l172 -24q104 -15 171 -44t109 -71q41 -40 61.5 -93.5t20.5 -115.5q0 -83 -36 -148.5t-101 -111.5
q-60 -42 -149.5 -64.5t-202.5 -22.5q-105 0 -195 22.5t-159 72.5q-55 39 -93.5 92.5t-58.5 116.5l258 39q9 -31 26 -57t42 -45q33 -26 82 -40t100 -14q44 0 88 9t68 24q21 14 32 34t11 46q0 39 -28 64.5t-118 40.5l-149 24q-102 17 -163.5 42t-103.5 61q-48 41 -73 99
t-25 122q0 75 38 143t103 113q59 39 138.5 57t179.5 18q114 0 189 -23t132 -69q43 -33 74.5 -77t48.5 -97z" />
    <glyph glyph-name="t" unicode="t" horiz-adv-x="770" 
d="M479 1363v-319h217v-215h-217v-469q0 -53 8 -76.5t25 -40.5q14 -15 35.5 -23t58.5 -8q20 0 51 3t61 8v-225q-53 -8 -114.5 -13t-110.5 -5q-77 0 -140.5 21t-105.5 66q-38 40 -55.5 94t-17.5 191v477h-164v215h164l28 307z" />
    <glyph glyph-name="u" unicode="u" horiz-adv-x="1191" 
d="M129 1044h305v-629q0 -66 9 -101t25 -56q18 -23 45.5 -35.5t59.5 -12.5q38 0 74.5 18t62.5 52q25 33 36 74.5t11 95.5v594h305v-1044h-282v186h-4q-41 -96 -121.5 -151t-192.5 -55q-67 0 -121.5 19t-95.5 54q-63 54 -89.5 128.5t-26.5 184.5v678z" />
    <glyph glyph-name="v" unicode="v" horiz-adv-x="1007" 
d="M999 1044l-373 -1044h-252l-382 1044h327l219 -670h4l223 670h234z" />
    <glyph glyph-name="w" unicode="w" horiz-adv-x="1480" 
d="M1468 1044l-324 -1044h-227l-174 649h-4l-170 -649h-227l-330 1044h311l168 -619h4l164 619h233l166 -619h4l179 619h227z" />
    <glyph glyph-name="x" unicode="x" horiz-adv-x="1069" 
d="M565 749l178 295h264l-303 -473l365 -571h-353l-219 368l-231 -368h-266l362 548l-319 496h350z" />
    <glyph glyph-name="y" unicode="y" horiz-adv-x="1005" 
d="M997 1044l-406 -1121q-29 -81 -61 -128.5t-74 -82.5q-48 -40 -102 -58t-137 -18q-40 0 -86.5 4.5t-87.5 11.5v226q37 -7 78 -11t75 -4q42 0 69.5 7t45.5 20q19 15 35 43.5t22 54.5l6 26l-382 1030h335l211 -653l223 653h236z" />
    <glyph glyph-name="z" unicode="z" horiz-adv-x="946" 
d="M894 1044v-168l-495 -661h504v-215h-860v186l487 653h-447v205h811z" />
    <glyph glyph-name="braceleft" unicode="{" horiz-adv-x="794" 
d="M737 1413v-158h-78q-33 0 -57.5 -7.5t-36.5 -21.5q-11 -12 -17 -34t-6 -68v-324q0 -58 -10 -94t-31 -63q-24 -33 -71.5 -59t-98.5 -38v-4q51 -11 98.5 -37.5t71.5 -58.5q21 -27 31 -63.5t10 -94.5v-337q0 -46 6 -68t17 -34q12 -14 36.5 -21.5t57.5 -7.5h78v-157h-148
q-72 0 -125 17.5t-92 53.5q-37 35 -53 77.5t-16 117.5v394q0 40 -10 61t-35 41t-54 31.5t-57 11.5h-39v152h39q28 0 57 11.5t54 31.5q25 21 35 42t10 60v381q0 75 16 117.5t53 77.5q39 36 92 54t125 18h148z" />
    <glyph glyph-name="bar" unicode="|" horiz-adv-x="622" 
d="M428 1404v-1404h-234v1404h234z" />
    <glyph glyph-name="braceright" unicode="}" horiz-adv-x="794" 
d="M57 1413h147q72 0 125.5 -18t91.5 -54q38 -35 54 -77.5t16 -117.5v-381q0 -39 10 -60t35 -42q25 -20 54 -31.5t57 -11.5h39v-152h-39q-28 0 -57 -11.5t-54 -31.5t-35 -41t-10 -61v-394q0 -75 -16 -117.5t-54 -77.5q-38 -36 -91.5 -53.5t-125.5 -17.5h-147v157h78
q33 0 57 7.5t37 21.5q11 12 16.5 34t5.5 68v337q0 58 10.5 94.5t30.5 63.5q25 32 72.5 58.5t97.5 37.5v4q-50 12 -97.5 38t-72.5 59q-20 27 -30.5 63t-10.5 94v324q0 46 -5.5 68t-16.5 34q-13 14 -37 21.5t-57 7.5h-78v158z" />
    <glyph glyph-name="asciitilde" unicode="~" horiz-adv-x="1169" 
d="M233 397l-168 88q19 47 44.5 92.5t51.5 77.5q43 51 96 76.5t123 25.5q39 0 82.5 -10t137.5 -45l71 -27q29 -10 61 -17t54 -7q51 0 85.5 26.5t63.5 83.5l168 -88q-23 -46 -45.5 -82.5t-44.5 -60.5q-48 -55 -109.5 -82t-129.5 -27q-27 0 -54.5 5.5t-66.5 19.5l-88 31
q-108 37 -132.5 43t-43.5 6q-53 0 -88.5 -29.5t-67.5 -99.5z" />
    <glyph glyph-name="afii10051" horiz-adv-x="1488" 
d="M0 1404h995v-258h-348v-325q65 16 136.5 24.5t147.5 8.5q123 0 212 -32.5t147 -92.5q51 -54 78.5 -132.5t27.5 -183.5q0 -101 -26.5 -180.5t-75.5 -132.5q-55 -59 -141 -89.5t-205 -30.5q-55 0 -105.5 6.5t-99.5 17.5l37 239q25 -7 48 -10.5t46 -3.5q52 0 91 13t63 38
q20 21 30.5 51.5t10.5 77.5q0 49 -13.5 85t-40.5 61q-26 23 -69 36t-90 13q-50 0 -107 -8.5t-102 -20.5v-575h-328v1146h-319v258z" />
    <glyph glyph-name="afii10051" unicode="&#x402;" horiz-adv-x="1488" 
d="M0 1404h995v-258h-348v-325q65 16 136.5 24.5t147.5 8.5q123 0 212 -32.5t147 -92.5q51 -54 78.5 -132.5t27.5 -183.5q0 -101 -26.5 -180.5t-75.5 -132.5q-55 -59 -141 -89.5t-205 -30.5q-55 0 -105.5 6.5t-99.5 17.5l37 239q25 -7 48 -10.5t46 -3.5q52 0 91 13t63 38
q20 21 30.5 51.5t10.5 77.5q0 49 -13.5 85t-40.5 61q-26 23 -69 36t-90 13q-50 0 -107 -8.5t-102 -20.5v-575h-328v1146h-319v258z" />
    <glyph glyph-name="afii10052" horiz-adv-x="1070" 
d="M143 1404h907v-258h-579v-1146h-328v1404zM790 1861l70 -178l-461 -156l-51 119z" />
    <glyph glyph-name="afii10052" unicode="&#x403;" horiz-adv-x="1070" 
d="M143 1404h907v-258h-579v-1146h-328v1404zM790 1861l70 -178l-461 -156l-51 119z" />
    <glyph glyph-name="afii10061" horiz-adv-x="1349" 
d="M143 1404h328v-561h102q32 0 59 6.5t49 20.5q32 19 54 52.5t53 137.5l39 131q17 57 36 96.5t44 67.5q22 25 45.5 37.5t54.5 11.5h256q-18 -13 -31 -27.5t-30 -43.5q-29 -48 -51.5 -103.5t-43.5 -126.5l-32 -114q-22 -76 -47 -120.5t-58 -72.5q-22 -19 -47 -30t-53 -15v-8
q30 -4 58.5 -14.5t51.5 -26.5q53 -34 92 -97.5t83 -201.5q60 -192 68.5 -215.5t19.5 -48.5q19 -47 38 -78t48 -61h-303q-33 3 -60 27.5t-49 68.5q-13 25 -30 75t-36 113l-36 127q-14 47 -27 80.5t-27 52.5q-22 32 -58 47t-110 15h-122v-606h-328v1404zM929 1861l70 -178
l-461 -156l-51 119z" />
    <glyph glyph-name="afii10061" unicode="&#x40c;" horiz-adv-x="1349" 
d="M143 1404h328v-561h102q32 0 59 6.5t49 20.5q32 19 54 52.5t53 137.5l39 131q17 57 36 96.5t44 67.5q22 25 45.5 37.5t54.5 11.5h256q-18 -13 -31 -27.5t-30 -43.5q-29 -48 -51.5 -103.5t-43.5 -126.5l-32 -114q-22 -76 -47 -120.5t-58 -72.5q-22 -19 -47 -30t-53 -15v-8
q30 -4 58.5 -14.5t51.5 -26.5q53 -34 92 -97.5t83 -201.5q60 -192 68.5 -215.5t19.5 -48.5q19 -47 38 -78t48 -61h-303q-33 3 -60 27.5t-49 68.5q-13 25 -30 75t-36 113l-36 127q-14 47 -27 80.5t-27 52.5q-22 32 -58 47t-110 15h-122v-606h-328v1404zM929 1861l70 -178
l-461 -156l-51 119z" />
    <glyph glyph-name="afii10060" horiz-adv-x="1476" 
d="M0 1404h995v-258h-348v-325q65 16 135.5 24.5t148.5 8.5q123 0 212 -32.5t147 -92.5q50 -54 72 -120t22 -167v-442h-315v389q0 67 -13.5 104t-40.5 62t-71.5 37t-104.5 12q-38 0 -89.5 -8t-102.5 -21v-575h-328v1146h-319v258z" />
    <glyph glyph-name="afii10060" unicode="&#x40b;" horiz-adv-x="1476" 
d="M0 1404h995v-258h-348v-325q65 16 135.5 24.5t148.5 8.5q123 0 212 -32.5t147 -92.5q50 -54 72 -120t22 -167v-442h-315v389q0 67 -13.5 104t-40.5 62t-71.5 37t-104.5 12q-38 0 -89.5 -8t-102.5 -21v-575h-328v1146h-319v258z" />
    <glyph glyph-name="afii10145" horiz-adv-x="1396" 
d="M143 1404h328v-1146h454v1146h328v-1404h-406v-319h-299v319h-405v1404z" />
    <glyph glyph-name="afii10145" unicode="&#x40f;" horiz-adv-x="1396" 
d="M143 1404h328v-1146h454v1146h328v-1404h-406v-319h-299v319h-405v1404z" />
    <glyph glyph-name="afii10099" horiz-adv-x="1181" 
d="M112 1155h-122v141h122v108h305v-108h348v-141h-348v-281q53 84 131.5 127t182.5 43q71 0 132.5 -22t104.5 -68q42 -44 63 -108.5t21 -172.5v-608q0 -161 -22.5 -234t-73.5 -117q-37 -33 -101 -53.5t-145 -20.5q-40 0 -97.5 7t-105.5 18v219q25 -7 56.5 -11t58.5 -4
q35 0 60.5 12.5t39.5 35.5q12 17 18.5 53.5t6.5 90.5v584q0 56 -8 90.5t-23 54.5q-16 22 -44.5 35.5t-59.5 13.5q-84 0 -139.5 -70.5t-55.5 -183.5v-585h-305v1155z" />
    <glyph glyph-name="afii10099" unicode="&#x452;" horiz-adv-x="1181" 
d="M112 1155h-122v141h122v108h305v-108h348v-141h-348v-281q53 84 131.5 127t182.5 43q71 0 132.5 -22t104.5 -68q42 -44 63 -108.5t21 -172.5v-608q0 -161 -22.5 -234t-73.5 -117q-37 -33 -101 -53.5t-145 -20.5q-40 0 -97.5 7t-105.5 18v219q25 -7 56.5 -11t58.5 -4
q35 0 60.5 12.5t39.5 35.5q12 17 18.5 53.5t6.5 90.5v584q0 56 -8 90.5t-23 54.5q-16 22 -44.5 35.5t-59.5 13.5q-84 0 -139.5 -70.5t-55.5 -183.5v-585h-305v1155z" />
    <glyph glyph-name="afii10109" horiz-adv-x="1154" 
d="M129 1044h305v-401h82q55 0 90.5 22t56.5 68q21 45 40.5 122t39.5 113q19 35 44 53.5t54 22.5h252q-24 -25 -45 -55t-35 -58q-20 -42 -48.5 -128t-33.5 -97q-25 -66 -65 -100t-105 -39v-4q51 -8 90 -34t66 -67q15 -22 29.5 -54t44.5 -116q19 -54 32 -87t35 -87
q21 -48 34.5 -71t33.5 -47h-287q-39 12 -64 47t-48 104q-14 39 -28 85.5t-24 70.5l-14 37q-20 50 -49.5 72t-85.5 22h-92v-438h-305v1044zM771 1560l76 -172l-418 -192l-51 116z" />
    <glyph glyph-name="afii10109" unicode="&#x45c;" horiz-adv-x="1154" 
d="M129 1044h305v-401h82q55 0 90.5 22t56.5 68q21 45 40.5 122t39.5 113q19 35 44 53.5t54 22.5h252q-24 -25 -45 -55t-35 -58q-20 -42 -48.5 -128t-33.5 -97q-25 -66 -65 -100t-105 -39v-4q51 -8 90 -34t66 -67q15 -22 29.5 -54t44.5 -116q19 -54 32 -87t35 -87
q21 -48 34.5 -71t33.5 -47h-287q-39 12 -64 47t-48 104q-14 39 -28 85.5t-24 70.5l-14 37q-20 50 -49.5 72t-85.5 22h-92v-438h-305v1044zM771 1560l76 -172l-418 -192l-51 116z" />
    <glyph glyph-name="afii10108" horiz-adv-x="1202" 
d="M438 1404v-108h348v-141h-348v-281q53 84 131.5 127t181.5 43q71 0 132.5 -22t105.5 -68q41 -44 62.5 -108.5t21.5 -172.5v-673h-305v645q0 56 -8 90.5t-23 54.5q-17 22 -45.5 35.5t-59.5 13.5q-23 0 -51.5 -10t-52.5 -27q-46 -31 -68 -83t-22 -134v-585h-305v1155h-123
v141h123v108h305z" />
    <glyph glyph-name="afii10108" unicode="&#x45b;" horiz-adv-x="1202" 
d="M438 1404v-108h348v-141h-348v-281q53 84 131.5 127t181.5 43q71 0 132.5 -22t105.5 -68q41 -44 62.5 -108.5t21.5 -172.5v-673h-305v645q0 56 -8 90.5t-23 54.5q-17 22 -45.5 35.5t-59.5 13.5q-23 0 -51.5 -10t-52.5 -27q-46 -31 -68 -83t-22 -134v-585h-305v1155h-123
v141h123v108h305z" />
    <glyph glyph-name="afii10062" unicode="&#xa1;" horiz-adv-x="1325" 
d="M-14 1404h360l309 -671h4l270 671h289l-428 -1011q-55 -130 -95.5 -200t-80.5 -110q-52 -50 -123.5 -76.5t-171.5 -26.5q-38 0 -79.5 5t-84.5 15v256q30 -9 63 -14t62 -5q38 0 71.5 8.5t57.5 26.5q21 15 42 45t34 65zM267 1822h252q-2 -53 36.5 -82.5t103.5 -29.5
q64 0 102.5 29.5t36.5 82.5h252q-8 -137 -115 -206.5t-276 -69.5q-170 0 -277 69.5t-115 206.5z" />
    <glyph glyph-name="afii10062" unicode="&#x40e;" horiz-adv-x="1325" 
d="M-14 1404h360l309 -671h4l270 671h289l-428 -1011q-55 -130 -95.5 -200t-80.5 -110q-52 -50 -123.5 -76.5t-171.5 -26.5q-38 0 -79.5 5t-84.5 15v256q30 -9 63 -14t62 -5q38 0 71.5 8.5t57.5 26.5q21 15 42 45t34 65zM267 1822h252q-2 -53 36.5 -82.5t103.5 -29.5
q64 0 102.5 29.5t36.5 82.5h252q-8 -137 -115 -206.5t-276 -69.5q-170 0 -277 69.5t-115 206.5z" />
    <glyph glyph-name="afii10110" unicode="&#xa2;" horiz-adv-x="1005" 
d="M997 1044l-406 -1121q-29 -81 -61 -128.5t-74 -82.5q-48 -40 -102 -58t-137 -18q-40 0 -86.5 4.5t-87.5 11.5v226q37 -7 78 -11t75 -4q42 0 69.5 7t45.5 20q19 15 35 43.5t22 54.5l6 26l-382 1030h335l211 -653l223 653h236zM686 1492h164q-7 -70 -41.5 -133.5
t-85.5 -99.5q-41 -29 -91.5 -44t-111.5 -15t-111.5 15t-91.5 44q-51 36 -85.5 99.5t-41.5 133.5h164q1 -31 15.5 -60t37.5 -46q19 -14 47 -21.5t66 -7.5t66 7.5t47 21.5q23 17 37.5 46t15.5 60z" />
    <glyph glyph-name="afii10110" unicode="&#x45e;" horiz-adv-x="1005" 
d="M997 1044l-406 -1121q-29 -81 -61 -128.5t-74 -82.5q-48 -40 -102 -58t-137 -18q-40 0 -86.5 4.5t-87.5 11.5v226q37 -7 78 -11t75 -4q42 0 69.5 7t45.5 20q19 15 35 43.5t22 54.5l6 26l-382 1030h335l211 -653l223 653h236zM686 1492h164q-7 -70 -41.5 -133.5
t-85.5 -99.5q-41 -29 -91.5 -44t-111.5 -15t-111.5 15t-91.5 44q-51 36 -85.5 99.5t-41.5 133.5h164q1 -31 15.5 -60t37.5 -46q19 -14 47 -21.5t66 -7.5t66 7.5t47 21.5q23 17 37.5 46t15.5 60z" />
    <glyph glyph-name="afii10057" unicode="&#xa3;" horiz-adv-x="839" 
d="M696 1404v-905q0 -144 -19 -229t-63 -146q-55 -75 -142.5 -109.5t-228.5 -34.5q-65 0 -120 5.5t-109 16.5v254q44 -9 85 -14t75 -5q49 0 87.5 16t61.5 43q23 28 34 72.5t11 124.5v911h328z" />
    <glyph glyph-name="afii10057" unicode="&#x408;" horiz-adv-x="839" 
d="M696 1404v-905q0 -144 -19 -229t-63 -146q-55 -75 -142.5 -109.5t-228.5 -34.5q-65 0 -120 5.5t-109 16.5v254q44 -9 85 -14t75 -5q49 0 87.5 16t61.5 43q23 28 34 72.5t11 124.5v911h328z" />
    <glyph glyph-name="currency" unicode="&#xa4;" horiz-adv-x="1189" 
d="M135 301l96 94q-35 47 -55.5 109.5t-20.5 129.5t20.5 130t55.5 110l-96 94l118 119l97 -94q57 39 120 59.5t123 20.5q61 0 124 -20.5t120 -59.5l96 94l119 -119l-96 -94q35 -47 55.5 -110t20.5 -130t-20.5 -129.5t-55.5 -109.5l96 -94l-119 -119l-96 94
q-57 -39 -120 -59.5t-124 -20.5q-60 0 -123 20.5t-120 59.5l-97 -94zM335 634q0 -106 76 -182t182 -76q107 0 182.5 76t75.5 182q0 107 -75.5 182.5t-182.5 75.5q-106 0 -182 -75.5t-76 -182.5z" />
    <glyph glyph-name="CyrHardG" unicode="&#xa5;" horiz-adv-x="1089" 
d="M147 1404h655v211h267v-469h-594v-1146h-328v1404z" />
    <glyph glyph-name="CyrHardG" unicode="&#x490;" horiz-adv-x="1089" 
d="M147 1404h655v211h267v-469h-594v-1146h-328v1404z" />
    <glyph glyph-name="brokenbar" unicode="&#xa6;" horiz-adv-x="622" 
d="M428 561v-561h-234v561h234zM428 1404v-561h-234v561h234z" />
    <glyph glyph-name="section" unicode="&#xa7;" horiz-adv-x="1245" 
d="M1067 1165l-216 -49q-29 62 -87 95.5t-144 33.5q-83 0 -125.5 -33.5t-42.5 -83.5q0 -14 5 -30t14 -29q10 -16 28 -30.5t164 -68.5l100 -37q77 -28 121.5 -48.5t71.5 -39.5q66 -46 99.5 -112t33.5 -138q0 -76 -36.5 -147.5t-100.5 -130.5q81 -44 125.5 -117t44.5 -162
q0 -86 -45.5 -166.5t-120.5 -133.5q-66 -46 -150.5 -68t-181.5 -22q-178 0 -309 76t-193 231l254 41q36 -80 105.5 -120.5t152.5 -40.5q91 0 154 42t63 107q0 58 -52.5 100t-164.5 75l-96 29q-118 35 -197 77t-122 97q-30 38 -48 87t-18 99q0 80 40 160t114 137
q-64 45 -95.5 107.5t-31.5 134.5q0 82 33.5 144t95.5 108q61 45 136 65.5t169 20.5q169 0 283.5 -64.5t169.5 -195.5zM634 706l-133 51q-45 -25 -72.5 -64t-27.5 -79q0 -22 10 -43t27 -39q15 -16 38 -30t128 -52l141 -51q41 22 68.5 60.5t27.5 80.5q0 27 -10 46.5t-31 35.5
q-19 15 -73.5 42.5t-92.5 41.5z" />
    <glyph glyph-name="afii10023" unicode="&#xa8;" horiz-adv-x="1198" 
d="M143 1404h989v-258h-661v-303h528v-237h-528v-348h669v-258h-997v1404zM536 1783v-237h-250v237h250zM983 1783v-237h-250v237h250z" />
    <glyph glyph-name="afii10023" unicode="&#x401;" horiz-adv-x="1198" 
d="M143 1404h989v-258h-661v-303h528v-237h-528v-348h669v-258h-997v1404zM536 1783v-237h-250v237h250zM983 1783v-237h-250v237h250z" />
    <glyph glyph-name="copyright" unicode="&#xa9;" horiz-adv-x="1667" 
d="M73 700q0 301 212 513t513 212q302 0 513.5 -212t211.5 -513t-211.5 -512.5t-513.5 -211.5q-301 0 -513 211.5t-212 512.5zM208 700q0 -252 172 -426t418 -174t418 174t172 426q0 251 -172 425.5t-418 174.5t-418 -174.5t-172 -425.5zM1185 811l-221 -15
q2 75 -33.5 127.5t-107.5 52.5q-86 0 -128 -67.5t-42 -208.5q0 -147 38 -208.5t126 -61.5q70 0 113 44t50 113l205 -12q-21 -145 -120 -225t-250 -80q-182 0 -290 118.5t-108 313.5q0 183 104 307.5t300 124.5q153 0 248.5 -79t115.5 -244z" />
    <glyph glyph-name="afii10053" unicode="&#xaa;" horiz-adv-x="1333" 
d="M1263 991l-303 -56q-27 114 -99.5 179t-172.5 65q-121 0 -191.5 -93t-66.5 -245h405v-239h-407q-4 -121 40.5 -215t114.5 -131q24 -13 54.5 -20t68.5 -7q99 0 167.5 62t92.5 153l305 -57q-42 -193 -190 -300t-379 -107q-223 0 -364 108t-205 299q-28 81 -43 161.5
t-15 159.5q0 88 7.5 155.5t23.5 125.5q60 219 212 327.5t363 108.5q241 0 387 -120t195 -314z" />
    <glyph glyph-name="afii10053" unicode="&#x404;" horiz-adv-x="1333" 
d="M1263 991l-303 -56q-27 114 -99.5 179t-172.5 65q-121 0 -191.5 -93t-66.5 -245h405v-239h-407q-4 -121 40.5 -215t114.5 -131q24 -13 54.5 -20t68.5 -7q99 0 167.5 62t92.5 153l305 -57q-42 -193 -190 -300t-379 -107q-223 0 -364 108t-205 299q-28 81 -43 161.5
t-15 159.5q0 88 7.5 155.5t23.5 125.5q60 219 212 327.5t363 108.5q241 0 387 -120t195 -314z" />
    <glyph glyph-name="guillemotleft" unicode="&#xab;" horiz-adv-x="763" 
d="M264 526l108 -289h-125l-176 289l176 295h125zM569 526l108 -289h-125l-176 289l176 295h125z" />
    <glyph glyph-name="logicalnot" unicode="&#xac;" horiz-adv-x="1294" 
d="M1189 911v-623h-237v385h-848v238h1085z" />
    <glyph glyph-name="registered" unicode="&#xae;" horiz-adv-x="1622" 
d="M86 700q0 301 211.5 513t513.5 212q301 0 513 -212t212 -513t-212 -512.5t-513 -211.5q-302 0 -513.5 211.5t-211.5 512.5zM221 700q0 -252 171.5 -426t418.5 -174q246 0 417.5 174t171.5 426q0 251 -171.5 425.5t-417.5 174.5q-247 0 -418.5 -174.5t-171.5 -425.5z
M688 616v-334h-220v840h379q87 0 139.5 -13t92.5 -42q46 -35 71 -88.5t25 -108.5q0 -78 -42 -137.5t-107 -81.5l161 -369h-241l-135 334h-123zM688 968v-205h135q33 0 57.5 7t40.5 22q15 13 23 32t8 46q0 26 -8.5 44t-26.5 32q-16 12 -36.5 17t-51.5 5h-141z" />
    <glyph glyph-name="afii10056" unicode="&#xaf;" horiz-adv-x="724" 
d="M526 1404v-1404h-328v1404h328zM684 1783v-237h-226v237h226zM266 1783v-237h-226v237h226z" />
    <glyph glyph-name="afii10056" unicode="&#x407;" horiz-adv-x="724" 
d="M526 1404v-1404h-328v1404h328zM684 1783v-237h-226v237h226zM266 1783v-237h-226v237h226z" />
    <glyph glyph-name="degree" unicode="&#xb0;" horiz-adv-x="1277" 
d="M331 1118q0 127 90 217t217 90q128 0 218 -90t90 -217q0 -128 -90 -217.5t-218 -89.5q-127 0 -217 89.5t-90 217.5zM487 1118q0 -63 44.5 -107.5t106.5 -44.5q63 0 107.5 44.5t44.5 107.5q0 62 -44.5 106.5t-107.5 44.5q-62 0 -106.5 -44.5t-44.5 -106.5z" />
    <glyph glyph-name="plusminus" unicode="&#xb1;" horiz-adv-x="1314" 
d="M538 1359h238v-407h407v-238h-407v-407h-238v407h-407v238h407v407zM131 0v237h1052v-237h-1052z" />
    <glyph glyph-name="afii10055" unicode="&#xb2;" horiz-adv-x="614" 
d="M471 1404v-1404h-328v1404h328z" />
    <glyph glyph-name="afii10055" unicode="&#x406;" horiz-adv-x="614" 
d="M471 1404v-1404h-328v1404h328z" />
    <glyph glyph-name="afii10103" unicode="&#xb3;" horiz-adv-x="571" 
d="M438 1044v-1044h-305v1044h305zM442 1417v-240h-313v240h313z" />
    <glyph glyph-name="afii10103" unicode="&#x456;" horiz-adv-x="571" 
d="M438 1044v-1044h-305v1044h305zM442 1417v-240h-313v240h313z" />
    <glyph glyph-name="cyrhardg" unicode="&#xb4;" horiz-adv-x="917" 
d="M129 1044h563v156h205v-371h-463v-829h-305v1044z" />
    <glyph glyph-name="cyrhardg" unicode="&#x491;" horiz-adv-x="917" 
d="M129 1044h563v156h205v-371h-463v-829h-305v1044z" />
    <glyph glyph-name="mu" unicode="&#xb5;" horiz-adv-x="1193" 
d="M1064 1044v-1044h-286v186h-4q-43 -95 -118 -143.5t-167 -48.5q-13 0 -27 2l-28 4v-333h-305v1377h305v-635q0 -105 30.5 -151t104.5 -46q86 0 138 69t52 179v584h305z" />
    <glyph glyph-name="paragraph" unicode="&#xb6;" horiz-adv-x="1124" 
d="M1089 1404v-149h-129v-1607h-162v1607h-160v-1607h-161v837q-66 3 -125.5 23t-106.5 53q-91 63 -139.5 163t-48.5 207q0 95 30 180.5t93 153.5q72 77 157.5 108t219.5 31h532z" />
    <glyph glyph-name="afii10071" unicode="&#xb8;" horiz-adv-x="1177" 
d="M813 346l286 -27q-22 -78 -66 -140t-106 -106q-63 -44 -147.5 -68.5t-186.5 -24.5q-109 0 -206.5 36t-169.5 108q-72 71 -111 172t-39 224q0 141 49 248t135 180q67 56 151 86t193 30q124 0 224.5 -45t169.5 -129q59 -72 90 -169t31 -207v-54h-723q-2 -44 7 -88t27 -78
q30 -55 77 -82.5t110 -27.5q47 0 86.5 15.5t66.5 43.5q19 20 32.5 46t19.5 57zM387 634h409q1 39 -9 78t-32 70q-27 38 -66.5 58t-88.5 20q-48 0 -88 -17.5t-68 -48.5q-27 -29 -42.5 -71t-14.5 -89zM501 1433v-237h-250v237h250zM925 1433v-237h-250v237h250z" />
    <glyph glyph-name="afii10071" unicode="&#x451;" horiz-adv-x="1177" 
d="M813 346l286 -27q-22 -78 -66 -140t-106 -106q-63 -44 -147.5 -68.5t-186.5 -24.5q-109 0 -206.5 36t-169.5 108q-72 71 -111 172t-39 224q0 141 49 248t135 180q67 56 151 86t193 30q124 0 224.5 -45t169.5 -129q59 -72 90 -169t31 -207v-54h-723q-2 -44 7 -88t27 -78
q30 -55 77 -82.5t110 -27.5q47 0 86.5 15.5t66.5 43.5q19 20 32.5 46t19.5 57zM387 634h409q1 39 -9 78t-32 70q-27 38 -66.5 58t-88.5 20q-48 0 -88 -17.5t-68 -48.5q-27 -29 -42.5 -71t-14.5 -89zM501 1433v-237h-250v237h250zM925 1433v-237h-250v237h250z" />
    <glyph glyph-name="afii61352" unicode="&#xb9;" horiz-adv-x="2086" 
d="M483 1404l553 -927h4q-11 42 -17 90.5t-6 89.5v747h271v-1404h-283l-547 921l-59 115h-4q5 -45 13.5 -76t8.5 -123v-837h-270v1404h336zM1708 1404q59 0 113.5 -24t90.5 -66q41 -46 61.5 -115.5t20.5 -154.5q0 -179 -81 -269.5t-205 -90.5q-125 0 -206 90.5t-81 269.5
q0 85 20.5 154.5t61.5 115.5q36 42 90.5 66t114.5 24zM1708 1269q-28 0 -50 -15.5t-34 -43.5q-11 -25 -18 -71.5t-7 -94.5t7 -95t18 -71q12 -28 34 -43.5t50 -15.5q27 0 49 15.5t35 43.5q11 24 17.5 71t6.5 95t-6.5 94.5t-17.5 71.5q-13 28 -35 43.5t-49 15.5zM1441 557h533
v-166h-533v166z" />
    <glyph glyph-name="afii61352" unicode="&#x2116;" horiz-adv-x="2086" 
d="M483 1404l553 -927h4q-11 42 -17 90.5t-6 89.5v747h271v-1404h-283l-547 921l-59 115h-4q5 -45 13.5 -76t8.5 -123v-837h-270v1404h336zM1708 1404q59 0 113.5 -24t90.5 -66q41 -46 61.5 -115.5t20.5 -154.5q0 -179 -81 -269.5t-205 -90.5q-125 0 -206 90.5t-81 269.5
q0 85 20.5 154.5t61.5 115.5q36 42 90.5 66t114.5 24zM1708 1269q-28 0 -50 -15.5t-34 -43.5q-11 -25 -18 -71.5t-7 -94.5t7 -95t18 -71q12 -28 34 -43.5t50 -15.5q27 0 49 15.5t35 43.5q11 24 17.5 71t6.5 95t-6.5 94.5t-17.5 71.5q-13 28 -35 43.5t-49 15.5zM1441 557h533
v-166h-533v166z" />
    <glyph glyph-name="afii10101" unicode="&#xba;" horiz-adv-x="1136" 
d="M1060 741l-270 -39q-8 31 -25 58t-43 48q-30 26 -66 39t-77 13q-49 0 -87 -20t-64 -58q-20 -29 -31.5 -70.5t-9.5 -85.5h315v-174h-315q-3 -51 8 -100.5t33 -83.5q28 -44 67 -64t88 -20q48 0 82.5 12t65.5 41q22 21 38 48t23 59l277 -37q-20 -82 -68 -147.5t-119 -108.5
q-61 -38 -135.5 -54.5t-165.5 -16.5q-131 0 -226.5 39t-164.5 126q-57 71 -90 178t-33 217q0 114 36.5 217.5t108.5 175.5q69 68 156.5 99.5t196.5 31.5q103 0 186 -25t146 -71q57 -41 99 -99t64 -128z" />
    <glyph glyph-name="afii10101" unicode="&#x454;" horiz-adv-x="1136" 
d="M1060 741l-270 -39q-8 31 -25 58t-43 48q-30 26 -66 39t-77 13q-49 0 -87 -20t-64 -58q-20 -29 -31.5 -70.5t-9.5 -85.5h315v-174h-315q-3 -51 8 -100.5t33 -83.5q28 -44 67 -64t88 -20q48 0 82.5 12t65.5 41q22 21 38 48t23 59l277 -37q-20 -82 -68 -147.5t-119 -108.5
q-61 -38 -135.5 -54.5t-165.5 -16.5q-131 0 -226.5 39t-164.5 126q-57 71 -90 178t-33 217q0 114 36.5 217.5t108.5 175.5q69 68 156.5 99.5t196.5 31.5q103 0 186 -25t146 -71q57 -41 99 -99t64 -128z" />
    <glyph glyph-name="guillemotright" unicode="&#xbb;" horiz-adv-x="763" 
d="M194 526l-108 295h124l177 -295l-177 -289h-124zM499 526l-108 295h125l176 -295l-176 -289h-125z" />
    <glyph glyph-name="afii10105" unicode="&#xbc;" horiz-adv-x="589" 
d="M456 1044v-1012q0 -124 -22.5 -198.5t-73.5 -119.5q-40 -36 -100.5 -55t-143.5 -19q-44 0 -89.5 4.5t-91.5 13.5v230q21 -5 39.5 -6.5t37.5 -1.5q49 0 74 11.5t40 35.5q14 20 19.5 48t5.5 80v989h305zM460 1417v-240h-313v240h313z" />
    <glyph glyph-name="afii10105" unicode="&#x458;" horiz-adv-x="589" 
d="M456 1044v-1012q0 -124 -22.5 -198.5t-73.5 -119.5q-40 -36 -100.5 -55t-143.5 -19q-44 0 -89.5 4.5t-91.5 13.5v230q21 -5 39.5 -6.5t37.5 -1.5q49 0 74 11.5t40 35.5q14 20 19.5 48t5.5 80v989h305zM460 1417v-240h-313v240h313z" />
    <glyph glyph-name="afii10054" unicode="&#xbd;" horiz-adv-x="1302" 
d="M1183 1081l-278 -82q-9 34 -27 63t-49 54q-40 32 -87 47.5t-114 15.5q-99 0 -148.5 -40t-49.5 -103q0 -51 40 -85.5t144 -58.5l174 -38q116 -26 180.5 -54t112.5 -65q70 -56 107.5 -132.5t37.5 -170.5q0 -102 -43.5 -186.5t-122.5 -145.5q-77 -60 -182.5 -90t-230.5 -30
q-243 0 -403.5 107.5t-213.5 303.5l303 53q20 -55 57 -102.5t81 -73.5q35 -22 78.5 -32.5t107.5 -10.5q110 0 169.5 41t59.5 112q0 59 -46.5 104t-145.5 66l-187 41q-61 14 -136.5 45.5t-121.5 65.5q-71 53 -109 127t-38 168q0 204 150 317t393 113q105 0 185 -20.5
t144 -59.5q74 -44 127.5 -110t81.5 -154z" />
    <glyph glyph-name="afii10054" unicode="&#x405;" horiz-adv-x="1302" 
d="M1183 1081l-278 -82q-9 34 -27 63t-49 54q-40 32 -87 47.5t-114 15.5q-99 0 -148.5 -40t-49.5 -103q0 -51 40 -85.5t144 -58.5l174 -38q116 -26 180.5 -54t112.5 -65q70 -56 107.5 -132.5t37.5 -170.5q0 -102 -43.5 -186.5t-122.5 -145.5q-77 -60 -182.5 -90t-230.5 -30
q-243 0 -403.5 107.5t-213.5 303.5l303 53q20 -55 57 -102.5t81 -73.5q35 -22 78.5 -32.5t107.5 -10.5q110 0 169.5 41t59.5 112q0 59 -46.5 104t-145.5 66l-187 41q-61 14 -136.5 45.5t-121.5 65.5q-71 53 -109 127t-38 168q0 204 150 317t393 113q105 0 185 -20.5
t144 -59.5q74 -44 127.5 -110t81.5 -154z" />
    <glyph glyph-name="afii10102" unicode="&#xbe;" horiz-adv-x="1067" 
d="M970 798l-243 -51q-13 26 -31 49.5t-37 38.5q-26 20 -59 30.5t-84 10.5q-38 0 -66 -5.5t-47 -14.5q-27 -14 -41 -36.5t-14 -47.5q0 -39 31 -63t102 -34l172 -24q104 -15 171 -44t109 -71q41 -40 61.5 -93.5t20.5 -115.5q0 -83 -36 -148.5t-101 -111.5
q-60 -42 -149.5 -64.5t-202.5 -22.5q-105 0 -195 22.5t-159 72.5q-55 39 -93.5 92.5t-58.5 116.5l258 39q9 -31 26 -57t42 -45q33 -26 82 -40t100 -14q44 0 88 9t68 24q21 14 32 34t11 46q0 39 -28 64.5t-118 40.5l-149 24q-102 17 -163.5 42t-103.5 61q-48 41 -73 99
t-25 122q0 75 38 143t103 113q59 39 138.5 57t179.5 18q114 0 189 -23t132 -69q43 -33 74.5 -77t48.5 -97z" />
    <glyph glyph-name="afii10102" unicode="&#x455;" horiz-adv-x="1067" 
d="M970 798l-243 -51q-13 26 -31 49.5t-37 38.5q-26 20 -59 30.5t-84 10.5q-38 0 -66 -5.5t-47 -14.5q-27 -14 -41 -36.5t-14 -47.5q0 -39 31 -63t102 -34l172 -24q104 -15 171 -44t109 -71q41 -40 61.5 -93.5t20.5 -115.5q0 -83 -36 -148.5t-101 -111.5
q-60 -42 -149.5 -64.5t-202.5 -22.5q-105 0 -195 22.5t-159 72.5q-55 39 -93.5 92.5t-58.5 116.5l258 39q9 -31 26 -57t42 -45q33 -26 82 -40t100 -14q44 0 88 9t68 24q21 14 32 34t11 46q0 39 -28 64.5t-118 40.5l-149 24q-102 17 -163.5 42t-103.5 61q-48 41 -73 99
t-25 122q0 75 38 143t103 113q59 39 138.5 57t179.5 18q114 0 189 -23t132 -69q43 -33 74.5 -77t48.5 -97z" />
    <glyph glyph-name="afii10104" unicode="&#xbf;" horiz-adv-x="657" 
d="M481 1044v-1044h-305v1044h305zM636 1415v-238h-235v238h235zM256 1415v-238h-236v238h236z" />
    <glyph glyph-name="afii10104" unicode="&#x457;" horiz-adv-x="657" 
d="M481 1044v-1044h-305v1044h305zM636 1415v-238h-235v238h235zM256 1415v-238h-236v238h236z" />
    <glyph glyph-name="afii10017" unicode="&#xc0;" horiz-adv-x="1255" 
d="M796 1404l447 -1404h-342l-99 331h-430l-98 -331h-274l442 1404h354zM741 569l-154 512l-153 -512h307z" />
    <glyph glyph-name="afii10017" unicode="&#x410;" horiz-adv-x="1255" 
d="M796 1404l447 -1404h-342l-99 331h-430l-98 -331h-274l442 1404h354zM741 569l-154 512l-153 -512h307z" />
    <glyph glyph-name="afii10018" unicode="&#xc1;" horiz-adv-x="1363" 
d="M1148 1404v-245h-677v-312h301q118 0 189 -20t130 -62q81 -56 125.5 -138t44.5 -193q0 -93 -30 -175.5t-91 -142.5q-64 -63 -143 -89.5t-199 -26.5h-655v1404h1005zM471 610v-365h264q56 0 85.5 11.5t55.5 37.5q25 25 38 57.5t13 78.5q0 41 -13 72.5t-38 56.5
q-26 25 -61.5 38t-87.5 13h-256z" />
    <glyph glyph-name="afii10018" unicode="&#x411;" horiz-adv-x="1363" 
d="M1148 1404v-245h-677v-312h301q118 0 189 -20t130 -62q81 -56 125.5 -138t44.5 -193q0 -93 -30 -175.5t-91 -142.5q-64 -63 -143 -89.5t-199 -26.5h-655v1404h1005zM471 610v-365h264q56 0 85.5 11.5t55.5 37.5q25 25 38 57.5t13 78.5q0 41 -13 72.5t-38 56.5
q-26 25 -61.5 38t-87.5 13h-256z" />
    <glyph glyph-name="afii10019" unicode="&#xc2;" horiz-adv-x="1374" 
d="M143 1404h643q123 0 203 -20.5t137 -67.5q53 -43 85 -111.5t32 -152.5q0 -60 -21.5 -118t-56.5 -97q-28 -31 -72.5 -58.5t-89.5 -41.5v-4q45 -9 86.5 -27.5t75.5 -46.5q57 -47 87 -114.5t30 -153.5q0 -89 -31.5 -162.5t-89.5 -124.5t-139.5 -77.5t-208.5 -26.5h-670v1404
zM471 1159v-318h227q70 0 107 11t65 36q24 22 36.5 50.5t12.5 68.5q0 39 -13 67t-40 48q-27 19 -67 28t-95 9h-233zM471 604v-359h264q57 0 92.5 11.5t62.5 35.5q28 25 43 58.5t15 74.5q0 38 -12.5 69.5t-34.5 53.5q-28 28 -69 42t-105 14h-256z" />
    <glyph glyph-name="afii10019" unicode="&#x412;" horiz-adv-x="1374" 
d="M143 1404h643q123 0 203 -20.5t137 -67.5q53 -43 85 -111.5t32 -152.5q0 -60 -21.5 -118t-56.5 -97q-28 -31 -72.5 -58.5t-89.5 -41.5v-4q45 -9 86.5 -27.5t75.5 -46.5q57 -47 87 -114.5t30 -153.5q0 -89 -31.5 -162.5t-89.5 -124.5t-139.5 -77.5t-208.5 -26.5h-670v1404
zM471 1159v-318h227q70 0 107 11t65 36q24 22 36.5 50.5t12.5 68.5q0 39 -13 67t-40 48q-27 19 -67 28t-95 9h-233zM471 604v-359h264q57 0 92.5 11.5t62.5 35.5q28 25 43 58.5t15 74.5q0 38 -12.5 69.5t-34.5 53.5q-28 28 -69 42t-105 14h-256z" />
    <glyph glyph-name="afii10020" unicode="&#xc3;" horiz-adv-x="1071" 
d="M143 1404h907v-258h-579v-1146h-328v1404z" />
    <glyph glyph-name="afii10020" unicode="&#x413;" horiz-adv-x="1071" 
d="M143 1404h907v-258h-579v-1146h-328v1404z" />
    <glyph glyph-name="afii10021" unicode="&#xc4;" horiz-adv-x="1417" 
d="M339 1404h895v-1146h134v-557h-299v299h-738v-299h-299v557h99q80 160 118 283.5t60 289.5q12 90 21 225.5t9 210.5v137zM598 1146l-3 -100q-2 -100 -17 -230t-36 -214q-20 -83 -53.5 -177.5t-67.5 -166.5h486v888h-309z" />
    <glyph glyph-name="afii10021" unicode="&#x414;" horiz-adv-x="1417" 
d="M339 1404h895v-1146h134v-557h-299v299h-738v-299h-299v557h99q80 160 118 283.5t60 289.5q12 90 21 225.5t9 210.5v137zM598 1146l-3 -100q-2 -100 -17 -230t-36 -214q-20 -83 -53.5 -177.5t-67.5 -166.5h486v888h-309z" />
    <glyph glyph-name="afii10022" unicode="&#xc5;" horiz-adv-x="1198" 
d="M143 1404h989v-258h-661v-303h528v-237h-528v-348h669v-258h-997v1404z" />
    <glyph glyph-name="afii10022" unicode="&#x415;" horiz-adv-x="1198" 
d="M143 1404h989v-258h-661v-303h528v-237h-528v-348h669v-258h-997v1404z" />
    <glyph glyph-name="afii10024" unicode="&#xc6;" horiz-adv-x="1912" 
d="M804 1404h303v-561h56q39 0 72 16.5t57 49.5q15 20 27.5 53.5t39.5 132.5l25 90q19 71 38 110.5t44 65.5q19 21 38.5 31t45.5 12h254q-41 -49 -73 -117t-71 -184q-59 -178 -66 -193.5t-13 -27.5q-28 -50 -68.5 -83t-91.5 -42v-8q35 -4 66 -16t57 -29q53 -36 90 -97
t82 -198l43 -131q19 -57 36.5 -99.5t43.5 -92.5q15 -30 26.5 -48.5t26.5 -37.5h-303q-26 5 -45.5 18t-38.5 41q-21 29 -41 80t-43 131l-29 100l-19.5 65t-19.5 60q-13 37 -27.5 57t-39.5 33q-21 11 -45.5 16t-71.5 5h-62v-606h-303v606h-61q-47 0 -71.5 -5t-45.5 -16
q-25 -13 -39.5 -33t-27.5 -57q-6 -15 -20 -60t-19 -65l-29 -100q-23 -80 -43.5 -131t-40.5 -80q-19 -28 -38.5 -41t-45.5 -18h-303q15 19 26.5 37.5t26.5 48.5q26 50 43.5 92.5t36.5 99.5l43 131q45 137 82 198t90 97q26 17 57 29t66 16v8q-51 9 -91.5 42t-68.5 83
q-6 12 -13 27.5t-67 193.5q-38 116 -70 184t-73 117h254q25 -2 45 -12t39 -31q25 -26 44 -65.5t38 -110.5l24 -90q28 -99 40.5 -132.5t27.5 -53.5q24 -33 57 -49.5t72 -16.5h55v561z" />
    <glyph glyph-name="afii10024" unicode="&#x416;" horiz-adv-x="1912" 
d="M804 1404h303v-561h56q39 0 72 16.5t57 49.5q15 20 27.5 53.5t39.5 132.5l25 90q19 71 38 110.5t44 65.5q19 21 38.5 31t45.5 12h254q-41 -49 -73 -117t-71 -184q-59 -178 -66 -193.5t-13 -27.5q-28 -50 -68.5 -83t-91.5 -42v-8q35 -4 66 -16t57 -29q53 -36 90 -97
t82 -198l43 -131q19 -57 36.5 -99.5t43.5 -92.5q15 -30 26.5 -48.5t26.5 -37.5h-303q-26 5 -45.5 18t-38.5 41q-21 29 -41 80t-43 131l-29 100l-19.5 65t-19.5 60q-13 37 -27.5 57t-39.5 33q-21 11 -45.5 16t-71.5 5h-62v-606h-303v606h-61q-47 0 -71.5 -5t-45.5 -16
q-25 -13 -39.5 -33t-27.5 -57q-6 -15 -20 -60t-19 -65l-29 -100q-23 -80 -43.5 -131t-40.5 -80q-19 -28 -38.5 -41t-45.5 -18h-303q15 19 26.5 37.5t26.5 48.5q26 50 43.5 92.5t36.5 99.5l43 131q45 137 82 198t90 97q26 17 57 29t66 16v8q-51 9 -91.5 42t-68.5 83
q-6 12 -13 27.5t-67 193.5q-38 116 -70 184t-73 117h254q25 -2 45 -12t39 -31q25 -26 44 -65.5t38 -110.5l24 -90q28 -99 40.5 -132.5t27.5 -53.5q24 -33 57 -49.5t72 -16.5h55v561z" />
    <glyph glyph-name="afii10025" unicode="&#xc7;" horiz-adv-x="1337" 
d="M391 972l-269 60q17 102 81.5 184.5t160.5 134.5q68 37 147 55.5t179 18.5q109 0 200 -21t162 -67q84 -55 124 -130t40 -161q0 -115 -72.5 -201.5t-189.5 -109.5v-4q58 -7 110.5 -31.5t88.5 -58.5q42 -42 66 -103.5t24 -130.5q0 -97 -41 -179.5t-111 -137.5
q-69 -54 -167.5 -82t-252.5 -28q-143 0 -236 27t-161 79q-64 49 -113 126.5t-67 174.5l284 57q14 -46 35 -85t43 -60q35 -34 92 -54t119 -20q58 0 102.5 13.5t73.5 39.5q30 26 48 66t18 84q0 42 -17 75.5t-51 57.5q-31 21 -67.5 31t-98.5 10h-190v237h188q49 0 92.5 12.5
t69.5 32.5q26 21 41.5 55.5t15.5 77.5q0 37 -15 68t-48 55q-27 20 -61.5 29.5t-86.5 9.5q-63 0 -121 -20t-98 -60q-22 -22 -40.5 -55t-30.5 -72z" />
    <glyph glyph-name="afii10025" unicode="&#x417;" horiz-adv-x="1337" 
d="M391 972l-269 60q17 102 81.5 184.5t160.5 134.5q68 37 147 55.5t179 18.5q109 0 200 -21t162 -67q84 -55 124 -130t40 -161q0 -115 -72.5 -201.5t-189.5 -109.5v-4q58 -7 110.5 -31.5t88.5 -58.5q42 -42 66 -103.5t24 -130.5q0 -97 -41 -179.5t-111 -137.5
q-69 -54 -167.5 -82t-252.5 -28q-143 0 -236 27t-161 79q-64 49 -113 126.5t-67 174.5l284 57q14 -46 35 -85t43 -60q35 -34 92 -54t119 -20q58 0 102.5 13.5t73.5 39.5q30 26 48 66t18 84q0 42 -17 75.5t-51 57.5q-31 21 -67.5 31t-98.5 10h-190v237h188q49 0 92.5 12.5
t69.5 32.5q26 21 41.5 55.5t15.5 77.5q0 37 -15 68t-48 55q-27 20 -61.5 29.5t-86.5 9.5q-63 0 -121 -20t-98 -60q-22 -22 -40.5 -55t-30.5 -72z" />
    <glyph glyph-name="afii10026" unicode="&#xc8;" horiz-adv-x="1411" 
d="M143 1404h328v-729q0 -51 -3 -95.5t-8 -78.5q9 32 25 67.5t31 59.5l424 676v100h327v-1404h-327v731q0 53 2.5 99t7.5 83q-9 -30 -26 -68t-30 -59l-423 -674v-112h-328v1404z" />
    <glyph glyph-name="afii10026" unicode="&#x418;" horiz-adv-x="1411" 
d="M143 1404h328v-729q0 -51 -3 -95.5t-8 -78.5q9 32 25 67.5t31 59.5l424 676v100h327v-1404h-327v731q0 53 2.5 99t7.5 83q-9 -30 -26 -68t-30 -59l-423 -674v-112h-328v1404z" />
    <glyph glyph-name="afii10027" unicode="&#xc9;" horiz-adv-x="1411" 
d="M143 1404h328v-729q0 -51 -3 -95.5t-8 -78.5q9 32 25 67.5t31 59.5l424 676v100h327v-1404h-327v716q0 59 2 107.5t8 89.5q-9 -30 -26 -68t-30 -59l-423 -674v-112h-328v1404zM843 1822h252q-3 -58 -29.5 -110.5t-76.5 -89.5q-49 -38 -123 -57t-162 -19t-162 19t-123 57
q-49 37 -76 89.5t-30 110.5h252q-1 -23 7.5 -45t22.5 -37q17 -16 45 -24t64 -8t64 8t45 24q14 15 22.5 37t7.5 45z" />
    <glyph glyph-name="afii10027" unicode="&#x419;" horiz-adv-x="1411" 
d="M143 1404h328v-729q0 -51 -3 -95.5t-8 -78.5q9 32 25 67.5t31 59.5l424 676v100h327v-1404h-327v716q0 59 2 107.5t8 89.5q-9 -30 -26 -68t-30 -59l-423 -674v-112h-328v1404zM843 1822h252q-3 -58 -29.5 -110.5t-76.5 -89.5q-49 -38 -123 -57t-162 -19t-162 19t-123 57
q-49 37 -76 89.5t-30 110.5h252q-1 -23 7.5 -45t22.5 -37q17 -16 45 -24t64 -8t64 8t45 24q14 15 22.5 37t7.5 45z" />
    <glyph glyph-name="afii10028" unicode="&#xca;" horiz-adv-x="1349" 
d="M143 1404h328v-561h102q32 0 59 6.5t49 20.5q32 19 54 52.5t53 137.5l39 131q17 57 36 96.5t44 67.5q22 25 45.5 37.5t54.5 11.5h256q-18 -13 -31 -27.5t-30 -43.5q-29 -48 -51.5 -103.5t-43.5 -126.5l-32 -114q-22 -76 -47 -120.5t-58 -72.5q-22 -19 -47 -30t-53 -15v-8
q30 -4 58.5 -14.5t51.5 -26.5q53 -34 92 -97.5t83 -201.5q60 -192 68.5 -215.5t19.5 -48.5q19 -47 38 -78t48 -61h-303q-33 3 -60 27.5t-49 68.5q-13 25 -30 75t-36 113l-36 127q-14 47 -27 80.5t-27 52.5q-22 32 -58 47t-110 15h-122v-606h-328v1404z" />
    <glyph glyph-name="afii10028" unicode="&#x41a;" horiz-adv-x="1349" 
d="M143 1404h328v-561h102q32 0 59 6.5t49 20.5q32 19 54 52.5t53 137.5l39 131q17 57 36 96.5t44 67.5q22 25 45.5 37.5t54.5 11.5h256q-18 -13 -31 -27.5t-30 -43.5q-29 -48 -51.5 -103.5t-43.5 -126.5l-32 -114q-22 -76 -47 -120.5t-58 -72.5q-22 -19 -47 -30t-53 -15v-8
q30 -4 58.5 -14.5t51.5 -26.5q53 -34 92 -97.5t83 -201.5q60 -192 68.5 -215.5t19.5 -48.5q19 -47 38 -78t48 -61h-303q-33 3 -60 27.5t-49 68.5q-13 25 -30 75t-36 113l-36 127q-14 47 -27 80.5t-27 52.5q-22 32 -58 47t-110 15h-122v-606h-328v1404z" />
    <glyph glyph-name="afii10029" unicode="&#xcb;" horiz-adv-x="1402" 
d="M333 1404h926v-1404h-328v1146h-329l-2 -100q-4 -173 -18 -335.5t-36 -272.5q-24 -128 -64 -215.5t-91 -139.5q-50 -49 -111.5 -73t-136.5 -24q-27 0 -52 3.5t-51 10.5v256q9 -3 18 -4t17 -1q59 0 105.5 41.5t75.5 122.5q18 53 33 143t24 197q5 66 8.5 164.5t9.5 386.5z
" />
    <glyph glyph-name="afii10029" unicode="&#x41b;" horiz-adv-x="1402" 
d="M333 1404h926v-1404h-328v1146h-329l-2 -100q-4 -173 -18 -335.5t-36 -272.5q-24 -128 -64 -215.5t-91 -139.5q-50 -49 -111.5 -73t-136.5 -24q-27 0 -52 3.5t-51 10.5v256q9 -3 18 -4t17 -1q59 0 105.5 41.5t75.5 122.5q18 53 33 143t24 197q5 66 8.5 164.5t9.5 386.5z
" />
    <glyph glyph-name="afii10030" unicode="&#xcc;" horiz-adv-x="1769" 
d="M589 1404l295 -897h4l291 897h447v-1404h-316v1093h-4l-340 -1093h-213l-348 1093h-4v-1093h-258v1404h446z" />
    <glyph glyph-name="afii10030" unicode="&#x41c;" horiz-adv-x="1769" 
d="M589 1404l295 -897h4l291 897h447v-1404h-316v1093h-4l-340 -1093h-213l-348 1093h-4v-1093h-258v1404h446z" />
    <glyph glyph-name="afii10031" unicode="&#xcd;" horiz-adv-x="1402" 
d="M1259 1404v-1404h-328v595h-460v-595h-328v1404h328v-550h460v550h328z" />
    <glyph glyph-name="afii10031" unicode="&#x41d;" horiz-adv-x="1402" 
d="M1259 1404v-1404h-328v595h-460v-595h-328v1404h328v-550h460v550h328z" />
    <glyph glyph-name="afii10032" unicode="&#xce;" horiz-adv-x="1417" 
d="M75 702q0 174 57 327t169 253q83 74 185.5 108.5t221.5 34.5q120 0 222 -34.5t186 -108.5q112 -100 168.5 -253t56.5 -327q0 -176 -55.5 -323t-155.5 -242q-80 -76 -187.5 -116.5t-234.5 -40.5t-234.5 40.5t-187.5 116.5q-100 95 -155.5 242t-55.5 323zM428 706
q0 -114 18 -205t55 -151q38 -61 91 -93t116 -32q64 0 116.5 32t90.5 93q37 60 55.5 151t18.5 205t-18.5 202t-55.5 148q-38 61 -88.5 92t-118.5 31t-118.5 -31t-88.5 -92q-37 -60 -55 -148t-18 -202z" />
    <glyph glyph-name="afii10032" unicode="&#x41e;" horiz-adv-x="1417" 
d="M75 702q0 174 57 327t169 253q83 74 185.5 108.5t221.5 34.5q120 0 222 -34.5t186 -108.5q112 -100 168.5 -253t56.5 -327q0 -176 -55.5 -323t-155.5 -242q-80 -76 -187.5 -116.5t-234.5 -40.5t-234.5 40.5t-187.5 116.5q-100 95 -155.5 242t-55.5 323zM428 706
q0 -114 18 -205t55 -151q38 -61 91 -93t116 -32q64 0 116.5 32t90.5 93q37 60 55.5 151t18.5 205t-18.5 202t-55.5 148q-38 61 -88.5 92t-118.5 31t-118.5 -31t-88.5 -92q-37 -60 -55 -148t-18 -202z" />
    <glyph glyph-name="afii10033" unicode="&#xcf;" horiz-adv-x="1394" 
d="M143 1404h1108v-1404h-328v1146h-452v-1146h-328v1404z" />
    <glyph glyph-name="afii10033" unicode="&#x41f;" horiz-adv-x="1394" 
d="M143 1404h1108v-1404h-328v1146h-452v-1146h-328v1404z" />
    <glyph glyph-name="afii10034" unicode="&#xd0;" horiz-adv-x="1280" 
d="M143 1404h520q148 0 234 -19t153 -60q88 -55 137 -141.5t49 -205.5q0 -82 -24 -149.5t-68 -122.5q-66 -83 -159 -126.5t-279 -43.5h-235v-536h-328v1404zM471 782h206q66 0 106 12t68 39q27 25 42.5 63t15.5 76q0 41 -13.5 76.5t-39.5 58.5q-27 25 -68 38.5t-104 13.5
h-213v-377z" />
    <glyph glyph-name="afii10034" unicode="&#x420;" horiz-adv-x="1280" 
d="M143 1404h520q148 0 234 -19t153 -60q88 -55 137 -141.5t49 -205.5q0 -82 -24 -149.5t-68 -122.5q-66 -83 -159 -126.5t-279 -43.5h-235v-536h-328v1404zM471 782h206q66 0 106 12t68 39q27 25 42.5 63t15.5 76q0 41 -13.5 76.5t-39.5 58.5q-27 25 -68 38.5t-104 13.5
h-213v-377z" />
    <glyph glyph-name="afii10035" unicode="&#xd1;" horiz-adv-x="1329" 
d="M1267 913l-307 -25q-3 44 -15 87.5t-32 80.5q-35 64 -84 93.5t-121 29.5q-81 0 -137 -39.5t-94 -122.5q-27 -59 -38 -132t-11 -177q0 -109 11 -185.5t38 -133.5q38 -84 97.5 -124t131.5 -40q63 0 111.5 25.5t83.5 74.5q24 35 41.5 85.5t23.5 103.5l301 -29
q-11 -100 -53.5 -192t-112.5 -160q-76 -75 -175.5 -114t-219.5 -39q-183 0 -317.5 80.5t-210.5 213.5q-50 88 -76.5 203t-26.5 227q0 174 55 319.5t148 237.5q81 81 186.5 122.5t243.5 41.5q116 0 218.5 -36.5t180.5 -113.5q71 -69 112 -165t48 -197z" />
    <glyph glyph-name="afii10035" unicode="&#x421;" horiz-adv-x="1329" 
d="M1267 913l-307 -25q-3 44 -15 87.5t-32 80.5q-35 64 -84 93.5t-121 29.5q-81 0 -137 -39.5t-94 -122.5q-27 -59 -38 -132t-11 -177q0 -109 11 -185.5t38 -133.5q38 -84 97.5 -124t131.5 -40q63 0 111.5 25.5t83.5 74.5q24 35 41.5 85.5t23.5 103.5l301 -29
q-11 -100 -53.5 -192t-112.5 -160q-76 -75 -175.5 -114t-219.5 -39q-183 0 -317.5 80.5t-210.5 213.5q-50 88 -76.5 203t-26.5 227q0 174 55 319.5t148 237.5q81 81 186.5 122.5t243.5 41.5q116 0 218.5 -36.5t180.5 -113.5q71 -69 112 -165t48 -197z" />
    <glyph glyph-name="afii10036" unicode="&#xd2;" horiz-adv-x="991" 
d="M0 1404h991v-258h-332v-1146h-328v1146h-331v258z" />
    <glyph glyph-name="afii10036" unicode="&#x422;" horiz-adv-x="991" 
d="M0 1404h991v-258h-332v-1146h-328v1146h-331v258z" />
    <glyph glyph-name="afii10037" unicode="&#xd3;" horiz-adv-x="1204" 
d="M-14 1404h360l309 -671h4l270 671h289l-428 -1011q-55 -130 -95.5 -200t-80.5 -110q-52 -50 -123.5 -76.5t-171.5 -26.5q-38 0 -79.5 5t-84.5 15v256q30 -9 63 -14t62 -5q38 0 71.5 8.5t57.5 26.5q21 15 42 45t34 65z" />
    <glyph glyph-name="afii10037" unicode="&#x423;" horiz-adv-x="1204" 
d="M-14 1404h360l309 -671h4l270 671h289l-428 -1011q-55 -130 -95.5 -200t-80.5 -110q-52 -50 -123.5 -76.5t-171.5 -26.5q-38 0 -79.5 5t-84.5 15v256q30 -9 63 -14t62 -5q38 0 71.5 8.5t57.5 26.5q21 15 42 45t34 65z" />
    <glyph glyph-name="afii10038" unicode="&#xd4;" horiz-adv-x="1728" 
d="M700 1445h328v-165h18q113 0 206 -23.5t169 -73.5q115 -76 173 -195.5t58 -267.5q0 -128 -44.5 -237.5t-139.5 -188.5q-80 -66 -191.5 -99.5t-248.5 -29.5v-165h-328v165q-138 -4 -249 29.5t-191 99.5q-96 79 -140.5 188.5t-44.5 237.5q0 148 58 267.5t174 195.5
q76 50 169 73.5t205 23.5h19v165zM710 393v659l-31 -2q-64 -4 -115 -23.5t-83 -50.5q-43 -39 -64.5 -105t-21.5 -151q0 -69 11 -118t38 -90q42 -66 108 -94t158 -25zM1017 1052v-659q93 -3 159 25t108 94q26 41 37.5 90t11.5 118q0 85 -22 151t-64 105q-33 31 -83.5 50.5
t-115.5 23.5z" />
    <glyph glyph-name="afii10038" unicode="&#x424;" horiz-adv-x="1728" 
d="M700 1445h328v-165h18q113 0 206 -23.5t169 -73.5q115 -76 173 -195.5t58 -267.5q0 -128 -44.5 -237.5t-139.5 -188.5q-80 -66 -191.5 -99.5t-248.5 -29.5v-165h-328v165q-138 -4 -249 29.5t-191 99.5q-96 79 -140.5 188.5t-44.5 237.5q0 148 58 267.5t174 195.5
q76 50 169 73.5t205 23.5h19v165zM710 393v659l-31 -2q-64 -4 -115 -23.5t-83 -50.5q-43 -39 -64.5 -105t-21.5 -151q0 -69 11 -118t38 -90q42 -66 108 -94t158 -25zM1017 1052v-659q93 -3 159 25t108 94q26 41 37.5 90t11.5 118q0 85 -22 151t-64 105q-33 31 -83.5 50.5
t-115.5 23.5z" />
    <glyph glyph-name="afii10039" unicode="&#xd5;" horiz-adv-x="1298" 
d="M40 1404h379l254 -436l256 436h305l-403 -651l463 -753h-379l-299 503l-301 -503h-311l456 729z" />
    <glyph glyph-name="afii10039" unicode="&#x425;" horiz-adv-x="1298" 
d="M40 1404h379l254 -436l256 436h305l-403 -651l463 -753h-379l-299 503l-301 -503h-311l456 729z" />
    <glyph glyph-name="afii10040" unicode="&#xd6;" horiz-adv-x="1443" 
d="M143 1404h328v-1146h452v1146h328v-1146h139v-552h-299v294h-948v1404z" />
    <glyph glyph-name="afii10040" unicode="&#x426;" horiz-adv-x="1443" 
d="M143 1404h328v-1146h452v1146h328v-1146h139v-552h-299v294h-948v1404z" />
    <glyph glyph-name="afii10041" unicode="&#xd7;" horiz-adv-x="1341" 
d="M122 1404h316v-389q0 -61 9 -95t30 -58q22 -26 57 -38.5t137 -12.5q53 0 101 3.5t98 10.5v579h328v-1404h-328v577q-70 -8 -138.5 -12t-136.5 -4q-148 0 -224 19.5t-130 64.5q-59 48 -89 130t-30 220v409z" />
    <glyph glyph-name="afii10041" unicode="&#x427;" horiz-adv-x="1341" 
d="M122 1404h316v-389q0 -61 9 -95t30 -58q22 -26 57 -38.5t137 -12.5q53 0 101 3.5t98 10.5v579h328v-1404h-328v577q-70 -8 -138.5 -12t-136.5 -4q-148 0 -224 19.5t-130 64.5q-59 48 -89 130t-30 220v409z" />
    <glyph glyph-name="afii10042" unicode="&#xd8;" horiz-adv-x="1923" 
d="M143 1404h317v-1146h342v1146h318v-1146h342v1146h317v-1404h-1636v1404z" />
    <glyph glyph-name="afii10042" unicode="&#x428;" horiz-adv-x="1923" 
d="M143 1404h317v-1146h342v1146h318v-1146h342v1146h317v-1404h-1636v1404z" />
    <glyph glyph-name="afii10043" unicode="&#xd9;" horiz-adv-x="1970" 
d="M143 1404h317v-1146h342v1146h318v-1146h342v1146h317v-1146h137v-552h-299v294h-1474v1404z" />
    <glyph glyph-name="afii10043" unicode="&#x429;" horiz-adv-x="1970" 
d="M143 1404h317v-1146h342v1146h318v-1146h342v1146h317v-1146h137v-552h-299v294h-1474v1404z" />
    <glyph glyph-name="afii10044" unicode="&#xda;" horiz-adv-x="1525" 
d="M-20 1404h697v-557h295q125 0 220.5 -32t158.5 -101q47 -50 74 -121t27 -161q0 -103 -31 -183t-86 -135q-61 -60 -140 -87t-206 -27h-639v1146h-370v258zM677 602v-357h250q54 0 90 12t60 35q23 23 35 56.5t12 72.5q0 43 -11.5 74.5t-35.5 54.5q-26 26 -63.5 39t-92.5 13
h-244z" />
    <glyph glyph-name="afii10044" unicode="&#x42a;" horiz-adv-x="1525" 
d="M-20 1404h697v-557h295q125 0 220.5 -32t158.5 -101q47 -50 74 -121t27 -161q0 -103 -31 -183t-86 -135q-61 -60 -140 -87t-206 -27h-639v1146h-370v258zM677 602v-357h250q54 0 90 12t60 35q23 23 35 56.5t12 72.5q0 43 -11.5 74.5t-35.5 54.5q-26 26 -63.5 39t-92.5 13
h-244z" />
    <glyph glyph-name="afii10045" unicode="&#xdb;" horiz-adv-x="1847" 
d="M143 1404h328v-557h294q126 0 221 -32t158 -101q47 -50 74 -121t27 -161q0 -103 -31 -183t-86 -135q-61 -60 -139.5 -87t-206.5 -27h-639v1404zM471 602v-357h249q54 0 90 12t60 35q23 23 35 56.5t12 72.5q0 43 -11.5 74.5t-35.5 54.5q-26 26 -63.5 39t-92.5 13h-243z
M1376 1404h327v-1404h-327v1404z" />
    <glyph glyph-name="afii10045" unicode="&#x42b;" horiz-adv-x="1847" 
d="M143 1404h328v-557h294q126 0 221 -32t158 -101q47 -50 74 -121t27 -161q0 -103 -31 -183t-86 -135q-61 -60 -139.5 -87t-206.5 -27h-639v1404zM471 602v-357h249q54 0 90 12t60 35q23 23 35 56.5t12 72.5q0 43 -11.5 74.5t-35.5 54.5q-26 26 -63.5 39t-92.5 13h-243z
M1376 1404h327v-1404h-327v1404z" />
    <glyph glyph-name="afii10046" unicode="&#xdc;" horiz-adv-x="1318" 
d="M143 1404h328v-557h294q126 0 221 -32t158 -101q47 -50 74 -121t27 -161q0 -103 -31 -183t-86 -135q-61 -60 -139.5 -87t-206.5 -27h-639v1404zM471 602v-357h249q54 0 90 12t60 35q23 23 35 56.5t12 72.5q0 43 -11.5 74.5t-35.5 54.5q-26 26 -63.5 39t-92.5 13h-243z
" />
    <glyph glyph-name="afii10046" unicode="&#x42c;" horiz-adv-x="1318" 
d="M143 1404h328v-557h294q126 0 221 -32t158 -101q47 -50 74 -121t27 -161q0 -103 -31 -183t-86 -135q-61 -60 -139.5 -87t-206.5 -27h-639v1404zM471 602v-357h249q54 0 90 12t60 35q23 23 35 56.5t12 72.5q0 43 -11.5 74.5t-35.5 54.5q-26 26 -63.5 39t-92.5 13h-243z
" />
    <glyph glyph-name="afii10047" unicode="&#xdd;" horiz-adv-x="1343" 
d="M382 935l-303 56q22 85 67 162.5t107 134.5q74 66 172.5 101.5t237.5 35.5q147 0 259 -48.5t194 -146.5q76 -91 113.5 -215.5t37.5 -269.5q0 -154 -41.5 -306.5t-120.5 -252.5q-78 -99 -192.5 -152.5t-271.5 -53.5q-126 0 -225.5 31.5t-172.5 90.5q-68 55 -111 128.5
t-59 156.5l305 57q9 -39 26.5 -72.5t41.5 -60.5q38 -43 85 -64.5t107 -21.5q78 0 135.5 35t94.5 106q23 45 35.5 108t11.5 130h-408v237h408q0 61 -16.5 125.5t-44.5 108.5q-34 51 -83 77.5t-116 26.5q-59 0 -110 -23t-91 -71q-24 -29 -43 -68.5t-29 -81.5z" />
    <glyph glyph-name="afii10047" unicode="&#x42d;" horiz-adv-x="1343" 
d="M382 935l-303 56q22 85 67 162.5t107 134.5q74 66 172.5 101.5t237.5 35.5q147 0 259 -48.5t194 -146.5q76 -91 113.5 -215.5t37.5 -269.5q0 -154 -41.5 -306.5t-120.5 -252.5q-78 -99 -192.5 -152.5t-271.5 -53.5q-126 0 -225.5 31.5t-172.5 90.5q-68 55 -111 128.5
t-59 156.5l305 57q9 -39 26.5 -72.5t41.5 -60.5q38 -43 85 -64.5t107 -21.5q78 0 135.5 35t94.5 106q23 45 35.5 108t11.5 130h-408v237h408q0 61 -16.5 125.5t-44.5 108.5q-34 51 -83 77.5t-116 26.5q-59 0 -110 -23t-91 -71q-24 -29 -43 -68.5t-29 -81.5z" />
    <glyph glyph-name="afii10048" unicode="&#xde;" horiz-adv-x="1982" 
d="M471 847h180q15 124 71.5 240.5t143.5 194.5q83 74 185.5 108.5t221.5 34.5q120 0 222 -34.5t186 -108.5q112 -100 168.5 -253t56.5 -327q0 -176 -55.5 -323t-155.5 -242q-79 -76 -187 -116.5t-235 -40.5t-234.5 40.5t-187.5 116.5q-86 82 -143 208.5t-67 264.5h-170
v-610h-328v1404h328v-557zM1273 1179q-68 0 -118.5 -31t-87.5 -92q-38 -60 -56 -148t-18 -202t18 -205t56 -151q37 -61 90 -93t116 -32q64 0 117 32t90 93q38 60 56 151t18 205t-18.5 202t-55.5 148q-37 61 -88 92t-119 31z" />
    <glyph glyph-name="afii10048" unicode="&#x42e;" horiz-adv-x="1982" 
d="M471 847h180q15 124 71.5 240.5t143.5 194.5q83 74 185.5 108.5t221.5 34.5q120 0 222 -34.5t186 -108.5q112 -100 168.5 -253t56.5 -327q0 -176 -55.5 -323t-155.5 -242q-79 -76 -187 -116.5t-235 -40.5t-234.5 40.5t-187.5 116.5q-86 82 -143 208.5t-67 264.5h-170
v-610h-328v1404h328v-557zM1273 1179q-68 0 -118.5 -31t-87.5 -92q-38 -60 -56 -148t-18 -202t18 -205t56 -151q37 -61 90 -93t116 -32q64 0 117 32t90 93q38 60 56 151t18 205t-18.5 202t-55.5 148q-37 61 -88 92t-119 31z" />
    <glyph glyph-name="afii10049" unicode="&#xdf;" horiz-adv-x="1386" 
d="M1243 1404v-1404h-328v561h-193l-288 -561h-357l340 595q-58 15 -111.5 42.5t-86.5 60.5q-51 48 -77 119t-26 161q0 110 41.5 195t118.5 141q60 44 142 67t210 23h615zM915 1159h-248q-49 0 -92 -10t-68 -27q-31 -22 -47 -57t-16 -82q0 -45 14 -77t41 -55
q28 -22 67 -33.5t97 -11.5h252v353z" />
    <glyph glyph-name="afii10049" unicode="&#x42f;" horiz-adv-x="1386" 
d="M1243 1404v-1404h-328v561h-193l-288 -561h-357l340 595q-58 15 -111.5 42.5t-86.5 60.5q-51 48 -77 119t-26 161q0 110 41.5 195t118.5 141q60 44 142 67t210 23h615zM915 1159h-248q-49 0 -92 -10t-68 -27q-31 -22 -47 -57t-16 -82q0 -45 14 -77t41 -55
q28 -22 67 -33.5t97 -11.5h252v353z" />
    <glyph glyph-name="afii10065" unicode="&#xe0;" horiz-adv-x="1206" 
d="M389 722l-283 31q18 77 63.5 141t116.5 105q60 34 141 49.5t185 15.5q172 0 273.5 -42t150.5 -142q19 -40 28 -88t9 -164v-403q0 -54 7.5 -111t22.5 -114h-297q-7 39 -11 80.5t-5 84.5q-53 -93 -142.5 -139t-207.5 -46q-76 0 -145 19.5t-117 59.5q-50 41 -78.5 102
t-28.5 131q0 102 56.5 180t166.5 123q69 29 177 46.5t208 21.5l99 4v23q0 42 -8 73t-23 50q-20 24 -57.5 35.5t-89.5 11.5q-50 0 -82 -8t-56 -23q-27 -17 -46.5 -44.5t-26.5 -62.5zM778 501l-92 -8q-122 -11 -176 -31t-87 -59q-16 -20 -24 -44t-8 -50q0 -29 11.5 -52
t33.5 -40q20 -16 50 -24.5t62 -8.5q49 0 97 20t77 56q26 31 41 81t15 105v55z" />
    <glyph glyph-name="afii10065" unicode="&#x430;" horiz-adv-x="1206" 
d="M389 722l-283 31q18 77 63.5 141t116.5 105q60 34 141 49.5t185 15.5q172 0 273.5 -42t150.5 -142q19 -40 28 -88t9 -164v-403q0 -54 7.5 -111t22.5 -114h-297q-7 39 -11 80.5t-5 84.5q-53 -93 -142.5 -139t-207.5 -46q-76 0 -145 19.5t-117 59.5q-50 41 -78.5 102
t-28.5 131q0 102 56.5 180t166.5 123q69 29 177 46.5t208 21.5l99 4v23q0 42 -8 73t-23 50q-20 24 -57.5 35.5t-89.5 11.5q-50 0 -82 -8t-56 -23q-27 -17 -46.5 -44.5t-26.5 -62.5zM778 501l-92 -8q-122 -11 -176 -31t-87 -59q-16 -20 -24 -44t-8 -50q0 -29 11.5 -52
t33.5 -40q20 -16 50 -24.5t62 -8.5q49 0 97 20t77 56q26 31 41 81t15 105v55z" />
    <glyph glyph-name="afii10066" unicode="&#xe1;" horiz-adv-x="1216" 
d="M1075 1427v-225q-58 -22 -113.5 -37t-124.5 -27q-98 -16 -116 -18t-80 -13q-85 -14 -126.5 -26.5t-72.5 -30.5q-66 -37 -104 -105t-50 -161h4q61 102 158 151.5t231 49.5q82 0 154.5 -21.5t132.5 -64.5q86 -63 133 -163t47 -231q0 -109 -31 -201t-87 -159
q-73 -87 -172.5 -126t-241.5 -39q-138 0 -230.5 41t-160.5 124q-72 87 -108 209.5t-36 267.5q0 181 48.5 332.5t140.5 241.5q61 59 142.5 94.5t234.5 58.5q254 39 313.5 51.5t114.5 26.5zM618 794q-42 0 -78.5 -15t-64.5 -44q-36 -37 -55 -97.5t-19 -144.5q0 -94 19.5 -155
t62.5 -101q27 -25 61 -39t70 -14q46 0 83.5 16.5t63.5 46.5q34 39 51 98.5t17 151.5q0 78 -15 134.5t-49 97.5q-27 33 -63 49t-84 16z" />
    <glyph glyph-name="afii10066" unicode="&#x431;" horiz-adv-x="1216" 
d="M1075 1427v-225q-58 -22 -113.5 -37t-124.5 -27q-98 -16 -116 -18t-80 -13q-85 -14 -126.5 -26.5t-72.5 -30.5q-66 -37 -104 -105t-50 -161h4q61 102 158 151.5t231 49.5q82 0 154.5 -21.5t132.5 -64.5q86 -63 133 -163t47 -231q0 -109 -31 -201t-87 -159
q-73 -87 -172.5 -126t-241.5 -39q-138 0 -230.5 41t-160.5 124q-72 87 -108 209.5t-36 267.5q0 181 48.5 332.5t140.5 241.5q61 59 142.5 94.5t234.5 58.5q254 39 313.5 51.5t114.5 26.5zM618 794q-42 0 -78.5 -15t-64.5 -44q-36 -37 -55 -97.5t-19 -144.5q0 -94 19.5 -155
t62.5 -101q27 -25 61 -39t70 -14q46 0 83.5 16.5t63.5 46.5q34 39 51 98.5t17 151.5q0 78 -15 134.5t-49 97.5q-27 33 -63 49t-84 16z" />
    <glyph glyph-name="afii10067" unicode="&#xe2;" horiz-adv-x="1214" 
d="M129 1044h593q77 0 135 -13t99 -40q49 -33 75.5 -84.5t26.5 -114.5q0 -90 -54 -155t-150 -82v-5q50 -2 99.5 -21.5t84.5 -53.5t54.5 -80t19.5 -101q0 -71 -30 -131t-81 -98q-43 -32 -101 -48.5t-143 -16.5h-628v1044zM434 870v-248h157q48 0 74.5 8.5t46.5 26.5
q19 17 29 41.5t10 54.5q0 27 -11.5 51t-31.5 39q-18 15 -42.5 21t-67.5 6h-164zM434 448v-274h194q41 0 73 9.5t52 28.5q18 18 28.5 45t10.5 54q0 31 -14 59t-37 45q-20 16 -49.5 24.5t-67.5 8.5h-190z" />
    <glyph glyph-name="afii10067" unicode="&#x432;" horiz-adv-x="1214" 
d="M129 1044h593q77 0 135 -13t99 -40q49 -33 75.5 -84.5t26.5 -114.5q0 -90 -54 -155t-150 -82v-5q50 -2 99.5 -21.5t84.5 -53.5t54.5 -80t19.5 -101q0 -71 -30 -131t-81 -98q-43 -32 -101 -48.5t-143 -16.5h-628v1044zM434 870v-248h157q48 0 74.5 8.5t46.5 26.5
q19 17 29 41.5t10 54.5q0 27 -11.5 51t-31.5 39q-18 15 -42.5 21t-67.5 6h-164zM434 448v-274h194q41 0 73 9.5t52 28.5q18 18 28.5 45t10.5 54q0 31 -14 59t-37 45q-20 16 -49.5 24.5t-67.5 8.5h-190z" />
    <glyph glyph-name="glyph146" unicode="&#xe3;" horiz-adv-x="917" 
d="M129 1044h768v-215h-463v-829h-305v1044z" />
    <glyph glyph-name="glyph146" unicode="&#x433;" horiz-adv-x="917" 
d="M129 1044h768v-215h-463v-829h-305v1044z" />
    <glyph glyph-name="afii10069" unicode="&#xe4;" horiz-adv-x="1206" 
d="M272 1044h739v-829h117v-491h-277v276h-534v-276h-277v491h93q44 77 74.5 176t43.5 198q5 34 8.5 72t10.5 307zM495 829v-39q0 -74 -7 -152t-20 -157q-14 -90 -23.5 -124t-51.5 -142h313v614h-211z" />
    <glyph glyph-name="afii10069" unicode="&#x434;" horiz-adv-x="1206" 
d="M272 1044h739v-829h117v-491h-277v276h-534v-276h-277v491h93q44 77 74.5 176t43.5 198q5 34 8.5 72t10.5 307zM495 829v-39q0 -74 -7 -152t-20 -157q-14 -90 -23.5 -124t-51.5 -142h313v614h-211z" />
    <glyph glyph-name="afii10070" unicode="&#xe5;" horiz-adv-x="1177" 
d="M813 346l286 -27q-22 -78 -66 -140t-106 -106q-63 -44 -147.5 -68.5t-186.5 -24.5q-109 0 -206.5 36t-169.5 108q-72 71 -111 172t-39 224q0 141 49 248t135 180q67 56 151 86t193 30q124 0 224.5 -45t169.5 -129q59 -72 90 -169t31 -207v-54h-723q-2 -44 7 -88t27 -78
q30 -55 77 -82.5t110 -27.5q47 0 86.5 15.5t66.5 43.5q19 20 32.5 46t19.5 57zM387 634h409q1 39 -9 78t-32 70q-27 38 -66.5 58t-88.5 20q-48 0 -88 -17.5t-68 -48.5q-27 -29 -42.5 -71t-14.5 -89z" />
    <glyph glyph-name="afii10070" unicode="&#x435;" horiz-adv-x="1177" 
d="M813 346l286 -27q-22 -78 -66 -140t-106 -106q-63 -44 -147.5 -68.5t-186.5 -24.5q-109 0 -206.5 36t-169.5 108q-72 71 -111 172t-39 224q0 141 49 248t135 180q67 56 151 86t193 30q124 0 224.5 -45t169.5 -129q59 -72 90 -169t31 -207v-54h-723q-2 -44 7 -88t27 -78
q30 -55 77 -82.5t110 -27.5q47 0 86.5 15.5t66.5 43.5q19 20 32.5 46t19.5 57zM387 634h409q1 39 -9 78t-32 70q-27 38 -66.5 58t-88.5 20q-48 0 -88 -17.5t-68 -48.5q-27 -29 -42.5 -71t-14.5 -89z" />
    <glyph glyph-name="afii10072" unicode="&#xe6;" horiz-adv-x="1601" 
d="M659 1044h283v-399h55q50 0 78.5 22.5t48.5 77.5q11 32 26 91t27 89q20 53 46.5 83t64.5 36h243q-27 -33 -47.5 -71.5t-40.5 -94.5q-10 -31 -27.5 -86t-29.5 -84q-30 -71 -68.5 -103t-93.5 -38v-4q50 -10 86.5 -30t67.5 -58q48 -61 85.5 -190t53.5 -169q13 -31 29 -60.5
t35 -55.5h-283q-51 7 -83.5 66t-66.5 187q-21 82 -33.5 112t-29.5 46q-16 15 -35 22t-51 7h-57v-440h-283v440h-57q-32 0 -51.5 -7t-34.5 -22q-17 -16 -30 -46t-34 -112q-33 -128 -66 -187t-83 -66h-283q18 26 34 55.5t29 60.5q17 40 54.5 169t85.5 190q30 38 67 58t86 30v4
q-55 6 -93.5 38t-67.5 103q-13 29 -30 84t-28 86q-19 56 -40 94.5t-48 71.5h244q37 -6 63.5 -36t46.5 -83q12 -30 27 -89t27 -91q19 -55 48 -77.5t79 -22.5h55v399z" />
    <glyph glyph-name="afii10072" unicode="&#x436;" horiz-adv-x="1601" 
d="M659 1044h283v-399h55q50 0 78.5 22.5t48.5 77.5q11 32 26 91t27 89q20 53 46.5 83t64.5 36h243q-27 -33 -47.5 -71.5t-40.5 -94.5q-10 -31 -27.5 -86t-29.5 -84q-30 -71 -68.5 -103t-93.5 -38v-4q50 -10 86.5 -30t67.5 -58q48 -61 85.5 -190t53.5 -169q13 -31 29 -60.5
t35 -55.5h-283q-51 7 -83.5 66t-66.5 187q-21 82 -33.5 112t-29.5 46q-16 15 -35 22t-51 7h-57v-440h-283v440h-57q-32 0 -51.5 -7t-34.5 -22q-17 -16 -30 -46t-34 -112q-33 -128 -66 -187t-83 -66h-283q18 26 34 55.5t29 60.5q17 40 54.5 169t85.5 190q30 38 67 58t86 30v4
q-55 6 -93.5 38t-67.5 103q-13 29 -30 84t-28 86q-19 56 -40 94.5t-48 71.5h244q37 -6 63.5 -36t46.5 -83q12 -30 27 -89t27 -91q19 -55 48 -77.5t79 -22.5h55v399z" />
    <glyph glyph-name="afii10073" unicode="&#xe7;" horiz-adv-x="1132" 
d="M331 698l-256 51q17 69 55 126.5t97 98.5q61 44 144 67t190 23q81 0 150 -12.5t132 -42.5q89 -41 129.5 -97.5t40.5 -129.5q0 -50 -17.5 -91.5t-49.5 -72.5q-30 -28 -67 -45t-77 -23v-4q45 -6 88.5 -25.5t71.5 -47.5q31 -31 49.5 -78t18.5 -94q0 -72 -39.5 -141
t-108.5 -111q-58 -37 -140 -53t-187 -16q-131 0 -214 23t-141 66q-57 43 -93 104t-46 130l268 43q3 -29 14.5 -55t32.5 -48q28 -28 68 -43.5t88 -15.5q33 0 67.5 9t59.5 26q27 18 39 42.5t12 57.5q0 35 -11 57t-32 37q-21 16 -58.5 25.5t-80.5 9.5h-103v174h103q25 0 61.5 9
t55.5 20q23 14 38 39.5t15 58.5q0 25 -10 44t-35 36q-23 15 -48 23t-59 8q-46 0 -85 -13t-68 -39q-25 -21 -40.5 -49.5t-21.5 -60.5z" />
    <glyph glyph-name="afii10073" unicode="&#x437;" horiz-adv-x="1132" 
d="M331 698l-256 51q17 69 55 126.5t97 98.5q61 44 144 67t190 23q81 0 150 -12.5t132 -42.5q89 -41 129.5 -97.5t40.5 -129.5q0 -50 -17.5 -91.5t-49.5 -72.5q-30 -28 -67 -45t-77 -23v-4q45 -6 88.5 -25.5t71.5 -47.5q31 -31 49.5 -78t18.5 -94q0 -72 -39.5 -141
t-108.5 -111q-58 -37 -140 -53t-187 -16q-131 0 -214 23t-141 66q-57 43 -93 104t-46 130l268 43q3 -29 14.5 -55t32.5 -48q28 -28 68 -43.5t88 -15.5q33 0 67.5 9t59.5 26q27 18 39 42.5t12 57.5q0 35 -11 57t-32 37q-21 16 -58.5 25.5t-80.5 9.5h-103v174h103q25 0 61.5 9
t55.5 20q23 14 38 39.5t15 58.5q0 25 -10 44t-35 36q-23 15 -48 23t-59 8q-46 0 -85 -13t-68 -39q-25 -21 -40.5 -49.5t-21.5 -60.5z" />
    <glyph glyph-name="afii10074" unicode="&#xe8;" horiz-adv-x="1202" 
d="M129 1044h305v-487q0 -33 -2 -60.5t-7 -50.5q18 30 31.5 51t26.5 41l285 428v78h305v-1044h-305v503q0 23 2 53t6 56q-4 -10 -8.5 -19t-51.5 -79l-282 -428v-86h-305v1044z" />
    <glyph glyph-name="afii10074" unicode="&#x438;" horiz-adv-x="1202" 
d="M129 1044h305v-487q0 -33 -2 -60.5t-7 -50.5q18 30 31.5 51t26.5 41l285 428v78h305v-1044h-305v503q0 23 2 53t6 56q-4 -10 -8.5 -19t-51.5 -79l-282 -428v-86h-305v1044z" />
    <glyph glyph-name="afii10075" unicode="&#xe9;" horiz-adv-x="1202" 
d="M129 1044h305v-487q0 -33 -2 -60.5t-7 -50.5q18 30 31.5 51t26.5 41l285 428v78h305v-1044h-305v503q0 23 2 53t6 56q-4 -10 -8.5 -19t-51.5 -79l-282 -428v-86h-305v1044zM260 1417h231q0 -55 28 -88t81 -33q52 0 80 33t28 88h232q-3 -120 -95.5 -195.5t-244.5 -75.5
q-153 0 -245.5 75.5t-94.5 195.5z" />
    <glyph glyph-name="afii10075" unicode="&#x439;" horiz-adv-x="1202" 
d="M129 1044h305v-487q0 -33 -2 -60.5t-7 -50.5q18 30 31.5 51t26.5 41l285 428v78h305v-1044h-305v503q0 23 2 53t6 56q-4 -10 -8.5 -19t-51.5 -79l-282 -428v-86h-305v1044zM260 1417h231q0 -55 28 -88t81 -33q52 0 80 33t28 88h232q-3 -120 -95.5 -195.5t-244.5 -75.5
q-153 0 -245.5 75.5t-94.5 195.5z" />
    <glyph glyph-name="glyph177" unicode="&#xea;" horiz-adv-x="1155" 
d="M129 1044h305v-401h82q55 0 90.5 22t56.5 68q21 45 40.5 122t39.5 113q19 35 44 53.5t54 22.5h252q-24 -25 -45 -55t-35 -58q-20 -42 -48.5 -128t-33.5 -97q-25 -66 -65 -100t-105 -39v-4q51 -8 90 -34t66 -67q15 -22 29.5 -54t44.5 -116q19 -54 32 -87t35 -87
q21 -48 34.5 -71t33.5 -47h-287q-39 12 -64 47t-48 104q-14 39 -28 85.5t-24 70.5l-14 37q-20 50 -49.5 72t-85.5 22h-92v-438h-305v1044z" />
    <glyph glyph-name="glyph177" unicode="&#x43a;" horiz-adv-x="1155" 
d="M129 1044h305v-401h82q55 0 90.5 22t56.5 68q21 45 40.5 122t39.5 113q19 35 44 53.5t54 22.5h252q-24 -25 -45 -55t-35 -58q-20 -42 -48.5 -128t-33.5 -97q-25 -66 -65 -100t-105 -39v-4q51 -8 90 -34t66 -67q15 -22 29.5 -54t44.5 -116q19 -54 32 -87t35 -87
q21 -48 34.5 -71t33.5 -47h-287q-39 12 -64 47t-48 104q-14 39 -28 85.5t-24 70.5l-14 37q-20 50 -49.5 72t-85.5 22h-92v-438h-305v1044z" />
    <glyph glyph-name="afii10077" unicode="&#xeb;" horiz-adv-x="1148" 
d="M260 1044h759v-1044h-305v829h-215q-17 -399 -42 -515.5t-75 -184.5q-49 -68 -122 -102.5t-152 -34.5q-20 0 -39 2t-39 6v219q6 -1 12 -1t13 1q48 2 81.5 24.5t55.5 61.5q25 44 38 127.5t21 251.5q6 124 7.5 170t1.5 112v78z" />
    <glyph glyph-name="afii10077" unicode="&#x43b;" horiz-adv-x="1148" 
d="M260 1044h759v-1044h-305v829h-215q-17 -399 -42 -515.5t-75 -184.5q-49 -68 -122 -102.5t-152 -34.5q-20 0 -39 2t-39 6v219q6 -1 12 -1t13 1q48 2 81.5 24.5t55.5 61.5q25 44 38 127.5t21 251.5q6 124 7.5 170t1.5 112v78z" />
    <glyph glyph-name="afii10078" unicode="&#xec;" horiz-adv-x="1492" 
d="M129 1044h399l225 -643l219 643h391v-1044h-278v690q0 20 0.5 34t3.5 33q2 18 3 30.5t1 29.5q-42 -106 -44.5 -113t-4.5 -12l-227 -692h-174l-242 692q-36 102 -39.5 110.5t-5.5 14.5q6 -115 6 -118v-5v-694h-233v1044z" />
    <glyph glyph-name="afii10078" unicode="&#x43c;" horiz-adv-x="1492" 
d="M129 1044h399l225 -643l219 643h391v-1044h-278v690q0 20 0.5 34t3.5 33q2 18 3 30.5t1 29.5q-42 -106 -44.5 -113t-4.5 -12l-227 -692h-174l-242 692q-36 102 -39.5 110.5t-5.5 14.5q6 -115 6 -118v-5v-694h-233v1044z" />
    <glyph glyph-name="afii10079" unicode="&#xed;" horiz-adv-x="1198" 
d="M129 1044h305v-391h329v391h306v-1044h-306v438h-329v-438h-305v1044z" />
    <glyph glyph-name="afii10079" unicode="&#x43d;" horiz-adv-x="1198" 
d="M129 1044h305v-391h329v391h306v-1044h-306v438h-329v-438h-305v1044z" />
    <glyph glyph-name="afii10080" unicode="&#xee;" horiz-adv-x="1171" 
d="M67 524q0 118 40.5 220.5t115.5 176.5q74 74 165.5 108.5t196.5 34.5t196.5 -34.5t166.5 -108.5q74 -74 114.5 -176.5t40.5 -220.5q0 -124 -44 -232t-119 -180q-69 -65 -160 -98.5t-195 -33.5t-195 33.5t-159 98.5q-76 72 -120 180t-44 232zM585 184q51 0 89 22.5
t63 65.5q24 41 35.5 102t11.5 150q0 94 -13 153t-40 101q-27 41 -62.5 61.5t-83.5 20.5t-83.5 -20.5t-61.5 -61.5q-27 -42 -40 -101t-13 -153q0 -89 11.5 -150t35.5 -102q25 -43 63 -65.5t88 -22.5z" />
    <glyph glyph-name="afii10080" unicode="&#x43e;" horiz-adv-x="1171" 
d="M67 524q0 118 40.5 220.5t115.5 176.5q74 74 165.5 108.5t196.5 34.5t196.5 -34.5t166.5 -108.5q74 -74 114.5 -176.5t40.5 -220.5q0 -124 -44 -232t-119 -180q-69 -65 -160 -98.5t-195 -33.5t-195 33.5t-159 98.5q-76 72 -120 180t-44 232zM585 184q51 0 89 22.5
t63 65.5q24 41 35.5 102t11.5 150q0 94 -13 153t-40 101q-27 41 -62.5 61.5t-83.5 20.5t-83.5 -20.5t-61.5 -61.5q-27 -42 -40 -101t-13 -153q0 -89 11.5 -150t35.5 -102q25 -43 63 -65.5t88 -22.5z" />
    <glyph glyph-name="afii10081" unicode="&#xef;" horiz-adv-x="1196" 
d="M129 1044h940v-1044h-306v829h-329v-829h-305v1044z" />
    <glyph glyph-name="afii10081" unicode="&#x43f;" horiz-adv-x="1196" 
d="M129 1044h940v-1044h-306v829h-329v-829h-305v1044z" />
    <glyph glyph-name="afii10082" unicode="&#xf0;" horiz-adv-x="1193" 
d="M434 -335h-305v1379h282v-168q47 90 132.5 139t185.5 49q187 0 290 -146.5t103 -385.5q0 -249 -108.5 -400.5t-297.5 -151.5q-93 0 -164 38t-118 115v-468zM434 643v-226q0 -109 47.5 -171t130.5 -62q95 0 142.5 86t47.5 256q0 172 -49.5 253t-140.5 81q-81 0 -129.5 -61
t-48.5 -156z" />
    <glyph glyph-name="afii10082" unicode="&#x440;" horiz-adv-x="1193" 
d="M434 -335h-305v1379h282v-168q47 90 132.5 139t185.5 49q187 0 290 -146.5t103 -385.5q0 -249 -108.5 -400.5t-297.5 -151.5q-93 0 -164 38t-118 115v-468zM434 643v-226q0 -109 47.5 -171t130.5 -62q95 0 142.5 86t47.5 256q0 172 -49.5 253t-140.5 81q-81 0 -129.5 -61
t-48.5 -156z" />
    <glyph glyph-name="afii10083" unicode="&#xf1;" horiz-adv-x="1069" 
d="M1015 673l-274 -26q-2 39 -13 79.5t-28 65.5q-21 30 -55.5 49t-75.5 19q-43 0 -80 -22t-59 -60q-23 -38 -33 -102.5t-10 -153.5q0 -88 10 -151t35 -105q25 -44 58 -63t81 -19q47 0 75.5 16t51.5 51q20 31 31.5 70.5t13.5 79.5l274 -29q-10 -85 -48 -159.5t-95 -124.5
q-58 -52 -138 -80t-177 -28t-184.5 31t-153.5 95q-71 69 -112.5 176t-41.5 238q0 134 44 242.5t122 179.5q62 56 148.5 89t183.5 33q91 0 173 -27.5t140 -80.5q55 -51 91 -126.5t46 -156.5z" />
    <glyph glyph-name="afii10083" unicode="&#x441;" horiz-adv-x="1069" 
d="M1015 673l-274 -26q-2 39 -13 79.5t-28 65.5q-21 30 -55.5 49t-75.5 19q-43 0 -80 -22t-59 -60q-23 -38 -33 -102.5t-10 -153.5q0 -88 10 -151t35 -105q25 -44 58 -63t81 -19q47 0 75.5 16t51.5 51q20 31 31.5 70.5t13.5 79.5l274 -29q-10 -85 -48 -159.5t-95 -124.5
q-58 -52 -138 -80t-177 -28t-184.5 31t-153.5 95q-71 69 -112.5 176t-41.5 238q0 134 44 242.5t122 179.5q62 56 148.5 89t183.5 33q91 0 173 -27.5t140 -80.5q55 -51 91 -126.5t46 -156.5z" />
    <glyph glyph-name="afii10084" unicode="&#xf2;" horiz-adv-x="923" 
d="M10 1044h903v-215h-299v-829h-305v829h-299v215z" />
    <glyph glyph-name="afii10084" unicode="&#x442;" horiz-adv-x="923" 
d="M10 1044h903v-215h-299v-829h-305v829h-299v215z" />
    <glyph glyph-name="glyph190" unicode="&#xf3;" horiz-adv-x="1005" 
d="M997 1044l-406 -1121q-29 -81 -61 -128.5t-74 -82.5q-48 -40 -102 -58t-137 -18q-40 0 -86.5 4.5t-87.5 11.5v226q37 -7 78 -11t75 -4q42 0 69.5 7t45.5 20q19 15 35 43.5t22 54.5l6 26l-382 1030h335l211 -653l223 653h236z" />
    <glyph glyph-name="glyph190" unicode="&#x443;" horiz-adv-x="1005" 
d="M997 1044l-406 -1121q-29 -81 -61 -128.5t-74 -82.5q-48 -40 -102 -58t-137 -18q-40 0 -86.5 4.5t-87.5 11.5v226q37 -7 78 -11t75 -4q42 0 69.5 7t45.5 20q19 15 35 43.5t22 54.5l6 26l-382 1030h335l211 -653l223 653h236z" />
    <glyph glyph-name="afii10086" unicode="&#xf4;" horiz-adv-x="1570" 
d="M632 1404h305v-360h27q95 0 196 -31.5t171 -87.5q83 -66 127.5 -169t44.5 -232q0 -127 -44.5 -230.5t-115.5 -167.5q-74 -66 -181.5 -96.5t-224.5 -29.5v-335h-305v335q-117 -1 -224 29.5t-181 96.5q-71 64 -115.5 167.5t-44.5 230.5q0 129 44.5 232t127.5 169
q70 56 171 87.5t196 31.5h26v360zM653 204v635h-23q-49 0 -84 -12t-67 -37q-50 -38 -78.5 -106t-28.5 -160q0 -88 28.5 -160t80.5 -111q30 -22 69 -35.5t80 -13.5h23zM917 839v-635h23q41 0 80 13.5t69 35.5q52 39 80.5 111t28.5 160q0 92 -28.5 160t-78.5 106
q-32 25 -67 37t-84 12h-23z" />
    <glyph glyph-name="afii10086" unicode="&#x444;" horiz-adv-x="1570" 
d="M632 1404h305v-360h27q95 0 196 -31.5t171 -87.5q83 -66 127.5 -169t44.5 -232q0 -127 -44.5 -230.5t-115.5 -167.5q-74 -66 -181.5 -96.5t-224.5 -29.5v-335h-305v335q-117 -1 -224 29.5t-181 96.5q-71 64 -115.5 167.5t-44.5 230.5q0 129 44.5 232t127.5 169
q70 56 171 87.5t196 31.5h26v360zM653 204v635h-23q-49 0 -84 -12t-67 -37q-50 -38 -78.5 -106t-28.5 -160q0 -88 28.5 -160t80.5 -111q30 -22 69 -35.5t80 -13.5h23zM917 839v-635h23q41 0 80 13.5t69 35.5q52 39 80.5 111t28.5 160q0 92 -28.5 160t-78.5 106
q-32 25 -67 37t-84 12h-23z" />
    <glyph glyph-name="afii10087" unicode="&#xf5;" horiz-adv-x="1069" 
d="M565 749l178 295h264l-303 -473l365 -571h-353l-219 368l-231 -368h-266l362 548l-319 496h350z" />
    <glyph glyph-name="afii10087" unicode="&#x445;" horiz-adv-x="1069" 
d="M565 749l178 295h264l-303 -473l365 -571h-353l-219 368l-231 -368h-266l362 548l-319 496h350z" />
    <glyph glyph-name="afii10088" unicode="&#xf6;" horiz-adv-x="1275" 
d="M129 1044h305v-829h336v829h305v-829h123v-491h-277v276h-792v1044z" />
    <glyph glyph-name="afii10088" unicode="&#x446;" horiz-adv-x="1275" 
d="M129 1044h305v-829h336v829h305v-829h123v-491h-277v276h-792v1044z" />
    <glyph glyph-name="afii10089" unicode="&#xf7;" horiz-adv-x="1116" 
d="M81 1044h306v-268q0 -109 31 -143.5t120 -34.5q21 0 54 2.5t89 9.5v434h306v-1044h-306v411q-171 -17 -186 -17.5t-35 -0.5q-214 0 -296.5 77.5t-82.5 307.5v266z" />
    <glyph glyph-name="afii10089" unicode="&#x447;" horiz-adv-x="1116" 
d="M81 1044h306v-268q0 -109 31 -143.5t120 -34.5q21 0 54 2.5t89 9.5v434h306v-1044h-306v411q-171 -17 -186 -17.5t-35 -0.5q-214 0 -296.5 77.5t-82.5 307.5v266z" />
    <glyph glyph-name="afii10090" unicode="&#xf8;" horiz-adv-x="1697" 
d="M129 1044h305v-829h262v829h305v-829h262v829h305v-1044h-1439v1044z" />
    <glyph glyph-name="afii10090" unicode="&#x448;" horiz-adv-x="1697" 
d="M129 1044h305v-829h262v829h305v-829h262v829h305v-1044h-1439v1044z" />
    <glyph glyph-name="afii10091" unicode="&#xf9;" horiz-adv-x="1769" 
d="M129 1044h305v-829h262v829h305v-829h262v829h305v-829h123v-491h-276v276h-1286v1044z" />
    <glyph glyph-name="afii10091" unicode="&#x449;" horiz-adv-x="1769" 
d="M129 1044h305v-829h262v829h305v-829h262v829h305v-829h123v-491h-276v276h-1286v1044z" />
    <glyph glyph-name="afii10092" unicode="&#xfa;" horiz-adv-x="1288" 
d="M-20 1044h618v-383h253q90 0 159 -20t116 -62q44 -39 72 -103t28 -143q0 -81 -30.5 -147.5t-85.5 -110.5q-46 -35 -109.5 -55t-136.5 -20h-572v829h-312v215zM598 487v-283h139q41 0 70 8.5t51 26.5q23 19 36 49.5t13 67.5q0 32 -12.5 57.5t-38.5 44.5q-21 15 -46 22
t-69 7h-143z" />
    <glyph glyph-name="afii10092" unicode="&#x44a;" horiz-adv-x="1288" 
d="M-20 1044h618v-383h253q90 0 159 -20t116 -62q44 -39 72 -103t28 -143q0 -81 -30.5 -147.5t-85.5 -110.5q-46 -35 -109.5 -55t-136.5 -20h-572v829h-312v215zM598 487v-283h139q41 0 70 8.5t51 26.5q23 19 36 49.5t13 67.5q0 32 -12.5 57.5t-38.5 44.5q-21 15 -46 22
t-69 7h-143z" />
    <glyph glyph-name="afii10093" unicode="&#xfb;" horiz-adv-x="1589" 
d="M129 1044h305v-383h254q90 0 158.5 -20t115.5 -62q44 -39 72 -103t28 -143q0 -81 -30.5 -147.5t-85.5 -110.5q-46 -35 -109.5 -55t-136.5 -20h-571v1044zM434 487v-283h139q41 0 70 8.5t51 26.5q23 19 36 49.5t13 67.5q0 32 -12.5 57.5t-38.5 44.5q-21 15 -45.5 22
t-69.5 7h-143zM1155 1044h305v-1044h-305v1044z" />
    <glyph glyph-name="afii10093" unicode="&#x44b;" horiz-adv-x="1589" 
d="M129 1044h305v-383h254q90 0 158.5 -20t115.5 -62q44 -39 72 -103t28 -143q0 -81 -30.5 -147.5t-85.5 -110.5q-46 -35 -109.5 -55t-136.5 -20h-571v1044zM434 487v-283h139q41 0 70 8.5t51 26.5q23 19 36 49.5t13 67.5q0 32 -12.5 57.5t-38.5 44.5q-21 15 -45.5 22
t-69.5 7h-143zM1155 1044h305v-1044h-305v1044z" />
    <glyph glyph-name="afii10094" unicode="&#xfc;" horiz-adv-x="1124" 
d="M129 1044h305v-383h254q90 0 158.5 -20t115.5 -62q44 -39 72 -103t28 -143q0 -81 -30.5 -147.5t-85.5 -110.5q-46 -35 -109.5 -55t-136.5 -20h-571v1044zM434 487v-283h139q41 0 70 8.5t51 26.5q23 19 36 49.5t13 67.5q0 32 -12.5 57.5t-38.5 44.5q-21 15 -45.5 22
t-69.5 7h-143z" />
    <glyph glyph-name="afii10094" unicode="&#x44c;" horiz-adv-x="1124" 
d="M129 1044h305v-383h254q90 0 158.5 -20t115.5 -62q44 -39 72 -103t28 -143q0 -81 -30.5 -147.5t-85.5 -110.5q-46 -35 -109.5 -55t-136.5 -20h-571v1044zM434 487v-283h139q41 0 70 8.5t51 26.5q23 19 36 49.5t13 67.5q0 32 -12.5 57.5t-38.5 44.5q-21 15 -45.5 22
t-69.5 7h-143z" />
    <glyph glyph-name="afii10095" unicode="&#xfd;" horiz-adv-x="1120" 
d="M329 702l-270 39q22 70 64.5 128t99.5 99q63 46 145.5 71t186.5 25q108 0 196 -31.5t156 -99.5q72 -72 108.5 -175.5t36.5 -217.5q0 -110 -33 -217t-90 -178q-69 -87 -164 -126t-227 -39q-91 0 -165 16.5t-136 54.5q-71 43 -119 108.5t-67 147.5l276 37q8 -32 23.5 -59
t38.5 -48q30 -29 64.5 -41t82.5 -12q50 0 89 20t67 64q21 34 32 83.5t9 100.5h-316v174h316q1 44 -10.5 85.5t-30.5 70.5q-26 38 -64.5 58t-87.5 20q-40 0 -76.5 -13t-66.5 -39q-25 -21 -42.5 -48t-25.5 -58z" />
    <glyph glyph-name="afii10095" unicode="&#x44d;" horiz-adv-x="1120" 
d="M329 702l-270 39q22 70 64.5 128t99.5 99q63 46 145.5 71t186.5 25q108 0 196 -31.5t156 -99.5q72 -72 108.5 -175.5t36.5 -217.5q0 -110 -33 -217t-90 -178q-69 -87 -164 -126t-227 -39q-91 0 -165 16.5t-136 54.5q-71 43 -119 108.5t-67 147.5l276 37q8 -32 23.5 -59
t38.5 -48q30 -29 64.5 -41t82.5 -12q50 0 89 20t67 64q21 34 32 83.5t9 100.5h-316v174h316q1 44 -10.5 85.5t-30.5 70.5q-26 38 -64.5 58t-87.5 20q-40 0 -76.5 -13t-66.5 -39q-25 -21 -42.5 -48t-25.5 -58z" />
    <glyph glyph-name="afii10096" unicode="&#xfe;" horiz-adv-x="1658" 
d="M129 1044h305v-393h133q16 79 53.5 148.5t89.5 121.5q74 74 166 108.5t197 34.5t196.5 -34.5t165.5 -108.5q75 -74 115.5 -176.5t40.5 -220.5q0 -124 -44 -232t-120 -180q-70 -66 -161 -99t-193 -33q-106 0 -198 34t-161 98q-61 58 -104 142t-55 182h-121v-436h-305v1044
zM1073 184q50 0 88 22.5t63 65.5q24 41 35.5 102t11.5 150q0 94 -13 153t-40 101q-26 41 -61.5 61.5t-83.5 20.5q-49 0 -84 -20.5t-62 -61.5q-27 -42 -40 -101t-13 -153q0 -89 11.5 -150t35.5 -102q25 -43 63 -65.5t89 -22.5z" />
    <glyph glyph-name="afii10096" unicode="&#x44e;" horiz-adv-x="1658" 
d="M129 1044h305v-393h133q16 79 53.5 148.5t89.5 121.5q74 74 166 108.5t197 34.5t196.5 -34.5t165.5 -108.5q75 -74 115.5 -176.5t40.5 -220.5q0 -124 -44 -232t-120 -180q-70 -66 -161 -99t-193 -33q-106 0 -198 34t-161 98q-61 58 -104 142t-55 182h-121v-436h-305v1044
zM1073 184q50 0 88 22.5t63 65.5q24 41 35.5 102t11.5 150q0 94 -13 153t-40 101q-26 41 -61.5 61.5t-83.5 20.5q-49 0 -84 -20.5t-62 -61.5q-27 -42 -40 -101t-13 -153q0 -89 11.5 -150t35.5 -102q25 -43 63 -65.5t89 -22.5z" />
    <glyph glyph-name="afii10097" unicode="&#xff;" horiz-adv-x="1187" 
d="M1058 1044v-1044h-305v362h-151l-181 -362h-329l239 419q-44 14 -83 37t-64 49q-37 39 -55.5 93t-18.5 116q0 63 19.5 119.5t52.5 95.5q49 59 125.5 87t191.5 28h559zM753 839h-151q-38 0 -71.5 -8.5t-55.5 -26.5q-24 -18 -34.5 -43.5t-10.5 -62.5q0 -36 11.5 -64
t31.5 -45q18 -15 51 -23.5t90 -8.5h139v282z" />
    <glyph glyph-name="afii10097" unicode="&#x44f;" horiz-adv-x="1187" 
d="M1058 1044v-1044h-305v362h-151l-181 -362h-329l239 419q-44 14 -83 37t-64 49q-37 39 -55.5 93t-18.5 116q0 63 19.5 119.5t52.5 95.5q49 59 125.5 87t191.5 28h559zM753 839h-151q-38 0 -71.5 -8.5t-55.5 -26.5q-24 -18 -34.5 -43.5t-10.5 -62.5q0 -36 11.5 -64
t31.5 -45q18 -15 51 -23.5t90 -8.5h139v282z" />
    <glyph glyph-name="afii10059" unicode="&#x152;" horiz-adv-x="2095" 
d="M1259 1404v-557h295q125 0 220.5 -32t158.5 -101q46 -50 73 -121t27 -161q0 -103 -30.5 -183t-86.5 -135q-60 -60 -139 -87t-207 -27h-639v595h-460v-595h-328v1404h328v-550h460v550h328zM1259 602v-357h250q54 0 89.5 12t59.5 35t35.5 56.5t11.5 72.5q0 43 -11 74.5
t-36 54.5q-26 26 -63.5 39t-91.5 13h-244z" />
    <glyph glyph-name="afii10059" unicode="&#x40a;" horiz-adv-x="2095" 
d="M1259 1404v-557h295q125 0 220.5 -32t158.5 -101q46 -50 73 -121t27 -161q0 -103 -30.5 -183t-86.5 -135q-60 -60 -139 -87t-207 -27h-639v595h-460v-595h-328v1404h328v-550h460v550h328zM1259 602v-357h250q54 0 89.5 12t59.5 35t35.5 56.5t11.5 72.5q0 43 -11 74.5
t-36 54.5q-26 26 -63.5 39t-91.5 13h-244z" />
    <glyph glyph-name="afii10107" unicode="&#x153;" horiz-adv-x="1748" 
d="M1069 1044v-348h254q91 0 157 -23t117 -69q51 -48 75.5 -109t24.5 -145q0 -91 -28 -160t-88 -117q-46 -36 -105.5 -54.5t-140.5 -18.5h-572v438h-329v-438h-305v1044h305v-391h329v391h306zM1069 491v-287h139q41 0 70 8.5t51 26.5q23 20 36 50t13 67q0 33 -12.5 60
t-38.5 46q-21 15 -46 22t-69 7h-143z" />
    <glyph glyph-name="afii10107" unicode="&#x45a;" horiz-adv-x="1748" 
d="M1069 1044v-348h254q91 0 157 -23t117 -69q51 -48 75.5 -109t24.5 -145q0 -91 -28 -160t-88 -117q-46 -36 -105.5 -54.5t-140.5 -18.5h-572v438h-329v-438h-305v1044h305v-391h329v391h306zM1069 491v-287h139q41 0 70 8.5t51 26.5q23 20 36 50t13 67q0 33 -12.5 60
t-38.5 46q-21 15 -46 22t-69 7h-143z" />
    <glyph glyph-name="afii10058" unicode="&#x160;" horiz-adv-x="2095" 
d="M1259 847h295q125 0 220.5 -32t158.5 -101q46 -50 73 -121t27 -161q0 -103 -30.5 -183t-86.5 -135q-60 -60 -139 -87t-207 -27h-639v1146h-329l-2 -100q-4 -173 -18 -335.5t-36 -272.5q-24 -128 -64 -215.5t-91 -139.5q-50 -49 -111.5 -73t-136.5 -24q-27 0 -52 3.5
t-51 10.5v256q9 -3 18 -4t17 -1q59 0 105.5 41.5t75.5 122.5q18 53 33 143t24 197q5 66 8.5 164.5t9.5 386.5l2 98h926v-557zM1259 602v-357h250q54 0 89.5 12t59.5 35t35.5 56.5t11.5 72.5q0 43 -11 74.5t-36 54.5q-26 26 -63.5 39t-91.5 13h-244z" />
    <glyph glyph-name="afii10058" unicode="&#x409;" horiz-adv-x="2095" 
d="M1259 847h295q125 0 220.5 -32t158.5 -101q46 -50 73 -121t27 -161q0 -103 -30.5 -183t-86.5 -135q-60 -60 -139 -87t-207 -27h-639v1146h-329l-2 -100q-4 -173 -18 -335.5t-36 -272.5q-24 -128 -64 -215.5t-91 -139.5q-50 -49 -111.5 -73t-136.5 -24q-27 0 -52 3.5
t-51 10.5v256q9 -3 18 -4t17 -1q59 0 105.5 41.5t75.5 122.5q18 53 33 143t24 197q5 66 8.5 164.5t9.5 386.5l2 98h926v-557zM1259 602v-357h250q54 0 89.5 12t59.5 35t35.5 56.5t11.5 72.5q0 43 -11 74.5t-36 54.5q-26 26 -63.5 39t-91.5 13h-244z" />
    <glyph glyph-name="afii10106" unicode="&#x161;" horiz-adv-x="1699" 
d="M1019 696h254q91 0 157.5 -23t117.5 -69q51 -48 75.5 -109t24.5 -145q0 -91 -28 -160t-89 -117q-45 -36 -104.5 -54.5t-140.5 -18.5h-572v829h-215q-17 -399 -42 -515.5t-75 -184.5q-49 -68 -122 -102.5t-152 -34.5q-20 0 -39 2t-39 6v219q6 -1 12 -1t13 1
q48 2 81.5 24.5t55.5 61.5q25 44 38 127.5t21 251.5q6 124 7.5 170t1.5 112v78h759v-348zM1019 491v-287h140q41 0 70 8.5t51 26.5q23 20 36 50t13 67q0 33 -12.5 60t-39.5 46q-20 15 -45 22t-69 7h-144z" />
    <glyph glyph-name="afii10106" unicode="&#x459;" horiz-adv-x="1699" 
d="M1019 696h254q91 0 157.5 -23t117.5 -69q51 -48 75.5 -109t24.5 -145q0 -91 -28 -160t-89 -117q-45 -36 -104.5 -54.5t-140.5 -18.5h-572v829h-215q-17 -399 -42 -515.5t-75 -184.5q-49 -68 -122 -102.5t-152 -34.5q-20 0 -39 2t-39 6v219q6 -1 12 -1t13 1
q48 2 81.5 24.5t55.5 61.5q25 44 38 127.5t21 251.5q6 124 7.5 170t1.5 112v78h759v-348zM1019 491v-287h140q41 0 70 8.5t51 26.5q23 20 36 50t13 67q0 33 -12.5 60t-39.5 46q-20 15 -45 22t-69 7h-144z" />
    <glyph glyph-name="afii10193" unicode="&#x178;" horiz-adv-x="1204" 
d="M129 1044h305v-829h336v829h305v-1044h-334v-282h-279v282h-333v1044z" />
    <glyph glyph-name="afii10193" unicode="&#x45f;" horiz-adv-x="1204" 
d="M129 1044h305v-829h336v829h305v-1044h-334v-282h-279v282h-333v1044z" />
    <glyph glyph-name="afii10100" unicode="&#x192;" horiz-adv-x="917" 
d="M129 1044h768v-215h-463v-829h-305v1044zM653 1560l76 -172l-418 -192l-51 116z" />
    <glyph glyph-name="afii10100" unicode="&#x453;" horiz-adv-x="917" 
d="M129 1044h768v-215h-463v-829h-305v1044zM653 1560l76 -172l-418 -192l-51 116z" />
    <glyph glyph-name="Accent" unicode="&#x2c6;" horiz-adv-x="1028" 
d="M708 1560l76 -172l-418 -192l-51 116z" />
    <glyph glyph-name="accent" unicode="&#x2dc;" horiz-adv-x="1067" 
d="M788 1861l70 -178l-461 -156l-51 119z" />
    <glyph glyph-name="endash" unicode="&#x2013;" horiz-adv-x="1310" 
d="M1167 671v-246h-1024v246h1024z" />
    <glyph glyph-name="emdash" unicode="&#x2014;" horiz-adv-x="2129" 
d="M1986 671v-246h-1843v246h1843z" />
    <glyph glyph-name="quoteleft" unicode="&#x2018;" horiz-adv-x="546" 
d="M423 1400l-133 -264h119v-276h-287v254l174 286h127z" />
    <glyph glyph-name="quoteright" unicode="&#x2019;" horiz-adv-x="546" 
d="M423 1400v-254l-174 -286h-127l134 264h-119v276h286z" />
    <glyph glyph-name="quotesinglbase" unicode="&#x201a;" horiz-adv-x="546" 
d="M423 276v-254l-174 -286h-127l134 264h-119v276h286z" />
    <glyph glyph-name="quotedblleft" unicode="&#x201c;" horiz-adv-x="919" 
d="M796 1402l-133 -264h119v-276h-287v254l174 286h127zM423 1402l-135 -264h121v-276h-287v254l174 286h127z" />
    <glyph glyph-name="quotedblright" unicode="&#x201d;" horiz-adv-x="919" 
d="M423 1404v-254l-174 -286h-127l134 264h-119v276h286zM796 1404v-254l-174 -286h-127l135 264h-121v276h287z" />
    <glyph glyph-name="quotedblbase" unicode="&#x201e;" horiz-adv-x="919" 
d="M423 276v-254l-174 -286h-127l134 264h-119v276h286zM796 276v-254l-174 -286h-127l135 264h-121v276h287z" />
    <glyph glyph-name="dagger" unicode="&#x2020;" horiz-adv-x="1265" 
d="M698 -337h-131v108q0 261 -26 533t-68 461q27 24 50.5 51t43.5 56l-438 -68l26 133l-26 134l438 -80l-82 413l147 -22l148 22l-82 -413l438 80l-26 -134l26 -133l-438 68q19 -29 42.5 -56t51.5 -51q-42 -189 -68 -461t-26 -533v-108z" />
    <glyph glyph-name="daggerdbl" unicode="&#x2021;" horiz-adv-x="1257" 
d="M694 -337h-131l-4 71q-11 192 -35.5 396.5t-55.5 344.5q24 18 44.5 40.5t46.5 57.5l-435 -70l25 135l-25 134l435 -82l-47 118l47 115l-435 -69l25 135l-25 133l435 -82l-68 364l137 -28l137 28l-67 -364l434 82l-25 -133l25 -135l-434 69l47 -115l-47 -118l434 82
l-25 -134l25 -135l-434 70q26 -35 46 -57.5t44 -40.5q-31 -140 -55 -344.5t-35 -396.5z" />
    <glyph glyph-name="bullet" unicode="&#x2022;" horiz-adv-x="1392" 
d="M696 1050q143 0 245.5 -102.5t102.5 -245.5t-102.5 -245.5t-245.5 -102.5q-144 0 -246 102.5t-102 245.5t102 245.5t246 102.5z" />
    <glyph glyph-name="bullet" unicode="&#xf000;" horiz-adv-x="1392" 
d="M696 1050q143 0 245.5 -102.5t102.5 -245.5t-102.5 -245.5t-245.5 -102.5q-144 0 -246 102.5t-102 245.5t102 245.5t246 102.5z" />
    <glyph glyph-name="ellipsis" unicode="&#x2026;" horiz-adv-x="1935" 
d="M448 317v-317h-326v317h326zM1130 317v-317h-326v317h326zM1812 317v-317h-326v317h326z" />
    <glyph glyph-name="perthousand" unicode="&#x2030;" horiz-adv-x="2154" 
d="M1253 1404l-854 -1404h-176l854 1404h176zM61 1048q0 92 23 163t73 124q39 40 85.5 59t105.5 19q58 0 104.5 -19t85.5 -59q51 -53 73.5 -124t22.5 -163q0 -165 -77 -264.5t-209 -99.5q-59 0 -105.5 18.5t-85.5 58.5q-50 53 -73 124t-23 163zM239 1048q0 -126 28 -177.5
t81 -51.5q24 0 48 16.5t38 46.5q10 23 16 67.5t6 98.5t-6 98.5t-16 67.5q-14 31 -38 47t-48 16q-25 0 -49 -16t-37 -47q-11 -23 -17 -67.5t-6 -98.5zM839 356q0 92 23 163t73 124q39 40 85.5 58.5t105.5 18.5t105 -18.5t85 -58.5q51 -53 74 -124t23 -163q0 -165 -77 -264.5
t-210 -99.5q-59 0 -105.5 18.5t-85.5 58.5q-50 52 -73 123.5t-23 163.5zM1017 356q0 -126 28 -178t81 -52q25 0 48.5 16.5t37.5 47.5q10 23 16 67.5t6 98.5t-6 98.5t-16 67.5q-14 30 -37.5 46.5t-48.5 16.5t-48.5 -16.5t-37.5 -46.5q-10 -23 -16.5 -67.5t-6.5 -98.5z
M1519 356q0 92 23 163t73 124q39 40 85.5 58.5t105.5 18.5q58 0 104.5 -18.5t85.5 -58.5q51 -53 74 -124t23 -163q0 -165 -77 -264.5t-210 -99.5q-59 0 -105.5 18.5t-85.5 58.5q-50 52 -73 123.5t-23 163.5zM1697 356q0 -126 28 -178t81 -52q25 0 48.5 16.5t37.5 47.5
q10 23 16 67.5t6 98.5t-6 98.5t-16 67.5q-14 30 -37.5 46.5t-48.5 16.5t-48.5 -16.5t-37.5 -46.5q-10 -23 -16.5 -67.5t-6.5 -98.5z" />
    <glyph glyph-name="guilsinglleft" unicode="&#x2039;" horiz-adv-x="458" 
d="M264 526l108 -289h-125l-176 289l176 295h125z" />
    <glyph glyph-name="guilsinglright" unicode="&#x203a;" horiz-adv-x="458" 
d="M194 526l-108 295h124l177 -295l-177 -289h-124z" />
    <glyph glyph-name="trademark" unicode="&#x2122;" horiz-adv-x="1857" 
d="M679 1404v-172h-229v-645h-229v645h-229v172h687zM1165 587l-209 611v-611h-199v817h348l156 -464l164 464h346v-817h-229v621l-219 -621h-158z" />
    <glyph glyph-name="periodcentered" unicode="&#x2219;" horiz-adv-x="571" 
d="M448 749v-317h-326v317h326z" />
    <glyph glyph-name="fi" unicode="&#xf001;" horiz-adv-x="1224" 
d="M679 1415v-207l-18 2q-18 2 -32.5 3t-26.5 1q-29 0 -52 -8.5t-38 -24.5q-17 -17 -25 -44.5t-8 -59.5v-33h176v-215h-176v-829h-305v829h-146v215h146v29q0 102 30 173.5t88 114.5q41 30 102.5 47t149.5 17q37 0 70 -2.5t65 -7.5zM1091 1044v-1044h-305v1044h305z
M1095 1417v-240h-313v240h313z" />
    <glyph glyph-name="uniF002" unicode="&#xf002;" horiz-adv-x="1222" 
d="M679 1415v-207l-18 2q-18 2 -32.5 3t-26.5 1q-29 0 -52 -8.5t-38 -24.5q-17 -17 -25 -44.5t-8 -59.5v-33h176v-215h-176v-829h-305v829h-146v215h146v29q0 102 30 173.5t88 114.5q41 30 102.5 47t149.5 17q37 0 70 -2.5t65 -7.5zM1093 1404v-1404h-305v1404h305z" />
    <glyph glyph-name="sterling" horiz-adv-x="1257" 
d="M1132 1175l-233 -98q-31 51 -75 76.5t-93 25.5q-62 0 -103 -45.5t-41 -116.5q0 -12 3.5 -49t7.5 -57l12 -82h250v-195h-228l2 -82q3 -90 -36 -169.5t-115 -133.5h211q77 0 123 14t80 42q21 17 38.5 42.5t28.5 53.5l252 -70q-19 -73 -58 -132.5t-89 -100.5
q-58 -47 -134 -72.5t-180 -25.5h-741v249h33q77 0 121 11.5t75 33.5q43 31 63.5 79t20.5 104q0 27 -1.5 53t-6.5 59l-6 45h-197v195h164l-10 88q-1 10 -1.5 20.5t-0.5 38.5q0 138 42.5 222.5t127.5 144.5q54 39 125 60.5t155 21.5q144 0 252.5 -64t161.5 -186z" />
    <glyph glyph-name="NotEqual" horiz-adv-x="1300" 
d="M131 937h596l137 265h184l-137 -265h258v-237h-383l-107 -209h490v-238h-614l-144 -273h-182l143 273h-241v238h364l109 209h-473v237z" />
    <glyph glyph-name="glyph144" horiz-adv-x="1067" 
d="M788 1861l70 -178l-461 -156l-51 119z" />
    <glyph glyph-name="glyph147" horiz-adv-x="1028" 
d="M708 1560l76 -172l-418 -192l-51 116z" />
    <glyph glyph-name="infinity" horiz-adv-x="1441" 
d="M804 722q135 -125 154.5 -130t40.5 -5q71 0 115.5 43t44.5 109q0 54 -45.5 92.5t-114.5 38.5q-52 0 -105 -41.5t-90 -106.5zM636 729q-77 94 -113.5 117.5t-78.5 23.5q-64 0 -113 -40.5t-49 -109.5q0 -54 45.5 -93.5t114.5 -39.5q43 0 78.5 21t115.5 121zM727 548
q-66 -78 -152 -124t-184 -46q-155 0 -253 100.5t-98 256.5q0 157 99 250.5t235 93.5q101 0 189.5 -45t150.5 -123q61 76 150.5 122t187.5 46q155 0 251.5 -100.5t96.5 -249.5q0 -150 -99 -250.5t-253 -100.5q-79 0 -144.5 30t-176.5 140z" />
    <glyph glyph-name="lessequal" horiz-adv-x="1329" 
d="M505 757l688 -268v-254l-1026 412v221l1026 412v-254zM167 256v256l1026 -412v-255z" />
    <glyph glyph-name="greaterequal" horiz-adv-x="1329" 
d="M856 757l-689 269v254l1026 -412v-221l-1026 -412v254zM1193 256l-1026 -411v255l1026 412v-256z" />
    <glyph glyph-name="radical" horiz-adv-x="1429" 
d="M0 1024h530l246 -678l280 1362h373v-168h-221l-385 -1806h-176l-435 1128h-212v162z" />
    <glyph glyph-name="florin" horiz-adv-x="1228" 
d="M1136 1474l-35 -205q-13 2 -28.5 3t-55.5 1q-88 0 -143 -52.5t-63 -135.5h233l-39 -213h-221l-152 -819q-40 -220 -157 -306t-303 -86q-30 0 -71 4.5t-81 11.5l37 219q14 -2 29.5 -3t56.5 -1q103 0 138.5 49.5t57.5 168.5l144 762h-170l37 213h172l4 37
q19 173 128.5 269.5t297.5 96.5q39 0 89.5 -3.5t94.5 -10.5z" />
    <glyph glyph-name="approxequal" horiz-adv-x="1169" 
d="M233 626l-168 88q19 48 44.5 93.5t51.5 76.5q43 52 96 77.5t123 25.5q39 0 82.5 -10.5t137.5 -45.5l71 -26q29 -11 61 -18t54 -7q51 0 85.5 26.5t63.5 84.5l168 -88q-23 -47 -45.5 -83t-44.5 -61q-48 -55 -109.5 -81.5t-129.5 -26.5q-27 0 -54.5 5.5t-66.5 18.5l-88 31
q-108 38 -132.5 43.5t-43.5 5.5q-53 0 -88.5 -29t-67.5 -100zM233 200l-168 88q19 48 44.5 93.5t51.5 76.5q43 52 96 77.5t123 25.5q39 0 82.5 -10.5t137.5 -45.5l71 -26q29 -11 61 -18t54 -7q51 0 85.5 26.5t63.5 84.5l168 -88q-23 -46 -45.5 -82.5t-44.5 -61.5
q-48 -55 -109.5 -81.5t-129.5 -26.5q-27 0 -54.5 5.5t-66.5 18.5l-88 31q-108 38 -132.5 43.5t-43.5 5.5q-53 0 -88.5 -29t-67.5 -100z" />
    <glyph glyph-name="Delta" horiz-adv-x="1402" 
d="M528 1417h326l495 -1417h-1313zM653 1034l-262 -772h520z" />
    <glyph glyph-name="divide" horiz-adv-x="1314" 
d="M131 452v238h1052v-238h-1052zM792 301v-265h-270v265h270zM792 1105v-264h-270v264h270z" />
    <glyph glyph-name="glyph188" horiz-adv-x="1036" 
d="M126 1822h252q-2 -53 36.5 -82.5t103.5 -29.5q64 0 102.5 29.5t36.5 82.5h252q-8 -137 -115 -206.5t-276 -69.5q-170 0 -277 69.5t-115 206.5z" />
    <glyph glyph-name="glyph191" horiz-adv-x="1064" 
d="M698 1492h164q-7 -70 -41.5 -133.5t-85.5 -99.5q-41 -29 -91.5 -44t-111.5 -15t-111.5 15t-91.5 44q-51 36 -85.5 99.5t-41.5 133.5h164q1 -31 15.5 -60t37.5 -46q19 -14 47 -21.5t66 -7.5t66 7.5t47 21.5q23 17 37.5 46t15.5 60z" />
    </font>
</defs>
</svg>
